<?xml version="1.0" encoding="UTF-8" standalone="no"?>
<!-- Generator: Adobe Illustrator 17.0.0, SVG Export Plug-In . SVG Version: 6.00 Build 0)  -->

<svg
   xmlns:dc="http://purl.org/dc/elements/1.1/"
   xmlns:cc="http://creativecommons.org/ns#"
   xmlns:rdf="http://www.w3.org/1999/02/22-rdf-syntax-ns#"
   xmlns:svg="http://www.w3.org/2000/svg"
   xmlns="http://www.w3.org/2000/svg"
   xmlns:xlink="http://www.w3.org/1999/xlink"
   xmlns:sodipodi="http://sodipodi.sourceforge.net/DTD/sodipodi-0.dtd"
   xmlns:inkscape="http://www.inkscape.org/namespaces/inkscape"
   version="1.1"
   id="Orange"
   x="0px"
   y="0px"
   width="62.118px"
   height="62.118px"
   viewBox="0 0 62.118 62.118"
   enable-background="new 0 0 62.118 62.118"
   xml:space="preserve"
   inkscape:version="0.48.4 r9939"
   sodipodi:docname="beard2.svg"><metadata
     id="metadata7107"><rdf:RDF><cc:Work
         rdf:about=""><dc:format>image/svg+xml</dc:format><dc:type
           rdf:resource="http://purl.org/dc/dcmitype/StillImage" /><dc:title></dc:title></cc:Work></rdf:RDF></metadata><defs
     id="defs7105"><linearGradient
       id="linearGradient7823"><stop
         style="stop-color:#000000;stop-opacity:1;"
         offset="0"
         id="stop7825" /><stop
         style="stop-color:#000000;stop-opacity:0;"
         offset="1"
         id="stop7827" /></linearGradient><clipPath
       id="SVGID_4_"><use
         xlink:href="#SVGID_3_"
         overflow="visible"
         id="use5913"
         style="overflow:visible"
         x="0"
         y="0"
         width="124.234"
         height="124.246" /></clipPath><clipPath
       id="SVGID_2_"><use
         xlink:href="#SVGID_1_"
         overflow="visible"
         id="use5892"
         style="overflow:visible"
         x="0"
         y="0"
         width="124.234"
         height="124.246" /></clipPath><radialGradient
       inkscape:collect="always"
       xlink:href="#linearGradient7823"
       id="radialGradient7829"
       cx="-86.717369"
       cy="-16.199398"
       fx="-86.717369"
       fy="-16.199398"
       r="30.03125"
       gradientTransform="matrix(1.1214186,0.01567524,-0.01379153,1.0781398,128.10973,49.429232)"
       gradientUnits="userSpaceOnUse" /><defs
       id="defs5888"><path
         id="SVGID_1_"
         d="m 32.182,29.355 c 0.412,-0.629 1.001,-1.152 1.75,-1.246 0.879,-0.11 1.706,0.072 2.467,0.45 0.452,0.225 0.906,0.614 1.151,1.064 -0.226,0.218 -1.808,0.614 -2.211,0.709 -0.803,0.191 -1.671,0.115 -2.413,-0.168 -0.27,-0.104 -1.078,-0.44 -0.745,-0.785 l 0.001,-0.024 z"
         inkscape:connector-curvature="0" /></defs><clipPath
       id="clipPath6546"><use
         xlink:href="#SVGID_1_"
         overflow="visible"
         id="use6548"
         style="overflow:visible"
         x="0"
         y="0"
         width="124.234"
         height="124.246" /></clipPath></defs><sodipodi:namedview
     pagecolor="#ffffff"
     bordercolor="#666666"
     borderopacity="1"
     objecttolerance="10"
     gridtolerance="10"
     guidetolerance="10"
     inkscape:pageopacity="0"
     inkscape:pageshadow="2"
     inkscape:window-width="1855"
     inkscape:window-height="1056"
     id="namedview7103"
     showgrid="false"
     inkscape:zoom="7.5984417"
     inkscape:cx="61.408263"
     inkscape:cy="36.336123"
     inkscape:window-x="65"
     inkscape:window-y="24"
     inkscape:window-maximized="1"
     inkscape:current-layer="Orange" /><animate
     xlink:href="#Beard"
     attributeName="d"
     attributeType="XML"
     values=" M44.125,32.03c0.113,2.499,0.178,7.61-0.325,9.357c-0.563,1.955-3.646,4.855-3.875,3.487  c-0.153-0.913,0.375-4.125-0.659-5.296c-0.285-0.322-3.789-2.55-4.418-2.812c-0.786-0.33-1.266-0.157-2.065,0.049  c-0.512,0.132-0.978,0.19-1.443,0.192c-0.465-0.002-0.931-0.06-1.443-0.192c-0.798-0.206-1.278-0.379-2.065-0.049  c-0.629,0.262-4.133,2.489-4.418,2.812c-1.034,1.171-0.506,4.383-0.659,5.296c-0.229,1.368-3.313-1.531-3.875-3.487  c-0.503-1.747-0.438-6.858-0.325-9.357l-0.917-1.406c0.009,2.55,0.056,9.09,0.281,10.243c0.242,2.038,1.398,3.819,4.63,6.459  c2.332,1.59,5.294,3.807,8.742,3.805c3.37-0.002,6.508-2.215,8.84-3.805c3.231-2.64,4.388-4.421,4.63-6.459  c0.225-1.153,0.271-7.693,0.281-10.243L44.125,32.03z M38.354,46.802c-0.693,0.749-2.836,2.097-3.681,2.235  c-2.246,0.366-3.083-2.271-2.667-2.972c0.32-0.537,0.484-0.853,1.349-1.252c-0.023,0.001-0.976,0.001-1.965,0.001  c-0.033,0-0.066,0-0.099,0c-0.989,0-1.942,0-1.965-0.001c0.864,0.399,1.028,0.715,1.349,1.252c0.416,0.701-0.421,3.338-2.667,2.972  c-0.844-0.137-2.988-1.486-3.681-2.235c-0.839-0.908-0.533-5.066-0.468-5.68c0.092-0.84,3.169-2.507,3.709-2.749  c1.125-0.486,2.282,0.083,3.723,0.09v0.003c0.017,0,0.033-0.002,0.049-0.002c0.017,0,0.032,0.002,0.049,0.002v-0.003  c1.441-0.007,2.598-0.576,3.723-0.09c0.54,0.242,3.617,1.909,3.709,2.749C38.887,41.736,39.194,45.894,38.354,46.802z;  M44.125,32.03c0.113,2.499,0.178,2.61-0.325,4.357c-0.563,1.955-3.646,4.855-3.875,3.487  c-0.153-0.913,0.375,0.875-0.659-0.296c-0.285-0.322-3.789-2.55-4.418-2.812c-0.786-0.33-1.266-0.157-2.065,0.049  c-0.512,0.132-0.978,0.19-1.443,0.192c-0.465-0.002-0.931-0.06-1.443-0.192c-0.798-0.206-1.278-0.379-2.065-0.049  c-0.629,0.262-4.133,2.489-4.418,2.812c-1.034,1.171-0.506-0.617-0.659,0.296c-0.229,1.368-3.313-1.531-3.875-3.487  c-0.503-1.747-0.438-1.858-0.325-4.357l-0.917-1.406c0.009,2.55,0.056,9.09,0.281,10.243c0.242,2.038,1.398,11.819,4.63,14.459  c2.332,1.59,5.294,3.795,8.742,3.793c3.37-0.002,6.508-2.203,8.84-3.793c3.231-2.64,4.388-12.421,4.63-14.459  c0.225-1.153,0.271-7.693,0.281-10.243L44.125,32.03z M38.354,44.802c-0.693,0.749-2.836,2.097-3.681,2.235  c-2.246,0.366-3.083-0.271-2.667-0.972c0.32-0.537,0.484-0.853,1.349-1.252c-0.023,0.001-0.976,0.001-1.965,0.001  c-0.033,0-0.066,0-0.099,0c-0.989,0-1.942,0-1.965-0.001c0.864,0.399,1.028,0.715,1.349,1.252c0.416,0.701-0.421,1.338-2.667,0.972  c-0.844-0.137-2.988-1.486-3.681-2.235c-0.839-0.908-0.533-2.066-0.468-2.68c0.092-0.84,3.169-2.507,3.709-2.749  c1.125-0.486,2.282,0.083,3.723,0.09v0.003c0.017,0,0.033-0.002,0.049-0.002c0.017,0,0.032,0.002,0.049,0.002v-0.003  c1.441-0.007,2.598-0.576,3.723-0.09c0.54,0.242,3.617,1.909,3.709,2.749C38.887,42.736,39.194,43.894,38.354,44.802z"
     dur="10s"
     repeatCount="indefinite"
     id="animate7101" /><g
     id="g7854"><g
       id="g7850"><rect
         id="Background"
         x="0"
         y="0"
         width="62.118"
         height="62.118"
         rx="7.1999998"
         style="fill:#2196f3;fill-opacity:0.93333334"
         ry="7.1999998" /><path
         style="font-size:8px;font-style:normal;font-weight:normal;line-height:125%;letter-spacing:0px;word-spacing:0px;fill:url(#radialGradient7829);fill-opacity:1;stroke:none;font-family:Sans"
         d="m 14.609716,0.31734909 c -0.686056,7.22e-6 -1.210849,0.28858271 -1.574371,0.85715631 -0.360793,0.5657291 -0.524789,1.3885975 -0.524789,2.4686097 0,1.0771623 0.163996,1.9000308 0.524789,2.4686098 0.363522,0.5657238 0.888315,0.8571562 1.574371,0.8571562 0.686051,0 1.213571,-0.2914324 1.574369,-0.8571562 0.363523,-0.568579 0.557584,-1.3914475 0.557589,-2.4686098 -5e-6,-1.0800122 -0.194066,-1.9028806 -0.557589,-2.4686097 C 15.823287,0.6059318 15.295767,0.31735631 14.609716,0.31734909 z m 10.692596,0 c -0.686056,7.22e-6 -1.210846,0.28858271 -1.57437,0.85715631 -0.360794,0.5657291 -0.524791,1.3885975 -0.52479,2.4686097 -1e-6,1.0771623 0.163996,1.9000308 0.52479,2.4686098 0.363524,0.5657238 0.888314,0.8571562 1.57437,0.8571562 0.686051,0 1.213573,-0.2914324 1.574369,-0.8571562 0.363524,-0.568579 0.557585,-1.3914475 0.557591,-2.4686098 -6e-6,-1.0800122 -0.194067,-1.9028806 -0.557591,-2.4686097 C 26.515885,0.6059318 25.988363,0.31735631 25.302312,0.31734909 z m 16.038896,0 c -0.686057,7.22e-6 -1.210846,0.28858271 -1.574371,0.85715631 -0.360794,0.5657291 -0.524791,1.3885975 -0.52479,2.4686097 -10e-7,1.0771623 0.163996,1.9000308 0.52479,2.4686098 0.363525,0.5657238 0.888314,0.8571562 1.574371,0.8571562 0.68605,0 1.213572,-0.2914324 1.574369,-0.8571562 C 43.2791,5.5431459 43.473162,4.7202774 43.473167,3.6431151 43.473162,2.5631029 43.2791,1.7402345 42.915577,1.1745054 42.55478,0.6059318 42.027258,0.31735631 41.341208,0.31734909 z m 10.692597,0 c -0.686055,7.22e-6 -1.210846,0.28858271 -1.57437,0.85715631 -0.360795,0.5657291 -0.524792,1.3885975 -0.524791,2.4686097 -10e-7,1.0771623 0.163996,1.9000308 0.524791,2.4686098 0.363524,0.5657238 0.888315,0.8571562 1.57437,0.8571562 0.68605,0 1.213572,-0.2914324 1.574369,-0.8571562 0.363522,-0.568579 0.557585,-1.3914475 0.55759,-2.4686098 -5e-6,-1.0800122 -0.194068,-1.9028806 -0.55759,-2.4686097 C 53.247377,0.6059318 52.719855,0.31735631 52.033805,0.31734909 z m 5.346298,0 c -0.686055,7.22e-6 -1.210845,0.28858271 -1.57437,0.85715631 -0.360795,0.5657291 -0.524791,1.3885975 -0.52479,2.4686097 -10e-7,1.0771623 0.163995,1.9000308 0.52479,2.4686098 0.363525,0.5657238 0.888315,0.8571562 1.57437,0.8571562 0.686051,0 1.213572,-0.2914324 1.574369,-0.8571562 0.363523,-0.568579 0.557585,-1.3914475 0.55759,-2.4686098 -5e-6,-1.0800122 -0.194067,-1.9028806 -0.55759,-2.4686097 C 58.593675,0.6059318 58.066154,0.31735631 57.380103,0.31734909 z m -59.1044766,0.10285878 -1.4431729,0.30857645 0,0.78858328 1.4759721,-0.3085765 0,4.9029335 -1.3775736,0 0,0.7200122 3.54233259,0 0,-0.7200122 -1.3447745,0 0,-5.69151673 -0.85278369,0 z m 5.3462977,0 -1.4431721,0.30857645 0,0.78858328 1.4759722,-0.3085765 0,4.9029335 -1.3775746,0 0,0.7200122 3.5423334,0 0,-0.7200122 -1.3447743,0 0,-5.69151673 -0.8527846,0 z m 5.3462996,0 -1.443174,0.30857645 0,0.78858328 1.475973,-0.3085765 0,4.9029335 -1.377575,0 0,0.7200122 3.5423343,0 0,-0.7200122 -1.3447753,0 0,-5.69151673 -0.852783,0 z m 10.6925953,0 -1.443171,0.30857645 0,0.78858328 1.475971,-0.3085765 0,4.9029335 -1.377574,0 0,0.7200122 3.542333,0 0,-0.7200122 -1.344775,0 0,-5.69151673 -0.852784,0 z m 10.692597,0 -1.443173,0.30857645 0,0.78858328 1.475972,-0.3085765 0,4.9029335 -1.377573,0 0,0.7200122 3.542332,0 0,-0.7200122 -1.344774,0 0,-5.69151673 -0.852784,0 z m 5.346299,0 -1.443173,0.30857645 0,0.78858328 1.475972,-0.3085765 0,4.9029335 -1.377574,0 0,0.7200122 3.542333,0 0,-0.7200122 -1.344775,0 0,-5.69151673 -0.852783,0 z m 10.692596,0 -1.443172,0.30857645 0,0.78858328 1.475973,-0.3085765 0,4.9029335 -1.377575,0 0,0.7200122 3.542332,0 0,-0.7200122 -1.344774,0 0,-5.69151673 -0.852784,0 z M 14.609716,1.0030741 c 0.429121,5.5e-6 0.737983,0.2114377 0.951182,0.651439 0.215925,0.4371542 0.327989,1.1085922 0.327993,1.988602 -4e-6,0.8771591 -0.112068,1.5485981 -0.327993,1.988603 C 15.347699,6.0688677 15.038837,6.283158 14.609716,6.2831562 14.183321,6.283158 13.87446,6.0688677 13.658533,5.6317181 13.445332,5.1917132 13.33054,4.5202742 13.33054,3.6431151 c 0,-0.8800098 0.114792,-1.5514478 0.327993,-1.988602 0.215927,-0.4400013 0.524788,-0.6514335 0.951183,-0.651439 z m 10.692596,0 c 0.429123,5.5e-6 0.737983,0.2114377 0.951184,0.651439 0.215924,0.4371542 0.327987,1.1085922 0.327991,1.988602 -4e-6,0.8771591 -0.112067,1.5485981 -0.327991,1.988603 -0.213201,0.4371496 -0.522061,0.6514399 -0.951184,0.6514381 -0.426394,1.8e-6 -0.735254,-0.2142885 -0.951182,-0.6514381 -0.213197,-0.4400049 -0.327994,-1.1114439 -0.327994,-1.988603 0,-0.8800098 0.114797,-1.5514478 0.327994,-1.988602 0.215928,-0.4400013 0.524788,-0.6514335 0.951182,-0.651439 z m 16.038896,0 c 0.429122,5.5e-6 0.737983,0.2114377 0.951182,0.651439 0.215925,0.4371542 0.327989,1.1085922 0.327994,1.988602 -5e-6,0.8771591 -0.112069,1.5485981 -0.327994,1.988603 -0.213199,0.4371496 -0.52206,0.6514399 -0.951182,0.6514381 -0.426394,1.8e-6 -0.735255,-0.2142885 -0.951183,-0.6514381 -0.213196,-0.4400049 -0.327994,-1.1114439 -0.327993,-1.988603 -1e-6,-0.8800098 0.114797,-1.5514478 0.327993,-1.988602 0.215928,-0.4400013 0.524789,-0.6514335 0.951183,-0.651439 z m 10.692597,0 c 0.429121,5.5e-6 0.737982,0.2114377 0.951183,0.651439 0.215924,0.4371542 0.327988,1.1085922 0.327992,1.988602 -4e-6,0.8771591 -0.112068,1.5485981 -0.327992,1.988603 -0.213201,0.4371496 -0.522062,0.6514399 -0.951183,0.6514381 -0.426394,1.8e-6 -0.735254,-0.2142885 -0.951182,-0.6514381 -0.213198,-0.4400049 -0.327996,-1.1114439 -0.327995,-1.988603 -10e-7,-0.8800098 0.114797,-1.5514478 0.327995,-1.988602 0.215928,-0.4400013 0.524788,-0.6514335 0.951182,-0.651439 z m 5.346298,0 c 0.429121,5.5e-6 0.737983,0.2114377 0.951182,0.651439 0.215926,0.4371542 0.32799,1.1085922 0.327994,1.988602 -4e-6,0.8771591 -0.112068,1.5485981 -0.327994,1.988603 -0.213199,0.4371496 -0.522061,0.6514399 -0.951182,0.6514381 -0.426395,1.8e-6 -0.735254,-0.2142885 -0.951181,-0.6514381 -0.213198,-0.4400049 -0.327996,-1.1114439 -0.327995,-1.988603 -10e-7,-0.8800098 0.114797,-1.5514478 0.327995,-1.988602 0.215927,-0.4400013 0.524786,-0.6514335 0.951181,-0.651439 z M -1.4291799,11.288949 c -0.686058,7e-6 -1.2108478,0.288583 -1.5743697,0.857157 -0.360793,0.565727 -0.5247899,1.388597 -0.5247899,2.46861 0,1.07716 0.1639969,1.900031 0.5247899,2.468609 0.3635219,0.565723 0.8883117,0.857156 1.5743697,0.857156 0.68604769,0 1.21357769,-0.291433 1.57437069,-0.857156 0.3635219,-0.568578 0.5575892,-1.391449 0.5575892,-2.468609 0,-1.080013 -0.1940673,-1.902883 -0.5575892,-2.46861 -0.360793,-0.568574 -0.888323,-0.85715 -1.57437069,-0.857157 z m 5.3462986,0 c -0.686058,7e-6 -1.210848,0.288583 -1.5743698,0.857157 -0.360793,0.565727 -0.52479,1.388597 -0.52479,2.46861 0,1.07716 0.163997,1.900031 0.52479,2.468609 0.3635218,0.565723 0.8883118,0.857156 1.5743698,0.857156 0.6860476,0 1.2135775,-0.291433 1.5743706,-0.857156 0.3635217,-0.568578 0.557589,-1.391449 0.557589,-2.468609 0,-1.080013 -0.1940673,-1.902883 -0.557589,-2.46861 -0.3607931,-0.568574 -0.888323,-0.85715 -1.5743706,-0.857157 z m 10.6925973,0 c -0.686056,7e-6 -1.210849,0.288583 -1.574371,0.857157 -0.360793,0.565727 -0.524789,1.388597 -0.524789,2.46861 0,1.07716 0.163996,1.900031 0.524789,2.468609 0.363522,0.565723 0.888315,0.857156 1.574371,0.857156 0.686051,0 1.213571,-0.291433 1.574369,-0.857156 0.363523,-0.568578 0.557584,-1.391449 0.557589,-2.468609 -5e-6,-1.080013 -0.194066,-1.902883 -0.557589,-2.46861 -0.360798,-0.568574 -0.888318,-0.85715 -1.574369,-0.857157 z m 21.385193,0 c -0.686056,7e-6 -1.210845,0.288583 -1.57437,0.857157 -0.360794,0.565727 -0.524791,1.388597 -0.52479,2.46861 -1e-6,1.07716 0.163996,1.900031 0.52479,2.468609 0.363525,0.565723 0.888314,0.857156 1.57437,0.857156 0.686051,0 1.213573,-0.291433 1.57437,-0.857156 0.363522,-0.568578 0.557583,-1.391449 0.557591,-2.468609 -8e-6,-1.080013 -0.194069,-1.902883 -0.557591,-2.46861 -0.360797,-0.568574 -0.888319,-0.85715 -1.57437,-0.857157 z m 16.038896,0 c -0.686055,7e-6 -1.210846,0.288583 -1.57437,0.857157 -0.360795,0.565727 -0.524792,1.388597 -0.524791,2.46861 -10e-7,1.07716 0.163996,1.900031 0.524791,2.468609 0.363524,0.565723 0.888315,0.857156 1.57437,0.857156 0.68605,0 1.213572,-0.291433 1.574369,-0.857156 0.363522,-0.568578 0.557585,-1.391449 0.55759,-2.468609 -5e-6,-1.080013 -0.194068,-1.902883 -0.55759,-2.46861 -0.360797,-0.568574 -0.888319,-0.85715 -1.574369,-0.857157 z m -43.0655813,0.102862 -1.443174,0.308576 0,0.788584 1.475973,-0.308576 0,4.902933 -1.377575,0 0,0.720012 3.5423343,0 0,-0.720012 -1.3447753,0 0,-5.691517 -0.852783,0 z m 10.6925953,0 -1.443171,0.308576 0,0.788584 1.475971,-0.308576 0,4.902933 -1.377574,0 0,0.720012 3.542333,0 0,-0.720012 -1.344775,0 0,-5.691517 -0.852784,0 z m 5.346299,0 -1.443172,0.308576 0,0.788584 1.475971,-0.308576 0,4.902933 -1.377574,0 0,0.720012 3.542333,0 0,-0.720012 -1.344774,0 0,-5.691517 -0.852784,0 z m 5.346298,0 -1.443173,0.308576 0,0.788584 1.475972,-0.308576 0,4.902933 -1.377573,0 0,0.720012 3.542332,0 0,-0.720012 -1.344774,0 0,-5.691517 -0.852784,0 z m 10.692597,0 -1.443172,0.308576 0,0.788584 1.475972,-0.308576 0,4.902933 -1.377574,0 0,0.720012 3.542332,0 0,-0.720012 -1.344774,0 0,-5.691517 -0.852784,0 z m 5.346298,0 -1.443172,0.308576 0,0.788584 1.475973,-0.308576 0,4.902933 -1.377575,0 0,0.720012 3.542332,0 0,-0.720012 -1.344774,0 0,-5.691517 -0.852784,0 z m 10.692598,0 -1.443173,0.308576 0,0.788584 1.475971,-0.308576 0,4.902933 -1.377573,0 0,0.720012 3.542333,0 0,-0.720012 -1.344775,0 0,-5.691517 -0.852783,0 z m -58.5140889,0.582864 c 0.4291213,5e-6 0.73798129,0.211437 0.95118229,0.651438 0.2159297,0.437154 0.3279938,1.108592 0.3279938,1.988603 0,0.877157 -0.1120641,1.548597 -0.3279938,1.988602 -0.213201,0.43715 -0.52206099,0.651439 -0.95118229,0.651439 -0.4263914,0 -0.7352517,-0.214289 -0.9511813,-0.651439 -0.2132017,-0.440005 -0.3279938,-1.111445 -0.3279938,-1.988602 0,-0.880011 0.1147921,-1.551449 0.3279938,-1.988603 0.2159296,-0.440001 0.5247899,-0.651433 0.9511813,-0.651438 z m 5.3462986,0 c 0.4291211,5e-6 0.7379812,0.211437 0.951182,0.651438 0.2159299,0.437154 0.327994,1.108592 0.327994,1.988603 0,0.877157 -0.1120641,1.548597 -0.327994,1.988602 -0.2132008,0.43715 -0.5220609,0.651439 -0.951182,0.651439 -0.4263914,0 -0.7352517,-0.214289 -0.9511814,-0.651439 -0.2132017,-0.440005 -0.3279938,-1.111445 -0.3279938,-1.988602 0,-0.880011 0.1147921,-1.551449 0.3279938,-1.988603 0.2159297,-0.440001 0.52479,-0.651433 0.9511814,-0.651438 z m 10.6925973,0 c 0.429121,5e-6 0.737983,0.211437 0.951182,0.651438 0.215925,0.437154 0.327989,1.108592 0.327993,1.988603 -4e-6,0.877157 -0.112068,1.548597 -0.327993,1.988602 -0.213199,0.43715 -0.522061,0.651439 -0.951182,0.651439 -0.426395,0 -0.735256,-0.214289 -0.951183,-0.651439 -0.213201,-0.440005 -0.327993,-1.111445 -0.327993,-1.988602 0,-0.880011 0.114792,-1.551449 0.327993,-1.988603 0.215927,-0.440001 0.524788,-0.651433 0.951183,-0.651438 z m 21.385193,0 c 0.429123,5e-6 0.737983,0.211437 0.951182,0.651438 0.215926,0.437154 0.32799,1.108592 0.327994,1.988603 -4e-6,0.877157 -0.112068,1.548597 -0.327994,1.988602 -0.213199,0.43715 -0.522059,0.651439 -0.951182,0.651439 -0.426393,0 -0.735255,-0.214289 -0.951182,-0.651439 -0.213197,-0.440005 -0.327994,-1.111445 -0.327994,-1.988602 0,-0.880011 0.114797,-1.551449 0.327994,-1.988603 0.215927,-0.440001 0.524789,-0.651433 0.951182,-0.651438 z m 16.038896,0 c 0.429121,5e-6 0.737982,0.211437 0.951183,0.651438 0.215924,0.437154 0.327988,1.108592 0.327992,1.988603 -4e-6,0.877157 -0.112068,1.548597 -0.327992,1.988602 -0.213201,0.43715 -0.522062,0.651439 -0.951183,0.651439 -0.426394,0 -0.735254,-0.214289 -0.951182,-0.651439 -0.213198,-0.440005 -0.327996,-1.111445 -0.327995,-1.988602 -10e-7,-0.880011 0.114797,-1.551449 0.327995,-1.988603 0.215928,-0.440001 0.524788,-0.651433 0.951182,-0.651438 z M 3.9171187,22.260548 c -0.686058,7e-6 -1.210848,0.288583 -1.5743698,0.857156 -0.360793,0.56573 -0.52479,1.388598 -0.52479,2.46861 0,1.077163 0.163997,1.900031 0.52479,2.46861 0.3635218,0.565724 0.8883118,0.857157 1.5743698,0.857157 0.6860476,0 1.2135775,-0.291433 1.5743706,-0.857157 0.3635217,-0.568579 0.557589,-1.391447 0.557589,-2.46861 0,-1.080012 -0.1940673,-1.90288 -0.557589,-2.46861 -0.3607931,-0.568573 -0.888323,-0.857149 -1.5743706,-0.857156 z m 26.7314923,0 c -0.686057,7e-6 -1.210846,0.288583 -1.574371,0.857156 -0.360794,0.56573 -0.524791,1.388598 -0.52479,2.46861 -1e-6,1.077163 0.163996,1.900031 0.52479,2.46861 0.363525,0.565724 0.888314,0.857157 1.574371,0.857157 0.68605,0 1.213572,-0.291433 1.574369,-0.857157 0.363524,-0.568579 0.557583,-1.391447 0.557591,-2.46861 -8e-6,-1.080012 -0.194067,-1.90288 -0.557591,-2.46861 -0.360797,-0.568573 -0.888319,-0.857149 -1.574369,-0.857156 z m 16.038895,0 c -0.686055,7e-6 -1.210845,0.288583 -1.57437,0.857156 -0.360795,0.56573 -0.524792,1.388598 -0.524791,2.46861 -10e-7,1.077163 0.163996,1.900031 0.524791,2.46861 0.363525,0.565724 0.888315,0.857157 1.57437,0.857157 0.68605,0 1.213573,-0.291433 1.57437,-0.857157 0.363522,-0.568579 0.557585,-1.391447 0.55759,-2.46861 -5e-6,-1.080012 -0.194068,-1.90288 -0.55759,-2.46861 -0.360797,-0.568573 -0.88832,-0.857149 -1.57437,-0.857156 z m 10.692597,0 c -0.686055,7e-6 -1.210845,0.288583 -1.57437,0.857156 -0.360795,0.56573 -0.524791,1.388598 -0.52479,2.46861 -10e-7,1.077163 0.163995,1.900031 0.52479,2.46861 0.363525,0.565724 0.888315,0.857157 1.57437,0.857157 0.686051,0 1.213572,-0.291433 1.574369,-0.857157 0.363523,-0.568579 0.557585,-1.391447 0.55759,-2.46861 -5e-6,-1.080012 -0.194067,-1.90288 -0.55759,-2.46861 -0.360797,-0.568573 -0.888318,-0.857149 -1.574369,-0.857156 z m -59.1044766,0.102863 -1.4431729,0.308577 0,0.788583 1.4759721,-0.308575 0,4.902933 -1.3775736,0 0,0.720011 3.54233259,0 0,-0.720011 -1.3447745,0 0,-5.691518 -0.85278369,0 z m 10.6925973,0 -1.443174,0.308577 0,0.788583 1.475973,-0.308575 0,4.902933 -1.377575,0 0,0.720011 3.5423343,0 0,-0.720011 -1.3447753,0 0,-5.691518 -0.852783,0 z m 5.3462973,0 -1.443172,0.308577 0,0.788583 1.475972,-0.308575 0,4.902933 -1.377574,0 0,0.720011 3.542332,0 0,-0.720011 -1.344774,0 0,-5.691518 -0.852784,0 z m 5.346298,0 -1.443171,0.308577 0,0.788583 1.475971,-0.308575 0,4.902933 -1.377574,0 0,0.720011 3.542333,0 0,-0.720011 -1.344775,0 0,-5.691518 -0.852784,0 z m 5.346299,0 -1.443172,0.308577 0,0.788583 1.475971,-0.308575 0,4.902933 -1.377574,0 0,0.720011 3.542333,0 0,-0.720011 -1.344774,0 0,-5.691518 -0.852784,0 z m 10.692597,0 -1.443173,0.308577 0,0.788583 1.475972,-0.308575 0,4.902933 -1.377574,0 0,0.720011 3.542333,0 0,-0.720011 -1.344775,0 0,-5.691518 -0.852783,0 z m 5.346298,0 -1.443172,0.308577 0,0.788583 1.475972,-0.308575 0,4.902933 -1.377574,0 0,0.720011 3.542332,0 0,-0.720011 -1.344774,0 0,-5.691518 -0.852784,0 z m 10.692597,0 -1.443172,0.308577 0,0.788583 1.475971,-0.308575 0,4.902933 -1.377574,0 0,0.720011 3.542333,0 0,-0.720011 -1.344775,0 0,-5.691518 -0.852783,0 z M 3.9171187,22.946273 c 0.4291211,7e-6 0.7379812,0.211438 0.951182,0.651439 0.2159299,0.437155 0.327994,1.108591 0.327994,1.988602 0,0.877159 -0.1120641,1.548599 -0.327994,1.988603 -0.2132008,0.43715 -0.5220609,0.651439 -0.951182,0.651439 -0.4263914,0 -0.7352517,-0.214289 -0.9511814,-0.651439 -0.2132017,-0.440004 -0.3279938,-1.111444 -0.3279938,-1.988603 0,-0.880011 0.1147921,-1.551447 0.3279938,-1.988602 0.2159297,-0.440001 0.52479,-0.651432 0.9511814,-0.651439 z m 26.7314923,0 c 0.429122,7e-6 0.737983,0.211438 0.951183,0.651439 0.215925,0.437155 0.327988,1.108591 0.327991,1.988602 -3e-6,0.877159 -0.112066,1.548599 -0.327991,1.988603 -0.2132,0.43715 -0.522061,0.651439 -0.951183,0.651439 -0.426394,0 -0.735255,-0.214289 -0.951182,-0.651439 -0.213198,-0.440004 -0.327994,-1.111444 -0.327994,-1.988603 0,-0.880011 0.114796,-1.551447 0.327994,-1.988602 0.215927,-0.440001 0.524788,-0.651432 0.951182,-0.651439 z m 16.038895,0 c 0.429122,7e-6 0.737983,0.211438 0.951182,0.651439 0.215926,0.437155 0.327989,1.108591 0.327994,1.988602 -5e-6,0.877159 -0.112068,1.548599 -0.327994,1.988603 -0.213199,0.43715 -0.52206,0.651439 -0.951182,0.651439 -0.426393,0 -0.735255,-0.214289 -0.951182,-0.651439 -0.213197,-0.440004 -0.327995,-1.111444 -0.327994,-1.988603 -10e-7,-0.880011 0.114797,-1.551447 0.327994,-1.988602 0.215927,-0.440001 0.524789,-0.651432 0.951182,-0.651439 z m 10.692597,0 c 0.429121,7e-6 0.737983,0.211438 0.951182,0.651439 0.215926,0.437155 0.32799,1.108591 0.327994,1.988602 -4e-6,0.877159 -0.112068,1.548599 -0.327994,1.988603 -0.213199,0.43715 -0.522061,0.651439 -0.951182,0.651439 -0.426395,0 -0.735254,-0.214289 -0.951181,-0.651439 -0.213198,-0.440004 -0.327996,-1.111444 -0.327995,-1.988603 -10e-7,-0.880011 0.114797,-1.551447 0.327995,-1.988602 0.215927,-0.440001 0.524786,-0.651432 0.951181,-0.651439 z M 3.9171187,33.232148 c -0.686058,6e-6 -1.210848,0.288581 -1.5743698,0.857155 -0.360793,0.565729 -0.52479,1.388597 -0.52479,2.46861 0,1.077162 0.163997,1.90003 0.52479,2.468609 0.3635218,0.565725 0.8883118,0.857157 1.5743698,0.857157 0.6860476,0 1.2135775,-0.291432 1.5743706,-0.857157 0.3635217,-0.568579 0.557589,-1.391447 0.557589,-2.468609 0,-1.080013 -0.1940673,-1.902881 -0.557589,-2.46861 -0.3607931,-0.568574 -0.888323,-0.857149 -1.5743706,-0.857155 z m 10.6925973,0 c -0.686056,6e-6 -1.210849,0.288581 -1.574371,0.857155 -0.360793,0.565729 -0.524789,1.388597 -0.524789,2.46861 0,1.077162 0.163996,1.90003 0.524789,2.468609 0.363522,0.565725 0.888315,0.857157 1.574371,0.857157 0.686051,0 1.213571,-0.291432 1.574369,-0.857157 0.363523,-0.568579 0.557584,-1.391447 0.557589,-2.468609 -5e-6,-1.080013 -0.194066,-1.902881 -0.557589,-2.46861 -0.360798,-0.568574 -0.888318,-0.857149 -1.574369,-0.857155 z m 16.038895,0 c -0.686057,6e-6 -1.210846,0.288581 -1.574371,0.857155 -0.360794,0.565729 -0.524791,1.388597 -0.52479,2.46861 -1e-6,1.077162 0.163996,1.90003 0.52479,2.468609 0.363525,0.565725 0.888314,0.857157 1.574371,0.857157 0.68605,0 1.213572,-0.291432 1.574369,-0.857157 0.363524,-0.568579 0.557583,-1.391447 0.557591,-2.468609 -8e-6,-1.080013 -0.194067,-1.902881 -0.557591,-2.46861 -0.360797,-0.568574 -0.888319,-0.857149 -1.574369,-0.857155 z m 16.038895,0 c -0.686055,6e-6 -1.210845,0.288581 -1.57437,0.857155 -0.360795,0.565729 -0.524792,1.388597 -0.524791,2.46861 -10e-7,1.077162 0.163996,1.90003 0.524791,2.468609 0.363525,0.565725 0.888315,0.857157 1.57437,0.857157 0.68605,0 1.213573,-0.291432 1.57437,-0.857157 0.363522,-0.568579 0.557585,-1.391447 0.55759,-2.468609 -5e-6,-1.080013 -0.194068,-1.902881 -0.55759,-2.46861 -0.360797,-0.568574 -0.88832,-0.857149 -1.57437,-0.857155 z m 10.692597,0 c -0.686055,6e-6 -1.210845,0.288581 -1.57437,0.857155 -0.360795,0.565729 -0.524791,1.388597 -0.52479,2.46861 -10e-7,1.077162 0.163995,1.90003 0.52479,2.468609 0.363525,0.565725 0.888315,0.857157 1.57437,0.857157 0.686051,0 1.213572,-0.291432 1.574369,-0.857157 0.363523,-0.568579 0.557585,-1.391447 0.55759,-2.468609 -5e-6,-1.080013 -0.194067,-1.902881 -0.55759,-2.46861 -0.360797,-0.568574 -0.888318,-0.857149 -1.574369,-0.857155 z m -59.1044766,0.102862 -1.4431729,0.308575 0,0.788585 1.4759721,-0.308577 0,4.902933 -1.3775736,0 0,0.720012 3.54233259,0 0,-0.720012 -1.3447745,0 0,-5.691516 -0.85278369,0 z m 10.6925973,0 -1.443174,0.308575 0,0.788585 1.475973,-0.308577 0,4.902933 -1.377575,0 0,0.720012 3.5423343,0 0,-0.720012 -1.3447753,0 0,-5.691516 -0.852783,0 z m 10.6925953,0 -1.443171,0.308575 0,0.788585 1.475971,-0.308577 0,4.902933 -1.377574,0 0,0.720012 3.542333,0 0,-0.720012 -1.344775,0 0,-5.691516 -0.852784,0 z m 5.346299,0 -1.443172,0.308575 0,0.788585 1.475971,-0.308577 0,4.902933 -1.377574,0 0,0.720012 3.542333,0 0,-0.720012 -1.344774,0 0,-5.691516 -0.852784,0 z m 10.692597,0 -1.443173,0.308575 0,0.788585 1.475972,-0.308577 0,4.902933 -1.377574,0 0,0.720012 3.542333,0 0,-0.720012 -1.344775,0 0,-5.691516 -0.852783,0 z m 5.346298,0 -1.443172,0.308575 0,0.788585 1.475972,-0.308577 0,4.902933 -1.377574,0 0,0.720012 3.542332,0 0,-0.720012 -1.344774,0 0,-5.691516 -0.852784,0 z m 10.692597,0 -1.443172,0.308575 0,0.788585 1.475971,-0.308577 0,4.902933 -1.377574,0 0,0.720012 3.542333,0 0,-0.720012 -1.344775,0 0,-5.691516 -0.852783,0 z M 3.9171187,33.917871 c 0.4291211,6e-6 0.7379812,0.211438 0.951182,0.65144 0.2159299,0.437154 0.327994,1.108592 0.327994,1.988602 0,0.877159 -0.1120641,1.548597 -0.327994,1.988602 -0.2132008,0.437153 -0.5220609,0.651441 -0.951182,0.651439 -0.4263914,2e-6 -0.7352517,-0.214286 -0.9511814,-0.651439 -0.2132017,-0.440005 -0.3279938,-1.111443 -0.3279938,-1.988602 0,-0.88001 0.1147921,-1.551448 0.3279938,-1.988602 0.2159297,-0.440002 0.52479,-0.651434 0.9511814,-0.65144 z m 10.6925973,0 c 0.429121,6e-6 0.737983,0.211438 0.951182,0.65144 0.215925,0.437154 0.327989,1.108592 0.327993,1.988602 -4e-6,0.877159 -0.112068,1.548597 -0.327993,1.988602 -0.213199,0.437153 -0.522061,0.651441 -0.951182,0.651439 -0.426395,2e-6 -0.735256,-0.214286 -0.951183,-0.651439 -0.213201,-0.440005 -0.327993,-1.111443 -0.327993,-1.988602 0,-0.88001 0.114792,-1.551448 0.327993,-1.988602 0.215927,-0.440002 0.524788,-0.651434 0.951183,-0.65144 z m 16.038895,0 c 0.429122,6e-6 0.737983,0.211438 0.951183,0.65144 0.215925,0.437154 0.327988,1.108592 0.327991,1.988602 -3e-6,0.877159 -0.112066,1.548597 -0.327991,1.988602 -0.2132,0.437153 -0.522061,0.651441 -0.951183,0.651439 -0.426394,2e-6 -0.735255,-0.214286 -0.951182,-0.651439 -0.213198,-0.440005 -0.327994,-1.111443 -0.327994,-1.988602 0,-0.88001 0.114796,-1.551448 0.327994,-1.988602 0.215927,-0.440002 0.524788,-0.651434 0.951182,-0.65144 z m 16.038895,0 c 0.429122,6e-6 0.737983,0.211438 0.951182,0.65144 0.215926,0.437154 0.327989,1.108592 0.327994,1.988602 -5e-6,0.877159 -0.112068,1.548597 -0.327994,1.988602 -0.213199,0.437153 -0.52206,0.651441 -0.951182,0.651439 -0.426393,2e-6 -0.735255,-0.214286 -0.951182,-0.651439 -0.213197,-0.440005 -0.327995,-1.111443 -0.327994,-1.988602 -10e-7,-0.88001 0.114797,-1.551448 0.327994,-1.988602 0.215927,-0.440002 0.524789,-0.651434 0.951182,-0.65144 z m 10.692597,0 c 0.429121,6e-6 0.737983,0.211438 0.951182,0.65144 0.215926,0.437154 0.32799,1.108592 0.327994,1.988602 -4e-6,0.877159 -0.112068,1.548597 -0.327994,1.988602 -0.213199,0.437153 -0.522061,0.651441 -0.951182,0.651439 -0.426395,2e-6 -0.735254,-0.214286 -0.951181,-0.651439 -0.213198,-0.440005 -0.327996,-1.111443 -0.327995,-1.988602 -10e-7,-0.88001 0.114797,-1.551448 0.327995,-1.988602 0.215927,-0.440002 0.524786,-0.651434 0.951181,-0.65144 z M -1.4291799,44.203746 c -0.686058,7e-6 -1.2108478,0.288583 -1.5743697,0.857157 -0.360793,0.565727 -0.5247899,1.388597 -0.5247899,2.468609 0,1.077163 0.1639969,1.900031 0.5247899,2.46861 0.3635219,0.565724 0.8883117,0.857155 1.5743697,0.857155 0.68604769,0 1.21357769,-0.291431 1.57437069,-0.857155 0.3635219,-0.568579 0.5575892,-1.391447 0.5575892,-2.46861 0,-1.080012 -0.1940673,-1.902882 -0.5575892,-2.468609 -0.360793,-0.568574 -0.888323,-0.85715 -1.57437069,-0.857157 z m 16.0388959,0 c -0.686056,7e-6 -1.210849,0.288583 -1.574371,0.857157 -0.360793,0.565727 -0.524789,1.388597 -0.524789,2.468609 0,1.077163 0.163996,1.900031 0.524789,2.46861 0.363522,0.565724 0.888315,0.857155 1.574371,0.857155 0.686051,0 1.213571,-0.291431 1.574369,-0.857155 0.363523,-0.568579 0.557584,-1.391447 0.557589,-2.46861 -5e-6,-1.080012 -0.194066,-1.902882 -0.557589,-2.468609 -0.360798,-0.568574 -0.888318,-0.85715 -1.574369,-0.857157 z m 5.346298,0 c -0.686056,7e-6 -1.210845,0.288583 -1.574371,0.857157 -0.360793,0.565727 -0.52479,1.388597 -0.524789,2.468609 -10e-7,1.077163 0.163996,1.900031 0.524789,2.46861 0.363526,0.565724 0.888315,0.857155 1.574371,0.857155 0.68605,0 1.213573,-0.291431 1.57437,-0.857155 0.363522,-0.568579 0.557584,-1.391447 0.55759,-2.46861 -6e-6,-1.080012 -0.194068,-1.902882 -0.55759,-2.468609 -0.360797,-0.568574 -0.88832,-0.85715 -1.57437,-0.857157 z m 5.346298,0 c -0.686056,7e-6 -1.210846,0.288583 -1.57437,0.857157 -0.360794,0.565727 -0.524791,1.388597 -0.52479,2.468609 -1e-6,1.077163 0.163996,1.900031 0.52479,2.46861 0.363524,0.565724 0.888314,0.857155 1.57437,0.857155 0.686051,0 1.213573,-0.291431 1.574369,-0.857155 0.363524,-0.568579 0.557585,-1.391447 0.557591,-2.46861 -6e-6,-1.080012 -0.194067,-1.902882 -0.557591,-2.468609 -0.360796,-0.568574 -0.888318,-0.85715 -1.574369,-0.857157 z m 5.346299,0 c -0.686057,7e-6 -1.210846,0.288583 -1.574371,0.857157 -0.360794,0.565727 -0.524791,1.388597 -0.52479,2.468609 -1e-6,1.077163 0.163996,1.900031 0.52479,2.46861 0.363525,0.565724 0.888314,0.857155 1.574371,0.857155 0.68605,0 1.213572,-0.291431 1.574369,-0.857155 0.363524,-0.568579 0.557583,-1.391447 0.557591,-2.46861 -8e-6,-1.080012 -0.194067,-1.902882 -0.557591,-2.468609 -0.360797,-0.568574 -0.888319,-0.85715 -1.574369,-0.857157 z m 16.038895,0 c -0.686055,7e-6 -1.210845,0.288583 -1.57437,0.857157 -0.360795,0.565727 -0.524792,1.388597 -0.524791,2.468609 -10e-7,1.077163 0.163996,1.900031 0.524791,2.46861 0.363525,0.565724 0.888315,0.857155 1.57437,0.857155 0.68605,0 1.213573,-0.291431 1.57437,-0.857155 0.363522,-0.568579 0.557585,-1.391447 0.55759,-2.46861 -5e-6,-1.080012 -0.194068,-1.902882 -0.55759,-2.468609 -0.360797,-0.568574 -0.88832,-0.85715 -1.57437,-0.857157 z m -43.0655819,0.102862 -1.4431721,0.308576 0,0.788584 1.4759722,-0.308577 0,4.902934 -1.3775746,0 0,0.720012 3.5423334,0 0,-0.720012 -1.3447743,0 0,-5.691517 -0.8527846,0 z m 5.3462996,0 -1.443174,0.308576 0,0.788584 1.475973,-0.308577 0,4.902934 -1.377575,0 0,0.720012 3.5423343,0 0,-0.720012 -1.3447753,0 0,-5.691517 -0.852783,0 z m 26.7314913,0 -1.443173,0.308576 0,0.788584 1.475972,-0.308577 0,4.902934 -1.377574,0 0,0.720012 3.542333,0 0,-0.720012 -1.344775,0 0,-5.691517 -0.852783,0 z m 5.346298,0 -1.443172,0.308576 0,0.788584 1.475972,-0.308577 0,4.902934 -1.377574,0 0,0.720012 3.542332,0 0,-0.720012 -1.344774,0 0,-5.691517 -0.852784,0 z m 10.692597,0 -1.443172,0.308576 0,0.788584 1.475971,-0.308577 0,4.902934 -1.377574,0 0,0.720012 3.542333,0 0,-0.720012 -1.344775,0 0,-5.691517 -0.852783,0 z m 5.346299,0 -1.443173,0.308576 0,0.788584 1.475971,-0.308577 0,4.902934 -1.377573,0 0,0.720012 3.542333,0 0,-0.720012 -1.344775,0 0,-5.691517 -0.852783,0 z m -58.5140889,0.582863 c 0.4291213,6e-6 0.73798129,0.211437 0.95118229,0.651439 0.2159297,0.437154 0.3279938,1.108594 0.3279938,1.988602 0,0.877159 -0.1120641,1.548598 -0.3279938,1.988603 -0.213201,0.43715 -0.52206099,0.651439 -0.95118229,0.651438 -0.4263914,10e-7 -0.7352517,-0.214288 -0.9511813,-0.651438 -0.2132017,-0.440005 -0.3279938,-1.111444 -0.3279938,-1.988603 0,-0.880008 0.1147921,-1.551448 0.3279938,-1.988602 0.2159296,-0.440002 0.5247899,-0.651433 0.9511813,-0.651439 z m 16.0388959,0 c 0.429121,6e-6 0.737983,0.211437 0.951182,0.651439 0.215925,0.437154 0.327989,1.108594 0.327993,1.988602 -4e-6,0.877159 -0.112068,1.548598 -0.327993,1.988603 -0.213199,0.43715 -0.522061,0.651439 -0.951182,0.651438 -0.426395,10e-7 -0.735256,-0.214288 -0.951183,-0.651438 -0.213201,-0.440005 -0.327993,-1.111444 -0.327993,-1.988603 0,-0.880008 0.114792,-1.551448 0.327993,-1.988602 0.215927,-0.440002 0.524788,-0.651433 0.951183,-0.651439 z m 5.346298,0 c 0.429123,6e-6 0.737983,0.211437 0.951182,0.651439 0.215926,0.437154 0.327989,1.108594 0.327993,1.988602 -4e-6,0.877159 -0.112067,1.548598 -0.327993,1.988603 -0.213199,0.43715 -0.522059,0.651439 -0.951182,0.651438 -0.426394,10e-7 -0.735255,-0.214288 -0.951182,-0.651438 -0.213197,-0.440005 -0.327995,-1.111444 -0.327994,-1.988603 -1e-6,-0.880008 0.114797,-1.551448 0.327994,-1.988602 0.215927,-0.440002 0.524788,-0.651433 0.951182,-0.651439 z m 5.346298,0 c 0.429123,6e-6 0.737983,0.211437 0.951184,0.651439 0.215924,0.437154 0.327987,1.108594 0.327991,1.988602 -4e-6,0.877159 -0.112067,1.548598 -0.327991,1.988603 -0.213201,0.43715 -0.522061,0.651439 -0.951184,0.651438 -0.426394,10e-7 -0.735254,-0.214288 -0.951182,-0.651438 -0.213197,-0.440005 -0.327994,-1.111444 -0.327994,-1.988603 0,-0.880008 0.114797,-1.551448 0.327994,-1.988602 0.215928,-0.440002 0.524788,-0.651433 0.951182,-0.651439 z m 5.346299,0 c 0.429122,6e-6 0.737983,0.211437 0.951183,0.651439 0.215925,0.437154 0.327988,1.108594 0.327991,1.988602 -3e-6,0.877159 -0.112066,1.548598 -0.327991,1.988603 -0.2132,0.43715 -0.522061,0.651439 -0.951183,0.651438 -0.426394,10e-7 -0.735255,-0.214288 -0.951182,-0.651438 -0.213198,-0.440005 -0.327994,-1.111444 -0.327994,-1.988603 0,-0.880008 0.114796,-1.551448 0.327994,-1.988602 0.215927,-0.440002 0.524788,-0.651433 0.951182,-0.651439 z m 16.038895,0 c 0.429122,6e-6 0.737983,0.211437 0.951182,0.651439 0.215926,0.437154 0.327989,1.108594 0.327994,1.988602 -5e-6,0.877159 -0.112068,1.548598 -0.327994,1.988603 -0.213199,0.43715 -0.52206,0.651439 -0.951182,0.651438 -0.426393,10e-7 -0.735255,-0.214288 -0.951182,-0.651438 -0.213197,-0.440005 -0.327995,-1.111444 -0.327994,-1.988603 -10e-7,-0.880008 0.114797,-1.551448 0.327994,-1.988602 0.215927,-0.440002 0.524789,-0.651433 0.951182,-0.651439 z M -1.4291799,55.175345 c -0.686058,6e-6 -1.2108478,0.288583 -1.5743697,0.857157 -0.360793,0.565728 -0.5247899,1.388596 -0.5247899,2.468609 0,1.077161 0.1639969,1.90003 0.5247899,2.468611 0.3635219,0.565723 0.8883117,0.857155 1.5743697,0.857155 0.68604769,0 1.21357769,-0.291432 1.57437069,-0.857155 0.3635219,-0.568581 0.5575892,-1.39145 0.5575892,-2.468611 0,-1.080013 -0.1940673,-1.902881 -0.5575892,-2.468609 -0.360793,-0.568574 -0.888323,-0.857151 -1.57437069,-0.857157 z m 32.0777909,0 c -0.686057,6e-6 -1.210846,0.288583 -1.574371,0.857157 -0.360794,0.565728 -0.524791,1.388596 -0.52479,2.468609 -1e-6,1.077161 0.163996,1.90003 0.52479,2.468611 0.363525,0.565723 0.888314,0.857155 1.574371,0.857155 0.68605,0 1.213572,-0.291432 1.574369,-0.857155 0.363524,-0.568581 0.557583,-1.39145 0.557591,-2.468611 -8e-6,-1.080013 -0.194067,-1.902881 -0.557591,-2.468609 -0.360797,-0.568574 -0.888319,-0.857151 -1.574369,-0.857157 z m 10.692597,0 c -0.686057,6e-6 -1.210846,0.288583 -1.574371,0.857157 -0.360794,0.565728 -0.524791,1.388596 -0.52479,2.468609 -10e-7,1.077161 0.163996,1.90003 0.52479,2.468611 0.363525,0.565723 0.888314,0.857155 1.574371,0.857155 0.68605,0 1.213572,-0.291432 1.574369,-0.857155 0.363523,-0.568581 0.557585,-1.39145 0.55759,-2.468611 -5e-6,-1.080013 -0.194067,-1.902881 -0.55759,-2.468609 -0.360797,-0.568574 -0.888319,-0.857151 -1.574369,-0.857157 z m 10.692597,0 c -0.686055,6e-6 -1.210846,0.288583 -1.57437,0.857157 -0.360795,0.565728 -0.524792,1.388596 -0.524791,2.468609 -10e-7,1.077161 0.163996,1.90003 0.524791,2.468611 0.363524,0.565723 0.888315,0.857155 1.57437,0.857155 0.68605,0 1.213572,-0.291432 1.574369,-0.857155 0.363522,-0.568581 0.557585,-1.39145 0.55759,-2.468611 -5e-6,-1.080013 -0.194068,-1.902881 -0.55759,-2.468609 -0.360797,-0.568574 -0.888319,-0.857151 -1.574369,-0.857157 z m 5.346298,0 c -0.686055,6e-6 -1.210845,0.288583 -1.57437,0.857157 -0.360795,0.565728 -0.524791,1.388596 -0.52479,2.468609 -10e-7,1.077161 0.163995,1.90003 0.52479,2.468611 0.363525,0.565723 0.888315,0.857155 1.57437,0.857155 0.686051,0 1.213572,-0.291432 1.574369,-0.857155 0.363523,-0.568581 0.557585,-1.39145 0.55759,-2.468611 -5e-6,-1.080013 -0.194067,-1.902881 -0.55759,-2.468609 -0.360797,-0.568574 -0.888318,-0.857151 -1.574369,-0.857157 z m -53.7581789,0.102863 -1.4431721,0.308577 0,0.788583 1.4759722,-0.308576 0,4.902934 -1.3775746,0 0,0.720011 3.5423334,0 0,-0.720011 -1.3447743,0 0,-5.691518 -0.8527846,0 z m 5.3462996,0 -1.443174,0.308577 0,0.788583 1.475973,-0.308576 0,4.902934 -1.377575,0 0,0.720011 3.5423343,0 0,-0.720011 -1.3447753,0 0,-5.691518 -0.852783,0 z m 5.3462973,0 -1.443172,0.308577 0,0.788583 1.475972,-0.308576 0,4.902934 -1.377574,0 0,0.720011 3.542332,0 0,-0.720011 -1.344774,0 0,-5.691518 -0.852784,0 z m 5.346298,0 -1.443171,0.308577 0,0.788583 1.475971,-0.308576 0,4.902934 -1.377574,0 0,0.720011 3.542333,0 0,-0.720011 -1.344775,0 0,-5.691518 -0.852784,0 z m 5.346299,0 -1.443172,0.308577 0,0.788583 1.475971,-0.308576 0,4.902934 -1.377574,0 0,0.720011 3.542333,0 0,-0.720011 -1.344774,0 0,-5.691518 -0.852784,0 z m 10.692597,0 -1.443173,0.308577 0,0.788583 1.475972,-0.308576 0,4.902934 -1.377574,0 0,0.720011 3.542333,0 0,-0.720011 -1.344775,0 0,-5.691518 -0.852783,0 z m 10.692596,0 -1.443172,0.308577 0,0.788583 1.475973,-0.308576 0,4.902934 -1.377575,0 0,0.720011 3.542332,0 0,-0.720011 -1.344774,0 0,-5.691518 -0.852784,0 z M -1.4291799,55.86107 c 0.4291213,6e-6 0.73798129,0.211438 0.95118229,0.651438 0.2159297,0.437156 0.3279938,1.108595 0.3279938,1.988603 0,0.87716 -0.1120641,1.548598 -0.3279938,1.988603 -0.213201,0.43715 -0.52206099,0.651439 -0.95118229,0.651438 -0.4263914,1e-6 -0.7352517,-0.214288 -0.9511813,-0.651438 -0.2132017,-0.440005 -0.3279938,-1.111443 -0.3279938,-1.988603 0,-0.880008 0.1147921,-1.551447 0.3279938,-1.988603 0.2159296,-0.44 0.5247899,-0.651432 0.9511813,-0.651438 z m 32.0777909,0 c 0.429122,6e-6 0.737983,0.211438 0.951183,0.651438 0.215925,0.437156 0.327988,1.108595 0.327991,1.988603 -3e-6,0.87716 -0.112066,1.548598 -0.327991,1.988603 -0.2132,0.43715 -0.522061,0.651439 -0.951183,0.651438 -0.426394,1e-6 -0.735255,-0.214288 -0.951182,-0.651438 -0.213198,-0.440005 -0.327994,-1.111443 -0.327994,-1.988603 0,-0.880008 0.114796,-1.551447 0.327994,-1.988603 0.215927,-0.44 0.524788,-0.651432 0.951182,-0.651438 z m 10.692597,0 c 0.429122,6e-6 0.737983,0.211438 0.951182,0.651438 0.215925,0.437156 0.327989,1.108595 0.327994,1.988603 -5e-6,0.87716 -0.112069,1.548598 -0.327994,1.988603 -0.213199,0.43715 -0.52206,0.651439 -0.951182,0.651438 -0.426394,1e-6 -0.735255,-0.214288 -0.951183,-0.651438 -0.213196,-0.440005 -0.327994,-1.111443 -0.327993,-1.988603 -1e-6,-0.880008 0.114797,-1.551447 0.327993,-1.988603 0.215928,-0.44 0.524789,-0.651432 0.951183,-0.651438 z m 10.692597,0 c 0.429121,6e-6 0.737982,0.211438 0.951183,0.651438 0.215924,0.437156 0.327988,1.108595 0.327992,1.988603 -4e-6,0.87716 -0.112068,1.548598 -0.327992,1.988603 -0.213201,0.43715 -0.522062,0.651439 -0.951183,0.651438 -0.426394,1e-6 -0.735254,-0.214288 -0.951182,-0.651438 -0.213198,-0.440005 -0.327996,-1.111443 -0.327995,-1.988603 -10e-7,-0.880008 0.114797,-1.551447 0.327995,-1.988603 0.215928,-0.44 0.524788,-0.651432 0.951182,-0.651438 z m 5.346298,0 c 0.429121,6e-6 0.737983,0.211438 0.951182,0.651438 0.215926,0.437156 0.32799,1.108595 0.327994,1.988603 -4e-6,0.87716 -0.112068,1.548598 -0.327994,1.988603 -0.213199,0.43715 -0.522061,0.651439 -0.951182,0.651438 -0.426395,1e-6 -0.735254,-0.214288 -0.951181,-0.651438 -0.213198,-0.440005 -0.327996,-1.111443 -0.327995,-1.988603 -10e-7,-0.880008 0.114797,-1.551447 0.327995,-1.988603 0.215927,-0.44 0.524786,-0.651432 0.951181,-0.651438 z"
         id="flowRoot7811"
         inkscape:connector-curvature="0" /></g><path
       fill="#BBB29A"
       style="fill:#f1e0b0;fill-opacity:1"
       d="M45.788,29.805c-0.267-0.044-0.62-0.038-0.994,0.014c0.053-1.725,0.149-3.478,0.15-4.66  c0.002-7.005-2.414-10.005-5.537-11.692c-2.143-1.157-5.206-1.594-8.115-1.616c-2.909,0.023-5.972,0.459-8.115,1.616  c-3.124,1.687-5.539,4.688-5.537,11.692c0,1.344,0.124,3.423,0.167,5.364c-0.408-0.472-0.843-0.777-1.199-0.718  c-1.806,0.295-1.159,3.496-1.102,4.804c0.06,1.33,0.229,2.889,1.185,3.961c0.247,0.276,0.614,0.375,0.984,0.147  c0.063,1.23,0.221,2.306,0.555,2.892c0.845,1.479,1.867,3.805,5.156,5.92c3.289,2.112,5.549,3.213,7.727,3.213  c0.055,0,0.109-0.006,0.164-0.006c0.005,0,0.009,0,0.014,0c0.005,0,0.009,0,0.014,0c0.055,0,0.109,0.006,0.164,0.006  c2.178,0,4.438-1.101,7.727-3.213c3.289-2.115,4.311-4.44,5.156-5.92c0.326-0.573,0.485-1.611,0.551-2.804  c0.304,0.1,0.592-0.006,0.797-0.235c0.957-1.072,1.129-2.631,1.188-3.961C46.943,33.301,47.592,30.1,45.788,29.805z"
       id="Head" /><path
       enable-background="new    "
       d="m 28.57544,32.877171 c -0.417962,0.383571 -2.133186,3.527651 -1.014628,3.897014 1.152952,0.384318 2.882382,-0.04038 4.044313,-0.173467 0.615356,-0.07177 4.305256,1.227724 1.864762,-1.420629 -0.382074,-0.414974 -1.133514,-0.308801 -1.521573,0.0329 -0.269168,0.235525 -0.597412,0.403759 -1.019111,0.361139 -0.536852,-0.05309 -0.847893,-0.484509 -1.35334,-0.612367 -0.272912,-0.06804 -0.453104,-0.0329 -0.703583,0.0501 -1.402686,0.476285 -0.705084,-1.161178 -0.29684,-2.134683 z"
       id="path6006"
       inkscape:connector-curvature="0"
       style="opacity:0.2;fill:#605356;fill-opacity:1" /><path
       id="stanchev-hair"
       d="m 46.582344,29.891683 c 0.135149,-0.664926 0.537348,-0.126499 0.621679,-0.837914 0.09082,-0.74061 0.04541,-2.572132 0.176233,-3.307335 0.134066,-0.756828 0.281109,-1.342828 0.299488,-2.158039 0.02055,-0.83251 0.180558,-2.715928 0.114606,-3.565737 -0.802238,0.1092 -0.875759,-1.360126 -0.88657,-1.874769 -0.01946,-0.856295 -0.309218,-2.579699 -0.365438,-3.347338 -1.965589,0.75034 -2.047758,-0.734122 -2.171015,-1.956937 -0.664925,1.112535 -1.84882,-1.82936 -2.474823,-2.535371 -0.290839,-0.3265173 -0.523292,0.456258 -0.723311,0.07676 -0.171907,-0.325436 -0.291918,-0.7881823 -0.510318,-1.0865883 -0.358952,-0.488694 -0.810887,-0.331922 -1.410941,-0.44869 -0.449772,-0.08758 -0.811968,-0.267052 -1.227141,-0.456259 -0.895219,-0.410849 -1.610961,0.334085 -2.044515,-0.579513 -0.968739,0.04649 -1.579606,-0.683307 -2.546182,-1.093074 -0.450853,-0.190288 -0.718986,0.770882 -1.061721,0.378413 -0.262727,-0.299487 -0.496262,-0.752502 -0.923329,-0.884407 -0.392469,0.47572 -1.230384,0.124336 -1.787193,0.28219 -0.3849,0.109199 -0.758989,-0.102713 -1.09848,-0.08542 -0.536266,0.02595 -0.315705,0.201101 -0.710336,0.453016 -1.307149,0.614112 -2.858645,1.607718 -3.746295,1.062802 -0.405443,0.796831 -0.920085,0.520048 -1.372019,1.297418 -0.198937,0.33841 -0.376251,-0.321111 -0.75034,-0.139473 -0.488694,0.236779 -0.554646,0.834673 -0.973063,0.9200863 -0.459502,0.09298 -2.080193,1.300661 -2.289942,1.803411 -0.275701,0.653034 0.162177,2.137495 -0.755746,1.805572 -0.09947,-0.12866 -0.105956,0.987119 -0.247591,0.923329 -0.457339,1.752596 -0.0919,0.488694 -0.86927,2.112629 -0.595731,-0.02162 -0.60438,5.445912 -0.644384,5.980015 -0.02703,0.352465 0,0.742772 0.02379,1.093075 0.04865,0.673576 0.247591,1.386075 0.293,2.047758 0.08109,1.146052 0.0043,2.295348 0.04649,3.441401 0.02703,0.763313 0.429229,1.835846 0.194613,2.567806 0.957927,0.02055 1.114698,1.601229 1.129835,2.258588 0.01838,0.783857 0.04649,1.606636 0.120011,2.379682 0.02379,0.282188 0.01297,0.629247 0.125417,0.895218 0.02487,0.06811 0.535185,0.580594 0.540591,0.345978 0.04217,-1.413106 -0.0227,-2.831614 -0.0573,-4.252288 -0.01838,-0.771964 0.113524,-1.445538 0.171908,-2.192635 0.05406,-0.704932 0.05622,-1.387158 0.13731,-2.080195 0.0519,-0.443284 0.161096,-0.881162 0.293,-1.300661 0.09514,-0.298406 0.313543,-0.607624 0.35679,-0.886569 0.04865,-0.318948 -0.07136,-0.707092 -0.0919,-1.040096 -0.06595,-1.007661 0.101631,-1.955858 0.07784,-2.953788 -0.0097,-0.406525 -0.03135,-0.815211 -0.02811,-1.221736 0.0097,-0.818454 0.104875,0.478964 0.323273,-0.303812 0.371927,-1.343908 0.927653,0.544916 2.060731,-0.320029 0.597894,-0.458421 1.104968,0.109199 1.881256,-0.135148 0.638979,-0.2011 1.297418,-0.265971 1.965589,-0.391388 0.627085,-0.117849 1.161189,0.50275 1.720159,0.175152 0.563296,-0.329761 1.416348,-1.247684 2.049921,-1.462839 0.771963,-0.261646 1.609879,-1.335259 2.454281,-1.354721 0.511399,-0.01297 0.897381,1.119023 1.377426,1.20768 0.318948,0.05838 0.726554,0.09406 1.056314,0.04217 0.369764,-0.05946 0.794669,-0.193531 1.20768,-0.218398 0.481126,-0.02919 0.85089,1.246602 1.285525,1.415266 0.773045,0.300569 1.635828,0.414093 2.363462,0.803318 0.654117,0.348141 1.200113,-0.04108 1.777463,0.419499 0.311381,0.24759 0.753583,0.591406 0.956846,0.910355 0.208668,0.336247 0.327599,-0.324355 0.472477,0.04541 0.569782,1.469326 0.847646,0.470314 0.965494,2.035865 0.05298,0.710337 -0.02271,-1.749352 -0.195693,-1.058477 -0.165422,0.671414 -0.407605,1.228223 -0.09623,1.92126 0.09298,0.208668 0.24759,2.51591 0.35787,2.701873 0.655196,1.116859 0.686551,0.633571 0.760072,1.888823 0.08217,1.389319 0.07568,2.795937 -0.0746,4.17985 -0.06055,0.558971 -0.0227,1.085505 -0.03676,1.641232 -0.0097,0.451934 -0.228131,0.951441 -0.145962,1.413106 0.57519,0.05838 0.494102,-0.122176 0.608706,-0.630331 0.09623,-0.428146 0.244348,-0.843321 0.272457,-1.283361 0.04973,-0.709255 -0.0033,-1.315798 0.16434,-1.989374 0.143799,-0.564378 0.284351,-1.084426 0.41085,-1.640153 0.145959,-0.635735 0.3849,-0.79575 0.946034,-1.073614 0.01838,-0.0097 0.104875,-0.529779 0.155689,-0.779532 z"
       inkscape:connector-curvature="0"
       style="fill:#cccccc" /><path
       fill="#564B43"
       style="fill:#cccccc"
       d="M44.125,32.03c0.113,2.499,0.178,7.61-0.325,9.357c-0.563,1.955-3.646,4.855-3.875,3.487  c-0.153-0.913,0.375-4.125-0.659-5.296c-0.285-0.322-3.789-2.55-4.418-2.812c-0.786-0.33-1.266-0.157-2.065,0.049  c-0.512,0.132-0.978,0.19-1.443,0.192c-0.465-0.002-0.931-0.06-1.443-0.192c-0.798-0.206-1.278-0.379-2.065-0.049  c-0.629,0.262-4.133,2.489-4.418,2.812c-1.034,1.171-0.506,4.383-0.659,5.296c-0.229,1.368-3.313-1.531-3.875-3.487  c-0.503-1.747-0.438-6.858-0.325-9.357l-0.917-1.406c0.009,2.55,0.056,9.09,0.281,10.243c0.242,2.038,1.398,3.819,4.63,6.459  c2.332,1.59,5.294,3.807,8.742,3.805c3.37-0.002,6.508-2.215,8.84-3.805c3.231-2.64,4.388-4.421,4.63-6.459  c0.225-1.153,0.271-7.693,0.281-10.243L44.125,32.03z M38.354,46.802c-0.693,0.749-2.836,2.097-3.681,2.235  c-2.246,0.366-3.083-2.271-2.667-2.972c0.32-0.537,0.484-0.853,1.349-1.252c-0.023,0.001-0.976,0.001-1.965,0.001  c-0.033,0-0.066,0-0.099,0c-0.989,0-1.942,0-1.965-0.001c0.864,0.399,1.028,0.715,1.349,1.252c0.416,0.701-0.421,3.338-2.667,2.972  c-0.844-0.137-2.988-1.486-3.681-2.235c-0.839-0.908-0.533-5.066-0.468-5.68c0.092-0.84,3.169-2.507,3.709-2.749  c1.125-0.486,2.282,0.083,3.723,0.09v0.003c0.017,0,0.033-0.002,0.049-0.002c0.017,0,0.032,0.002,0.049,0.002v-0.003  c1.441-0.007,2.598-0.576,3.723-0.09c0.54,0.242,3.617,1.909,3.709,2.749C38.887,41.736,39.194,45.894,38.354,46.802z"
       id="Beard" /><path
       style="opacity:0.2;fill:#98898d;fill-opacity:1"
       inkscape:connector-curvature="0"
       id="path5873"
       d="m 39.341458,24.965282 c -1.668218,-0.534171 -3.6382,-0.256743 -4.946249,0.815249 -1.585477,1.298315 -0.06327,2.93368 1.362804,3.527473 1.242342,0.517136 2.86919,0.751976 4.267281,0.448995 1.309266,-0.284728 2.201173,-1.547756 1.979717,-2.734126 -0.211721,-1.143782 -1.55384,-1.701072 -2.663553,-2.057591 z"
       enable-background="new    " /><g
       transform="matrix(1.2167896,0,0,1.2167896,-4.4982533,-8.3735386)"
       id="g5883"><path
         id="SVGID_49_"
         d="m 32.182,29.355 c 0.412,-0.629 1.001,-1.152 1.75,-1.246 0.879,-0.11 1.706,0.072 2.467,0.45 0.452,0.225 0.906,0.614 1.151,1.064 -0.226,0.218 -1.808,0.614 -2.211,0.709 -0.803,0.191 -1.671,0.115 -2.413,-0.168 -0.27,-0.104 -1.078,-0.44 -0.745,-0.785 l 0.001,-0.024 z"
         inkscape:connector-curvature="0"
         style="fill:#ffffff" /></g><g
       transform="matrix(1.2167896,0,0,1.2167896,-4.4982533,-8.3735386)"
       id="g5894"
       clip-path="url(#SVGID_2_)"><path
         style="fill:#594a42"
         inkscape:connector-curvature="0"
         id="path5896"
         d="m 32.628,29.449 c 0.095,0.677 0.635,1.169 1.205,1.101 0.57,-0.069 0.957,-0.671 0.861,-1.348 -0.095,-0.675 -0.634,-1.167 -1.205,-1.099 -0.571,0.068 -0.956,0.671 -0.861,1.346 z" /><path
         style="fill:#ffffff"
         inkscape:connector-curvature="0"
         id="path5898"
         d="m 33.696,28.773 c 0.032,0.187 0.188,0.318 0.351,0.295 0.163,-0.023 0.267,-0.195 0.233,-0.381 -0.031,-0.187 -0.188,-0.32 -0.35,-0.294 -0.16,0.022 -0.266,0.192 -0.234,0.38 z" /></g><path
       style="opacity:0.2;fill:#98898d;fill-opacity:1"
       inkscape:connector-curvature="0"
       id="path5900"
       d="m 20.374142,29.079248 c 0.429525,1.235041 2.807132,1.314132 3.952132,1.162034 1.102411,-0.146015 2.420194,-0.816466 3.112547,-1.629282 0.873655,-1.03062 0.974649,-2.169536 -0.410058,-2.882574 -0.983166,-0.507402 -2.307033,-0.504968 -3.422829,-0.39789 -0.85297,0.08274 -2.399509,0.59501 -2.850938,1.219223 -0.453862,0.62908 -0.621779,1.831268 -0.380854,2.528489 z"
       enable-background="new    " /><g
       id="g5902"
       transform="matrix(1.2167896,0,0,1.2167896,-4.4982533,-8.3735386)"><g
         id="g5904"><path
           style="fill:#ffffff"
           inkscape:connector-curvature="0"
           d="m 23.34,30.868 c 0.503,-0.062 3.283,-0.563 3.156,-1.165 -0.768,-0.731 -1.623,-1.203 -2.864,-1.234 -0.78,-0.021 -1.872,0.302 -2.291,1.032 -0.573,1 1.149,1.471 1.999,1.367 z"
           id="SVGID_51_" /></g><g
         id="g5907"><defs
           id="defs5909"><path
             inkscape:connector-curvature="0"
             d="m 23.34,30.868 c 0.503,-0.062 3.283,-0.563 3.156,-1.165 -0.768,-0.731 -1.623,-1.203 -2.864,-1.234 -0.78,-0.021 -1.872,0.302 -2.291,1.032 -0.573,1 1.149,1.471 1.999,1.367 z"
             id="SVGID_3_" /></defs><clipPath
           id="clipPath6560"><use
             height="124.246"
             width="124.234"
             y="0"
             x="0"
             style="overflow:visible"
             id="use6562"
             overflow="visible"
             xlink:href="#SVGID_3_" /></clipPath><g
           id="g5915"
           clip-path="url(#SVGID_4_)"><path
             style="fill:#594a42"
             inkscape:connector-curvature="0"
             id="path5917"
             d="m 21.546,29.883 c 0.06,0.734 0.607,1.297 1.221,1.254 0.613,-0.042 1.062,-0.671 1,-1.406 -0.062,-0.736 -0.607,-1.298 -1.222,-1.256 -0.613,0.043 -1.061,0.674 -0.999,1.408 z" /><g
             id="g5919"><path
               style="fill:#ffffff"
               inkscape:connector-curvature="0"
               id="path5921"
               d="m 22.724,29.211 c 0.023,0.205 0.184,0.356 0.356,0.34 0.174,-0.018 0.296,-0.196 0.271,-0.4 -0.022,-0.204 -0.183,-0.354 -0.355,-0.338 -0.172,0.016 -0.295,0.195 -0.272,0.398 z" /></g></g></g></g><path
       style="opacity:0.2;fill:#5e5355;fill-opacity:1"
       inkscape:connector-curvature="0"
       id="path6028-8"
       d="m 36.056604,42.582133 c -0.151473,0.119244 -0.291665,0.254602 -0.46328,0.344841 -0.908833,0.471336 -1.858757,0.749304 -2.901337,0.839543 -0.612334,0.05398 -1.187607,-0.111993 -1.786244,-0.118439 -0.443136,-0.0032 -0.841959,0.178866 -1.279456,0.144221 -0.456834,-0.03706 -0.849211,-0.129718 -1.262537,-0.262659 -0.51565,-0.165975 -0.937033,-0.479394 -1.378558,-0.775087 -0.344036,-0.229625 -1.067557,-1.175521 -1.173104,-1.294765 0.265076,0.638923 0.453611,0.871771 0.546266,1.041775 0.565604,1.054665 1.59771,1.567898 2.007007,1.715342 0.465697,0.166781 0.920919,0.19498 1.416427,0.203037 0.72191,0.01209 3.429072,-0.04109 4.05752,-0.04109 1.284291,8.01e-4 2.193125,-1.777381 2.217296,-1.796718 z"
       enable-background="new    " /><path
       d="m 34.446809,40.302799 c -0.255408,-0.03626 -1.908711,-0.09749 -3.273573,-0.123273 -1.36486,0.02578 -2.989964,0.0564 -3.246177,0.09427 -0.426217,0.06123 -2.031178,0.804898 -2.031178,0.804898 0,0 0.443942,1.135235 1.640412,1.417232 0.910444,0.214317 2.450949,0.322281 3.637749,0.352898 1.187607,-0.03062 2.728917,-0.139387 3.63775,-0.352898 1.197275,-0.281997 1.640412,-1.417232 1.640412,-1.417232 0,0 -1.577567,-0.714659 -2.005395,-0.775892 z"
       id="path6033"
       inkscape:connector-curvature="0"
       style="fill:#5a4b42" /><path
       d="m 34.563636,42.363788 c -0.03464,-0.16678 -0.325504,-0.37868 -0.55513,-0.186117 -0.0145,-0.01934 -0.0282,-0.04028 -0.04754,-0.05962 -0.121661,-0.126496 -0.551101,-0.07977 -0.660677,0.109575 l 0,0 c -0.03706,-0.04109 -0.08379,-0.07412 -0.146637,-0.09588 -0.276357,-0.09749 -0.509205,-0.04431 -0.609918,0.114409 -0.03384,-0.0564 -0.07977,-0.0991 -0.138581,-0.12005 -0.250573,-0.08621 -0.523707,-0.01611 -0.617168,0.171615 -0.02498,-0.186923 -0.464086,-0.219957 -0.6357,-0.0991 -0.05076,0.03626 -0.08218,0.09346 -0.100713,0.161141 -0.01773,-0.06687 -0.04915,-0.124884 -0.09991,-0.161141 -0.17081,-0.120855 -0.585747,-0.09749 -0.636506,0.0991 -0.09185,-0.186923 -0.365789,-0.257825 -0.616363,-0.171615 -0.05962,0.02095 -0.104741,0.06365 -0.137775,0.12005 -0.100713,-0.157917 -0.30939,-0.253796 -0.586552,-0.157112 -0.06204,0.02256 -0.109576,0.107965 -0.146638,0.149055 l 0,0 c -0.10877,-0.188534 -0.539016,-0.236071 -0.659871,-0.108769 -0.01773,0.01853 -0.03303,0.03948 -0.04754,0.05962 -0.242516,-0.158723 -0.531764,0.08218 -0.563186,0.212705 -0.0081,0.03626 -0.0137,0.06607 -0.01692,0.09588 0.910445,0.212706 2.447727,0.322282 3.631305,0.352899 1.090922,-0.02739 2.482371,-0.122468 3.406513,-0.304556 0.0048,-0.03787 0.0056,-0.0846 -0.0145,-0.182089 z"
       id="path6035"
       inkscape:connector-curvature="0"
       style="fill:#ffffff" /><path
       enable-background="new    "
       d="m 36.088026,40.734655 c -0.149861,-0.06204 -0.294081,-0.115215 -0.409297,-0.162752 -0.410909,-0.170003 -0.788783,-0.383514 -1.17391,-0.58494 -0.329532,-0.15389 -0.663899,-0.300527 -1.049831,-0.423799 -0.937033,-0.300528 -2.119805,0.203036 -3.118071,0.06365 -0.351286,-0.05076 -0.696128,-0.116826 -1.051443,-0.105547 -0.143415,0.004 -0.288441,0.02014 -0.435885,0.05479 -0.454417,0.10877 -0.985375,0.229625 -1.401118,0.419771 -0.433468,0.195786 -0.798452,0.511622 -1.223058,0.725939 -0.203842,0.102324 -0.393183,0.173226 -0.555129,0.257825 0.116021,0.04109 0.238488,0.08218 0.300527,0.09185 0.167587,0.02578 0.36015,-0.07977 0.507593,-0.144221 0.290859,-0.127301 0.543044,-0.294082 0.83068,-0.41252 0.369818,-0.152278 0.812149,-0.160335 1.228698,-0.160335 0.943478,0 1.865203,0.06446 2.803846,0.13697 1.26012,0.0991 2.704746,-0.201426 3.805337,0.439108 0.298916,0.174838 0.946701,0.149861 1.301211,0.147444 0.04995,0 0.08863,-8.01e-4 0.124884,-0.0048 -0.140999,-0.122467 -0.31503,-0.2401 -0.485034,-0.338396 z"
       id="path6037"
       inkscape:connector-curvature="0"
       style="opacity:0.2;fill:#5e5355;fill-opacity:1" /><path
       d="m 27.154389,40.519533 c -0.01128,0.0991 0.01692,0.211095 0.0564,0.286025 0.07332,0.136164 0.228014,0.115216 0.385126,0.06848 0.0983,0.232848 0.453611,0.145832 0.533375,0.02417 0.04028,0.107158 0.152278,0.163558 0.385932,0.15389 0.137775,-0.0064 0.373041,-0.03303 0.443137,-0.182895 0.0089,0.115215 0.05559,0.218345 0.194174,0.256213 0.239294,0.06607 0.604278,-0.01692 0.714659,-0.168392 0.0081,-0.0097 0.01692,-0.02175 0.02417,-0.03303 0.0056,0.01853 0.01209,0.03626 0.01853,0.05318 0.09105,0.196591 0.479394,0.196591 0.729162,0.186923 0.216734,-0.0081 0.322281,-0.06929 0.385932,-0.157918 0.06123,0.08863 0.169197,0.150667 0.385125,0.157918 0.25138,0.0097 0.638117,0.0097 0.728356,-0.186923 0.0072,-0.01692 0.0145,-0.03464 0.01934,-0.05318 0.0089,0.01128 0.01692,0.02337 0.02337,0.03303 0.110381,0.151473 0.475365,0.236071 0.715464,0.168392 0.139387,-0.03787 0.184506,-0.141803 0.194175,-0.256213 0.100713,0.149861 0.256213,0.181283 0.451999,0.182895 0.176449,0 0.339201,-0.04834 0.377875,-0.15389 0.07654,0.147444 0.434274,0.208677 0.533376,-0.02417 0.156306,0.04673 0.311001,0.06768 0.385126,-0.06848 0.0564,-0.104741 0.06607,-0.236072 0.0427,-0.351287 -0.0024,-0.01531 -0.0072,-0.0282 -0.01128,-0.03948 -0.153084,-0.06607 -0.306973,-0.116021 -0.456028,-0.153889 -0.383515,-0.02981 -1.622686,-0.05962 -2.775648,-0.08379 -1.417232,0.02659 -3.474997,0.06929 -3.760216,0.110381 -0.179672,0.02739 -0.451999,0.121661 -0.724327,0.232043 z"
       id="path6039"
       inkscape:connector-curvature="0"
       style="fill:#ffffff" /></g></svg>