<svg xmlns="http://www.w3.org/2000/svg" xmlns:xlink="http://www.w3.org/1999/xlink" width="62.118" height="62.118" viewBox="0 0 62.118 62.118"><defs><linearGradient id="c"><stop offset="0"/><stop offset="1" stop-opacity="0"/></linearGradient><clipPath id="g"><use xlink:href="#a" overflow="visible" width="124.234" height="124.246"/></clipPath><clipPath id="f"><use xlink:href="#b" overflow="visible" width="124.234" height="124.246"/></clipPath><radialGradient xlink:href="#c" id="e" cx="-86.717" cy="-16.199" fx="-86.717" fy="-16.199" r="30.031" gradientTransform="matrix(1.121 .016 -.014 1.078 128.11 49.429)" gradientUnits="userSpaceOnUse"/><defs><path id="b" d="M32.182 29.355c.412-.63 1-1.152 1.75-1.246.88-.11 1.706.07 2.467.45.45.22.902.61 1.15 1.06-.23.22-1.81.614-2.21.71-.807.19-1.675.114-2.417-.17-.27-.103-1.078-.44-.745-.784v-.025z"/></defs><clipPath><use xlink:href="#b" overflow="visible" width="124.234" height="124.246"/></clipPath></defs><animate xlink:href="#d" attributeName="d" attributeType="XML" values="M44.125,32.03c0.113,2.499,0.178,7.61-0.325,9.357c-0.563,1.955-3.646,4.855-3.875,3.487 c-0.153-0.913,0.375-4.125-0.659-5.296c-0.285-0.322-3.789-2.55-4.418-2.812c-0.786-0.33-1.266-0.157-2.065,0.049 c-0.512,0.132-0.978,0.19-1.443,0.192c-0.465-0.002-0.931-0.06-1.443-0.192c-0.798-0.206-1.278-0.379-2.065-0.049 c-0.629,0.262-4.133,2.489-4.418,2.812c-1.034,1.171-0.506,4.383-0.659,5.296c-0.229,1.368-3.313-1.531-3.875-3.487 c-0.503-1.747-0.438-6.858-0.325-9.357l-0.917-1.406c0.009,2.55,0.056,9.09,0.281,10.243c0.242,2.038,1.398,3.819,4.63,6.459 c2.332,1.59,5.294,3.807,8.742,3.805c3.37-0.002,6.508-2.215,8.84-3.805c3.231-2.64,4.388-4.421,4.63-6.459 c0.225-1.153,0.271-7.693,0.281-10.243L44.125,32.03z M38.354,46.802c-0.693,0.749-2.836,2.097-3.681,2.235 c-2.246,0.366-3.083-2.271-2.667-2.972c0.32-0.537,0.484-0.853,1.349-1.252c-0.023,0.001-0.976,0.001-1.965,0.001 c-0.033,0-0.066,0-0.099,0c-0.989,0-1.942,0-1.965-0.001c0.864,0.399,1.028,0.715,1.349,1.252c0.416,0.701-0.421,3.338-2.667,2.972 c-0.844-0.137-2.988-1.486-3.681-2.235c-0.839-0.908-0.533-5.066-0.468-5.68c0.092-0.84,3.169-2.507,3.709-2.749 c1.125-0.486,2.282,0.083,3.723,0.09v0.003c0.017,0,0.033-0.002,0.049-0.002c0.017,0,0.032,0.002,0.049,0.002v-0.003 c1.441-0.007,2.598-0.576,3.723-0.09c0.54,0.242,3.617,1.909,3.709,2.749C38.887,41.736,39.194,45.894,38.354,46.802z; M44.125,32.03c0.113,2.499,0.178,2.61-0.325,4.357c-0.563,1.955-3.646,4.855-3.875,3.487 c-0.153-0.913,0.375,0.875-0.659-0.296c-0.285-0.322-3.789-2.55-4.418-2.812c-0.786-0.33-1.266-0.157-2.065,0.049 c-0.512,0.132-0.978,0.19-1.443,0.192c-0.465-0.002-0.931-0.06-1.443-0.192c-0.798-0.206-1.278-0.379-2.065-0.049 c-0.629,0.262-4.133,2.489-4.418,2.812c-1.034,1.171-0.506-0.617-0.659,0.296c-0.229,1.368-3.313-1.531-3.875-3.487 c-0.503-1.747-0.438-1.858-0.325-4.357l-0.917-1.406c0.009,2.55,0.056,9.09,0.281,10.243c0.242,2.038,1.398,11.819,4.63,14.459 c2.332,1.59,5.294,3.795,8.742,3.793c3.37-0.002,6.508-2.203,8.84-3.793c3.231-2.64,4.388-12.421,4.63-14.459 c0.225-1.153,0.271-7.693,0.281-10.243L44.125,32.03z M38.354,44.802c-0.693,0.749-2.836,2.097-3.681,2.235 c-2.246,0.366-3.083-0.271-2.667-0.972c0.32-0.537,0.484-0.853,1.349-1.252c-0.023,0.001-0.976,0.001-1.965,0.001 c-0.033,0-0.066,0-0.099,0c-0.989,0-1.942,0-1.965-0.001c0.864,0.399,1.028,0.715,1.349,1.252c0.416,0.701-0.421,1.338-2.667,0.972 c-0.844-0.137-2.988-1.486-3.681-2.235c-0.839-0.908-0.533-2.066-0.468-2.68c0.092-0.84,3.169-2.507,3.709-2.749 c1.125-0.486,2.282,0.083,3.723,0.09v0.003c0.017,0,0.033-0.002,0.049-0.002c0.017,0,0.032,0.002,0.049,0.002v-0.003 c1.441-0.007,2.598-0.576,3.723-0.09c0.54,0.242,3.617,1.909,3.709,2.749C38.887,42.736,39.194,43.894,38.354,44.802z" dur="10s" repeatCount="indefinite"/><rect width="62.118" height="62.118" rx="7.2" ry="7.2" fill="#2196f3" fill-opacity=".933"/><path style="line-height:125%" d="M14.61.317c-.686 0-1.21.29-1.575.858-.36.565-.524 1.388-.524 2.468 0 1.077.168 1.9.528 2.47.364.564.89.856 1.575.856.687 0 1.214-.296 1.575-.86.364-.57.558-1.39.558-2.47 0-1.08-.194-1.9-.558-2.468-.36-.57-.888-.858-1.574-.858zm10.692 0c-.686 0-1.21.29-1.574.858-.36.565-.525 1.388-.525 2.468 0 1.077.164 1.9.525 2.47.363.564.888.856 1.574.856s1.214-.296 1.575-.86c.363-.57.557-1.39.557-2.47 0-1.08-.194-1.9-.557-2.468-.36-.57-.89-.858-1.575-.858zm16.04 0c-.687 0-1.212.29-1.575.858-.36.565-.525 1.388-.525 2.468 0 1.077.164 1.9.525 2.47.363.564.888.856 1.574.856.69 0 1.218-.296 1.58-.86.362-.57.556-1.39.556-2.47 0-1.08-.194-1.9-.557-2.468-.36-.57-.89-.858-1.576-.858zm10.692 0c-.686 0-1.21.29-1.575.858-.36.565-.528 1.388-.528 2.468 0 1.077.164 1.9.524 2.47.363.564.888.856 1.574.856s1.214-.296 1.575-.86c.364-.57.558-1.39.558-2.47 0-1.08-.194-1.9-.558-2.468-.36-.57-.888-.858-1.574-.858zm5.346 0c-.686 0-1.21.29-1.574.858-.36.565-.525 1.388-.525 2.468 0 1.077.168 1.9.53 2.47.362.564.887.856 1.573.856s1.215-.296 1.575-.86c.364-.57.558-1.39.558-2.47 0-1.08-.194-1.9-.558-2.468-.36-.57-.888-.858-1.574-.858zM-1.724.42l-1.444.31v.787l1.476-.308v4.9H-3.07v.72H.474v-.72H-.872V.42h-.852zm5.346 0L2.18.73v.787l1.475-.308v4.9H2.277v.72H5.82v-.72H4.474V.42H3.62zm5.346 0L7.525.73v.787L9 1.21v4.9H7.624v.72h3.543v-.72H9.82V.42h-.85zm10.693 0l-1.44.31v.787L19.7 1.21v4.9H18.32v.72h3.54v-.72h-1.343V.42h-.853zm10.696 0L28.91.73v.787l1.476-.308v4.9H29.01v.72h3.54v-.72h-1.344V.42h-.853zm5.347 0L34.26.73v.787l1.476-.308v4.9h-1.378v.72H37.9v-.72h-1.345V.42H35.7zm10.693 0L44.95.73v.787l1.475-.308v4.9h-1.377v.72h3.542v-.72h-1.345V.42h-.853zm-31.782.583c.43 0 .74.212.95.652.218.437.33 1.108.33 1.988 0 .877-.112 1.55-.33 1.99-.21.436-.52.65-.95.65-.426 0-.735-.214-.95-.65-.214-.44-.33-1.113-.33-1.99 0-.88.116-1.55.33-1.988.215-.44.524-.652.95-.652zm10.693 0c.43 0 .738.212.95.652.217.437.33 1.108.33 1.988 0 .877-.113 1.55-.33 1.99-.212.436-.52.65-.95.65-.426 0-.735-.214-.95-.65-.214-.44-.33-1.113-.33-1.99 0-.88.116-1.55.33-1.988.215-.44.524-.652.95-.652zm16.04 0c.428 0 .737.212.95.652.216.437.328 1.108.328 1.988 0 .877-.11 1.55-.327 1.99-.213.436-.522.65-.95.65-.427 0-.736-.214-.952-.65-.212-.44-.327-1.113-.327-1.99 0-.88.114-1.55.327-1.988.217-.44.526-.652.95-.652zm10.692 0c.43 0 .737.212.95.652.216.437.33 1.108.33 1.988 0 .877-.114 1.55-.33 1.99-.213.436-.52.65-.95.65-.428 0-.736-.214-.95-.65-.216-.44-.33-1.113-.33-1.99 0-.88.114-1.55.33-1.988.214-.44.522-.652.95-.652zm5.345 0c.43 0 .74.212.95.652.218.437.33 1.108.33 1.988 0 .877-.112 1.55-.33 1.99-.21.436-.52.65-.95.65-.425 0-.734-.214-.95-.65-.213-.44-.33-1.113-.33-1.99 0-.88.117-1.55.33-1.988.216-.44.525-.652.95-.652zM-1.43 11.29c-.685 0-1.21.288-1.574.856-.36.566-.524 1.39-.524 2.47 0 1.076.164 1.9.524 2.467.364.566.89.857 1.575.857.69 0 1.217-.29 1.578-.857.364-.568.558-1.39.558-2.468 0-1.08-.194-1.903-.558-2.47-.36-.567-.888-.856-1.574-.856zm5.347 0c-.686 0-1.21.288-1.574.856-.36.566-.525 1.39-.525 2.47 0 1.076.164 1.9.525 2.467.363.566.888.857 1.574.857s1.214-.29 1.574-.857c.368-.568.56-1.39.56-2.468 0-1.08-.192-1.903-.56-2.47-.36-.567-.884-.856-1.57-.856zm10.693 0c-.686 0-1.21.288-1.575.856-.36.566-.524 1.39-.524 2.47 0 1.076.168 1.9.528 2.467.364.566.89.857 1.575.857.687 0 1.214-.29 1.575-.857.364-.568.558-1.39.558-2.468 0-1.08-.194-1.903-.558-2.47-.36-.567-.888-.856-1.574-.856zm21.385 0c-.686 0-1.21.288-1.574.856-.36.566-.52 1.39-.52 2.47 0 1.076.163 1.9.524 2.467.364.566.89.857 1.575.857.685 0 1.212-.29 1.573-.857.364-.568.558-1.39.558-2.468 0-1.08-.193-1.903-.557-2.47-.362-.567-.89-.856-1.575-.856zm16.04 0c-.687 0-1.212.288-1.576.856-.36.566-.528 1.39-.528 2.47 0 1.076.164 1.9.524 2.467.363.566.888.857 1.574.857s1.214-.29 1.575-.857c.364-.568.558-1.39.558-2.468 0-1.08-.194-1.903-.558-2.47-.36-.567-.888-.856-1.574-.856zm-43.067.102l-1.443.308v.79L9 12.18v4.903H7.624v.72h3.543v-.72H9.82v-5.69h-.85zm10.693 0l-1.44.308v.79l1.477-.31v4.903H18.32v.72h3.54v-.72h-1.344v-5.69h-.853zm5.35 0l-1.443.308v.79l1.476-.31v4.903h-1.377v.72h3.543v-.72h-1.35v-5.69h-.853zm5.346 0l-1.443.308v.79l1.477-.31v4.903h-1.38v.72h3.54v-.72h-1.344v-5.69h-.853zm10.693 0l-1.444.308v.79l1.476-.31v4.903H39.7v.72h3.544v-.72H41.9v-5.69h-.854zm5.345 0l-1.443.308v.79l1.476-.31v4.903H45.05v.72h3.54v-.72h-1.344v-5.69h-.853zm10.693 0l-1.443.308v.79l1.476-.31v4.903h-1.38v.72h3.543v-.72H57.94v-5.69h-.854zm-58.514.583c.43 0 .74.21.952.65.216.438.328 1.11.328 1.99 0 .877-.112 1.548-.328 1.988-.213.437-.522.652-.95.652-.428 0-.736-.215-.952-.652-.214-.44-.328-1.11-.328-1.988 0-.88.114-1.552.328-1.99.216-.44.524-.65.95-.65zm5.347 0c.43 0 .738.21.95.65.217.438.33 1.11.33 1.99 0 .877-.113 1.548-.33 1.988-.212.437-.52.652-.95.652-.426 0-.735-.215-.95-.652-.214-.44-.33-1.11-.33-1.988 0-.88.116-1.552.33-1.99.215-.44.524-.65.95-.65zm10.693 0c.43 0 .738.21.95.65.217.438.33 1.11.33 1.99 0 .877-.113 1.548-.33 1.988-.212.437-.52.652-.95.652-.427 0-.736-.215-.95-.652-.215-.44-.33-1.11-.33-1.988 0-.88.115-1.552.33-1.99.214-.44.523-.65.95-.65zm21.385 0c.43 0 .738.21.95.65.217.438.33 1.11.33 1.99 0 .877-.113 1.548-.33 1.988-.212.437-.52.652-.95.652-.426 0-.735-.215-.95-.652-.214-.44-.33-1.11-.33-1.988 0-.88.116-1.552.33-1.99.215-.44.524-.65.95-.65zm16.04 0c.428 0 .737.21.95.65.216.438.328 1.11.328 1.99 0 .877-.112 1.548-.328 1.988-.213.437-.522.652-.95.652-.428 0-.736-.215-.952-.652-.214-.44-.328-1.11-.328-1.988 0-.88.114-1.552.328-1.99.216-.44.524-.65.95-.65zM3.918 22.26c-.688 0-1.21.29-1.576.858-.36.565-.525 1.388-.525 2.468 0 1.077.164 1.9.525 2.47.363.565.888.856 1.574.856s1.214-.29 1.574-.857c.365-.57.56-1.392.56-2.47 0-1.08-.195-1.902-.56-2.467-.36-.57-.887-.857-1.573-.857zm26.73 0c-.687 0-1.21.29-1.576.858-.36.565-.525 1.388-.525 2.468 0 1.077.163 1.9.524 2.47.367.565.89.856 1.578.856.685 0 1.212-.29 1.573-.857.364-.57.558-1.392.558-2.47 0-1.08-.193-1.902-.557-2.467-.36-.57-.887-.857-1.573-.857zm16.04 0c-.69 0-1.21.29-1.577.858-.36.565-.522 1.388-.522 2.468 0 1.077.164 1.9.525 2.47.365.565.89.856 1.576.856s1.212-.29 1.573-.857c.363-.57.557-1.392.557-2.47 0-1.08-.196-1.902-.56-2.467-.36-.57-.89-.857-1.574-.857zm10.69 0c-.686 0-1.21.29-1.574.858-.36.565-.525 1.388-.525 2.468 0 1.077.162 1.9.523 2.47.363.565.888.856 1.574.856s1.213-.29 1.573-.857c.365-.57.56-1.392.56-2.47 0-1.08-.194-1.902-.558-2.467-.36-.57-.888-.857-1.574-.857zm-59.104.103l-1.444.31v.788l1.476-.305v4.903H-3.07v.72H.474v-.72H-.872v-5.692h-.852zm10.692 0l-1.443.31v.788L9 23.156v4.903H7.624v.72h3.543v-.72H9.82v-5.692h-.85zm5.347 0l-1.444.31v.788l1.474-.305v4.903H12.97v.72h3.542v-.72h-1.345v-5.692h-.852zm5.346 0l-1.445.31v.788l1.476-.305v4.903h-1.377v.72h3.542v-.72H20.51v-5.692h-.852zm5.344 0l-1.443.31v.788l1.477-.305v4.903h-1.38v.72H27.2v-.72h-1.34v-5.692h-.853zm10.693 0l-1.444.31v.788l1.476-.305v4.903h-1.38v.72h3.543v-.72H36.55v-5.692h-.85zm5.345 0l-1.443.31v.788l1.475-.305v4.903H39.7v.72h3.544v-.72H41.9v-5.692h-.854zm10.693 0l-1.445.31v.788l1.477-.305v4.903H50.39v.72h3.542v-.72H52.59v-5.692h-.85zm-47.823.583c.43 0 .738.212.95.652.217.437.33 1.108.33 1.988 0 .877-.113 1.55-.33 1.99-.212.436-.52.65-.95.65-.426 0-.735-.214-.95-.65-.214-.44-.33-1.113-.33-1.99 0-.88.116-1.55.33-1.988.215-.44.524-.652.95-.652zm26.732 0c.428 0 .737.212.95.652.216.437.328 1.108.328 1.988 0 .877-.112 1.55-.328 1.99-.213.436-.522.65-.95.65-.428 0-.737-.214-.953-.65-.212-.44-.327-1.113-.327-1.99 0-.88.114-1.55.327-1.988.217-.44.526-.652.953-.652zm16.038 0c.43 0 .737.212.95.652.217.437.33 1.108.33 1.988 0 .877-.113 1.55-.33 1.99-.213.436-.52.65-.95.65-.427 0-.736-.214-.952-.65-.212-.44-.327-1.113-.327-1.99 0-.88.115-1.55.328-1.988.218-.44.527-.652.954-.652zm10.692 0c.43 0 .738.212.95.652.217.437.33 1.108.33 1.988 0 .877-.113 1.55-.33 1.99-.212.436-.52.65-.95.65-.426 0-.735-.214-.95-.65-.214-.44-.33-1.113-.33-1.99 0-.88.116-1.55.33-1.988.215-.44.524-.652.95-.652zM3.917 33.232c-.686 0-1.21.29-1.574.857-.36.562-.525 1.385-.525 2.465 0 1.077.164 1.9.525 2.47.363.564.888.856 1.574.856s1.214-.29 1.574-.856c.368-.57.56-1.392.56-2.47 0-1.08-.192-1.902-.56-2.468-.36-.57-.884-.858-1.57-.858zm10.693 0c-.686 0-1.21.29-1.575.857-.36.562-.524 1.385-.524 2.465 0 1.077.168 1.9.528 2.47.364.564.89.856 1.575.856.687 0 1.214-.29 1.575-.856.364-.57.558-1.392.558-2.47 0-1.08-.194-1.902-.558-2.468-.36-.57-.888-.858-1.574-.858zm16.04 0c-.687 0-1.212.29-1.576.857-.36.562-.525 1.385-.525 2.465 0 1.077.16 1.9.52 2.47.365.564.89.856 1.576.856.685 0 1.212-.29 1.573-.856.364-.57.56-1.392.56-2.47 0-1.08-.195-1.902-.56-2.468-.36-.57-.887-.858-1.573-.858zm16.038 0c-.687 0-1.21.29-1.575.857-.36.562-.525 1.385-.525 2.465 0 1.077.164 1.9.525 2.47.364.564.888.856 1.575.856.686 0 1.213-.29 1.574-.856.363-.57.557-1.392.557-2.47 0-1.08-.198-1.902-.56-2.468-.36-.57-.89-.858-1.575-.858zm10.692 0c-.686 0-1.21.29-1.574.857-.36.562-.525 1.385-.525 2.465 0 1.077.168 1.9.53 2.47.362.564.887.856 1.573.856s1.215-.29 1.575-.856c.364-.57.558-1.392.558-2.47 0-1.08-.194-1.902-.558-2.468-.36-.57-.888-.858-1.574-.858zm-59.104.103l-1.444.31v.787l1.476-.308v4.903H-3.07v.72H.474v-.72H-.872v-5.692h-.852zm10.692 0l-1.443.31v.787L9 34.124v4.903H7.624v.72h3.543v-.72H9.82v-5.692h-.85zm10.693 0l-1.44.31v.787l1.477-.308v4.903H18.32v.72h3.54v-.72h-1.344v-5.692h-.853zm5.35 0l-1.443.31v.787l1.476-.308v4.903h-1.377v.72h3.543v-.72h-1.35v-5.692h-.853zm10.693 0l-1.442.31v.787l1.477-.308v4.903H34.36v.72h3.54v-.72h-1.345v-5.692H35.7zm5.347 0l-1.444.31v.787l1.476-.308v4.903H39.7v.72h3.544v-.72H41.9v-5.692h-.854zm10.692 0l-1.445.31v.787l1.476-.308v4.903h-1.375v.72h3.542v-.72h-1.35v-5.692h-.85zm-47.823.583c.43 0 .736.21.95.65.215.438.33 1.11.33 1.99 0 .877-.115 1.55-.33 1.99-.214.436-.52.65-.95.65-.428 0-.737-.214-.95-.65-.216-.44-.33-1.113-.33-1.99 0-.88.114-1.552.33-1.99.213-.44.522-.65.95-.65zm10.69 0c.43 0 .74.21.95.65.218.438.33 1.11.33 1.99 0 .877-.112 1.55-.33 1.99-.21.436-.52.65-.95.65-.426 0-.735-.214-.95-.65-.214-.44-.33-1.113-.33-1.99 0-.88.116-1.552.33-1.99.215-.44.524-.65.95-.65zm16.04 0c.43 0 .738.21.95.65.217.438.33 1.11.33 1.99 0 .877-.113 1.55-.33 1.99-.212.436-.52.65-.95.65-.427 0-.736-.214-.952-.65-.214-.44-.33-1.113-.33-1.99 0-.88.114-1.552.327-1.99.216-.44.525-.65.952-.65zm16.04 0c.43 0 .736.21.95.65.216.438.33 1.11.33 1.99 0 .877-.114 1.55-.33 1.99-.214.436-.52.65-.95.65-.428 0-.737-.214-.953-.65-.213-.44-.328-1.113-.328-1.99 0-.88.114-1.552.327-1.99.216-.44.525-.65.952-.65zm10.69 0c.43 0 .74.21.95.65.218.438.33 1.11.33 1.99 0 .877-.112 1.55-.33 1.99-.21.436-.52.65-.95.65-.425 0-.734-.214-.95-.65-.213-.44-.33-1.113-.33-1.99 0-.88.117-1.552.33-1.99.216-.44.525-.65.95-.65zM-1.43 44.204c-.685 0-1.21.288-1.574.857-.36.57-.524 1.39-.524 2.47 0 1.08.164 1.9.524 2.47.364.567.89.858 1.575.858.69 0 1.217-.29 1.578-.857.364-.57.558-1.39.558-2.47 0-1.08-.194-1.9-.558-2.47-.36-.566-.888-.854-1.574-.854zm16.04 0c-.686 0-1.21.288-1.575.857-.36.57-.524 1.39-.524 2.47 0 1.08.168 1.9.528 2.47.364.567.89.858 1.575.858.687 0 1.214-.29 1.575-.857.364-.57.558-1.39.558-2.47 0-1.08-.194-1.9-.558-2.47-.36-.566-.888-.854-1.574-.854zm5.346 0c-.686 0-1.21.288-1.574.857-.36.57-.525 1.39-.525 2.47 0 1.08.164 1.9.525 2.47.363.567.888.858 1.574.858s1.214-.29 1.574-.857c.364-.57.558-1.39.558-2.47 0-1.08-.194-1.9-.558-2.47-.36-.566-.888-.854-1.574-.854zm5.346 0c-.686 0-1.21.288-1.574.857-.36.57-.525 1.39-.525 2.47 0 1.08.164 1.9.525 2.47.363.567.888.858 1.574.858s1.214-.29 1.575-.857c.363-.57.557-1.39.557-2.47 0-1.08-.194-1.9-.557-2.47-.36-.566-.89-.854-1.575-.854zm5.347 0c-.69 0-1.215.288-1.58.857-.36.57-.524 1.39-.524 2.47 0 1.08.163 1.9.524 2.47.365.567.89.858 1.576.858.685 0 1.212-.29 1.573-.857.362-.57.556-1.39.556-2.47 0-1.08-.193-1.9-.557-2.47-.36-.566-.888-.854-1.574-.854zm16.035 0c-.687 0-1.21.288-1.575.857-.36.57-.524 1.39-.524 2.47 0 1.08.164 1.9.525 2.47.366.567.89.858 1.577.858s1.213-.29 1.574-.857c.365-.57.56-1.39.56-2.47 0-1.08-.196-1.9-.56-2.47-.36-.566-.887-.854-1.573-.854zm-43.066.103l-1.443.308v.79l1.475-.31v4.903H2.277v.72H5.82v-.72H4.474v-5.69H3.62zm5.346 0l-1.443.308v.79L9 45.095v4.902H7.624v.72h3.543v-.72H9.82v-5.69h-.85zm26.732 0l-1.445.308v.79l1.476-.31v4.903H34.35v.72h3.542v-.72H36.55v-5.69h-.85zm5.344 0l-1.443.308v.79l1.476-.31v4.903H39.7v.72h3.544v-.72H41.9v-5.69h-.854zm10.693 0l-1.445.308v.79l1.476-.31v4.903H50.39v.72h3.543v-.72H52.59v-5.69h-.85zm5.345 0l-1.443.308v.79l1.475-.31v4.903H55.74v.72h3.542v-.72h-1.344v-5.69h-.853zm-58.514.582c.43 0 .74.21.95.65.217.435.33 1.11.33 1.99 0 .874-.113 1.545-.33 1.985-.212.437-.52.652-.95.652-.427 0-.735-.216-.95-.653-.215-.44-.33-1.11-.33-1.988 0-.88.115-1.553.33-1.99.215-.44.523-.65.95-.65zm16.04 0c.43 0 .737.21.95.65.216.435.33 1.11.33 1.99 0 .874-.114 1.545-.33 1.985-.213.437-.52.652-.95.652-.428 0-.737-.216-.95-.653-.216-.44-.33-1.11-.33-1.988 0-.88.114-1.553.33-1.99.213-.44.522-.65.95-.65zm5.345 0c.43 0 .74.21.95.65.218.435.33 1.11.33 1.99 0 .874-.112 1.545-.33 1.985-.21.437-.52.652-.95.652-.425 0-.734-.216-.95-.653-.213-.44-.33-1.11-.33-1.988 0-.88.117-1.553.33-1.99.216-.44.525-.65.95-.65zm5.347 0c.43 0 .74.21.95.65.217.435.33 1.11.33 1.99 0 .874-.113 1.545-.33 1.985-.21.437-.52.652-.95.652-.426 0-.735-.216-.95-.653-.214-.44-.33-1.11-.33-1.988 0-.88.116-1.553.33-1.99.215-.44.524-.65.95-.65zm5.347 0c.428 0 .737.21.95.65.216.435.328 1.11.328 1.99 0 .874-.112 1.545-.328 1.985-.213.437-.522.652-.95.652-.428 0-.737-.216-.953-.653-.212-.44-.327-1.11-.327-1.988 0-.88.114-1.553.327-1.99.216-.44.525-.65.952-.65zm16.038 0c.43 0 .737.21.95.65.217.435.33 1.11.33 1.99 0 .874-.113 1.545-.33 1.985-.213.437-.52.652-.95.652-.427 0-.736-.216-.952-.653-.213-.44-.328-1.11-.328-1.988 0-.88.115-1.553.328-1.99.216-.44.525-.65.952-.65zM-1.43 55.17c-.685 0-1.21.29-1.574.858-.36.566-.524 1.39-.524 2.47 0 1.077.164 1.9.524 2.47.364.564.89.856 1.575.856.69 0 1.217-.292 1.578-.857.364-.57.558-1.394.558-2.47 0-1.08-.194-1.904-.558-2.47-.36-.57-.888-.857-1.574-.857zm32.08 0c-.687 0-1.212.29-1.576.858-.36.566-.525 1.39-.525 2.47 0 1.077.16 1.9.52 2.47.365.564.89.856 1.576.856.685 0 1.212-.292 1.573-.857.364-.57.56-1.394.56-2.47 0-1.08-.195-1.904-.56-2.47-.36-.57-.887-.857-1.573-.857zm10.69 0c-.685 0-1.21.29-1.573.858-.36.566-.525 1.39-.525 2.47 0 1.077.164 1.9.525 2.47.363.564.888.856 1.574.856.69 0 1.218-.292 1.58-.857.362-.57.556-1.394.556-2.47 0-1.08-.194-1.904-.557-2.47-.36-.57-.89-.857-1.576-.857zm10.694 0c-.686 0-1.21.29-1.575.858-.36.566-.528 1.39-.528 2.47 0 1.077.164 1.9.524 2.47.363.564.888.856 1.574.856s1.214-.292 1.575-.857c.364-.57.558-1.394.558-2.47 0-1.08-.194-1.904-.558-2.47-.36-.57-.888-.857-1.574-.857zm5.346 0c-.686 0-1.21.29-1.574.858-.36.566-.525 1.39-.525 2.47 0 1.077.168 1.9.53 2.47.362.564.887.856 1.573.856s1.215-.292 1.575-.857c.364-.57.558-1.394.558-2.47 0-1.08-.194-1.904-.558-2.47-.36-.57-.888-.857-1.574-.857zm-53.758.103l-1.443.31v.787l1.472-.308v4.903H2.277v.72H5.82v-.72H4.474v-5.693H3.62zm5.346 0l-1.443.31v.787L9 56.067v4.903H7.624v.72h3.543v-.72H9.82v-5.692h-.85zm5.347 0l-1.444.31v.787l1.48-.308v4.903h-1.38v.72h3.543v-.72h-1.345v-5.693h-.852zm5.346 0l-1.44.31v.787l1.477-.308v4.903H18.32v.72h3.54v-.72h-1.344v-5.693h-.853zm5.35 0l-1.443.31v.787l1.476-.308v4.903h-1.377v.72h3.543v-.72h-1.35v-5.693h-.853zm10.693 0l-1.442.31v.787l1.477-.308v4.903H34.36v.72h3.54v-.72h-1.345v-5.693H35.7zm10.693 0l-1.443.31v.787l1.475-.308v4.903H45.05v.72h3.542v-.72h-1.345v-5.693h-.853zm-47.82.583c.428 0 .737.212.95.652.216.437.328 1.108.328 1.988 0 .88-.11 1.55-.327 1.99-.213.438-.522.65-.95.65-.428 0-.736-.212-.952-.65-.213-.44-.327-1.11-.327-1.99 0-.88.114-1.55.328-1.986.217-.44.525-.652.95-.652zm32.077 0c.428 0 .737.212.95.652.216.437.328 1.108.328 1.988 0 .88-.11 1.55-.327 1.99-.213.438-.522.65-.95.65-.428 0-.737-.212-.953-.65-.214-.44-.33-1.11-.33-1.99 0-.88.114-1.55.327-1.986.216-.44.525-.652.952-.652zm10.69 0c.43 0 .74.212.952.652.216.437.328 1.108.328 1.988 0 .88-.112 1.55-.328 1.99-.213.438-.522.65-.95.65-.427 0-.736-.212-.952-.65-.213-.44-.328-1.11-.328-1.99 0-.88.115-1.55.328-1.986.216-.44.525-.652.95-.652zm10.694 0c.43 0 .738.212.95.652.217.437.33 1.108.33 1.988 0 .88-.113 1.55-.33 1.99-.212.438-.52.65-.95.65-.427 0-.735-.212-.95-.65-.215-.44-.33-1.11-.33-1.99 0-.88.115-1.55.33-1.986.215-.44.523-.652.95-.652zm5.346 0c.43 0 .738.212.95.652.217.437.33 1.108.33 1.988 0 .88-.113 1.55-.33 1.99-.212.438-.52.65-.95.65-.426 0-.735-.212-.95-.65-.214-.44-.33-1.11-.33-1.99 0-.88.116-1.55.33-1.986.215-.44.524-.652.95-.652z" font-size="8" letter-spacing="0" word-spacing="0" fill="url(#e)" font-family="Sans"/><path fill="#f1e0b0" d="M45.788 29.805c-.267-.044-.62-.038-.994.014.053-1.73.15-3.48.15-4.66.002-7.01-2.414-10.01-5.537-11.696-2.143-1.157-5.206-1.594-8.115-1.616-2.91.023-5.972.46-8.115 1.616-3.124 1.687-5.54 4.688-5.537 11.692 0 1.342.124 3.42.167 5.362-.408-.472-.843-.777-1.2-.718-1.805.295-1.158 3.496-1.1 4.804.06 1.33.228 2.888 1.184 3.96.25.276.618.375.988.147.063 1.23.22 2.307.555 2.893.846 1.478 1.868 3.804 5.157 5.92 3.29 2.11 5.55 3.212 7.726 3.212.055 0 .11-.007.164-.007h.028c.055 0 .11.006.164.006 2.177 0 4.437-1.1 7.726-3.214 3.29-2.116 4.31-4.44 5.156-5.92.326-.574.485-1.612.55-2.805.305.1.593-.005.798-.234.957-1.07 1.13-2.63 1.188-3.96.055-1.31.704-4.51-1.1-4.804z"/><path enable-background="new" d="M28.575 32.877c-.418.384-2.133 3.528-1.014 3.897 1.157.385 2.886-.04 4.048-.173.615-.07 4.305 1.23 1.865-1.42-.38-.412-1.133-.31-1.52.036-.27.236-.598.404-1.02.36-.537-.052-.848-.483-1.353-.61-.274-.07-.454-.034-.705.05-1.402.475-.705-1.162-.297-2.136z" opacity=".2" fill="#605356"/><path d="M46.582 29.892c.135-.665.538-.127.622-.838.09-.74.045-2.572.176-3.308.134-.756.28-1.342.3-2.158.02-.832.18-2.716.114-3.565-.802.11-.875-1.36-.886-1.875-.02-.856-.31-2.58-.366-3.347-1.965.75-2.047-.73-2.17-1.953-.666 1.112-1.85-1.83-2.475-2.536-.29-.326-.524.457-.724.077-.172-.325-.292-.788-.51-1.087-.36-.49-.81-.334-1.41-.45-.45-.088-.813-.267-1.228-.457-.895-.41-1.61.335-2.045-.58-.968.047-1.58-.682-2.546-1.092-.45-.19-.72.774-1.062.38-.262-.3-.496-.75-.923-.883-.396.476-1.23.124-1.79.282-.386.11-.76-.105-1.1-.087-.536.026-.315.2-.71.453-1.307.614-2.86 1.607-3.746 1.062-.406.796-.92.52-1.372 1.297-.2.338-.377-.32-.75-.14-.49.237-.555.835-.974.92-.46.093-2.08 1.3-2.29 1.804-.275.652.163 2.136-.755 1.804-.1-.128-.106.988-.248.924-.457 1.75-.092.49-.87 2.11-.595-.02-.604 5.447-.644 5.98-.026.354 0 .744.025 1.095.05.673.248 1.386.293 2.047.083 1.146.006 2.296.05 3.442.026.763.43 1.836.193 2.568.96.02 1.116 1.602 1.13 2.26.02.783.048 1.606.12 2.38.025.28.014.628.127.894.022.068.533.58.54.346.04-1.413-.025-2.832-.06-4.252-.017-.77.115-1.445.174-2.192.055-.705.057-1.387.138-2.08.053-.443.16-.88.294-1.3.095-.3.314-.608.357-.887.05-.32-.07-.708-.09-1.04-.068-1.01.1-1.957.076-2.955-.01-.407-.032-.815-.028-1.222.01-.818.104.48.322-.304.373-1.344.93.545 2.062-.32.598-.458 1.105.11 1.88-.135.64-.2 1.298-.266 1.967-.39.626-.12 1.16.5 1.72.174.562-.33 1.415-1.25 2.05-1.464.77-.262 1.61-1.335 2.453-1.355.51-.013.897 1.12 1.377 1.208.32.056.728.092 1.058.04.37-.06.793-.194 1.206-.22.48-.03.85 1.247 1.286 1.416.773.3 1.636.414 2.363.803.654.346 1.2-.043 1.778.42.314.245.756.59.96.91.21.334.328-.326.473.044.57 1.47.848.47.966 2.036.05.71-.025-1.75-.198-1.06-.165.67-.407 1.23-.095 1.92.093.21.247 2.518.358 2.704.655 1.117.686.634.76 1.89.082 1.388.075 2.795-.075 4.18-.06.558-.023 1.084-.037 1.64-.01.452-.227.95-.145 1.413.575.058.494-.122.61-.63.095-.428.243-.844.27-1.284.05-.71-.002-1.316.166-1.99.145-.564.285-1.084.41-1.64.148-.636.387-.796.948-1.074.018-.007.105-.53.155-.777z" fill="#ccc"/><path fill="#ccc" d="M44.125 32.03c.113 2.5.178 7.61-.325 9.357-.563 1.955-3.646 4.855-3.875 3.487-.153-.913.375-4.125-.66-5.296-.284-.322-3.788-2.55-4.417-2.812-.786-.33-1.266-.157-2.065.05-.512.13-.978.19-1.443.19-.465 0-.93-.06-1.443-.19-.798-.207-1.278-.38-2.065-.05-.63.262-4.133 2.49-4.418 2.812-1.034 1.17-.506 4.383-.66 5.296-.228 1.368-3.312-1.53-3.874-3.487-.503-1.747-.438-6.858-.325-9.357l-.917-1.406c.01 2.55.056 9.09.28 10.243.243 2.038 1.4 3.82 4.63 6.46 2.333 1.59 5.295 3.806 8.743 3.804 3.37 0 6.51-2.21 8.84-3.8 3.235-2.64 4.39-4.42 4.63-6.46.23-1.153.275-7.693.285-10.243l-.917 1.406zm-5.77 14.772c-.694.75-2.837 2.097-3.682 2.235-2.246.366-3.083-2.27-2.667-2.972.32-.537.484-.853 1.35-1.252h-4.03c.863.4 1.027.715 1.35 1.252.414.7-.423 3.338-2.67 2.972-.843-.137-2.987-1.486-3.68-2.235-.84-.908-.533-5.066-.47-5.68.094-.84 3.17-2.507 3.71-2.75 1.126-.485 2.283.084 3.724.09v.004l.05-.002.05.002v-.003c1.44-.007 2.597-.576 3.722-.09.54.242 3.617 1.91 3.71 2.75.065.613.372 4.77-.468 5.68z" id="d"/><path d="M39.34 24.965c-1.667-.534-3.637-.256-4.945.816-1.585 1.3-.063 2.937 1.363 3.53 1.242.518 2.87.75 4.267.45 1.31-.285 2.2-1.55 1.98-2.734-.212-1.144-1.554-1.7-2.664-2.058z" enable-background="new" opacity=".2" fill="#98898d"/><path d="M34.66 27.345c.502-.765 1.218-1.4 2.13-1.516 1.07-.138 2.076.084 3.002.544.55.274 1.102.747 1.4 1.294-.275.266-2.2.75-2.69.863-.977.234-2.033.14-2.936-.203-.33-.128-1.312-.537-.907-.956v-.03z" fill="#fff"/><g transform="matrix(1.217 0 0 1.217 -4.498 -8.374)" clip-path="url(#f)"><path d="M32.628 29.45c.095.676.635 1.168 1.205 1.1.57-.07.957-.67.86-1.348-.094-.675-.633-1.167-1.204-1.1-.575.07-.96.672-.865 1.347z" fill="#594a42"/><path d="M33.696 28.773c.032.187.188.318.35.295.164-.023.268-.195.234-.38-.03-.188-.188-.32-.35-.295-.16.022-.266.192-.234.38z" fill="#fff"/></g><path d="M20.374 29.08c.43 1.234 2.807 1.313 3.952 1.16 1.103-.145 2.42-.815 3.113-1.628.87-1.03.97-2.17-.41-2.883-.987-.51-2.31-.51-3.427-.4-.853.08-2.4.594-2.85 1.22-.455.63-.623 1.83-.382 2.526z" enable-background="new" opacity=".2" fill="#98898d"/><path d="M23.902 29.186c.612-.075 3.994-.685 3.84-1.417-.935-.89-1.975-1.468-3.485-1.506-.95-.025-2.278.368-2.788 1.256-.7 1.218 1.394 1.79 2.43 1.664z" fill="#fff"/><g transform="matrix(1.217 0 0 1.217 -4.498 -8.374)"><defs><path d="M23.34 30.868c.503-.062 3.283-.563 3.156-1.165-.768-.73-1.623-1.203-2.864-1.234-.78-.025-1.872.3-2.29 1.03-.574 1 1.148 1.47 1.998 1.365z" id="a"/></defs><clipPath><use height="124.246" width="124.234" overflow="visible" xlink:href="#a"/></clipPath><g clip-path="url(#g)"><path d="M21.546 29.883c.06.734.607 1.297 1.22 1.254.614-.042 1.063-.67 1-1.406-.06-.732-.606-1.294-1.22-1.252-.614.043-1.062.674-1 1.408z" fill="#594a42"/><path d="M22.724 29.21c.023.206.184.357.356.34.174-.017.296-.195.27-.4-.02-.203-.182-.353-.354-.337-.172.016-.295.195-.272.398z" fill="#fff"/></g></g><path d="M36.057 42.582c-.152.12-.292.255-.464.345-.91.47-1.858.75-2.9.84-.613.053-1.19-.112-1.787-.12-.443-.002-.842.18-1.28.145-.457-.037-.85-.13-1.262-.262-.516-.166-.937-.48-1.38-.775-.343-.23-1.066-1.176-1.172-1.295.265.64.454.872.546 1.042.566 1.054 1.598 1.567 2.007 1.715.466.167.92.195 1.417.203.722.012 3.43-.04 4.057-.04 1.28 0 2.19-1.78 2.214-1.798z" enable-background="new" opacity=".2" fill="#5e5355"/><path d="M34.447 40.303c-.256-.036-1.91-.098-3.274-.123-1.365.025-2.99.056-3.246.094-.426.06-2.03.805-2.03.805s.443 1.13 1.64 1.413c.91.214 2.45.322 3.637.353 1.188-.032 2.73-.14 3.638-.354 1.197-.282 1.64-1.417 1.64-1.417s-1.577-.716-2.005-.777z" fill="#5a4b42"/><path d="M34.564 42.364c-.035-.167-.326-.38-.555-.186-.02-.02-.03-.04-.05-.06-.12-.126-.55-.08-.66.11-.04-.04-.087-.074-.15-.096-.276-.098-.51-.045-.61.114-.033-.056-.08-.1-.14-.12-.25-.086-.522-.016-.615.172-.025-.187-.464-.22-.636-.1-.05.037-.08.094-.1.162-.018-.067-.05-.125-.1-.16-.17-.122-.586-.1-.637.098-.092-.187-.366-.258-.616-.172-.06.02-.106.064-.14.12-.1-.158-.308-.254-.586-.157-.06.02-.11.104-.145.145-.11-.188-.54-.236-.66-.11-.018.02-.033.04-.048.06-.242-.158-.53.083-.563.214-.008.036-.013.066-.017.096.91.212 2.448.322 3.632.352 1.09-.03 2.48-.124 3.405-.306.005-.038.006-.085-.014-.182z" fill="#fff"/><path enable-background="new" d="M36.088 40.735c-.15-.062-.294-.116-.41-.163-.41-.17-.788-.384-1.173-.585-.33-.154-.664-.3-1.05-.424-.937-.3-2.12.203-3.118.064-.35-.05-.696-.117-1.052-.106-.143.008-.288.02-.435.06-.455.11-.986.23-1.402.42-.433.195-.798.51-1.223.725-.203.102-.393.173-.555.258.116.04.24.083.3.09.168.028.36-.077.508-.142.29-.126.543-.293.83-.41.37-.154.813-.16 1.23-.16.943 0 1.865.063 2.804.135 1.26.1 2.704-.2 3.805.44.3.175.947.15 1.3.148.05 0 .09 0 .126-.005-.14-.122-.315-.24-.485-.338z" opacity=".2" fill="#5e5355"/><path d="M27.154 40.52c-.01.1.017.21.057.286.077.136.23.115.39.068.097.233.453.146.532.024.04.107.153.164.386.154.138-.006.373-.033.443-.183.01.11.056.215.195.252.24.066.604-.017.714-.168l.023-.033.02.054c.09.197.48.197.73.187.217-.007.32-.07.386-.157.06.09.17.15.384.158.25.01.64.01.73-.186.007-.017.014-.034.02-.053.01.01.016.024.022.034.112.15.477.236.717.168.14-.037.183-.14.193-.256.102.15.257.18.453.182.175 0 .34-.05.377-.155.077.148.435.21.534-.024.157.047.31.07.386-.068.056-.105.065-.237.042-.352l-.01-.04c-.154-.064-.308-.114-.457-.152-.383-.03-1.622-.06-2.775-.084-1.418.027-3.476.07-3.76.11-.18.028-.453.122-.726.233z" fill="#fff"/></svg>