<svg xmlns="http://www.w3.org/2000/svg" width="136.913" height="136.914" viewBox="0 0 136.913 136.914"><circle fill="#4ABC96" cx="68.456" cy="68.457" r="63.333"/><path fill="#505251" d="M76.77 105.905c-2.03-5.91-3.18-7.45-7.04-7.45-3.81 0-5.13 1.955-7.037 7.45-6.502.63-11.064 2.107-11.064 3.828 0 2.295 8.1 4.154 18.1 4.154s18.102-1.86 18.102-4.154c0-1.72-4.564-3.197-11.064-3.828z"/><path fill="#3D4040" d="M115.543 95.148c0 3.024-2.45 5.476-5.475 5.476 0 0-22.53 3.174-41.525 3.174-14.54 0-39.25-3.174-39.25-3.174-3.025 0-5.477-2.45-5.477-5.476V41.07c0-3.024 2.45-5.476 5.477-5.476h80.775c3.023 0 5.475 2.45 5.475 5.476v54.078z"/><path fill="#5DC0C1" d="M27.516 39.547h84.135v56.905H27.52z"/><circle fill="#FDF2F7" cx="52.655" cy="69.302" r="4.384"/><circle fill="#FDF2F7" cx="74.76" cy="61.84" r="4.383"/><circle fill="#FDF2F7" cx="96.585" cy="51.955" r="4.384"/><path fill="#357180" d="M111.45 43.433c-3.806-.975-6.608 2.007-10.157 5.777l-.783.83c.285.58.46 1.225.46 1.914 0 2.42-1.966 4.383-4.386 4.383-.805 0-1.55-.232-2.197-.61-3.787 2.894-8.578 5.292-15.248 5.9l-.02.003c.002.07.02.138.02.21 0 2.42-1.963 4.384-4.383 4.384-1.923 0-3.538-1.245-4.13-2.965-2.494.59-4.97 1.23-6.88 1.73l-1.7.434c-2.07.528-3.936 1.048-5.646 1.634.396.657.636 1.42.636 2.24 0 2.42-1.964 4.384-4.384 4.384-1.79 0-3.322-1.074-4.004-2.61-3.044 2.378-5.75 5.785-8.724 11.14-2.1 3.777-4.327 5.69-6.62 5.69-.05 0-.094 0-.14-.002-2.862-.094-4.895-3.127-5.655-4.464V96.45h84.135V43.49l-.2-.06z"/><path fill="#FDF7FA" d="M27.506 81.497v1.956c.76 1.338 2.844 4.384 5.71 4.478.044.006.09.007.134.007 2.295 0 4.52-1.914 6.62-5.69C46.504 70.49 51.73 68.1 62.094 65.457l1.697-.44c4.36-1.13 11.65-3.017 15.395-3.36 11.447-1.046 17.383-7.35 22.152-12.417 3.55-3.772 6.5-6.75 10.305-5.775l-.006-.87c-4.307-1.102-7.195 2.05-10.945 6.034-4.67 4.952-10.48 11.12-21.59 12.14-3.813.35-11.147 2.25-15.53 3.385l-1.695.437c-10.623 2.71-15.98 5.16-22.68 17.218-1.965 3.538-3.97 5.306-5.95 5.234-3.054-.1-5.188-4.53-5.21-4.576l-.528-.97zm.01 1.943l-.004-.01z"/></svg>