<?xml version="1.0" encoding="UTF-8" standalone="no"?>
<!-- Created with Inkscape (http://www.inkscape.org/) -->

<svg
   xmlns:dc="http://purl.org/dc/elements/1.1/"
   xmlns:cc="http://creativecommons.org/ns#"
   xmlns:rdf="http://www.w3.org/1999/02/22-rdf-syntax-ns#"
   xmlns:svg="http://www.w3.org/2000/svg"
   xmlns="http://www.w3.org/2000/svg"
   xmlns:sodipodi="http://sodipodi.sourceforge.net/DTD/sodipodi-0.dtd"
   xmlns:inkscape="http://www.inkscape.org/namespaces/inkscape"
   width="2048mm"
   height="2048mm"
   viewBox="0 0 7256.6924 7256.6925"
   id="svg4188"
   version="1.1"
   inkscape:version="0.91 r13725"
   sodipodi:docname="bytewise.svg">
  <defs
     id="defs4190" />
  <sodipodi:namedview
     id="base"
     pagecolor="#ffffff"
     bordercolor="#666666"
     borderopacity="1.0"
     inkscape:pageopacity="0.0"
     inkscape:pageshadow="2"
     inkscape:zoom="0.04375"
     inkscape:cx="897.23213"
     inkscape:cy="1126.9988"
     inkscape:document-units="px"
     inkscape:current-layer="layer1"
     showgrid="false"
     inkscape:window-width="1920"
     inkscape:window-height="1016"
     inkscape:window-x="0"
     inkscape:window-y="25"
     inkscape:window-maximized="1" />
  <metadata
     id="metadata4193">
    <rdf:RDF>
      <cc:Work
         rdf:about="">
        <dc:format>image/svg+xml</dc:format>
        <dc:type
           rdf:resource="http://purl.org/dc/dcmitype/StillImage" />
        <dc:title />
      </cc:Work>
    </rdf:RDF>
  </metadata>
  <g
     inkscape:label="Layer 1"
     inkscape:groupmode="layer"
     id="layer1"
     transform="translate(0,6204.3306)">
    <ellipse
       style="opacity:1;fill:#2c96f3;fill-opacity:1"
       id="path5833"
       cx="3655.6528"
       cy="-2597.1697"
       rx="3478.3298"
       ry="3486.2046" />
    <path
       style="font-style:oblique;font-variant:normal;font-weight:bold;font-stretch:normal;font-size:406.97137451px;line-height:125%;font-family:'Nimbus Mono';-inkscape-font-specification:'Nimbus Mono Bold Oblique';text-align:start;letter-spacing:0px;word-spacing:0px;writing-mode:lr-tb;text-anchor:start;fill:#ffffff;fill-opacity:1;stroke:none;stroke-width:1px;stroke-linecap:butt;stroke-linejoin:miter;stroke-opacity:1"
       d="m 4282.5016,-4857.506 -1758.4837,431.7964 c -361.1129,86.3516 -510.2675,227.6499 -510.2675,494.559 0,180.5576 117.7687,314.023 290.4699,314.023 78.5068,0 102.0526,-0.023 259.057,-47.1328 l 722.2329,-180.5385 -665.9236,3238.06184 c 1097.9661,454.5882 2336.0024,455.76754 2542.5273,-956.24474 l 93.3911,-443.6258 c 28.0227,-135.4301 42.0502,-266.1834 42.0502,-392.272 0,-583.7445 -280.2274,-910.6445 -775.2428,-910.6445 -226.1072,0 -432.5341,62.0463 -606.0064,180.2759 z m 137.0635,2014.9386 c 256.8462,0 406.2897,186.8029 406.2897,513.7007 0,88.7293 -9.3149,196.1324 -32.6656,289.5339 l -107.412,509.0261 c -102.7362,485.676 -387.6121,803.23442 -719.1798,803.23442 -256.8444,0 -401.6161,-186.80518 -401.6161,-518.37482 0,-107.4054 9.3515,-191.4583 28.03,-284.8596 l 107.4122,-509.0261 c 102.7409,-485.676 387.5741,-803.2346 719.1416,-803.2346 z"
       id="text3344-14-3-4-8-7-1-9-8-1-5-8-6-0"
       inkscape:connector-curvature="0"
       sodipodi:nodetypes="ccsscccccssccssccssccs" />
  </g>
</svg>
