<svg xmlns="http://www.w3.org/2000/svg" width="136.914" height="136.914" viewBox="0 0 136.914 136.914"><circle fill="#A2D4DE" cx="68.456" cy="68.458" r="63.333"/><path fill="#6CC077" d="M113.24 23.674c24.732 24.732 24.734 64.832-.002 89.566-24.73 24.732-64.832 24.732-89.564 0l89.566-89.566z"/><path fill="#fff" d="M124.338 38.645c-.484-.906-.988-1.8-1.516-2.676-58.635 22.84-84.53 77.863-88.11 86.07.866.545 1.743 1.07 2.636 1.574 2.695-6.294 28.076-62.236 86.99-84.972z"/><path fill="#CC3432" d="M68.64 26.59c-15.42 0-27.92 12.5-27.92 27.916 0 20.307 26.35 47.46 28.718 47.46s27.115-29.546 27.115-47.46c0-15.416-12.496-27.916-27.912-27.916zm-.134 37.248c-6.053 0-10.955-4.77-10.955-10.658s4.906-10.662 10.96-10.662c6.05 0 10.954 4.773 10.954 10.662S74.56 63.838 68.508 63.838z"/><path fill="#BA2E2D" d="M69.438 102.465c-2.465 0-29.217-27.44-29.217-47.96 0-15.667 12.75-28.415 28.42-28.415 15.67 0 28.416 12.748 28.416 28.416 0 17.815-24.89 47.96-27.615 47.96zM68.64 27.09c-15.118 0-27.42 12.3-27.42 27.416 0 20.38 25.895 46.467 28.213 46.955 2.37-.61 26.62-29.19 26.62-46.95 0-15.118-12.297-27.417-27.412-27.417zm-.134 37.248c-6.316 0-11.455-5.006-11.455-11.158 0-6.156 5.14-11.162 11.46-11.162s11.45 5.006 11.45 11.162c0 6.153-5.138 11.158-11.454 11.158zm0-21.32c-5.765 0-10.455 4.56-10.455 10.162 0 5.602 4.69 10.158 10.46 10.158 5.765 0 10.454-4.557 10.454-10.158 0-5.603-4.69-10.162-10.454-10.162z"/></svg>