<svg xmlns="http://www.w3.org/2000/svg" width="136.913" height="136.914" viewBox="0 0 136.913 136.914"><circle fill="#FFCE00" cx="68.457" cy="68.456" r="63.333"/><path fill="#525252" d="M105.22 91.858c0 4.297-1.008 4.215-5.51 4.215H38.972c-4.504 0-8.154-3.484-8.154-7.78V51.766c0-4.297 3.65-7.783 8.154-7.783h60.303c4.504 0 5.945 1.54 5.945 5.838v42.04z"/><path fill="#444545" d="M103.634 90.562c0 4.297-1.236 4.215-5.547 4.215h-57.88c-4.31 0-7.806-3.484-7.806-7.78v-33.23c0-4.298 3.5-7.782 7.81-7.782H98.6c4.313 0 5.04 1.97 5.04 6.268v38.31z"/><path fill="#63BD6E" d="M49.536 43.19l51.223 6.833-2.96 22.165-51.22-6.832z"/><path fill="#117F4A" d="M97.07 71.06l-49.485-6.598L50.27 44.32l49.485 6.6-2.686 20.14zm2.177-19.678l-48.61-6.48-2.546 19.1 48.615 6.48 2.545-19.1zM82.41 58.856c.646-4.828-2.747-9.264-7.575-9.91-4.828-.643-9.266 2.75-9.906 7.578-.65 4.828 2.742 9.266 7.572 9.908 4.828.645 9.264-2.747 9.906-7.576z"/><path fill="#63BD6E" d="M72.468 64.966l.193-1.438c-.582-.166-1.05-.39-1.39-.676-.34-.283-.612-.7-.813-1.246-.207-.547-.28-1.2-.227-1.96l1.23-.1c-.012.774.078 1.362.266 1.765.264.56.633.895 1.094 1.01l.61-4.57c-.476-.172-.95-.47-1.42-.885-.35-.3-.593-.69-.735-1.17-.145-.48-.178-1.008-.102-1.584.137-1.023.545-1.81 1.23-2.36.464-.37 1.1-.552 1.9-.544l.09-.688.708.096-.09.686c.68.18 1.2.494 1.55.95.455.594.68 1.356.666 2.283l-1.268.05c.006-.577-.084-1.03-.268-1.358-.184-.33-.465-.568-.84-.72l-.555 4.147c.576.255.955.45 1.14.585.347.246.616.525.808.84.195.314.33.672.404 1.076.076.403.084.83.025 1.274-.136 1.002-.507 1.8-1.122 2.393-.613.595-1.342.858-2.182.79l-.193 1.453-.707-.094zm1.678-12.572c-.475.025-.867.203-1.188.533-.314.328-.506.738-.57 1.23-.064.487-.008.915.176 1.276.182.36.53.676 1.05.945l.532-3.984zm-.62 10.02c.473-.003.89-.194 1.25-.573.357-.373.578-.87.66-1.48.072-.52.02-.953-.152-1.295-.17-.346-.563-.686-1.172-1.02l-.586 4.373zm-33.682-9.086L86.9 31.963l9.242 20.36-47.054 21.364z"/><path fill="#117F4A" d="M94.927 51.76l-45.46 20.636-8.4-18.502 45.46-20.637 8.4 18.502zM86.34 33.92L41.688 54.19l7.967 17.547L94.31 51.464 86.34 33.92z"/><circle fill="#117F4A" cx="67.997" cy="52.827" r="8.82"/><path fill="#63BD6E" d="M70.833 59.632l-.598-1.318c-.586.17-1.1.225-1.537.164-.44-.06-.893-.266-1.355-.625-.46-.355-.873-.87-1.23-1.54l.993-.74c.402.663.79 1.116 1.16 1.356.52.33 1.008.42 1.465.27L67.827 53c-.494.106-1.053.106-1.672 0-.454-.07-.868-.27-1.243-.6-.375-.33-.686-.76-.926-1.29-.425-.94-.495-1.825-.21-2.655.2-.56.64-1.05 1.324-1.467l-.284-.63.648-.296.29.63c.667-.206 1.276-.21 1.815-.013.702.262 1.296.79 1.776 1.584l-1.046.71c-.306-.49-.62-.823-.95-1.007-.328-.186-.693-.24-1.092-.166l1.73 3.81c.623-.09 1.05-.125 1.277-.11.42.026.8.12 1.13.286.332.16.633.394.912.694.28.304.51.66.695 1.07.417.92.522 1.794.317 2.62-.21.83-.686 1.44-1.434 1.828l.605 1.335-.647.296zM65.59 48.085c-.388.273-.626.633-.722 1.078-.092.447-.037.896.168 1.346.203.45.48.78.824.99.348.21.813.29 1.39.242l-1.66-3.66zm4.792 8.824c.398-.256.646-.64.752-1.15.104-.51.03-1.047-.227-1.61-.215-.48-.488-.82-.814-1.02-.328-.2-.84-.282-1.537-.243l1.826 4.02z"/><path fill="#616161" d="M101.817 95.425c0 4.297-1.7 5.512-5.998 5.512H35.19c-4.297 0-4.375-.404-4.375-4.7v-44.04s.05-1.054.102-1.708c.112-1.48 1.194-2.94 1.194-2.94s.65 2.7 2.487 3.455c2.877 1.184 5.11 1.082 5.11 1.082h56.11c4.297 0 5.998.563 5.998 4.86V95.42z"/><path fill="#717171" d="M35.952 55.038l-4-.002c-.553 0-1-.45-1-1 0-.553.447-1 1-1l4 .002c.553 0 1 .447 1 1s-.447 1-1 1zM94.36 99.74h-1.975c-.55 0-1-.448-1-1s.45-1 1-1h1.975c3.334 0 3.885-.292 4.172-1.362.143-.533.688-.854 1.225-.707.533.147.852.69.707 1.23-.76 2.842-3.356 2.842-6.104 2.842zm-10.03 0h-8.056c-.553 0-1-.448-1-1s.447-1 1-1h8.057c.555 0 1 .446 1 1s-.445 1-1 1zm-16.112 0H60.16c-.552 0-1-.448-1-1s.448-1 1-1h8.058c.55 0 1 .446 1 1s-.45 1-1 1zm-16.114 0h-8.057c-.553 0-1-.448-1-1s.447-1 1-1h8.057c.553 0 1 .446 1 1s-.447 1-1 1zM99.71 89.6c-.553 0-1-.448-1-1v-8.06c0-.553.447-1 1-1s1 .447 1 1v8.06c0 .55-.447 1-1 1zm0-16.115c-.553 0-1-.447-1-1v-8.057c0-.55.447-1 1-1s1 .45 1 1v8.057c0 .553-.447 1-1 1zm-.31-16.082c-.423 0-.817-.273-.952-.7-.283-.897-.77-1.64-3.87-1.64l-2.23-.002c-.554 0-1-.443-1-1s.446-1 1-1l2.23.006c2.5 0 4.933.367 5.778 3.037.166.528-.127 1.09-.652 1.257-.1.03-.203.046-.303.046zM84.29 55.06l-8.057-.004c-.553 0-1-.45-1-1 0-.553.45-1 1-1h.002l8.057.004c.55 0 .998.447.998 1s-.447 1-1 1zm-16.11-.008h-.003l-8.057-.004c-.55 0-1-.447-.998-1 0-.553.447-1 1-1l8.057.004c.55 0 1 .45 1 1-.006.552-.45 1-1 1zm-16.115-.008l-8.057-.002c-.553 0-1-.45-1-1.002 0-.55.447-.998 1-.998l8.057.002c.553 0 1 .45 1 1.002 0 .55-.447.998-1 .998zM35.952 99.74h-4c-.553 0-1-.448-1-1s.447-1 1-1h4c.553 0 1 .446 1 1s-.447 1-1 1z"/><path fill="#616161" d="M97.976 93.524c0 3.645-1.28 3.92-5.012 3.92h-62.04v-42.22l62.24.027c3.733 0 4.812 1.035 4.812 4.678v33.6z"/><path fill="#727172" d="M105.354 78.188H85.9c-1.257 0-3.604-2.254-3.604-6.803s2.348-6.674 3.605-6.674h19.457c.647.005.577 13.48 0 13.48z"/><path fill="#575656" d="M105.354 79.27H85.9c-1.257 0-3.604-2.253-3.604-6.802s2.348-6.676 3.605-6.676h19.457c.647 0 .577 13.477 0 13.477z"/><ellipse fill="#D6CB78" cx="88.417" cy="72.569" rx="2.539" ry="2.971"/><ellipse fill="#ECE17E" cx="88.417" cy="72.569" rx="2.045" ry="2.395"/></svg>