<svg xmlns="http://www.w3.org/2000/svg" viewBox="0 0 744.09449 403.93677" height="114mm" width="210mm"><defs><clipPath id="a"><path d="M0 5116.783h8379.352V0H0v5116.783z"/></clipPath></defs><g clip-path="url(#a)" transform="matrix(.306 0 0 -.306 -796.777 497.48)"><path d="M5005.01 574.91c0 3.394-.03 6.868-.088 10.378l-1.035 759.59c0 212.138-99.825 214.18-213.205 214.18H2876.964c-113.38 0-228.004-2.026-228.004-214.164V585.296c0-212.143 114.625-210.758 228.004-210.758h1913.718c111.505 0 214.34-1.37 214.328 200.37" fill="#f5f6f7"/><path d="M5005.01 574.72c0 3.395-.03 6.973-.088 10.483l-1.035 759.68c0 212.138-99.825 214.276-213.205 214.276H2876.964c-113.38 0-227.796-2.13-227.796-214.268v-759.6c0-212.14 114.417-211.135 227.796-211.135h1913.718c111.504 0 214.34-1.18 214.328 200.56m-5.217.013c0-47.536-5.91-84.652-17.463-113.61-10.15-25.44-24.923-44.552-44.858-57.29-37.764-24.13-89.712-24.673-144.554-24.673h-1918.14c-54.628 0-111.116.58-152.068 26.05-21.747 13.524-37.568 33.404-48.734 60.17-12.6 30.2-18.808 70.74-18.808 119.915v759.6c0 49.496 6.29 90.115 19.05 120.728 11.318 27.16 27.43 47.115 49.437 61.01 18.536 11.7 41.62 19.185 70.66 23 25.278 3.322 51.255 3.525 82.65 3.525H4790.68c52.82 0 107.435.062 145.82-26.456 19.887-13.74 34.467-33.64 44.57-60.897 11.445-30.873 17.536-70.418 17.536-120.938l1.56-759.585v-10.4.27" fill="#a2afb2"/><path d="M2715.443 1061.2V871.333c0-15.028 2.64-24.967 8.066-30.39 6.56-6.557 17.262-6.532 29.65-6.532h1.183c22.307.01 38.324.58 38.324 37.986v189.868c0 15.028-2.64 24.97-8.07 30.39-6.562 6.56-17.263 6.534-29.654 6.534h-1.182v.002c-22.305-.01-38.32-.58-38.32-37.987" fill="#f5f6f7"/><path d="M2752.884 830.702l.592.002v8.126h.58v.003h-1.182c-12.388 0-23.09-.026-29.654 6.533-5.428 5.422-8.066 15.36-8.066 30.39v189.866c0 37.407 16.015 37.977 38.322 37.986v8.128h.58v.002c-23.203-.002-47.032-.3-47.032-46.115V875.755c0-17.536 3.32-29.02 10.45-36.14 8.95-8.94 21.803-8.927 35.41-8.913" fill="#a2afb2"/><path d="M2788.233 838.476c1.533 1.19 2.92 2.658 4.15 4.45 5.037 6.802 8.124 17.396 8.124 33.89v189.867c0 17.535-3.32 29.02-10.45 36.14-8.947 8.94-21.8 8.926-35.41 8.913h-1.172v-8.13h1.182c12.39 0 23.092.024 29.655-6.533 5.428-5.422 8.067-15.364 8.067-30.39V876.815c0-37.406-16.02-37.977-38.327-37.985h-.58v-8.125c12.748 0 25.687.092 34.757 7.772" fill="#c8d2d4"/><path d="M4952.903 803.38c0 10.04-8.14 18.176-18.18 18.176s-18.177-8.137-18.177-18.176c0-10.04 8.138-18.178 18.177-18.178 10.04 0 18.18 8.14 18.18 18.178m0-43.117c0 10.04-8.14 18.18-18.18 18.18s-18.177-8.14-18.177-18.18 8.138-18.174 18.177-18.174c10.04 0 18.18 8.13 18.18 18.17m-14.23-231.794c0 10.598-8.593 19.18-19.18 19.18-10.595 0-19.18-8.582-19.18-19.18 0-10.594 8.585-19.182 19.18-19.182 10.587 0 19.18 8.588 19.18 19.182" fill="#575c5c"/><path d="M4930.196 528.468c0 5.914-4.793 10.705-10.703 10.705-5.913 0-10.705-4.79-10.705-10.705 0-5.914 4.792-10.705 10.705-10.705 5.91 0 10.703 4.79 10.703 10.705" fill="#6b6d6d"/><path d="M4922.167 528.468c0 1.48-1.198 2.674-2.675 2.674-1.48 0-2.677-1.195-2.677-2.674 0-1.48 1.198-2.678 2.678-2.678 1.476 0 2.673 1.2 2.673 2.678" fill="#575c5c"/><path d="M4311.622 1576.16c-1.81 0-3.272 1.71-3.272 4 0 2.287 1.46 4 3.272 4h359.95c1.806 0 3.27-1.713 3.27-4 0-2.29-1.464-4-3.27-4h-359.95zm-77.878-1224c-1.737 0-3.144 1.537-3.144 3.5 0 1.965 1.407 3.5 3.144 3.5h182.2c1.737 0 3.14-1.535 3.14-3.5 0-1.963-1.403-3.5-3.14-3.5h-182.2z" fill="#323535"/><path d="M4954.168 861.948c-6.874 0-12 5.578-12 12.45v181.417c0 6.88 6.667 12.453 10.226 12.453 7.112 0 13.774-5.572 13.774-12.453V874.4c0-6.874-5.124-12.452-12-12.452" fill="#575c5c"/><path d="M4957.748 965.108c0 2.686-2.173 4.86-4.854 4.86-2.685 0-4.86-2.174-4.86-4.86 0-2.682 2.176-4.855 4.86-4.855 2.68 0 4.854 2.173 4.854 4.855m0-10.67c0 2.685-2.173 4.86-4.854 4.86-2.685 0-4.86-2.176-4.86-4.86 0-2.683 2.176-4.858 4.86-4.858 2.68 0 4.854 2.175 4.854 4.857m0-10.672c0 2.686-2.173 4.86-4.854 4.86-2.685 0-4.86-2.174-4.86-4.86 0-2.682 2.176-4.855 4.86-4.855 2.68 0 4.854 2.173 4.854 4.855m0-10.672c0 2.685-2.173 4.86-4.854 4.86-2.685 0-4.86-2.175-4.86-4.86 0-2.682 2.176-4.857 4.86-4.857 2.68 0 4.854 2.175 4.854 4.857m0-10.673c0 2.687-2.173 4.862-4.854 4.862-2.685 0-4.86-2.175-4.86-4.86 0-2.683 2.176-4.856 4.86-4.856 2.68 0 4.854 2.173 4.854 4.855m0-12.892c0 2.685-2.173 4.86-4.854 4.86-2.685 0-4.86-2.175-4.86-4.86 0-2.682 2.176-4.855 4.86-4.855 2.68 0 4.854 2.175 4.854 4.857m0-11.118c0 2.684-2.173 4.86-4.854 4.86-2.685 0-4.86-2.176-4.86-4.86 0-2.68 2.176-4.855 4.86-4.855 2.68 0 4.854 2.174 4.854 4.854m0-11.116c0 2.688-2.173 4.86-4.854 4.86-2.685 0-4.86-2.172-4.86-4.86 0-2.682 2.176-4.854 4.86-4.854 2.68 0 4.854 2.17 4.854 4.853m0-11.112c0 2.685-2.173 4.86-4.854 4.86-2.685 0-4.86-2.175-4.86-4.86 0-2.685 2.176-4.86 4.86-4.86 2.68 0 4.854 2.175 4.854 4.86m0 177.86c0 2.685-2.173 4.86-4.854 4.86-2.685 0-4.86-2.175-4.86-4.86 0-2.683 2.176-4.856 4.86-4.856 2.68 0 4.854 2.173 4.854 4.855m0-11.116c0 2.684-2.173 4.86-4.854 4.86-2.685 0-4.86-2.176-4.86-4.86 0-2.682 2.176-4.857 4.86-4.857 2.68 0 4.854 2.175 4.854 4.857m0-11.117c0 2.686-2.173 4.86-4.854 4.86-2.685 0-4.86-2.174-4.86-4.86 0-2.682 2.176-4.855 4.86-4.855 2.68 0 4.854 2.176 4.854 4.858m0-11.12c0 2.69-2.173 4.86-4.854 4.86-2.685.003-4.86-2.17-4.86-4.86 0-2.68 2.176-4.853 4.86-4.853 2.68 0 4.854 2.175 4.854 4.855m0-12.896c0 2.688-2.173 4.86-4.854 4.86-2.685 0-4.86-2.172-4.86-4.86 0-2.682 2.176-4.855 4.86-4.855 2.68 0 4.854 2.17 4.854 4.853m0-10.67c0 2.687-2.173 4.86-4.854 4.86-2.685 0-4.86-2.173-4.86-4.86 0-2.68 2.176-4.856 4.86-4.856 2.68 0 4.854 2.175 4.854 4.857m0-10.672c0 2.685-2.173 4.86-4.854 4.86-2.685 0-4.86-2.175-4.86-4.86 0-2.68 2.176-4.857 4.86-4.857 2.68 0 4.854 2.176 4.854 4.858m0-10.67c0 2.684-2.173 4.86-4.854 4.86-2.685 0-4.86-2.176-4.86-4.86 0-2.685 2.176-4.858 4.86-4.858 2.68 0 4.854 2.173 4.854 4.857" fill="#050707"/><path d="M2648.96 585.296v759.6c0 212.136 114.625 214.162 228.004 214.162h1913.718c113.38 0 213.205-2.04 213.205-214.18 0 0 1.123-766.574 1.123-769.97.012-201.74-102.823-200.37-214.328-200.37H2876.964c-113.38 0-228.004-1.385-228.004 210.758m2225.972-225.102c30.64 3.825 55.203 11.768 75.096 24.477 24.24 15.49 41.878 37.93 53.92 68.115 12.66 31.735 18.826 71.422 18.847 122.387v.273c0 3.383-1.123 769.547-1.123 769.547 0 53.335-6.044 95.542-18.476 129.084-11.846 31.954-29.276 55.335-53.284 71.922-44.437 30.696-102.794 30.48-159.23 30.48H2876.964c-55.315 0-118.01.198-165.992-30.093-25.89-16.344-45.483-40.43-58.55-71.783-14.16-33.974-20.882-76.335-20.882-129.705v-759.6c0-53.044 6.644-95.144 20.644-128.702 13.12-31.453 32.088-54.436 58.147-70.64 46.68-29.028 106.51-28.833 164.45-28.833h1918.14c27.458 0 55.85-.19 82.016 3.074" fill="#c8d2d4"/></g><text style="-inkscape-font-specification:MyriadPro-Regular" x="121.445" y="756.022" font-size="41.408" font-family="Myriad Pro" fill="#053f5f" transform="translate(0 -648.426)"><tspan y="756.022" x="121.44458 137.84198 156.39259 169.51878 190.26399 211.0092 233.9904 242.76881 259.16626 268.85559 286.28821">screen size</tspan> <tspan y="799.541" x="121.44458 142.68669 163.92877 185.17087 206.41295 215.19135 234.36308 243.14148 264.38354 285.6257 306.86777">1080 x 1920</tspan> <tspan y="852.377" x="121.44458 134.5708 155.31598 171.71341 194.44615 204.21834 227.03391 240.73985 250.42921 273.16202 296.14322">resolution</tspan> <tspan y="895.897" x="121.44458 142.68669 163.92877 185.17087 193.94926 217.51018 241.07111 250.76048">432 ppi</tspan></text><text style="-inkscape-font-specification:MyriadPro-Regular" x="121.445" y="933.211" font-size="24.869" font-family="Myriad Pro" fill="#053f5f" transform="translate(0 -648.426)"><tspan y="933.211" x="121.44458 128.50725 142.65749 148.47672 159.61783 172.07703 177.94598 187.79393 193.06609 207.21629 219.67545 227.8075 233.07961 238.89886 252.70097 263.84207 277.6441">(pixels per inch)</tspan></text><path d="M183.365 106.106c0 21.826-17.694 39.52-39.52 39.52-21.828 0-39.523-17.694-39.523-39.52 0-21.828 17.695-39.522 39.522-39.522 21.827 0 39.52 17.694 39.52 39.522m133.863 2.12c0 .492-.4.892-.893.892H193.96c-.492 0-.893-.4-.893-.893V91.827c0-.494.4-.893.894-.893h122.377c.492 0 .893.4.893.893v16.398z" fill="#fff"/><path d="M337.023 205.927c0 .494-.4.893-.893.893H156.886c-.493 0-.894-.4-.894-.893V189.53c0-.494.4-.894.894-.894H336.13c.493 0 .893.4.893.894v16.397zm-56.796 68.643c0 .495-.4.895-.893.895H156.96c-.492 0-.893-.4-.893-.894v-16.395c0-.492.4-.89.894-.89h122.377c.493 0 .893.398.893.89v16.4zm0 68.646c0 .492-.4.893-.893.893H156.96c-.492 0-.893-.405-.893-.897v-16.4c0-.493.4-.892.894-.892h122.377c.493 0 .893.4.893.894v16.4z" fill="#62c0bf"/><path d="M261.98 129.17c0 .494-.4.894-.893.894H186.5c-.49 0-.89-.4-.89-.893v-10.14c0-.493.4-.894.89-.894h74.587c.493 0 .893.4.893.894v10.145z" fill="#c5beb8"/><path d="M116.64 267.74c-.75 0-1.36-.608-1.36-1.36 0-.75.61-1.36 1.36-1.36.752 0 1.362.61 1.362 1.36 0 .752-.61 1.36-1.362 1.36m-6.804 9.528c-1.5 0-2.72-1.22-2.72-2.723 0-1.5 1.22-2.72 2.72-2.72 1.5 0 2.722 1.22 2.722 2.72 0 1.502-1.22 2.723-2.722 2.723m0-16.33c-1.5 0-2.72-1.222-2.72-2.723 0-1.5 1.22-2.722 2.72-2.722 1.5 0 2.722 1.222 2.722 2.722s-1.22 2.722-2.722 2.722m22.682-5.444c-1.815-.907-4.537-1.814-6.35-1.814-1.072 0-5.298 4.42-9.33 9.16l-1.53-1.41c.558-.944.88-2.04.88-3.218 0-3.5-2.85-6.35-6.352-6.35-3.5 0-6.35 2.85-6.35 6.35 0 3.5 2.85 6.35 6.35 6.35.815 0 1.596-.155 2.313-.436.545.717 1.14 1.474 1.76 2.25-.623.777-1.216 1.534-1.764 2.252-.718-.28-1.5-.438-2.314-.438-3.5 0-6.35 2.85-6.35 6.35 0 3.502 2.85 6.35 6.35 6.35 3.502 0 6.35-2.848 6.35-6.35 0-1.174-.32-2.274-.878-3.218l1.53-1.408 3.845-3.54 11.835-10.887z" fill="#fff"/><path d="M118.02 271.292c3.643 4.187 7.18 7.786 8.145 7.786 1.814 0 4.536-.908 6.35-1.814l-10.493-9.656-4.002 3.684zm-14.492 78.228c1.813-3.63 10.882 0 10.882-8.163l-2.72-2.722c-7.255 0-8.162 7.256-8.162 10.884m28.926-27.71c-1.76 3.52-10.987 15.643-15.762 18.51-.145.084-.306.13-.466.13-.235 0-.468-.09-.642-.27l-2.72-2.72c-.176-.175-.266-.407-.266-.64 0-.16.04-.323.13-.468 2.864-4.776 14.987-14 18.51-15.76.128-.066.266-.098.404-.098.235 0 .468.092.642.266.173.173.264.403.265.636 0 .14-.03.28-.1.412m-.8-130.534l-8.863-8.862c-.175-.172-.4-.26-.628-.26-.228 0-.455.088-.627.26-1.107 1.107-1.287 2.792-.545 4.088l-5.153 5.156c-.942-.467-2.382-.78-3.766-.78-1.16 0-2.77.224-3.83 1.284-.173.172-.26.4-.26.626 0 .227.087.455.26.627l4.89 4.89-8.695 10.435-.887 1.773 1.77-.884 10.435-8.696 4.89 4.892c.173.173.4.26.627.26.226 0 .453-.087.627-.26 1.06-1.06 1.28-2.67 1.28-3.83 0-1.384-.31-2.825-.776-3.765l5.153-5.154c1.296.744 2.983.562 4.09-.544.172-.176.26-.4.26-.63 0-.225-.088-.45-.26-.626" fill="#fff"/><path d="M164.67 97.868c.062.22-3.91-2.622-4.16-2.873-.602-.6-1.21-1.37-1.73-2.192-.6-7.332-6.756-13.114-14.24-13.114-7.88 0-14.29 6.41-14.29 14.29v7.142c0 7.88 6.41 14.293 14.29 14.293 4.296 0 8.15-1.907 10.77-4.916-2.427-.423-3.177-1.773-3.177-4.985 2.094 1.586 3.698 2.09 5.186 1.992.81-1.62 1.322-3.408 1.465-5.302 2.81-.572 6.537-2.02 5.882-4.34" fill="#acafaf"/><path d="M152.01 119.024c-2.196-1.25-1.628-4.005-2.75-5.823-.86-1.39-2.794-1.73-4.315-1.82-2.1-.133-4.854-.105-6.807.53-1.37.447-1.92 2.28-2.786 3.306-1.204 1.428-8.71 6.502-11.006 8.022-2.24 1.48-7.406 3.995-5.882 6.215 5.448 7.93 17.77 12.098 24.482 12.098 10.702 0 29.498-4.913 24.745-13.35-1.88-3.336-13.895-8.156-15.68-9.173m409.608-10.8c0 .492-.4.892-.893.892H438.35c-.493 0-.894-.4-.894-.894v-16.4c0-.493.4-.892.894-.892h122.373c.492 0 .893.4.893.893v16.398zm41.147 33.874c0 .493-.867.893-1.934.893H439.334c-1.068 0-1.933-.4-1.933-.893v-10.15c0-.492.866-.893 1.934-.893H600.83c1.066 0 1.933.4 1.933.892v10.15zm12.414 22.39c0 .493-.934.893-2.08.893H439.464c-1.147 0-2.08-.4-2.08-.893v-10.15c0-.493.933-.894 2.08-.894H613.1c1.145 0 2.08.4 2.08.893v10.145zm-24.985 22.39c0 .493-.8.893-1.786.893H439.203c-.986 0-1.786-.4-1.786-.893v-10.15c0-.492.8-.893 1.786-.893h149.203c.985 0 1.786.4 1.786.892v10.144zm24.984 22.39c0 .493-.934.893-2.08.893H439.464c-1.147 0-2.08-.4-2.08-.893v-10.15c0-.492.933-.893 2.08-.893H613.1c1.145 0 2.08.4 2.08.892v10.144zm-53.56 46.87c0 .495-.4.895-.895.895H438.35c-.493 0-.894-.4-.894-.893v-16.395c0-.494.4-.892.894-.892h122.373c.492 0 .893.4.893.893v16.398zm41.144 33.876c0 .493-.867.893-1.934.893H439.332c-1.068 0-1.933-.4-1.933-.894V279.87c0-.493.865-.894 1.933-.894H600.83c1.066 0 1.933.4 1.933.894v10.145zm12.414 22.39c0 .493-.933.893-2.08.893H439.465c-1.147 0-2.08-.4-2.08-.894V302.26c0-.493.933-.894 2.08-.894H613.1c1.145 0 2.08.4 2.08.894v10.145zm-24.984 22.39c0 .492-.8.892-1.786.892H439.204c-.986 0-1.786-.4-1.786-.893V324.65c0-.493.8-.894 1.786-.894h149.203c.985 0 1.786.4 1.786.893v10.145z" fill="#acafaf"/></svg>