<?xml version="1.0" encoding="UTF-8" standalone="no"?>
<svg
   xmlns:dc="http://purl.org/dc/elements/1.1/"
   xmlns:cc="http://creativecommons.org/ns#"
   xmlns:rdf="http://www.w3.org/1999/02/22-rdf-syntax-ns#"
   xmlns:svg="http://www.w3.org/2000/svg"
   xmlns="http://www.w3.org/2000/svg"
   version="1.1"
   id="svg7434"
   viewBox="0 0 744.09449 403.93677"
   height="114mm"
   width="210mm">
  <defs
     id="defs7436">
    <clipPath
       id="clipPath2838"
       clipPathUnits="userSpaceOnUse">
      <path
         id="path2840"
         d="m 2872.27,636.609 1076.13,0 0,-210.027 -1076.13,0 0,210.027 z" />
    </clipPath>
    <clipPath
       id="clipPath2776"
       clipPathUnits="userSpaceOnUse">
      <path
         id="path2778"
         d="m 2872.27,861.231 1076.13,0 0,-210.026 -1076.13,0 0,210.026 z" />
    </clipPath>
    <clipPath
       id="clipPath2762"
       clipPathUnits="userSpaceOnUse">
      <path
         id="path2764"
         d="m 2872.27,1085.85 1076.13,0 0,-210.023 -1076.13,0 0,210.023 z" />
    </clipPath>
    <clipPath
       id="clipPath1230"
       clipPathUnits="userSpaceOnUse">
      <path
         id="path1232"
         d="m 0,5116.783 8379.352,0 L 8379.352,0 0,0 0,5116.783 Z" />
    </clipPath>
  </defs>
  <metadata
     id="metadata7439">
    <rdf:RDF>
      <cc:Work
         rdf:about="">
        <dc:format>image/svg+xml</dc:format>
        <dc:type
           rdf:resource="http://purl.org/dc/dcmitype/StillImage" />
        <dc:title></dc:title>
      </cc:Work>
    </rdf:RDF>
  </metadata>
  <g
     transform="translate(0,-648.42565)"
     id="layer1">
    <g
       id="g1226"
       transform="matrix(0.30559602,0,0,-0.30559602,-796.77675,1145.9059)">
      <g
         clip-path="url(#clipPath1230)"
         id="g1228">
        <g
           transform="translate(5005.0103,574.9092)"
           id="g1234">
          <path
             id="path1236"
             style="fill:#f5f6f7;fill-opacity:1;fill-rule:nonzero;stroke:none"
             d="m 0,0 c 0,3.395 -0.029,6.869 -0.088,10.379 l -1.035,759.59 c 0,212.138 -99.825,214.179 -213.205,214.179 l -1913.718,0 c -113.379,0 -228.004,-2.025 -228.004,-214.163 l 0,-759.598 c 0,-212.143 114.625,-210.758 228.004,-210.758 l 1913.718,0 C -102.823,-200.371 0.012,-201.742 0,0" />
        </g>
        <g
           transform="translate(5005.0103,574.7207)"
           id="g1238">
          <path
             id="path1240"
             style="fill:#a2afb2;fill-opacity:1;fill-rule:nonzero;stroke:none"
             d="m 0,0 c 0,3.394 -0.029,6.972 -0.088,10.482 l -1.035,759.68 c 0,212.138 -99.825,214.276 -213.205,214.276 l -1913.718,0 c -113.379,0 -227.796,-2.126 -227.796,-214.264 l 0,-759.599 c 0,-212.142 114.417,-211.136 227.796,-211.136 l 1913.718,0 C -102.824,-200.561 0.012,-201.742 0,0 m -5.217,0.013 c 0,-47.537 -5.91,-84.653 -17.463,-113.61 -10.15,-25.439 -24.923,-44.553 -44.858,-57.29 -37.764,-24.129 -89.712,-24.674 -144.554,-24.674 l -2.236,0 -1913.718,0 -2.186,0 c -54.628,0 -111.116,0.581 -152.068,26.05 -21.747,13.525 -37.568,33.405 -48.734,60.17 -12.599,30.199 -18.808,70.742 -18.808,119.916 l 0,759.599 c 0,49.497 6.29,90.116 19.049,120.729 11.319,27.159 27.43,47.115 49.438,61.01 18.536,11.701 41.619,19.185 70.659,22.999 25.279,3.323 51.256,3.526 82.65,3.526 l 1913.718,0 c 52.819,0 107.435,0.063 145.819,-26.455 19.888,-13.738 34.468,-33.637 44.572,-60.895 11.444,-30.872 17.535,-70.417 17.535,-120.937 l 1.56,-759.584 0,-0.044 0,-0.047 0,-10.311 0,0.273" />
        </g>
        <g
           transform="translate(2715.4434,1061.2002)"
           id="g1242">
          <path
             id="path1244"
             style="fill:#f5f6f7;fill-opacity:1;fill-rule:nonzero;stroke:none"
             d="m 0,0 0,-189.867 c 0,-15.028 2.639,-24.967 8.066,-30.389 6.565,-6.558 17.266,-6.533 29.655,-6.533 l 1.182,0 0,-0.002 c 22.307,0.008 38.324,0.578 38.324,37.984 l 0,189.868 c 0,15.027 -2.64,24.968 -8.068,30.39 -6.563,6.558 -17.264,6.533 -29.655,6.533 l -1.182,0 0,0.002 C 16.016,37.977 0,37.407 0,0" />
        </g>
        <g
           transform="translate(2752.8838,830.7022)"
           id="g1246">
          <path
             id="path1248"
             style="fill:#a2afb2;fill-opacity:1;fill-rule:nonzero;stroke:none"
             d="m 0,0 0.592,0.002 0,2.539 0,5.588 0.581,0 0,0.002 -1.183,0 c -12.388,0 -23.09,-0.026 -29.654,6.533 -5.428,5.422 -8.066,15.361 -8.066,30.389 l 0,189.867 c 0,37.407 16.015,37.977 38.322,37.986 l 0,2.533 0,5.594 0.581,0 0,0.002 C -22.031,281.033 -45.86,280.736 -45.86,234.92 l 0,-189.867 c 0,-17.536 3.321,-29.02 10.451,-36.141 C -26.461,-0.027 -13.607,-0.014 0,0" />
        </g>
        <g
           transform="translate(2788.2334,838.4756)"
           id="g1250">
          <path
             id="path1252"
             style="fill:#c8d2d4;fill-opacity:1;fill-rule:nonzero;stroke:none"
             d="m 0,0 c 1.533,1.191 2.921,2.658 4.151,4.449 5.036,6.803 8.123,17.397 8.123,33.891 l 0,189.867 c 0,17.535 -3.319,29.019 -10.45,36.141 -8.947,8.939 -21.801,8.925 -35.409,8.912 l -0.592,0 -0.581,0 0,-5.594 0,-2.533 0,-0.002 1.182,0 c 12.39,0 23.092,0.024 29.655,-6.533 5.428,-5.422 8.067,-15.364 8.067,-30.391 l 0,-189.867 C 4.146,0.934 -11.87,0.363 -34.177,0.355 l -0.581,0 0,-5.587 0,-2.539 0,-0.002 C -22.009,-7.771 -9.07,-7.68 0,0" />
        </g>
        <g
           transform="translate(4952.9028,803.3799)"
           id="g1254">
          <path
             id="path1256"
             style="fill:#575c5c;fill-opacity:1;fill-rule:nonzero;stroke:none"
             d="m 0,0 c 0,10.039 -8.141,18.176 -18.18,18.176 -10.039,0 -18.177,-8.137 -18.177,-18.176 0,-10.039 8.138,-18.178 18.177,-18.178 C -8.141,-18.178 0,-10.039 0,0" />
        </g>
        <g
           transform="translate(4952.9028,760.2627)"
           id="g1258">
          <path
             id="path1260"
             style="fill:#575c5c;fill-opacity:1;fill-rule:nonzero;stroke:none"
             d="m 0,0 c 0,10.039 -8.141,18.18 -18.18,18.18 -10.039,0 -18.177,-8.141 -18.177,-18.18 0,-10.041 8.138,-18.174 18.177,-18.174 C -8.141,-18.174 0,-10.041 0,0" />
        </g>
        <g
           transform="translate(4938.6724,528.4678)"
           id="g1262">
          <path
             id="path1264"
             style="fill:#575c5c;fill-opacity:1;fill-rule:nonzero;stroke:none"
             d="m 0,0 c 0,10.598 -8.592,19.18 -19.18,19.18 -10.594,0 -19.181,-8.582 -19.181,-19.18 0,-10.594 8.587,-19.182 19.181,-19.182 C -8.592,-19.182 0,-10.594 0,0" />
        </g>
        <g
           transform="translate(4930.1958,528.4678)"
           id="g1266">
          <path
             id="path1268"
             style="fill:#6b6d6d;fill-opacity:1;fill-rule:nonzero;stroke:none"
             d="m 0,0 c 0,5.914 -4.793,10.705 -10.703,10.705 -5.913,0 -10.705,-4.791 -10.705,-10.705 0,-5.914 4.792,-10.705 10.705,-10.705 C -4.793,-10.705 0,-5.914 0,0" />
        </g>
        <g
           transform="translate(4922.1665,528.4678)"
           id="g1270">
          <path
             id="path1272"
             style="fill:#575c5c;fill-opacity:1;fill-rule:nonzero;stroke:none"
             d="m 0,0 c 0,1.479 -1.197,2.674 -2.674,2.674 -1.48,0 -2.678,-1.195 -2.678,-2.674 0,-1.479 1.198,-2.678 2.678,-2.678 C -1.197,-2.678 0,-1.479 0,0" />
        </g>
        <g
           transform="translate(4311.6216,1576.1592)"
           id="g1274">
          <path
             id="path1276"
             style="fill:#323535;fill-opacity:1;fill-rule:nonzero;stroke:none"
             d="m 0,0 c -1.811,0 -3.272,1.711 -3.272,4 0,2.288 1.461,4 3.272,4 l 359.949,0 c 1.807,0 3.272,-1.712 3.272,-4 0,-2.289 -1.465,-4 -3.272,-4 L 0,0 Z" />
        </g>
        <g
           transform="translate(4233.7437,352.1592)"
           id="g1278">
          <path
             id="path1280"
             style="fill:#323535;fill-opacity:1;fill-rule:nonzero;stroke:none"
             d="M 0,0 C -1.737,0 -3.144,1.538 -3.144,3.5 -3.144,5.466 -1.737,7 0,7 l 182.201,0 c 1.736,0 3.14,-1.534 3.14,-3.5 0,-1.962 -1.404,-3.5 -3.14,-3.5 L 0,0 Z" />
        </g>
        <g
           transform="translate(4954.1685,861.9483)"
           id="g1282">
          <path
             id="path1284"
             style="fill:#575c5c;fill-opacity:1;fill-rule:nonzero;stroke:none"
             d="m 0,0 c -6.875,0 -12,5.578 -12,12.451 l 0,181.416 c 0,6.881 6.666,12.453 10.225,12.453 C 5.338,206.32 12,200.748 12,193.867 L 12,12.451 C 12,5.578 6.875,0 0,0" />
        </g>
        <g
           transform="translate(4957.7485,965.1084)"
           id="g1286">
          <path
             id="path1288"
             style="fill:#050707;fill-opacity:1;fill-rule:nonzero;stroke:none"
             d="m 0,0 c 0,2.686 -2.174,4.859 -4.855,4.859 -2.684,0 -4.859,-2.173 -4.859,-4.859 0,-2.682 2.175,-4.855 4.859,-4.855 C -2.174,-4.855 0,-2.682 0,0" />
        </g>
        <g
           transform="translate(4957.7485,954.4365)"
           id="g1290">
          <path
             id="path1292"
             style="fill:#050707;fill-opacity:1;fill-rule:nonzero;stroke:none"
             d="m 0,0 c 0,2.686 -2.174,4.861 -4.855,4.861 -2.684,0 -4.859,-2.175 -4.859,-4.861 0,-2.682 2.175,-4.857 4.859,-4.857 C -2.174,-4.857 0,-2.682 0,0" />
        </g>
        <g
           transform="translate(4957.7485,943.7646)"
           id="g1294">
          <path
             id="path1296"
             style="fill:#050707;fill-opacity:1;fill-rule:nonzero;stroke:none"
             d="m 0,0 c 0,2.686 -2.174,4.861 -4.855,4.861 -2.684,0 -4.859,-2.175 -4.859,-4.861 0,-2.682 2.175,-4.855 4.859,-4.855 C -2.174,-4.855 0,-2.682 0,0" />
        </g>
        <g
           transform="translate(4957.7485,933.0928)"
           id="g1298">
          <path
             id="path1300"
             style="fill:#050707;fill-opacity:1;fill-rule:nonzero;stroke:none"
             d="m 0,0 c 0,2.685 -2.174,4.859 -4.855,4.859 -2.684,0 -4.859,-2.174 -4.859,-4.859 0,-2.682 2.175,-4.857 4.859,-4.857 C -2.174,-4.857 0,-2.682 0,0" />
        </g>
        <g
           transform="translate(4957.7485,922.4209)"
           id="g1302">
          <path
             id="path1304"
             style="fill:#050707;fill-opacity:1;fill-rule:nonzero;stroke:none"
             d="m 0,0 c 0,2.686 -2.174,4.861 -4.855,4.861 -2.684,0 -4.859,-2.175 -4.859,-4.861 0,-2.682 2.175,-4.855 4.859,-4.855 C -2.174,-4.855 0,-2.682 0,0" />
        </g>
        <g
           transform="translate(4957.7485,909.5264)"
           id="g1306">
          <path
             id="path1308"
             style="fill:#050707;fill-opacity:1;fill-rule:nonzero;stroke:none"
             d="m 0,0 c 0,2.685 -2.174,4.861 -4.855,4.861 -2.684,0 -4.859,-2.176 -4.859,-4.861 0,-2.682 2.175,-4.855 4.859,-4.855 C -2.174,-4.855 0,-2.682 0,0" />
        </g>
        <g
           transform="translate(4957.7485,898.4092)"
           id="g1310">
          <path
             id="path1312"
             style="fill:#050707;fill-opacity:1;fill-rule:nonzero;stroke:none"
             d="m 0,0 c 0,2.685 -2.174,4.861 -4.855,4.861 -2.684,0 -4.859,-2.176 -4.859,-4.861 0,-2.68 2.175,-4.854 4.859,-4.854 C -2.174,-4.854 0,-2.68 0,0" />
        </g>
        <g
           transform="translate(4957.7485,887.292)"
           id="g1314">
          <path
             id="path1316"
             style="fill:#050707;fill-opacity:1;fill-rule:nonzero;stroke:none"
             d="m 0,0 c 0,2.688 -2.174,4.861 -4.855,4.861 -2.684,0 -4.859,-2.173 -4.859,-4.861 0,-2.682 2.175,-4.854 4.859,-4.854 C -2.174,-4.854 0,-2.682 0,0" />
        </g>
        <g
           transform="translate(4957.7485,876.1786)"
           id="g1318">
          <path
             id="path1320"
             style="fill:#050707;fill-opacity:1;fill-rule:nonzero;stroke:none"
             d="m 0,0 c 0,2.684 -2.174,4.858 -4.855,4.858 -2.684,0 -4.859,-2.174 -4.859,-4.858 0,-2.684 2.175,-4.859 4.859,-4.859 C -2.174,-4.859 0,-2.684 0,0" />
        </g>
        <g
           transform="translate(4957.7485,1054.0381)"
           id="g1322">
          <path
             id="path1324"
             style="fill:#050707;fill-opacity:1;fill-rule:nonzero;stroke:none"
             d="m 0,0 c 0,2.686 -2.174,4.859 -4.855,4.859 -2.684,0 -4.859,-2.173 -4.859,-4.859 0,-2.682 2.175,-4.855 4.859,-4.855 C -2.174,-4.855 0,-2.682 0,0" />
        </g>
        <g
           transform="translate(4957.7485,1042.9229)"
           id="g1326">
          <path
             id="path1328"
             style="fill:#050707;fill-opacity:1;fill-rule:nonzero;stroke:none"
             d="m 0,0 c 0,2.684 -2.174,4.859 -4.855,4.859 -2.684,0 -4.859,-2.175 -4.859,-4.859 0,-2.682 2.175,-4.857 4.859,-4.857 C -2.174,-4.857 0,-2.682 0,0" />
        </g>
        <g
           transform="translate(4957.7485,1031.8057)"
           id="g1330">
          <path
             id="path1332"
             style="fill:#050707;fill-opacity:1;fill-rule:nonzero;stroke:none"
             d="m 0,0 c 0,2.686 -2.174,4.859 -4.855,4.859 -2.684,0 -4.859,-2.173 -4.859,-4.859 0,-2.682 2.175,-4.855 4.859,-4.855 C -2.174,-4.855 0,-2.682 0,0" />
        </g>
        <g
           transform="translate(4957.7485,1020.6885)"
           id="g1334">
          <path
             id="path1336"
             style="fill:#050707;fill-opacity:1;fill-rule:nonzero;stroke:none"
             d="m 0,0 c 0,2.688 -2.174,4.861 -4.855,4.861 -2.684,0 -4.859,-2.173 -4.859,-4.861 0,-2.68 2.175,-4.855 4.859,-4.855 C -2.174,-4.855 0,-2.68 0,0" />
        </g>
        <g
           transform="translate(4957.7485,1007.7939)"
           id="g1338">
          <path
             id="path1340"
             style="fill:#050707;fill-opacity:1;fill-rule:nonzero;stroke:none"
             d="m 0,0 c 0,2.688 -2.174,4.859 -4.855,4.859 -2.684,0 -4.859,-2.171 -4.859,-4.859 0,-2.682 2.175,-4.855 4.859,-4.855 C -2.174,-4.855 0,-2.682 0,0" />
        </g>
        <g
           transform="translate(4957.7485,997.124)"
           id="g1342">
          <path
             id="path1344"
             style="fill:#050707;fill-opacity:1;fill-rule:nonzero;stroke:none"
             d="m 0,0 c 0,2.686 -2.174,4.859 -4.855,4.859 -2.684,0 -4.859,-2.173 -4.859,-4.859 0,-2.682 2.175,-4.857 4.859,-4.857 C -2.174,-4.857 0,-2.682 0,0" />
        </g>
        <g
           transform="translate(4957.7485,986.4522)"
           id="g1346">
          <path
             id="path1348"
             style="fill:#050707;fill-opacity:1;fill-rule:nonzero;stroke:none"
             d="m 0,0 c 0,2.684 -2.174,4.859 -4.855,4.859 -2.684,0 -4.859,-2.175 -4.859,-4.859 0,-2.682 2.175,-4.858 4.859,-4.858 C -2.174,-4.858 0,-2.682 0,0" />
        </g>
        <g
           transform="translate(4957.7485,975.7803)"
           id="g1350">
          <path
             id="path1352"
             style="fill:#050707;fill-opacity:1;fill-rule:nonzero;stroke:none"
             d="m 0,0 c 0,2.685 -2.174,4.859 -4.855,4.859 -2.684,0 -4.859,-2.174 -4.859,-4.859 0,-2.684 2.175,-4.857 4.859,-4.857 C -2.174,-4.857 0,-2.684 0,0" />
        </g>
        <path
           id="path1354"
           style="fill:#a2afb2;fill-opacity:1;fill-rule:nonzero;stroke:none"
           d="m 2870.222,1506.798 1920,0 0,-1080 -1920,0 0,1080 z" />
        <g
           transform="translate(2648.96,585.2959)"
           id="g1356">
          <path
             id="path1358"
             style="fill:#c8d2d4;fill-opacity:1;fill-rule:nonzero;stroke:none"
             d="m 0,0 0,759.599 c 0,212.137 114.625,214.163 228.004,214.163 l 1913.718,0 c 113.38,0 213.205,-2.041 213.205,-214.18 0,0 1.123,-766.574 1.123,-769.969 0.012,-201.742 -102.823,-200.371 -214.328,-200.371 l -1913.718,0 C 114.625,-210.758 0,-212.143 0,0 m 2225.972,-225.102 c 30.639,3.825 55.203,11.768 75.096,24.477 24.24,15.488 41.878,37.928 53.921,68.111 12.66,31.735 18.825,71.422 18.846,122.387 l 0,0 c 0,0.045 0,0.084 0,0.127 0,0.051 0,0.098 0,0.146 l 0,0 c 0,3.383 -1.123,769.547 -1.123,769.547 0,53.337 -6.044,95.544 -18.476,129.086 -11.846,31.954 -29.276,55.335 -53.284,71.922 -44.437,30.696 -102.794,30.481 -159.23,30.481 l -1913.718,0 c -55.315,0 -118.01,0.197 -165.992,-30.094 C 36.122,944.744 16.529,920.657 3.461,889.305 -10.699,855.33 -17.42,812.969 -17.42,759.599 L -17.42,0 c 0,-53.045 6.644,-95.145 20.644,-128.703 13.121,-31.453 32.088,-54.436 58.147,-70.641 46.675,-29.027 106.51,-28.832 164.449,-28.832 l 2.184,0 1913.718,0 2.235,0 c 27.457,0 55.849,-0.191 82.015,3.074" />
        </g>
      </g>
    </g>
    <text
       id="text1360"
       style="font-variant:normal;font-weight:normal;font-stretch:normal;font-size:41.40758896px;font-family:'Myriad Pro';-inkscape-font-specification:MyriadPro-Regular;writing-mode:lr-tb;fill:#053f5f;fill-opacity:1;fill-rule:nonzero;stroke:none"
       x="121.44458"
       y="756.02191">
      <tspan
         id="tspan1362"
         y="756.02191"
         x="121.44458 137.84198 156.39259 169.51878 190.26399 211.0092 233.9904 242.76881 259.16626 268.85559 286.28821">screen size</tspan>
      <tspan
         id="tspan1364"
         y="799.54126"
         x="121.44458 142.68669 163.92877 185.17087 206.41295 215.19135 234.36308 243.14148 264.38354 285.6257 306.86777">1080 x 1920</tspan>
      <tspan
         id="tspan1366"
         y="852.37744"
         x="121.44458 134.5708 155.31598 171.71341 194.44615 204.21834 227.03391 240.73985 250.42921 273.16202 296.14322">resolution</tspan>
      <tspan
         id="tspan1368"
         y="895.89667"
         x="121.44458 142.68669 163.92877 185.17087 193.94926 217.51018 241.07111 250.76048">432 ppi</tspan>
    </text>
    <text
       id="text1370"
       style="font-variant:normal;font-weight:normal;font-stretch:normal;font-size:24.86857986px;font-family:'Myriad Pro';-inkscape-font-specification:MyriadPro-Regular;writing-mode:lr-tb;fill:#053f5f;fill-opacity:1;fill-rule:nonzero;stroke:none"
       x="121.44458"
       y="933.21057">
      <tspan
         id="tspan1372"
         y="933.21057"
         x="121.44458 128.50725 142.65749 148.47672 159.61783 172.07703 177.94598 187.79393 193.06609 207.21629 219.67545 227.8075 233.07961 238.89886 252.70097 263.84207 277.6441">(pixels per inch)</tspan>
    </text>
    <path
       id="path2756"
       style="fill:#053f5f;fill-opacity:1;fill-rule:nonzero;stroke:none"
       d="m 667.09608,1015.5059 -585.877087,0 0,-328.86134 585.877087,0 0,328.86134 z" />
    <g
       id="g2758"
       transform="matrix(0.30559602,0,0,-0.30559602,-796.77675,1145.9059)">
      <g
         id="g2760" />
      <g
         id="g2766">
        <g
           style="opacity:0.19999701"
           id="g2768"
           clip-path="url(#clipPath2762)">
          <path
             id="path2770"
             style="fill:#ffffff;fill-opacity:1;fill-rule:nonzero;stroke:none"
             d="m 3948.402,875.827 -1076.131,0 0,210.027 1076.131,0 0,-210.027 z" />
        </g>
      </g>
    </g>
    <g
       id="g2772"
       transform="matrix(0.30559602,0,0,-0.30559602,-796.77675,1145.9059)">
      <g
         id="g2774" />
      <g
         id="g2780">
        <g
           style="opacity:0.19999701"
           id="g2782"
           clip-path="url(#clipPath2776)">
          <path
             id="path2784"
             style="fill:#ffffff;fill-opacity:1;fill-rule:nonzero;stroke:none"
             d="m 3948.402,651.205 -1076.131,0 0,210.026 1076.131,0 0,-210.026 z" />
        </g>
      </g>
    </g>
    <g
       transform="matrix(0.30559602,0,0,-0.30559602,183.36539,754.53184)"
       id="g2786">
      <path
         id="path2788"
         style="fill:#ffffff;fill-opacity:1;fill-rule:nonzero;stroke:none"
         d="m 0,0 c 0,-71.327 -57.825,-129.152 -129.154,-129.152 -71.329,0 -129.155,57.825 -129.155,129.152 0,71.332 57.826,129.157 129.155,129.157 C -57.825,129.157 0,71.332 0,0" />
    </g>
    <g
       transform="matrix(0.30559602,0,0,-0.30559602,317.22704,756.65114)"
       id="g2790">
      <path
         id="path2792"
         style="fill:#ffffff;fill-opacity:1;fill-rule:nonzero;stroke:none"
         d="m 0,0 c 0,-1.612 -1.31,-2.918 -2.918,-2.918 l -399.913,0 c -1.611,0 -2.92,1.306 -2.92,2.918 l 0,53.587 c 0,1.617 1.309,2.918 2.92,2.918 l 399.913,0 C -1.31,56.505 0,55.204 0,53.587 L 0,0 Z" />
    </g>
    <g
       transform="matrix(0.30559602,0,0,-0.30559602,337.02304,854.35249)"
       id="g2794">
      <path
         id="path2796"
         style="fill:#62c0bf;fill-opacity:1;fill-rule:nonzero;stroke:none"
         d="m 0,0 c 0,-1.615 -1.308,-2.918 -2.919,-2.918 l -585.763,0 c -1.613,0 -2.921,1.303 -2.921,2.918 l 0,53.584 c 0,1.615 1.308,2.923 2.921,2.923 l 585.763,0 C -1.308,56.507 0,55.199 0,53.584 L 0,0 Z" />
    </g>
    <g
       transform="matrix(0.30559602,0,0,-0.30559602,280.22706,922.99657)"
       id="g2798">
      <path
         id="path2800"
         style="fill:#62c0bf;fill-opacity:1;fill-rule:nonzero;stroke:none"
         d="m 0,0 c 0,-1.613 -1.308,-2.921 -2.918,-2.921 l -399.911,0 c -1.613,0 -2.921,1.308 -2.921,2.921 l 0,53.59 c 0,1.61 1.308,2.914 2.921,2.914 l 399.911,0 C -1.308,56.504 0,55.2 0,53.59 L 0,0 Z" />
    </g>
    <g
       transform="matrix(0.30559602,0,0,-0.30559602,280.22706,991.64163)"
       id="g2802">
      <path
         id="path2804"
         style="fill:#62c0bf;fill-opacity:1;fill-rule:nonzero;stroke:none"
         d="m 0,0 c 0,-1.609 -1.308,-2.917 -2.918,-2.917 l -399.911,0 c -1.613,0 -2.921,1.308 -2.921,2.917 l 0,53.59 c 0,1.615 1.308,2.919 2.921,2.919 l 399.911,0 C -1.308,56.509 0,55.205 0,53.59 L 0,0 Z" />
    </g>
    <g
       transform="matrix(0.30559602,0,0,-0.30559602,261.9804,777.59702)"
       id="g2806">
      <path
         id="path2808"
         style="fill:#c5beb8;fill-opacity:1;fill-rule:nonzero;stroke:none"
         d="m 0,0 c 0,-1.611 -1.308,-2.919 -2.918,-2.919 l -243.744,0 c -1.61,0 -2.918,1.308 -2.918,2.919 l 0,33.155 c 0,1.61 1.308,2.919 2.918,2.919 l 243.744,0 C -1.308,36.074 0,34.765 0,33.155 L 0,0 Z" />
    </g>
    <g
       transform="matrix(0.30559602,0,0,-0.30559602,116.6398,916.16676)"
       id="g2810">
      <path
         id="path2812"
         style="fill:#ffffff;fill-opacity:1;fill-rule:nonzero;stroke:none"
         d="m 0,0 c -2.452,0 -4.442,1.99 -4.442,4.447 0,2.455 1.99,4.446 4.442,4.446 2.457,0 4.452,-1.991 4.452,-4.446 C 4.452,1.99 2.457,0 0,0 m -22.235,-31.134 c -4.903,0 -8.892,3.99 -8.892,8.899 0,4.904 3.989,8.893 8.892,8.893 4.906,0 8.896,-3.989 8.896,-8.893 0,-4.909 -3.99,-8.899 -8.896,-8.899 m 0,53.369 c -4.903,0 -8.892,3.989 -8.892,8.896 0,4.903 3.989,8.894 8.892,8.894 4.906,0 8.896,-3.991 8.896,-8.894 0,-4.907 -3.99,-8.896 -8.896,-8.896 m 74.123,17.79 c -5.929,2.964 -14.825,5.93 -20.754,5.93 -3.501,0 -17.311,-14.444 -30.487,-29.944 l -5,4.602 c 1.823,3.086 2.874,6.679 2.874,10.518 0,11.44 -9.312,20.75 -20.756,20.75 -11.443,0 -20.752,-9.31 -20.752,-20.75 0,-11.443 9.309,-20.754 20.752,-20.754 2.664,0 5.214,0.508 7.56,1.427 1.794,-2.347 3.728,-4.82 5.768,-7.355 -2.04,-2.541 -3.977,-5.014 -5.768,-7.36 -2.346,0.919 -4.896,1.427 -7.56,1.427 -11.443,0 -20.752,-9.31 -20.752,-20.751 0,-11.445 9.309,-20.756 20.752,-20.756 11.444,0 20.756,9.311 20.756,20.756 0,3.836 -1.051,7.43 -2.874,10.516 l 5,4.6 12.567,11.566 38.674,35.578 z" />
    </g>
    <g
       transform="matrix(0.30559602,0,0,-0.30559602,118.02007,919.71766)"
       id="g2814">
      <path
         id="path2816"
         style="fill:#ffffff;fill-opacity:1;fill-rule:nonzero;stroke:none"
         d="m 0,0 c 11.904,-13.684 23.462,-25.443 26.617,-25.443 5.929,0 14.825,2.967 20.754,5.928 L 13.078,12.039 0,0 Z" />
    </g>
    <g
       transform="matrix(0.30559602,0,0,-0.30559602,103.52782,997.94442)"
       id="g2818">
      <path
         id="path2820"
         style="fill:#ffffff;fill-opacity:1;fill-rule:nonzero;stroke:none"
         d="m 0,0 c 5.926,11.857 35.563,0 35.563,26.673 l -8.89,8.895 C 2.963,35.568 0,11.857 0,0 M 94.528,90.551 C 88.774,79.043 58.624,39.423 43.018,30.061 c -0.473,-0.284 -0.999,-0.42 -1.522,-0.42 -0.767,0 -1.528,0.294 -2.097,0.868 l -8.892,8.889 c -0.571,0.574 -0.868,1.332 -0.868,2.097 0,0.523 0.136,1.05 0.422,1.523 9.364,15.608 48.982,45.756 60.491,51.508 0.422,0.212 0.873,0.316 1.325,0.316 0.768,0 1.527,-0.3 2.098,-0.869 0.563,-0.56 0.861,-1.314 0.866,-2.075 0.004,-0.455 -0.098,-0.918 -0.313,-1.347" />
    </g>
    <g
       transform="matrix(0.30559602,0,0,-0.30559602,131.65161,839.7015)"
       id="g2822">
      <path
         id="path2824"
         style="fill:#ffffff;fill-opacity:1;fill-rule:nonzero;stroke:none"
         d="m 0,0 -28.963,28.961 c -0.566,0.562 -1.308,0.847 -2.046,0.847 -0.743,0 -1.486,-0.285 -2.048,-0.847 -3.617,-3.617 -4.206,-9.125 -1.778,-13.36 L -51.678,-1.247 c -3.072,1.525 -7.778,2.544 -12.301,2.544 -3.798,0 -9.055,-0.727 -12.52,-4.192 -0.563,-0.564 -0.848,-1.309 -0.848,-2.047 0,-0.742 0.285,-1.485 0.848,-2.048 l 15.983,-15.985 -28.414,-34.096 -2.896,-5.794 5.79,2.894 34.099,28.419 15.983,-15.983 c 0.565,-0.566 1.304,-0.849 2.049,-0.849 0.738,0 1.479,0.283 2.048,0.849 3.463,3.464 4.189,8.72 4.189,12.516 0,4.523 -1.016,9.23 -2.538,12.302 l 16.84,16.846 C -9.13,-8.305 -3.617,-7.71 0,-4.096 0.562,-3.529 0.846,-2.788 0.846,-2.047 0.846,-1.309 0.562,-0.568 0,0" />
    </g>
    <g
       transform="matrix(0.30559602,0,0,-0.30559602,164.67001,746.29326)"
       id="g2826">
      <path
         id="path2828"
         style="fill:#acafaf;fill-opacity:1;fill-rule:nonzero;stroke:none"
         d="m 0,0 c 0.203,-0.716 -12.776,8.568 -13.598,9.388 -1.963,1.961 -3.949,4.482 -5.65,7.165 -1.963,23.959 -22.079,42.857 -46.534,42.857 -25.752,0 -46.704,-20.95 -46.704,-46.702 l 0,-23.353 c 0,-25.752 20.952,-46.707 46.704,-46.707 14.037,0 26.629,6.232 35.197,16.063 -7.935,1.383 -10.385,5.797 -10.385,16.292 6.844,-5.184 12.083,-6.825 16.948,-6.51 2.648,5.287 4.333,11.135 4.799,17.323 C -10.043,-12.315 2.142,-7.586 0,0" />
    </g>
    <g
       transform="matrix(0.30559602,0,0,-0.30559602,152.00882,767.44977)"
       id="g2830">
      <path
         id="path2832"
         style="fill:#acafaf;fill-opacity:1;fill-rule:nonzero;stroke:none"
         d="m 0,0 c -7.172,4.086 -5.317,13.089 -8.981,19.028 -2.81,4.557 -9.133,5.659 -14.104,5.966 -6.86,0.431 -15.863,0.34 -22.245,-1.739 -4.476,-1.461 -6.277,-7.448 -9.106,-10.805 -3.932,-4.665 -28.465,-21.249 -35.965,-26.215 -7.319,-4.84 -24.203,-13.055 -19.223,-20.31 17.804,-25.909 58.071,-39.532 80.007,-39.532 34.974,0 96.399,16.057 80.867,43.623 C 45.097,-19.074 5.828,-3.323 0,0" />
    </g>
    <g
       id="g2834"
       transform="matrix(0.30559602,0,0,-0.30559602,-796.77675,1145.9059)">
      <g
         id="g2836" />
      <g
         id="g2842">
        <g
           style="opacity:0.69999701"
           id="g2844"
           clip-path="url(#clipPath2838)">
          <path
             id="path2846"
             style="fill:#ffffff;fill-opacity:1;fill-rule:nonzero;stroke:none"
             d="m 3948.402,426.582 -1076.131,0 0,210.026 1076.131,0 0,-210.026 z" />
        </g>
      </g>
    </g>
    <path
       id="path2848"
       style="fill:#ffffff;fill-opacity:1;fill-rule:nonzero;stroke:none"
       d="m 420.13019,1007.6723 239.27221,0 0,-311.42133 -239.27221,0 0,311.42133 z" />
    <g
       transform="matrix(0.30559602,0,0,-0.30559602,561.61596,756.65114)"
       id="g2850">
      <path
         id="path2852"
         style="fill:#acafaf;fill-opacity:1;fill-rule:nonzero;stroke:none"
         d="m 0,0 c 0,-1.612 -1.31,-2.918 -2.919,-2.918 l -399.912,0 c -1.61,0 -2.92,1.306 -2.92,2.918 l 0,53.587 c 0,1.617 1.31,2.918 2.92,2.918 l 399.912,0 C -1.31,56.505 0,55.204 0,53.587 L 0,0 Z" />
    </g>
    <g
       transform="matrix(0.30559602,0,0,-0.30559602,602.76311,790.52504)"
       id="g2854">
      <path
         id="path2856"
         style="fill:#acafaf;fill-opacity:1;fill-rule:nonzero;stroke:none"
         d="m 0,0 c 0,-1.611 -2.834,-2.918 -6.319,-2.918 l -527.761,0 c -3.487,0 -6.316,1.307 -6.316,2.918 l 0,33.156 c 0,1.61 2.829,2.918 6.316,2.918 l 527.761,0 C -2.834,36.074 0,34.766 0,33.156 L 0,0 Z" />
    </g>
    <g
       transform="matrix(0.30559602,0,0,-0.30559602,615.17702,812.91478)"
       id="g2858">
      <path
         id="path2860"
         style="fill:#acafaf;fill-opacity:1;fill-rule:nonzero;stroke:none"
         d="m 0,0 c 0,-1.611 -3.048,-2.919 -6.795,-2.919 l -567.432,0 c -3.748,0 -6.792,1.308 -6.792,2.919 l 0,33.155 c 0,1.611 3.044,2.919 6.792,2.919 l 567.432,0 C -3.048,36.074 0,34.766 0,33.155 L 0,0 Z" />
    </g>
    <g
       transform="matrix(0.30559602,0,0,-0.30559602,590.19309,835.30468)"
       id="g2862">
      <path
         id="path2864"
         style="fill:#acafaf;fill-opacity:1;fill-rule:nonzero;stroke:none"
         d="m 0,0 c 0,-1.611 -2.619,-2.918 -5.837,-2.918 l -487.592,0 c -3.22,0 -5.835,1.307 -5.835,2.918 l 0,33.156 c 0,1.61 2.615,2.918 5.835,2.918 l 487.592,0 C -2.619,36.074 0,34.766 0,33.156 L 0,0 Z" />
    </g>
    <g
       transform="matrix(0.30559602,0,0,-0.30559602,615.17702,857.6945)"
       id="g2866">
      <path
         id="path2868"
         style="fill:#acafaf;fill-opacity:1;fill-rule:nonzero;stroke:none"
         d="m 0,0 c 0,-1.611 -3.048,-2.918 -6.795,-2.918 l -567.432,0 c -3.748,0 -6.792,1.307 -6.792,2.918 l 0,33.156 c 0,1.61 3.044,2.918 6.792,2.918 l 567.432,0 C -3.048,36.074 0,34.766 0,33.156 L 0,0 Z" />
    </g>
    <g
       transform="matrix(0.30559602,0,0,-0.30559602,561.61596,904.56649)"
       id="g2870">
      <path
         id="path2872"
         style="fill:#acafaf;fill-opacity:1;fill-rule:nonzero;stroke:none"
         d="m 0,0 c 0,-1.612 -1.31,-2.918 -2.919,-2.918 l -399.912,0 c -1.61,0 -2.92,1.306 -2.92,2.918 l 0,53.587 c 0,1.616 1.31,2.917 2.92,2.917 l 399.912,0 C -1.31,56.504 0,55.203 0,53.587 L 0,0 Z" />
    </g>
    <g
       transform="matrix(0.30559602,0,0,-0.30559602,602.76311,938.44036)"
       id="g2874">
      <path
         id="path2876"
         style="fill:#acafaf;fill-opacity:1;fill-rule:nonzero;stroke:none"
         d="m 0,0 c 0,-1.611 -2.834,-2.919 -6.319,-2.919 l -527.761,0 c -3.487,0 -6.316,1.308 -6.316,2.919 l 0,33.155 c 0,1.61 2.829,2.919 6.316,2.919 l 527.761,0 C -2.834,36.074 0,34.765 0,33.155 L 0,0 Z" />
    </g>
    <g
       transform="matrix(0.30559602,0,0,-0.30559602,615.17702,960.83018)"
       id="g2878">
      <path
         id="path2880"
         style="fill:#acafaf;fill-opacity:1;fill-rule:nonzero;stroke:none"
         d="m 0,0 c 0,-1.611 -3.048,-2.918 -6.795,-2.918 l -567.432,0 c -3.748,0 -6.792,1.307 -6.792,2.918 l 0,33.155 c 0,1.611 3.044,2.919 6.792,2.919 l 567.432,0 C -3.048,36.074 0,34.766 0,33.155 L 0,0 Z" />
    </g>
    <g
       transform="matrix(0.30559602,0,0,-0.30559602,590.19309,983.22)"
       id="g2882">
      <path
         id="path2884"
         style="fill:#acafaf;fill-opacity:1;fill-rule:nonzero;stroke:none"
         d="m 0,0 c 0,-1.611 -2.619,-2.918 -5.837,-2.918 l -487.592,0 c -3.22,0 -5.835,1.307 -5.835,2.918 l 0,33.156 c 0,1.609 2.615,2.918 5.835,2.918 l 487.592,0 C -2.619,36.074 0,34.765 0,33.156 L 0,0 Z" />
    </g>
  </g>
</svg>
