<svg xmlns="http://www.w3.org/2000/svg" xmlns:xlink="http://www.w3.org/1999/xlink" width="62.118" height="62.118" viewBox="0 0 62.118 62.118"><defs><linearGradient id="c"><stop offset="0"/><stop offset="1" stop-opacity="0"/></linearGradient><clipPath id="g"><use xlink:href="#a" overflow="visible" width="124.234" height="124.246"/></clipPath><clipPath id="f"><use xlink:href="#b" overflow="visible" width="124.234" height="124.246"/></clipPath><radialGradient xlink:href="#c" id="e" cx="-86.717" cy="-16.199" fx="-86.717" fy="-16.199" r="30.031" gradientTransform="matrix(1.121 .016 -.014 1.078 128.11 49.429)" gradientUnits="userSpaceOnUse"/><path id="b" d="M32.182 29.355c.412-.63 1-1.152 1.75-1.246.88-.11 1.706.07 2.467.45.45.22.9.61 1.15 1.06-.23.22-1.81.61-2.21.71-.81.19-1.68.11-2.42-.17-.27-.11-1.08-.44-.75-.79v-.03z"/></defs><animate xlink:href="#d" attributeName="d" attributeType="XML" values="M44.125,32.03c0.113,2.499,0.178,7.61-0.325,9.357c-0.563,1.955-3.646,4.855-3.875,3.487 c-0.153-0.913,0.375-4.125-0.659-5.296c-0.285-0.322-3.789-2.55-4.418-2.812c-0.786-0.33-1.266-0.157-2.065,0.049 c-0.512,0.132-0.978,0.19-1.443,0.192c-0.465-0.002-0.931-0.06-1.443-0.192c-0.798-0.206-1.278-0.379-2.065-0.049 c-0.629,0.262-4.133,2.489-4.418,2.812c-1.034,1.171-0.506,4.383-0.659,5.296c-0.229,1.368-3.313-1.531-3.875-3.487 c-0.503-1.747-0.438-6.858-0.325-9.357l-0.917-1.406c0.009,2.55,0.056,9.09,0.281,10.243c0.242,2.038,1.398,3.819,4.63,6.459 c2.332,1.59,5.294,3.807,8.742,3.805c3.37-0.002,6.508-2.215,8.84-3.805c3.231-2.64,4.388-4.421,4.63-6.459 c0.225-1.153,0.271-7.693,0.281-10.243L44.125,32.03z M38.354,46.802c-0.693,0.749-2.836,2.097-3.681,2.235 c-2.246,0.366-3.083-2.271-2.667-2.972c0.32-0.537,0.484-0.853,1.349-1.252c-0.023,0.001-0.976,0.001-1.965,0.001 c-0.033,0-0.066,0-0.099,0c-0.989,0-1.942,0-1.965-0.001c0.864,0.399,1.028,0.715,1.349,1.252c0.416,0.701-0.421,3.338-2.667,2.972 c-0.844-0.137-2.988-1.486-3.681-2.235c-0.839-0.908-0.533-5.066-0.468-5.68c0.092-0.84,3.169-2.507,3.709-2.749 c1.125-0.486,2.282,0.083,3.723,0.09v0.003c0.017,0,0.033-0.002,0.049-0.002c0.017,0,0.032,0.002,0.049,0.002v-0.003 c1.441-0.007,2.598-0.576,3.723-0.09c0.54,0.242,3.617,1.909,3.709,2.749C38.887,41.736,39.194,45.894,38.354,46.802z; M44.125,32.03c0.113,2.499,0.178,2.61-0.325,4.357c-0.563,1.955-3.646,4.855-3.875,3.487 c-0.153-0.913,0.375,0.875-0.659-0.296c-0.285-0.322-3.789-2.55-4.418-2.812c-0.786-0.33-1.266-0.157-2.065,0.049 c-0.512,0.132-0.978,0.19-1.443,0.192c-0.465-0.002-0.931-0.06-1.443-0.192c-0.798-0.206-1.278-0.379-2.065-0.049 c-0.629,0.262-4.133,2.489-4.418,2.812c-1.034,1.171-0.506-0.617-0.659,0.296c-0.229,1.368-3.313-1.531-3.875-3.487 c-0.503-1.747-0.438-1.858-0.325-4.357l-0.917-1.406c0.009,2.55,0.056,9.09,0.281,10.243c0.242,2.038,1.398,11.819,4.63,14.459 c2.332,1.59,5.294,3.795,8.742,3.793c3.37-0.002,6.508-2.203,8.84-3.793c3.231-2.64,4.388-12.421,4.63-14.459 c0.225-1.153,0.271-7.693,0.281-10.243L44.125,32.03z M38.354,44.802c-0.693,0.749-2.836,2.097-3.681,2.235 c-2.246,0.366-3.083-0.271-2.667-0.972c0.32-0.537,0.484-0.853,1.349-1.252c-0.023,0.001-0.976,0.001-1.965,0.001 c-0.033,0-0.066,0-0.099,0c-0.989,0-1.942,0-1.965-0.001c0.864,0.399,1.028,0.715,1.349,1.252c0.416,0.701-0.421,1.338-2.667,0.972 c-0.844-0.137-2.988-1.486-3.681-2.235c-0.839-0.908-0.533-2.066-0.468-2.68c0.092-0.84,3.169-2.507,3.709-2.749 c1.125-0.486,2.282,0.083,3.723,0.09v0.003c0.017,0,0.033-0.002,0.049-0.002c0.017,0,0.032,0.002,0.049,0.002v-0.003 c1.441-0.007,2.598-0.576,3.723-0.09c0.54,0.242,3.617,1.909,3.709,2.749C38.887,42.736,39.194,43.894,38.354,44.802z" dur="10s" repeatCount="indefinite"/><rect width="62.118" height="62.118" rx="7.2" ry="7.2" fill="#2196f3" fill-opacity=".933"/><path style="line-height:125%" d="M14.61.317c-.686 0-1.21.29-1.575.858-.36.565-.524 1.388-.524 2.468 0 1.077.17 1.9.53 2.47.37.564.89.856 1.58.856.69 0 1.22-.3 1.58-.86.37-.57.56-1.39.56-2.47 0-1.08-.19-1.9-.553-2.47-.36-.57-.89-.86-1.577-.86zm10.692 0c-.686 0-1.21.29-1.574.858-.36.565-.525 1.388-.525 2.468 0 1.077.164 1.9.525 2.47.363.564.888.856 1.574.856s1.214-.3 1.575-.86c.363-.57.557-1.39.557-2.47 0-1.08-.194-1.9-.557-2.47-.36-.57-.89-.86-1.575-.86zm16.04 0c-.687 0-1.212.29-1.575.858-.36.565-.525 1.388-.525 2.468 0 1.077.164 1.9.525 2.47.363.564.888.856 1.574.856.69 0 1.22-.3 1.58-.86.37-.57.56-1.39.56-2.47 0-1.08-.19-1.9-.55-2.47-.36-.57-.89-.86-1.58-.86zm10.692 0c-.686 0-1.21.29-1.575.858-.36.565-.53 1.388-.53 2.468 0 1.077.16 1.9.52 2.47.36.564.89.856 1.57.856s1.21-.3 1.57-.86c.36-.57.56-1.39.56-2.47 0-1.08-.2-1.9-.56-2.47C53.23.6 52.7.31 52.01.31zm5.346 0c-.686 0-1.21.29-1.574.858-.36.565-.525 1.388-.525 2.468 0 1.077.17 1.9.53 2.47.37.564.89.856 1.58.856s1.22-.3 1.58-.86c.37-.57.56-1.39.56-2.47 0-1.08-.19-1.9-.553-2.47-.36-.57-.89-.86-1.577-.86zM-1.724.42l-1.444.31v.787l1.476-.308v4.9H-3.07v.72H.474v-.72H-.872V.42h-.852zm5.346 0L2.18.73v.787l1.475-.308v4.9H2.277v.72H5.82v-.72H4.474V.42H3.62zm5.346 0L7.525.73v.787L9 1.21v4.9H7.624v.72h3.543v-.72H9.82V.42h-.85zm10.693 0l-1.44.31v.787l1.48-.307v4.9h-1.38v.72h3.54v-.72h-1.34V.42h-.85zm10.7 0l-1.45.31v.787l1.48-.308v4.9h-1.38v.72h3.54v-.72h-1.34V.42h-.85zm5.35 0l-1.45.31v.787l1.48-.308v4.9h-1.38v.72h3.54v-.72h-1.34V.42h-.86zm10.69 0l-1.45.31v.787l1.48-.308v4.9h-1.38v.72h3.54v-.72h-1.34V.42h-.85zm-31.78.583c.43 0 .74.212.95.652.22.437.33 1.108.33 1.988 0 .877-.11 1.55-.33 1.99-.21.436-.52.65-.95.65-.42 0-.73-.214-.95-.65-.21-.44-.33-1.113-.33-1.99 0-.88.12-1.55.33-1.988.22-.44.53-.652.95-.652zm10.7 0c.43 0 .74.212.95.652.22.437.33 1.108.33 1.988 0 .877-.11 1.55-.33 1.99-.21.436-.52.65-.95.65-.424 0-.733-.214-.95-.65-.212-.44-.33-1.113-.33-1.99 0-.88.118-1.55.33-1.988.217-.44.526-.652.95-.652zm16.04 0c.43 0 .74.212.95.652.218.437.33 1.108.33 1.988 0 .877-.11 1.55-.326 1.99-.213.436-.522.65-.95.65-.427 0-.736-.214-.952-.65-.21-.44-.325-1.113-.325-1.99 0-.88.116-1.55.33-1.988.216-.44.525-.652.95-.652zm10.69 0c.43 0 .74.212.95.652.22.437.33 1.108.33 1.988 0 .877-.11 1.55-.33 1.99-.21.436-.52.65-.95.65-.424 0-.732-.214-.95-.65-.212-.44-.33-1.113-.33-1.99 0-.88.118-1.55.33-1.988.218-.44.526-.652.95-.652zm5.35 0c.43 0 .74.212.95.652.217.437.33 1.108.33 1.988 0 .877-.113 1.55-.33 1.99-.21.436-.52.65-.95.65-.426 0-.735-.214-.95-.65-.214-.44-.33-1.113-.33-1.99 0-.88.116-1.55.33-1.988.215-.44.524-.652.95-.652zM-1.43 11.29c-.685 0-1.21.288-1.574.856-.36.566-.524 1.39-.524 2.47 0 1.076.164 1.9.524 2.467.364.566.89.857 1.575.857.69 0 1.22-.29 1.58-.857.37-.568.56-1.39.56-2.468 0-1.08-.19-1.903-.56-2.47-.36-.567-.89-.856-1.57-.856zm5.347 0c-.686 0-1.21.288-1.574.856-.36.566-.525 1.39-.525 2.47 0 1.076.164 1.9.525 2.467.363.566.888.857 1.574.857s1.214-.29 1.574-.857c.37-.568.56-1.39.56-2.468 0-1.08-.19-1.903-.56-2.47-.36-.567-.88-.856-1.57-.856zm10.693 0c-.686 0-1.21.288-1.575.856-.36.566-.524 1.39-.524 2.47 0 1.076.17 1.9.53 2.467.37.566.89.857 1.58.857.69 0 1.22-.29 1.58-.857.37-.568.56-1.39.56-2.468 0-1.08-.19-1.903-.553-2.47-.36-.567-.89-.856-1.576-.856zm21.385 0c-.686 0-1.21.288-1.574.856-.36.566-.52 1.39-.52 2.47 0 1.076.17 1.9.53 2.467.37.566.89.857 1.58.857s1.22-.29 1.58-.857c.365-.568.56-1.39.56-2.468 0-1.08-.19-1.903-.556-2.47-.36-.567-.89-.856-1.574-.856zm16.04 0c-.687 0-1.212.288-1.576.856-.36.566-.53 1.39-.53 2.47 0 1.076.16 1.9.52 2.467.36.566.89.857 1.57.857s1.21-.29 1.57-.857c.36-.568.56-1.39.56-2.468 0-1.08-.2-1.903-.56-2.47-.36-.567-.89-.856-1.578-.856zm-43.067.102l-1.443.308v.79L9 12.18v4.903H7.624v.72h3.543v-.72H9.82v-5.69h-.85zm10.693 0l-1.44.308v.79l1.48-.31v4.903h-1.38v.72h3.54v-.72h-1.34v-5.69h-.85zm5.35 0l-1.44.308v.79l1.48-.31v4.903h-1.38v.72h3.55v-.72h-1.35v-5.69h-.85zm5.35 0l-1.44.308v.79l1.48-.31v4.903h-1.38v.72h3.54v-.72h-1.35v-5.69h-.85zm10.7 0l-1.44.308v.79l1.48-.31v4.903h-1.4v.72h3.545v-.72H41.9v-5.69h-.854zm5.35 0l-1.44.308v.79l1.476-.31v4.903h-1.38v.72h3.54v-.72h-1.35v-5.69H46.4zm10.696 0l-1.443.308v.79l1.474-.31v4.903h-1.38v.72H59.3v-.72h-1.35v-5.69h-.853zm-58.514.583c.43 0 .74.21.95.65.218.438.33 1.11.33 1.99 0 .877-.112 1.548-.33 1.988-.21.437-.52.652-.95.652-.426 0-.734-.215-.95-.652-.214-.44-.33-1.11-.33-1.988 0-.88.116-1.552.33-1.99.216-.44.524-.65.95-.65zm5.347 0c.43 0 .74.21.95.65.217.438.33 1.11.33 1.99 0 .877-.113 1.548-.33 1.988-.21.437-.52.652-.95.652-.426 0-.735-.215-.95-.652-.214-.44-.33-1.11-.33-1.988 0-.88.116-1.552.33-1.99.215-.44.524-.65.95-.65zm10.693 0c.43 0 .737.21.95.65.216.438.33 1.11.33 1.99 0 .877-.114 1.548-.33 1.988-.213.437-.52.652-.95.652-.43 0-.737-.215-.95-.652-.216-.44-.33-1.11-.33-1.988 0-.88.114-1.552.33-1.99.213-.44.52-.65.95-.65zm21.384 0c.43 0 .74.21.95.65.218.438.33 1.11.33 1.99 0 .877-.112 1.548-.33 1.988-.21.437-.52.652-.95.652-.425 0-.734-.215-.95-.652-.213-.44-.33-1.11-.33-1.988 0-.88.117-1.552.33-1.99.216-.44.525-.65.95-.65zm16.04 0c.43 0 .738.21.95.65.217.438.33 1.11.33 1.99 0 .877-.11 1.548-.327 1.988-.216.437-.525.652-.95.652-.43 0-.74-.215-.955-.652-.21-.44-.33-1.11-.33-1.988 0-.88.118-1.552.33-1.99.218-.44.526-.65.95-.65zM3.92 22.26c-.688 0-1.21.29-1.576.858-.36.565-.524 1.388-.524 2.468 0 1.077.164 1.9.525 2.47.364.565.89.856 1.575.856s1.214-.29 1.574-.857c.364-.57.56-1.392.56-2.47 0-1.08-.196-1.902-.56-2.467-.36-.57-.888-.857-1.574-.857zm26.73 0c-.687 0-1.21.29-1.576.858-.36.565-.524 1.388-.524 2.468 0 1.077.163 1.9.524 2.47.368.565.89.856 1.58.856.684 0 1.21-.29 1.572-.857.364-.57.558-1.392.558-2.47 0-1.08-.193-1.902-.557-2.467-.36-.57-.887-.857-1.573-.857zm16.04 0c-.69 0-1.21.29-1.577.858-.36.565-.52 1.388-.52 2.468 0 1.077.17 1.9.53 2.47.37.565.89.856 1.58.856s1.214-.29 1.575-.857c.363-.57.557-1.392.557-2.47 0-1.08-.195-1.902-.56-2.467-.36-.57-.89-.857-1.573-.857zm10.69 0c-.686 0-1.21.29-1.574.858-.36.565-.525 1.388-.525 2.468 0 1.077.16 1.9.52 2.47.36.565.89.856 1.57.856s1.21-.29 1.57-.857c.367-.57.56-1.392.56-2.47 0-1.08-.192-1.902-.56-2.467-.36-.57-.89-.857-1.57-.857zm-59.104.103l-1.444.31v.788l1.475-.3v4.91H-3.07v.72H.474v-.72H-.872v-5.7h-.852zm10.692 0l-1.443.31v.788L9 23.16v4.903H7.624v.72h3.543v-.72H9.82V22.37h-.85zm5.347 0l-1.444.31v.788l1.47-.3v4.91h-1.37v.72h3.54v-.72h-1.34v-5.7h-.86zm5.346 0l-1.45.31v.788l1.47-.3v4.91H18.3v.72h3.544v-.72h-1.34v-5.7h-.853zm5.34 0l-1.44.31v.788l1.47-.3v4.91h-1.38v.72h3.55v-.72h-1.34v-5.7h-.852zm10.69 0l-1.443.31v.788l1.476-.3v4.91h-1.38v.72h3.543v-.72h-1.34v-5.7h-.85zm5.34 0l-1.44.31v.788l1.478-.3v4.91H39.7v.72h3.544v-.72H41.9v-5.7h-.854zm10.7 0l-1.446.31v.788l1.475-.3v4.91h-1.37v.72h3.54v-.72h-1.34v-5.7h-.85zm-47.83.583c.43 0 .74.212.95.652.22.437.33 1.108.33 1.988 0 .877-.11 1.55-.33 1.99-.21.436-.52.65-.95.65-.422 0-.73-.214-.95-.65-.21-.44-.33-1.113-.33-1.99 0-.88.12-1.55.33-1.988.22-.44.528-.652.95-.652zm26.736 0c.427 0 .736.212.95.652.215.437.327 1.108.327 1.988 0 .877-.11 1.55-.324 1.99-.218.436-.52.65-.95.65-.43 0-.74-.214-.958-.65-.21-.44-.325-1.113-.325-1.99 0-.88.114-1.55.327-1.988.217-.44.526-.652.953-.652zm16.037 0c.43 0 .74.212.95.652.22.437.33 1.108.33 1.988 0 .877-.11 1.55-.33 1.99-.21.436-.52.65-.95.65-.423 0-.732-.214-.95-.65-.21-.44-.325-1.113-.325-1.99 0-.88.114-1.55.327-1.988.22-.44.53-.652.956-.652zm10.696 0c.43 0 .74.212.95.652.212.437.33 1.108.33 1.988 0 .877-.118 1.55-.33 1.99-.21.436-.52.65-.95.65-.43 0-.74-.214-.95-.65-.22-.44-.33-1.113-.33-1.99 0-.88.11-1.55.33-1.988.21-.44.52-.652.95-.652zM3.91 33.232c-.685 0-1.21.29-1.573.857-.36.56-.525 1.38-.525 2.46 0 1.07.162 1.9.523 2.47.362.56.89.85 1.573.85s1.215-.29 1.575-.86c.37-.57.56-1.39.56-2.47 0-1.08-.19-1.9-.56-2.47-.36-.57-.88-.86-1.57-.86zm10.694 0c-.685 0-1.21.29-1.574.857-.36.56-.524 1.38-.524 2.46 0 1.07.17 1.9.53 2.47.37.56.89.85 1.58.85.69 0 1.217-.29 1.58-.86.362-.57.556-1.39.556-2.47 0-1.08-.195-1.9-.56-2.47-.36-.57-.89-.86-1.576-.86zm16.04 0c-.686 0-1.21.29-1.575.857-.36.56-.524 1.38-.524 2.46 0 1.07.16 1.9.52 2.47.36.56.89.85 1.57.85s1.21-.29 1.57-.86c.364-.57.56-1.39.56-2.47 0-1.08-.195-1.9-.56-2.47-.36-.57-.89-.86-1.573-.86zm16.04 0c-.688 0-1.21.29-1.576.857-.36.56-.524 1.38-.524 2.46 0 1.07.162 1.9.523 2.47.362.56.886.85 1.573.85.683 0 1.21-.29 1.57-.86.364-.57.558-1.39.558-2.47 0-1.08-.2-1.9-.56-2.47-.36-.57-.89-.86-1.58-.86zm10.69 0c-.685 0-1.21.29-1.573.857-.36.56-.525 1.38-.525 2.46 0 1.07.17 1.9.53 2.47.37.56.89.85 1.58.85s1.22-.29 1.58-.86c.362-.57.556-1.39.556-2.47 0-1.08-.195-1.9-.56-2.47-.36-.57-.89-.86-1.576-.86zm-59.103.103l-1.444.31v.787l1.476-.308v4.903h-1.38v.72H.473v-.72H-.872v-5.692h-.852zm10.692 0l-1.445.31v.787L9 34.124v4.903H7.624v.72h3.543v-.72H9.82v-5.692h-.85zm10.69 0l-1.44.31v.787l1.48-.308v4.903h-1.38v.72h3.54v-.72h-1.34v-5.692h-.85zm5.35 0l-1.44.31v.787l1.48-.308v4.903h-1.38v.72h3.548v-.72h-1.35v-5.692h-.855zm10.7 0l-1.44.31v.787l1.48-.308v4.903h-1.38v.72h3.54v-.72h-1.35v-5.692h-.86zm5.35 0l-1.44.31v.787l1.475-.308v4.903H39.7v.72h3.544v-.72H41.9v-5.692h-.854zm10.695 0l-1.444.31v.787l1.48-.308v4.903H50.4v.72h3.54v-.72h-1.35v-5.692h-.85zm-47.822.583c.43 0 .735.21.95.65.214.438.33 1.11.33 1.99 0 .877-.116 1.55-.33 1.99-.215.436-.52.65-.95.65-.43 0-.738-.214-.95-.65-.217-.44-.33-1.113-.33-1.99 0-.88.113-1.552.33-1.99.212-.44.52-.65.95-.65zm10.69 0c.43 0 .74.21.95.65.217.438.33 1.11.33 1.99 0 .877-.113 1.55-.33 1.99-.21.436-.52.65-.95.65-.427 0-.736-.214-.95-.65-.215-.44-.33-1.113-.33-1.99 0-.88.115-1.552.33-1.99.214-.44.523-.65.95-.65zm16.04 0c.43 0 .737.21.95.65.216.438.33 1.11.33 1.99 0 .877-.114 1.55-.33 1.99-.213.436-.52.65-.95.65-.428 0-.737-.214-.953-.65-.21-.44-.33-1.113-.33-1.99 0-.88.118-1.552.33-1.99.218-.44.527-.65.954-.65zm16.04 0c.43 0 .735.21.95.65.215.438.33 1.11.33 1.99 0 .877-.115 1.55-.33 1.99-.215.436-.52.65-.95.65-.43 0-.738-.214-.954-.65-.214-.44-.33-1.113-.33-1.99 0-.88.114-1.552.327-1.99.22-.44.53-.65.956-.65zm10.69 0c.43 0 .74.21.95.65.217.438.33 1.11.33 1.99 0 .877-.113 1.55-.33 1.99-.21.436-.52.65-.95.65-.426 0-.735-.214-.95-.65-.214-.44-.33-1.113-.33-1.99 0-.88.116-1.552.33-1.99.215-.44.524-.65.95-.65zM-1.43 44.204c-.685 0-1.21.288-1.574.857-.36.57-.524 1.39-.524 2.47 0 1.08.164 1.9.524 2.47.364.57.89.86 1.575.86.69 0 1.22-.29 1.58-.85.37-.57.56-1.39.56-2.47 0-1.08-.19-1.9-.56-2.47-.36-.56-.89-.85-1.57-.85zm16.04 0c-.686 0-1.21.288-1.575.857-.36.57-.524 1.39-.524 2.47 0 1.08.17 1.9.53 2.47.37.57.89.86 1.58.86.69 0 1.22-.29 1.58-.85.37-.57.56-1.39.56-2.47 0-1.08-.19-1.9-.553-2.47-.36-.56-.89-.85-1.576-.85zm5.346 0c-.686 0-1.21.288-1.574.857-.36.57-.525 1.39-.525 2.47 0 1.08.164 1.9.525 2.47.363.57.888.86 1.574.86s1.214-.29 1.574-.85c.364-.57.558-1.39.558-2.47 0-1.08-.194-1.9-.558-2.47-.36-.56-.888-.85-1.574-.85zm5.346 0c-.686 0-1.21.288-1.574.857-.36.57-.525 1.39-.525 2.47 0 1.08.164 1.9.525 2.47.363.57.888.86 1.574.86s1.214-.29 1.575-.85c.363-.57.557-1.39.557-2.47 0-1.08-.194-1.9-.557-2.47-.36-.56-.89-.85-1.575-.85zm5.347 0c-.69 0-1.22.288-1.58.857-.36.57-.53 1.39-.53 2.47 0 1.08.16 1.9.52 2.47.36.57.89.86 1.57.86.682 0 1.21-.29 1.57-.85.362-.57.556-1.39.556-2.47 0-1.08-.193-1.9-.557-2.47-.36-.56-.89-.85-1.575-.85zm16.03 0c-.69 0-1.21.288-1.58.857-.36.57-.53 1.39-.53 2.47 0 1.08.16 1.9.522 2.47.366.57.89.86 1.577.86s1.214-.29 1.574-.86c.365-.57.56-1.39.56-2.47 0-1.08-.196-1.9-.56-2.47-.36-.56-.887-.85-1.573-.85zm-43.07.103l-1.45.308v.79l1.473-.31v4.903H2.27v.72h3.55v-.72H4.474v-5.69H3.62zm5.34 0l-1.446.308v.79l1.48-.31v4.902H7.62v.72h3.543v-.72H9.82v-5.69h-.85zm26.73 0l-1.447.308v.79l1.476-.31v4.903h-1.37v.72h3.542v-.72h-1.34v-5.69h-.85zm5.342 0l-1.444.308v.79l1.475-.31v4.903H39.7v.72h3.544v-.72H41.9v-5.69h-.854zm10.692 0l-1.448.308v.79l1.475-.31v4.903h-1.37v.72h3.543v-.72h-1.34v-5.69h-.85zm5.342 0l-1.444.308v.79l1.475-.31v4.903h-1.37v.72h3.54v-.72h-1.34v-5.69h-.854zm-58.515.582c.43 0 .74.21.95.65.218.43.33 1.11.33 1.99 0 .87-.112 1.54-.33 1.98-.21.43-.52.65-.95.65-.426 0-.734-.22-.95-.66-.214-.44-.33-1.11-.33-1.99 0-.88.116-1.556.33-1.99.216-.44.524-.65.95-.65zm16.04 0c.43 0 .738.21.95.65.217.43.33 1.11.33 1.99 0 .87-.113 1.54-.33 1.98-.212.43-.52.65-.95.65-.427 0-.736-.22-.95-.66-.215-.44-.33-1.11-.33-1.99 0-.88.115-1.556.33-1.99.214-.44.523-.65.95-.65zm5.346 0c.43 0 .74.21.95.65.218.43.33 1.11.33 1.99 0 .87-.112 1.54-.33 1.98-.21.43-.52.65-.95.65-.425 0-.734-.22-.95-.66-.213-.44-.33-1.11-.33-1.99 0-.88.117-1.556.33-1.99.216-.44.525-.65.95-.65zm5.347 0c.43 0 .74.21.95.65.22.43.33 1.11.33 1.99 0 .87-.11 1.54-.33 1.98-.21.43-.52.65-.95.65-.425 0-.734-.22-.95-.66-.213-.44-.33-1.11-.33-1.99 0-.88.117-1.556.33-1.99.216-.44.525-.65.95-.65zm5.35 0c.43 0 .736.21.95.65.215.43.33 1.11.33 1.99 0 .87-.11 1.54-.33 1.98-.21.43-.52.65-.95.65-.428 0-.737-.22-.95-.66-.215-.44-.33-1.11-.33-1.99 0-.88.114-1.556.327-1.99.214-.44.523-.65.95-.65zm16.04 0c.43 0 .735.21.95.65.215.43.33 1.11.33 1.99 0 .87-.115 1.54-.33 1.98-.215.43-.52.65-.95.65-.43 0-.738-.22-.95-.66-.217-.44-.33-1.11-.33-1.99 0-.88.113-1.556.33-1.99.212-.44.52-.65.95-.65zm-48.1 10.28c-.686 0-1.21.29-1.575.85-.36.565-.525 1.39-.525 2.47 0 1.076.165 1.9.525 2.47.365.563.89.855 1.576.855.69 0 1.22-.29 1.58-.857.37-.57.56-1.394.56-2.47 0-1.08-.19-1.904-.56-2.47-.36-.57-.89-.857-1.57-.857zm32.08 0c-.688 0-1.21.29-1.577.85-.36.565-.525 1.39-.525 2.47 0 1.076.16 1.9.52 2.47.36.563.89.855 1.57.855s1.21-.29 1.57-.857c.364-.57.56-1.394.56-2.47 0-1.08-.195-1.904-.56-2.47-.36-.57-.887-.857-1.573-.857zm10.69 0c-.686 0-1.21.29-1.574.85-.36.565-.525 1.39-.525 2.47 0 1.076.165 1.9.526 2.47.364.563.89.855 1.575.855.69 0 1.22-.29 1.58-.857.37-.57.56-1.394.56-2.47 0-1.08-.19-1.904-.55-2.47-.36-.57-.89-.857-1.576-.857zm10.693 0c-.686 0-1.21.29-1.575.85-.36.565-.53 1.39-.53 2.47 0 1.076.16 1.9.52 2.47.36.563.89.855 1.57.855s1.214-.29 1.575-.857c.362-.57.56-1.394.56-2.47 0-1.08-.198-1.904-.56-2.47-.36-.57-.89-.857-1.576-.857zm5.346 0c-.685 0-1.21.29-1.573.85-.36.565-.525 1.39-.525 2.47 0 1.076.17 1.9.53 2.47.37.563.89.855 1.58.855s1.217-.29 1.577-.857c.362-.57.556-1.394.556-2.47 0-1.08-.19-1.904-.557-2.47-.36-.57-.89-.857-1.576-.857zm-53.757.1l-1.445.31v.78l1.47-.31v4.905H2.27v.72h3.55v-.72H4.474v-5.69H3.62zm5.344 0l-1.445.31v.78l1.473-.3v4.903H7.62v.72h3.54v-.72H9.82V55.27h-.85zm5.345 0l-1.445.31v.78l1.48-.31v4.905h-1.38v.72h3.55v-.72h-1.35v-5.69h-.85zm5.345 0l-1.44.31v.78l1.48-.31v4.905h-1.38v.72h3.54v-.72h-1.34v-5.69h-.85zm5.35 0l-1.44.31v.78l1.48-.31v4.905h-1.38v.72h3.548v-.72h-1.35v-5.69h-.85zm10.7 0l-1.44.31v.78l1.48-.31v4.905h-1.38v.72h3.54v-.72h-1.35v-5.69h-.86zm10.698 0l-1.442.31v.78l1.474-.31v4.905h-1.38v.72h3.54v-.72h-1.35v-5.69h-.857zm-47.82.58c.43 0 .738.21.95.65.217.436.33 1.11.33 1.99 0 .88-.11 1.55-.327 1.99-.214.44-.523.65-.95.65-.43 0-.74-.21-.953-.65-.213-.44-.327-1.11-.327-1.99 0-.88.113-1.55.327-1.988.217-.44.525-.653.95-.653zm32.078 0c.427 0 .736.21.95.65.215.436.327 1.11.327 1.99 0 .88-.11 1.55-.326 1.99-.21.44-.52.65-.95.65-.427 0-.736-.21-.95-.65-.215-.44-.33-1.11-.33-1.99 0-.88.113-1.55.326-1.988.22-.44.53-.653.95-.653zm10.69 0c.43 0 .74.21.95.65.216.436.33 1.11.33 1.99 0 .88-.114 1.55-.33 1.99-.214.44-.523.65-.95.65-.428 0-.737-.21-.953-.65-.212-.44-.327-1.11-.327-1.99 0-.88.112-1.55.325-1.988.215-.44.524-.653.95-.653zm10.693 0c.43 0 .74.21.95.65.216.436.33 1.11.33 1.99 0 .88-.114 1.55-.33 1.99-.21.44-.52.65-.95.65-.428 0-.736-.21-.95-.65-.216-.44-.33-1.11-.33-1.99 0-.88.114-1.55.33-1.988.214-.44.522-.653.95-.653zm5.345 0c.43 0 .735.21.95.65.214.436.33 1.11.33 1.99 0 .88-.116 1.55-.33 1.99-.215.44-.52.65-.95.65-.43 0-.738-.21-.95-.65-.217-.44-.33-1.11-.33-1.99 0-.88.113-1.55.33-1.988.212-.44.52-.653.95-.653z" font-size="8" letter-spacing="0" word-spacing="0" fill="url(#e)" font-family="Sans"/><path fill="#f1e0b0" d="M45.788 29.805c-.267-.044-.62-.038-.994.014.053-1.73.15-3.48.15-4.66.002-7.01-2.414-10.01-5.537-11.7-2.143-1.16-5.206-1.6-8.115-1.62-2.91.02-5.972.46-8.115 1.61-3.124 1.683-5.54 4.69-5.537 11.69 0 1.34.124 3.42.167 5.36-.408-.47-.843-.778-1.2-.72-1.805.295-1.158 3.496-1.1 4.804.06 1.33.228 2.89 1.184 3.96.25.276.62.375.99.147.07 1.23.22 2.31.56 2.896.85 1.48 1.87 3.806 5.16 5.92 3.29 2.11 5.55 3.214 7.73 3.214.06 0 .11-.006.17-.006h.03c.053 0 .11.008.162.008 2.177 0 4.437-1.1 7.726-3.216 3.29-2.117 4.31-4.44 5.155-5.92.327-.575.486-1.613.55-2.806.306.1.594-.003.8-.232.956-1.07 1.13-2.63 1.187-3.96.057-1.31.706-4.51-1.1-4.803z"/><path d="M28.575 32.877c-.418.384-2.133 3.528-1.014 3.897 1.16.385 2.89-.04 4.05-.173.62-.07 4.31 1.23 1.87-1.42-.38-.41-1.13-.31-1.52.04-.27.24-.6.41-1.02.36-.53-.05-.85-.48-1.35-.61-.27-.07-.45-.03-.7.05-1.4.48-.7-1.16-.293-2.13z" opacity=".2" fill="#605356"/><path d="M46.582 29.892c.135-.665.538-.127.622-.838.09-.74.045-2.572.176-3.308.134-.756.28-1.342.3-2.158.02-.832.18-2.716.114-3.565-.802.11-.875-1.36-.886-1.875-.02-.856-.31-2.58-.366-3.347-1.965.75-2.047-.73-2.17-1.95-.666 1.11-1.85-1.83-2.475-2.53-.29-.32-.524.46-.724.08-.172-.32-.292-.79-.51-1.08-.36-.49-.81-.335-1.41-.45-.45-.09-.813-.268-1.228-.458-.895-.41-1.61.335-2.045-.58-.968.047-1.58-.682-2.546-1.092-.45-.19-.72.775-1.062.38-.262-.3-.496-.75-.923-.882-.4.478-1.23.126-1.79.284-.39.11-.76-.106-1.1-.088-.54.027-.32.2-.71.454-1.31.614-2.86 1.607-3.75 1.06-.41.798-.92.52-1.37 1.3-.2.34-.38-.32-.75-.14-.49.237-.56.835-.98.92-.46.093-2.08 1.3-2.29 1.804-.28.653.16 2.137-.76 1.805-.1-.126-.11.99-.25.926-.46 1.75-.095.49-.87 2.11-.598-.02-.607 5.447-.647 5.98-.028.35 0 .74.023 1.095.05.672.25 1.385.293 2.046.083 1.148.006 2.298.05 3.444.026.76.43 1.834.193 2.566.96.02 1.117 1.6 1.13 2.26.02.78.05 1.604.12 2.38.026.28.015.63.13.892.02.07.53.58.54.347.04-1.41-.027-2.83-.06-4.25-.02-.77.113-1.448.172-2.195.052-.705.054-1.387.135-2.08.056-.443.16-.88.297-1.3.096-.3.315-.608.358-.887.05-.32-.07-.706-.09-1.04-.067-1.01.1-1.955.077-2.953-.01-.406-.033-.814-.03-1.22.01-.82.104.48.32-.305.375-1.343.93.546 2.064-.32.6-.46 1.105.11 1.88-.134.64-.2 1.3-.264 1.967-.39.63-.12 1.16.5 1.72.176.57-.33 1.42-1.25 2.05-1.463.77-.26 1.61-1.333 2.46-1.353.51-.013.897 1.12 1.377 1.208.32.058.73.094 1.06.04.37-.06.794-.192 1.207-.22.48-.03.85 1.25 1.287 1.418.77.3 1.635.414 2.36.8.655.35 1.2-.04 1.78.42.314.25.756.59.96.91.21.338.33-.322.473.048.57 1.47.847.47.965 2.04.05.71-.023-1.75-.196-1.06-.166.67-.408 1.23-.096 1.92.09.21.245 2.518.356 2.704.654 1.117.685.634.76 1.89.08 1.39.074 2.795-.076 4.18-.06.56-.023 1.084-.037 1.64-.01.45-.224.95-.14 1.413.575.06.494-.12.61-.63.095-.426.243-.84.27-1.28.05-.71 0-1.318.166-1.99.144-.566.284-1.086.41-1.64.15-.638.386-.798.95-1.076.02-.004.103-.53.153-.774z" fill="#ccc"/><path fill="#ccc" d="M44.125 32.03c.113 2.5.178 7.61-.325 9.357-.563 1.955-3.646 4.855-3.875 3.487-.153-.913.375-4.125-.66-5.296-.284-.322-3.788-2.55-4.417-2.812-.786-.33-1.266-.157-2.065.05-.512.13-.978.19-1.443.19-.465 0-.93-.06-1.443-.19-.798-.207-1.278-.38-2.065-.05-.63.262-4.133 2.49-4.418 2.812-1.034 1.17-.506 4.383-.66 5.296-.228 1.368-3.312-1.53-3.874-3.487-.503-1.747-.438-6.858-.325-9.357l-.917-1.406c.01 2.55.056 9.09.28 10.243.243 2.038 1.4 3.82 4.63 6.46 2.333 1.59 5.295 3.806 8.743 3.804 3.37 0 6.51-2.21 8.84-3.8 3.24-2.64 4.39-4.42 4.63-6.46.23-1.15.28-7.69.29-10.24l-.91 1.41zm-5.77 14.772c-.694.75-2.837 2.097-3.682 2.235-2.246.366-3.083-2.27-2.667-2.972.32-.537.484-.853 1.35-1.252h-4.03c.863.4 1.027.715 1.35 1.252.414.7-.423 3.338-2.67 2.972-.843-.137-2.987-1.486-3.68-2.235-.84-.908-.533-5.066-.47-5.68.094-.84 3.17-2.507 3.71-2.75 1.126-.485 2.283.084 3.724.09v.004l.05-.002.05.002v-.003c1.44-.007 2.597-.576 3.722-.09.54.242 3.617 1.91 3.71 2.75.065.613.372 4.77-.468 5.68z" id="d"/><path d="M39.34 24.965c-1.667-.534-3.637-.256-4.945.816-1.585 1.3-.063 2.94 1.363 3.53 1.242.52 2.87.75 4.267.45 1.31-.28 2.2-1.55 1.98-2.73-.212-1.14-1.554-1.7-2.664-2.06z" opacity=".2" fill="#98898d"/><path d="M34.66 27.345c.502-.765 1.218-1.4 2.13-1.516 1.07-.14 2.076.08 3.002.54.55.27 1.102.74 1.4 1.29-.275.26-2.2.75-2.69.86-.977.23-2.033.14-2.936-.21-.33-.13-1.312-.538-.907-.957v-.03z" fill="#fff"/><g transform="matrix(1.217 0 0 1.217 -4.498 -8.374)" clip-path="url(#f)"><path d="M32.628 29.45c.095.676.635 1.168 1.205 1.1.57-.07.957-.67.86-1.348-.094-.675-.633-1.167-1.204-1.1-.58.07-.96.672-.87 1.347z" fill="#594a42"/><path d="M33.696 28.773c.032.187.188.318.35.295.164-.023.268-.195.234-.38-.03-.188-.188-.32-.35-.295-.16.022-.266.192-.234.38z" fill="#fff"/></g><path d="M20.374 29.08c.43 1.234 2.807 1.313 3.952 1.16 1.103-.145 2.42-.815 3.113-1.628.87-1.03.97-2.17-.41-2.883-.99-.51-2.31-.51-3.43-.4-.86.08-2.4.59-2.85 1.22-.46.63-.63 1.83-.38 2.52z" opacity=".2" fill="#98898d"/><path d="M23.902 29.186c.612-.075 3.994-.685 3.84-1.417-.935-.89-1.975-1.47-3.485-1.51-.95-.03-2.278.37-2.788 1.25-.7 1.21 1.39 1.79 2.43 1.66z" fill="#fff"/><g transform="matrix(1.217 0 0 1.217 -4.498 -8.374)"><defs><path d="M23.34 30.868c.503-.062 3.283-.563 3.156-1.165-.768-.73-1.623-1.203-2.864-1.234-.78-.03-1.872.3-2.29 1.03-.574 1 1.148 1.47 1.998 1.36z" id="a"/></defs><g clip-path="url(#g)"><path d="M21.546 29.883c.06.734.607 1.297 1.22 1.254.614-.042 1.063-.67 1-1.406-.06-.73-.606-1.29-1.22-1.25-.614.05-1.062.68-1 1.41z" fill="#594a42"/><path d="M22.724 29.21c.023.206.184.357.356.34.174-.017.296-.195.27-.4-.02-.203-.182-.353-.354-.337-.172.016-.295.195-.272.398z" fill="#fff"/></g></g><path d="M36.057 42.582c-.152.12-.292.255-.464.345-.91.47-1.858.75-2.9.84-.613.053-1.19-.112-1.787-.12-.443-.002-.842.18-1.28.145-.457-.037-.85-.13-1.262-.262-.516-.166-.937-.48-1.38-.775-.343-.23-1.066-1.176-1.172-1.295.265.64.454.872.546 1.042.566 1.054 1.598 1.567 2.007 1.715.466.167.92.195 1.417.203.722.012 3.43-.04 4.057-.04 1.28 0 2.19-1.78 2.21-1.798z" opacity=".2" fill="#5e5355"/><path d="M34.447 40.303c-.256-.036-1.91-.098-3.274-.123-1.365.025-2.99.056-3.246.094-.426.06-2.03.805-2.03.805s.443 1.13 1.64 1.41c.91.21 2.45.32 3.637.35 1.188-.03 2.73-.14 3.638-.36 1.197-.28 1.64-1.42 1.64-1.42s-1.577-.72-2.005-.78z" fill="#5a4b42"/><path d="M34.564 42.364c-.035-.167-.326-.38-.555-.186-.02-.02-.03-.04-.05-.06-.12-.126-.55-.08-.66.11-.04-.04-.09-.074-.15-.096-.28-.098-.51-.045-.61.114-.04-.056-.08-.1-.14-.12-.25-.086-.53-.016-.62.172-.03-.187-.47-.22-.64-.1-.05.037-.08.094-.1.162-.02-.067-.05-.125-.1-.16-.17-.122-.59-.1-.64.098-.09-.187-.37-.258-.62-.172-.06.02-.108.064-.14.12-.1-.158-.31-.254-.588-.157-.06.02-.11.1-.147.14-.11-.19-.54-.24-.66-.11-.018.02-.033.04-.048.06-.244-.16-.53.08-.565.21-.01.03-.015.06-.02.09.91.21 2.447.32 3.63.35 1.09-.03 2.48-.126 3.406-.308.002-.04.003-.086-.017-.183z" fill="#fff"/><path d="M36.088 40.735c-.15-.062-.294-.116-.41-.163-.41-.17-.788-.384-1.173-.585-.33-.154-.664-.3-1.05-.424-.937-.3-2.12.203-3.118.064-.35-.05-.696-.117-1.052-.106-.143.01-.288.02-.435.06-.455.11-.986.23-1.402.42-.433.2-.798.51-1.223.73-.203.1-.393.18-.555.26.116.04.24.09.3.09.168.03.36-.07.508-.14.29-.12.543-.29.83-.41.37-.15.813-.16 1.23-.16.943 0 1.865.07 2.804.14 1.26.1 2.704-.2 3.805.44.3.18.947.15 1.3.15.05 0 .09 0 .126-.002-.14-.12-.315-.24-.485-.337z" opacity=".2" fill="#5e5355"/><path d="M27.154 40.52c-.01.1.017.21.057.286.08.136.23.115.39.068.1.233.46.146.54.024.04.107.16.164.39.154.14-.006.38-.033.45-.183.01.11.055.21.194.25.24.06.605-.02.715-.17l.022-.04.02.05c.09.193.48.193.73.183.217-.006.32-.07.386-.156.06.09.17.15.385.16.25.01.64.01.73-.188l.02-.055c.01.01.017.023.023.033.11.15.475.236.715.17.14-.04.18-.14.19-.258.107.15.26.18.458.18.175 0 .34-.05.377-.156.077.147.435.21.534-.025.156.045.31.07.385-.07.056-.104.065-.236.04-.35l-.01-.04c-.15-.064-.306-.114-.455-.15-.38-.03-1.62-.06-2.773-.086-1.415.026-3.473.07-3.76.11-.18.027-.45.12-.723.232z" fill="#fff"/></svg>