<svg xmlns="http://www.w3.org/2000/svg" version="0" width="300" height="250" viewBox="0 0 289.333 253"><g overflow="visible" stroke-width="2"><path d="M164.907 25.3a20.24 20.24 0 1 1-40.48 0 20.24 20.24 0 1 1 40.48 0z" fill="none" stroke="#000" overflow="visible" stroke-width="1.012"/><text x="-42.313" y="-8.094" style="text-align:start;line-height:125%;-inkscape-font-specification:DejaVu Sans" font-size="24" overflow="visible" font-family="DejaVu Sans" transform="matrix(1.012 0 0 1.012 180.087 42.504)"><tspan x="-42.313" y="-8.094">2</tspan></text></g><g overflow="visible" stroke-width="2"><path d="M89.007 80.96a20.24 20.24 0 1 1-40.48 0 20.24 20.24 0 1 1 40.48 0z" fill="none" stroke="#000" overflow="visible" stroke-width="1.012"/><text x="-42.313" y="-8.094" style="text-align:start;line-height:125%;-inkscape-font-specification:DejaVu Sans" font-size="24" overflow="visible" font-family="DejaVu Sans" transform="matrix(1.012 0 0 1.012 104.187 98.164)"><tspan x="-42.313" y="-8.094">7</tspan></text></g><g overflow="visible" stroke-width="2"><path d="M240.806 80.96a20.24 20.24 0 1 1-40.48 0 20.24 20.24 0 1 1 40.48 0z" fill="none" stroke="#000" overflow="visible" stroke-width="1.012"/><text x="-42.313" y="-8.094" style="text-align:start;line-height:125%;-inkscape-font-specification:DejaVu Sans" font-size="24" overflow="visible" font-family="DejaVu Sans" transform="matrix(1.012 0 0 1.012 255.986 98.164)"><tspan x="-42.313" y="-8.094">5</tspan></text></g><g overflow="visible" stroke-width="2"><path d="M38.407 156.86a20.24 20.24 0 1 1-40.48 0 20.24 20.24 0 1 1 40.48 0z" fill="none" stroke="#000" overflow="visible" stroke-width="1.012"/><text x="-42.313" y="-8.094" style="text-align:start;line-height:125%;-inkscape-font-specification:DejaVu Sans" font-size="24" overflow="visible" font-family="DejaVu Sans" transform="matrix(1.012 0 0 1.012 53.587 174.064)"><tspan x="-42.313" y="-8.094">2</tspan></text></g><g overflow="visible" stroke-width="2"><path d="M139.606 156.86a20.24 20.24 0 1 1-40.48 0 20.24 20.24 0 1 1 40.48 0z" fill="none" stroke="#000" overflow="visible" stroke-width="1.012"/><text x="-42.313" y="-8.094" style="text-align:start;line-height:125%;-inkscape-font-specification:DejaVu Sans" font-size="24" overflow="visible" font-family="DejaVu Sans" transform="matrix(1.012 0 0 1.012 154.786 174.064)"><tspan x="-42.313" y="-8.094">6</tspan></text></g><g overflow="visible" stroke-width="2"><path d="M291.406 156.86a20.24 20.24 0 1 1-40.48 0 20.24 20.24 0 1 1 40.48 0z" fill="none" stroke="#000" overflow="visible" stroke-width="1.012"/><text x="-42.313" y="-8.094" style="text-align:start;line-height:125%;-inkscape-font-specification:DejaVu Sans" font-size="24" overflow="visible" font-family="DejaVu Sans" transform="matrix(1.012 0 0 1.012 306.586 174.064)"><tspan x="-42.313" y="-8.094">9</tspan></text></g><g overflow="visible" stroke-width="2"><path d="M99.127 227.7a20.24 20.24 0 1 1-40.48 0 20.24 20.24 0 1 1 40.48 0z" fill="none" stroke="#000" overflow="visible" stroke-width="1.012"/><text x="-42.313" y="-8.094" style="text-align:start;line-height:125%;-inkscape-font-specification:DejaVu Sans" font-size="24" overflow="visible" font-family="DejaVu Sans" transform="matrix(1.012 0 0 1.012 114.307 244.904)"><tspan x="-42.313" y="-8.094">5</tspan></text></g><g overflow="visible" stroke-width="2"><path d="M180.087 227.7a20.24 20.24 0 1 1-40.48 0 20.24 20.24 0 1 1 40.48 0z" fill="none" stroke="#000" overflow="visible" stroke-width="1.012"/><text x="-42.313" y="-8.094" style="text-align:start;line-height:125%;-inkscape-font-specification:DejaVu Sans" font-size="24" overflow="visible" font-family="DejaVu Sans" transform="matrix(1.012 0 0 1.012 186.995 244.744)"><tspan x="-42.313" y="-8.094">11</tspan></text></g><g overflow="visible" stroke-width="2"><path d="M240.806 227.7a20.24 20.24 0 1 1-40.48 0 20.24 20.24 0 1 1 40.48 0z" fill="none" stroke="#000" overflow="visible" stroke-width="1.012"/><text x="-42.313" y="-8.094" style="text-align:start;line-height:125%;-inkscape-font-specification:DejaVu Sans" font-size="24" overflow="visible" font-family="DejaVu Sans" transform="matrix(1.012 0 0 1.012 255.986 244.904)"><tspan x="-42.313" y="-8.094">4</tspan></text></g><path d="M85.034 69.37l13.2-6.04-3.644-4.887-9.556 10.926zm8.14-6.054l35.222-26.262m74.908 32.316l-13.2-6.04 3.644-4.887 9.556 10.926zm-8.14-6.054l-35.222-26.262M30.19 139.708l10.326-10.202-5.1-3.34-5.226 13.542zm5.568-8.478l21.87-33.395m50.102 41.95l-10.325-10.2 5.1-3.34 5.225 13.54zm-5.567-8.48L80.29 97.915m179.747 41.62L249.71 129.33l5.1-3.34 5.227 13.543zm-5.567-8.48L232.597 97.66m.11 113.472l10.327-10.202-5.1-3.34-5.226 13.542zm5.57-8.48l19.876-30.35m-107.778 37.613l-9.516-10.96 5.33-2.942 4.17 13.902zm-4.905-8.88l-15.017-27.268m-41.29 37.513l9.515-10.96-5.34-2.942-4.176 13.902zm4.903-8.88l15.018-27.268" overflow="visible" stroke="#000" stroke-width="2"/></svg>