<?xml version="1.0" encoding="UTF-8" standalone="no"?>
<svg
   xmlns:dc="http://purl.org/dc/elements/1.1/"
   xmlns:cc="http://creativecommons.org/ns#"
   xmlns:rdf="http://www.w3.org/1999/02/22-rdf-syntax-ns#"
   xmlns:svg="http://www.w3.org/2000/svg"
   xmlns="http://www.w3.org/2000/svg"
   version="1.1"
   id="svg7532"
   viewBox="0 0 298.74751 333.89543"
   height="94.232712mm"
   width="84.313187mm">
  <defs
     id="defs7534">
    <clipPath
       id="clipPath2964"
       clipPathUnits="userSpaceOnUse">
      <path
         id="path2966"
         d="m 0,799.92 799.92,0 L 799.92,0 0,0 0,799.92 Z" />
    </clipPath>
  </defs>
  <metadata
     id="metadata7537">
    <rdf:RDF>
      <cc:Work
         rdf:about="">
        <dc:format>image/svg+xml</dc:format>
        <dc:type
           rdf:resource="http://purl.org/dc/dcmitype/StillImage" />
        <dc:title></dc:title>
      </cc:Work>
    </rdf:RDF>
  </metadata>
  <g
     transform="translate(-230.62624,-359.70021)"
     id="layer1">
    <g
       id="g2960"
       transform="matrix(1.25,0,0,-1.25,-157.90708,778.88103)">
      <g
         clip-path="url(#clipPath2964)"
         id="g2962">
        <g
           transform="translate(326.1338,90.7715)"
           id="g2968">
          <path
             id="path2970"
             style="fill:#57291e;fill-opacity:1;fill-rule:evenodd;stroke:none"
             d="m 0,0 c -1.095,-1.888 -2.187,-7.648 -1.972,-10.686 0.215,-3.037 0.253,-3.336 1.714,-4.239 1.462,-0.903 1.96,-1 2.27,-0.202 0.312,0.798 3.496,-2.8 5.058,-3.931 1.563,-1.131 5.082,-3.373 9.504,-3.476 4.422,-0.105 8.346,0.668 8.346,3.498 0,2.831 -1.377,4.152 -4.603,6.859 -3.225,2.708 -6.378,7.896 -7.312,10.244 C 12.071,0.414 8.923,-0.167 7.517,-0.922 6.112,-1.676 4.688,-6.039 2.812,-4.529 0.937,-3.021 0.625,0.754 0,0" />
        </g>
        <g
           transform="translate(350.7373,90.7754)"
           id="g2972">
          <path
             id="path2974"
             style="fill:#57291e;fill-opacity:1;fill-rule:evenodd;stroke:none"
             d="m 0,0 c -1.26,-1.802 -2.519,-7.297 -2.271,-10.194 0.247,-2.898 0.291,-3.185 1.975,-4.045 1.684,-0.862 2.257,-0.954 2.616,-0.194 0.358,0.762 4.026,-2.671 5.827,-3.75 1.8,-1.079 5.854,-3.217 10.949,-3.317 5.094,-0.099 9.616,0.639 9.616,3.339 0,2.7 -1.587,3.962 -5.303,6.545 -3.716,2.583 -7.349,7.532 -8.426,9.771 -1.075,2.241 -4.702,1.686 -6.321,0.967 C 7.042,-1.599 5.401,-5.761 3.241,-4.32 1.081,-2.882 0.721,0.72 0,0" />
        </g>
        <g
           transform="translate(326.9624,197.2129)"
           id="g2976">
          <path
             id="path2978"
             style="fill:#27557d;fill-opacity:1;fill-rule:evenodd;stroke:none"
             d="m 0,0 14.232,0 c 1.957,0 3.559,-1.602 3.559,-3.56 l 0,-105.365 c 0,-1.957 -1.602,-3.558 -3.559,-3.558 l -14.232,0 c -1.958,0 -3.559,1.601 -3.559,3.558 l 0,105.365 C -3.559,-1.602 -1.958,0 0,0" />
        </g>
        <g
           transform="translate(351.501,197.2129)"
           id="g2980">
          <path
             id="path2982"
             style="fill:#27557d;fill-opacity:1;fill-rule:evenodd;stroke:none"
             d="m 0,0 14.232,0 c 1.958,0 3.56,-1.602 3.56,-3.56 l 0,-105.365 c 0,-1.957 -1.602,-3.558 -3.56,-3.558 l -14.232,0 c -1.958,0 -3.559,1.601 -3.559,3.558 l 0,105.365 C -3.559,-1.602 -1.958,0 0,0" />
        </g>
        <g
           transform="translate(424.4102,248.1807)"
           id="g2984">
          <path
             id="path2986"
             style="fill:#ffd7b7;fill-opacity:1;fill-rule:evenodd;stroke:none"
             d="m 0,0 2.1,-8.89 8.603,-0.401 c 4.58,-0.215 8.947,-0.558 10.918,1.902 1.76,2.197 3.311,11.731 -0.461,12.02 L 9.252,6.241 0,0 Z" />
        </g>
        <g
           transform="translate(419.7646,250.1592)"
           id="g2988">
          <path
             id="path2990"
             style="fill:#ffffff;fill-opacity:1;fill-rule:evenodd;stroke:none"
             d="M 0,0 2.08,-15.479 8.784,-14.454 6.704,1.024 0,0 Z" />
        </g>
        <g
           transform="translate(358.8398,277.1074)"
           id="g2992">
          <path
             id="path2994"
             style="fill:#27557d;fill-opacity:1;fill-rule:evenodd;stroke:none"
             d="M 0,0 C -0.863,1.484 -0.495,3.054 0.209,5.004 8.272,6.508 18.615,0.09 21.527,-5.892 l 10.246,-20.202 31.359,0.202 c 0.012,-0.001 0.031,-0.015 0.032,-0.027 l 2.087,-17.003 c 0.002,-0.011 -0.017,-0.032 -0.023,-0.032 l -35.199,-0.81 c -5.857,-0.133 -9.196,3.9 -10.508,5.862 C 17.166,-34.379 0.96,-1.654 0,0" />
        </g>
        <g
           transform="translate(371.5449,187.4404)"
           id="g2996">
          <path
             id="path2998"
             style="fill:#3f73a1;fill-opacity:1;fill-rule:evenodd;stroke:none"
             d="m 0,0 c -16.732,-4.658 -33.465,-4.901 -50.197,0 l -2.706,58.723 c -0.427,9.298 -9.694,19.809 -7.43,24.358 4.179,8.4 21.741,14.197 27.752,19.094 2.31,-2.033 4.85,-3.237 7.469,-3.237 2.619,0 5.159,1.204 7.467,3.237 4.4,-3.582 15.091,-7.603 22.069,-12.827 C 0.25,75.905 3.399,72.688 2.709,57.891 L 0,0 Z" />
        </g>
        <g
           transform="translate(331.8887,284.9512)"
           id="g3000">
          <path
             id="path3002"
             style="fill:#ffffff;fill-opacity:1;fill-rule:evenodd;stroke:none"
             d="M 0,0 1.623,-14.979 14.636,-48.017 27.466,-14.979 29.089,0 22.88,3.993 6.207,3.993 0,0 Z" />
        </g>
        <path
           id="path3004"
           style="fill:#d1a886;fill-opacity:1;fill-rule:evenodd;stroke:none"
           d="m 338.096,280.841 16.528,0 0,13.466 -16.528,0 0,-13.466 z" />
        <g
           transform="translate(348.5889,272.5156)"
           id="g3006">
          <path
             id="path3008"
             style="fill:#fc8d25;fill-opacity:1;fill-rule:evenodd;stroke:none"
             d="M 0,0 0.906,1.915 -2.156,9.336 -5.167,2.034 -4.206,0 0,0 Z" />
        </g>
        <g
           transform="translate(338.0957,288.9443)"
           id="g3010">
          <path
             id="path3012"
             style="fill:#cccccc;fill-opacity:1;fill-rule:evenodd;stroke:none"
             d="M 0,0 8.337,-7.093 3.658,-19.61 -3.889,-2.58 0,0 Z" />
        </g>
        <g
           transform="translate(334.2065,286.3643)"
           id="g3014">
          <path
             id="path3016"
             style="fill:#27557d;fill-opacity:1;fill-rule:evenodd;stroke:none"
             d="m 0,0 12.227,-49.605 -17.16,27.361 2.254,4.775 -4.897,3.905 5.258,12.151 L 0,0 Z" />
        </g>
        <g
           transform="translate(354.7686,288.9443)"
           id="g3018">
          <path
             id="path3020"
             style="fill:#cccccc;fill-opacity:1;fill-rule:evenodd;stroke:none"
             d="M 0,0 -8.335,-7.093 -3.656,-19.61 3.89,-2.58 0,0 Z" />
        </g>
        <g
           transform="translate(344.3833,267.8623)"
           id="g3022">
          <path
             id="path3024"
             style="fill:#fc8d25;fill-opacity:1;fill-rule:evenodd;stroke:none"
             d="M 0,0 4.206,0 6.392,-21.084 2.05,-31.104 -2.129,-21.084 0,0 Z" />
        </g>
        <g
           transform="translate(338.0957,288.9443)"
           id="g3026">
          <path
             id="path3028"
             style="fill:#ffffff;fill-opacity:1;fill-rule:evenodd;stroke:none"
             d="M 0,0 8.337,-7.093 3.556,-16.517 -3.889,-2.58 0,0 Z" />
        </g>
        <g
           transform="translate(334.2065,286.3643)"
           id="g3030">
          <path
             id="path3032"
             style="fill:#3f73a1;fill-opacity:1;fill-rule:evenodd;stroke:none"
             d="m 0,0 12.227,-49.605 -15.492,29.542 2.57,3.671 -4.956,3.854 3.333,11.125 L 0,0 Z" />
        </g>
        <g
           transform="translate(358.6582,286.3643)"
           id="g3034">
          <path
             id="path3036"
             style="fill:#27557d;fill-opacity:1;fill-rule:evenodd;stroke:none"
             d="M 0,0 -12.225,-49.605 4.934,-22.244 2.68,-17.469 7.576,-13.564 2.319,-1.413 0,0 Z" />
        </g>
        <g
           transform="translate(358.6582,286.3643)"
           id="g3038">
          <path
             id="path3040"
             style="fill:#3f73a1;fill-opacity:1;fill-rule:evenodd;stroke:none"
             d="m 0,0 -12.225,-49.605 15.49,29.542 -2.569,3.671 4.955,3.854 L 2.319,-1.413 0,0 Z" />
        </g>
        <g
           transform="translate(354.7686,288.9443)"
           id="g3042">
          <path
             id="path3044"
             style="fill:#ffffff;fill-opacity:1;fill-rule:evenodd;stroke:none"
             d="m 0,0 -8.335,-7.093 4.78,-9.424 L 3.89,-2.58 0,0 Z" />
        </g>
        <g
           transform="translate(344.3833,272.8643)"
           id="g3046">
          <path
             id="path3048"
             style="fill:#fc8d25;fill-opacity:1;fill-rule:evenodd;stroke:none"
             d="m 0,0 4.206,0 c 0.94,-1.949 0.866,-3.653 0,-5.318 L 0,-5.318 C -0.867,-3.653 -0.94,-1.949 0,0" />
        </g>
        <g
           transform="translate(346.7593,183.8574)"
           id="g3050">
          <path
             id="path3052"
             style="fill:#27557d;fill-opacity:1;fill-rule:evenodd;stroke:none"
             d="M 0,0 C -1.636,16.427 -1.926,38.268 -0.327,57.195 1.271,38.268 1.636,16.427 0,0" />
        </g>
        <g
           transform="translate(370.0615,217.2227)"
           id="g3054">
          <path
             id="path3056"
             style="fill:#ffd7b7;fill-opacity:1;fill-rule:evenodd;stroke:none"
             d="m 0,0 -0.147,-1.555 1.665,0.018 13.367,0.117 c 1.505,0.015 2.365,0.649 2.869,1.551 0.427,0.765 0.798,2.689 0.086,2.682 L 2.661,2.646 C 1.336,2.634 0.137,1.443 0,0" />
        </g>
        <g
           transform="translate(388.3408,219.7012)"
           id="g3058">
          <path
             id="path3060"
             style="fill:#ffe7d4;fill-opacity:1;fill-rule:evenodd;stroke:none"
             d="M 0,0 C 0.027,0.298 -0.17,0.333 -0.287,0.332 L -3.334,0.275 c 0.055,-1.346 1.589,-1.51 2.859,-1.091 C -0.289,-0.754 -0.036,-0.38 0,0" />
        </g>
        <g
           transform="translate(391.6191,220.0957)"
           id="g3062">
          <path
             id="path3064"
             style="fill:#ffd7b7;fill-opacity:1;fill-rule:evenodd;stroke:none"
             d="m 0,0 2.282,-8.845 -7.428,-4.361 c -3.954,-2.322 -7.658,-4.658 -10.548,-3.399 -2.58,1.125 -8.391,8.84 -5.188,10.851 l 9.552,6.8 L 0,0 Z" />
        </g>
        <g
           transform="translate(362.1812,217.4834)"
           id="g3066">
          <path
             id="path3068"
             style="fill:#d1a886;fill-opacity:1;fill-rule:evenodd;stroke:none"
             d="m 0,0 -1.325,-9.037 7.85,-3.546 c 4.18,-1.886 8.076,-2.875 10.88,-1.473 2.789,1.394 7.029,9.362 3.63,11.022 L 9.928,2.294 0,0 Z" />
        </g>
        <g
           transform="translate(361.1636,217.4111)"
           id="g3070">
          <path
             id="path3072"
             style="fill:#ffd7b7;fill-opacity:1;fill-rule:evenodd;stroke:none"
             d="m 0,0 -1.325,-9.037 7.851,-3.545 c 4.179,-1.887 8.111,-3.815 10.85,-2.255 2.446,1.395 7.4,9.685 4,11.344 L 10.901,2.393 0,0 Z" />
        </g>
        <g
           transform="translate(357.5737,220.9629)"
           id="g3074">
          <path
             id="path3076"
             style="fill:#ffffff;fill-opacity:1;fill-rule:evenodd;stroke:none"
             d="M 0,0 -3.771,-15.156 2.839,-16.675 6.611,-1.519 0,0 Z" />
        </g>
        <g
           transform="translate(310.8691,268.4668)"
           id="g3078">
          <path
             id="path3080"
             style="fill:#27557d;fill-opacity:1;fill-rule:evenodd;stroke:none"
             d="m 0,0 c -0.255,1.698 0.666,3.022 2.039,4.575 8.05,-1.573 15.553,-13.019 16.057,-19.652 l 1.823,-20.888 29.227,-11.371 c 0.01,-0.004 0.023,-0.025 0.021,-0.037 l -4.328,-16.575 c -0.002,-0.011 -0.026,-0.025 -0.034,-0.022 l -33.019,12.221 c -5.494,2.034 -7.112,7.013 -7.607,9.321 C 3.288,-38.284 0.283,-1.892 0,0" />
        </g>
        <g
           transform="translate(383.4292,218.8223)"
           id="g3082">
          <path
             id="path3084"
             style="fill:#d1a886;fill-opacity:1;fill-rule:evenodd;stroke:none"
             d="m 0,0 0.228,-0.336 -13.362,-6.812 c -1.389,-0.578 -2.429,-0.331 -3.247,0.301 -0.693,0.535 -1.789,2.159 -1.131,2.431 L -3.487,1.39 C -2.263,1.898 -0.692,1.273 0,0" />
        </g>
        <g
           transform="translate(382.9121,219.8564)"
           id="g3086">
          <path
             id="path3088"
             style="fill:#ffd7b7;fill-opacity:1;fill-rule:evenodd;stroke:none"
             d="m 0,0 0.745,-1.37 -1.538,-0.639 -12.34,-5.138 c -1.39,-0.578 -2.431,-0.332 -3.249,0.3 -0.692,0.536 -1.789,2.159 -1.131,2.432 L -3.328,1.089 C -2.104,1.598 -0.693,1.274 0,0" />
        </g>
        <g
           transform="translate(365.1265,214.9619)"
           id="g3090">
          <path
             id="path3092"
             style="fill:#ffe7d4;fill-opacity:1;fill-rule:evenodd;stroke:none"
             d="M 0,0 C -0.142,0.264 0.025,0.373 0.133,0.419 L 2.958,1.562 C 3.436,0.302 2.09,-0.451 0.757,-0.563 0.562,-0.58 0.182,-0.335 0,0" />
        </g>
        <g
           transform="translate(394.8096,224.0098)"
           id="g3094">
          <path
             id="path3096"
             style="fill:#ffffff;fill-opacity:1;fill-rule:evenodd;stroke:none"
             d="M 0,0 5.366,-14.667 -1.044,-16.883 -6.411,-2.214 0,0 Z" />
        </g>
        <g
           transform="translate(439.4736,268.2324)"
           id="g3098">
          <path
             id="path3100"
             style="fill:#3f73a1;fill-opacity:1;fill-rule:evenodd;stroke:none"
             d="M 0,0 C 0.07,1.716 0.896,8.812 -0.638,10.209 -8.473,7.787 -11.578,7.783 -12.407,3.714 l -6.855,-33.608 -27.846,-14.421 c -0.011,-0.006 -0.021,-0.029 -0.017,-0.039 l 6.07,-16.02 c 0.003,-0.01 0.03,-0.021 0.036,-0.016 l 31.528,15.671 c 5.244,2.608 6.323,7.733 6.569,10.078 C -2.479,-30.424 -0.078,-1.908 0,0" />
        </g>
        <g
           transform="translate(455.8291,90.7754)"
           id="g3102">
          <path
             id="path3104"
             style="fill:#2c3945;fill-opacity:1;fill-rule:evenodd;stroke:none"
             d="m 0,0 c 1.261,-1.802 2.52,-7.297 2.271,-10.194 -0.247,-2.898 -0.29,-3.185 -1.974,-4.045 -1.684,-0.862 -2.257,-0.954 -2.615,-0.194 -0.359,0.762 -4.028,-2.671 -5.828,-3.75 -1.8,-1.079 -5.854,-3.217 -10.949,-3.317 -5.093,-0.099 -9.616,0.639 -9.616,3.339 0,2.7 1.588,3.962 5.305,6.545 3.714,2.583 7.346,7.532 8.423,9.771 1.076,2.241 4.703,1.686 6.322,0.967 C -7.041,-1.599 -5.4,-5.761 -3.24,-4.32 -1.08,-2.882 -0.72,0.72 0,0" />
        </g>
        <g
           transform="translate(480.2725,90.7715)"
           id="g3106">
          <path
             id="path3108"
             style="fill:#2c3945;fill-opacity:1;fill-rule:evenodd;stroke:none"
             d="m 0,0 c 1.094,-1.888 2.187,-7.648 1.972,-10.686 -0.215,-3.037 -0.252,-3.336 -1.714,-4.239 -1.461,-0.903 -1.96,-1 -2.27,-0.202 -0.311,0.798 -3.496,-2.8 -5.059,-3.931 -1.563,-1.131 -5.081,-3.373 -9.503,-3.476 -4.421,-0.105 -8.347,0.668 -8.347,3.498 0,2.831 1.378,4.152 4.605,6.859 3.224,2.708 6.378,7.896 7.312,10.244 0.934,2.347 4.08,1.766 5.486,1.011 1.408,-0.754 2.83,-5.117 4.706,-3.607 C -0.937,-3.021 -0.624,0.754 0,0" />
        </g>
        <g
           transform="translate(440.7646,197.2129)"
           id="g3110">
          <path
             id="path3112"
             style="fill:#3f73a1;fill-opacity:1;fill-rule:evenodd;stroke:none"
             d="m 0,0 14.231,0 c 1.958,0 3.56,-1.602 3.56,-3.56 l 0,-105.365 c 0,-1.957 -1.602,-3.558 -3.56,-3.558 l -14.231,0 c -1.958,0 -3.56,1.601 -3.56,3.558 l 0,105.365 C -3.56,-1.602 -1.958,0 0,0" />
        </g>
        <g
           transform="translate(465.3027,197.2129)"
           id="g3114">
          <path
             id="path3116"
             style="fill:#3f73a1;fill-opacity:1;fill-rule:evenodd;stroke:none"
             d="m 0,0 14.232,0 c 1.958,0 3.559,-1.602 3.559,-3.56 l 0,-105.365 c 0,-1.957 -1.601,-3.558 -3.559,-3.558 l -14.232,0 c -1.957,0 -3.559,1.601 -3.559,3.558 l 0,105.365 C -3.559,-1.602 -1.957,0 0,0" />
        </g>
        <g
           transform="translate(479.9902,164.1094)"
           id="g3118">
          <path
             id="path3120"
             style="fill:#27557d;fill-opacity:1;fill-rule:evenodd;stroke:none"
             d="m 0,0 12.395,6.23 -3.338,6.641 c -0.634,1.26 -0.121,2.811 1.139,3.444 l 12.246,6.157 0,-3.497 -8.076,-4.06 C 13.117,14.287 12.61,12.752 13.237,11.504 l 1.947,-3.871 7.258,3.648 0,-47.304 -3.458,-1.739 c -3.35,-1.683 -7.468,-0.32 -9.153,3.03 L -3.028,-9.152 C -4.713,-5.804 -3.35,-1.686 0,0 m 22.442,22.472 5.481,2.756 c 1.26,0.633 2.809,0.12 3.443,-1.14 l 3.34,-6.642 12.394,6.232 C 50.449,25.362 54.567,24 56.252,20.65 L 69.111,-4.931 c 1.686,-3.349 0.323,-7.467 -3.027,-9.152 l -43.642,-21.94 0,47.304 9.475,4.764 -1.947,3.872 c -0.627,1.247 -2.162,1.756 -3.411,1.127 l -4.117,-2.069 0,3.497 z" />
        </g>
        <g
           transform="translate(485.3477,187.4404)"
           id="g3122">
          <path
             id="path3124"
             style="fill:#5a8fbd;fill-opacity:1;fill-rule:evenodd;stroke:none"
             d="m 0,0 c -16.732,-4.658 -33.466,-4.901 -50.198,0 l -2.706,58.723 c -0.547,11.936 0.096,19.922 -4.143,28.535 6.681,6.222 19.506,10.876 24.466,14.917 2.31,-2.033 4.85,-3.237 7.468,-3.237 2.619,0 5.159,1.204 7.467,3.237 4.662,-3.796 16.384,-8.078 23.271,-13.77 C -1.133,77.47 3.344,71.528 2.708,57.891 L 0,0 Z" />
        </g>
        <g
           transform="translate(445.6904,284.9512)"
           id="g3126">
          <path
             id="path3128"
             style="fill:#ffffff;fill-opacity:1;fill-rule:evenodd;stroke:none"
             d="M 0,0 1.622,-14.979 14.637,-48.017 27.467,-14.979 29.09,0 22.881,3.993 6.208,3.993 0,0 Z" />
        </g>
        <path
           id="path3130"
           style="fill:#d1a886;fill-opacity:1;fill-rule:evenodd;stroke:none"
           d="m 451.898,280.841 16.527,0 0,13.466 -16.527,0 0,-13.466 z" />
        <g
           transform="translate(462.3906,272.5156)"
           id="g3132">
          <path
             id="path3134"
             style="fill:#93b9db;fill-opacity:1;fill-rule:evenodd;stroke:none"
             d="M 0,0 0.906,1.915 -2.155,9.336 -5.167,2.034 -4.206,0 0,0 Z" />
        </g>
        <g
           transform="translate(451.8984,288.9443)"
           id="g3136">
          <path
             id="path3138"
             style="fill:#cccccc;fill-opacity:1;fill-rule:evenodd;stroke:none"
             d="M 0,0 8.337,-7.093 3.657,-19.61 -3.889,-2.58 0,0 Z" />
        </g>
        <g
           transform="translate(448.0098,286.3643)"
           id="g3140">
          <path
             id="path3142"
             style="fill:#3f73a1;fill-opacity:1;fill-rule:evenodd;stroke:none"
             d="m 0,0 12.226,-49.605 -17.161,27.361 2.255,4.775 -4.897,3.905 5.258,12.151 L 0,0 Z" />
        </g>
        <g
           transform="translate(468.5713,288.9443)"
           id="g3144">
          <path
             id="path3146"
             style="fill:#cccccc;fill-opacity:1;fill-rule:evenodd;stroke:none"
             d="M 0,0 -8.336,-7.093 -3.657,-19.61 3.889,-2.58 0,0 Z" />
        </g>
        <g
           transform="translate(458.1846,267.8623)"
           id="g3148">
          <path
             id="path3150"
             style="fill:#93b9db;fill-opacity:1;fill-rule:evenodd;stroke:none"
             d="M 0,0 4.206,0 6.392,-21.084 2.051,-31.104 -2.128,-21.084 0,0 Z" />
        </g>
        <g
           transform="translate(451.8984,288.9443)"
           id="g3152">
          <path
             id="path3154"
             style="fill:#ffffff;fill-opacity:1;fill-rule:evenodd;stroke:none"
             d="M 0,0 8.337,-7.093 3.556,-16.517 -3.889,-2.58 0,0 Z" />
        </g>
        <g
           transform="translate(448.0098,286.3643)"
           id="g3156">
          <path
             id="path3158"
             style="fill:#5a8fbd;fill-opacity:1;fill-rule:evenodd;stroke:none"
             d="m 0,0 12.226,-49.605 -15.493,29.542 2.57,3.671 -4.954,3.854 3.332,11.125 L 0,0 Z" />
        </g>
        <g
           transform="translate(468.5713,288.9443)"
           id="g3160">
          <path
             id="path3162"
             style="fill:#ffffff;fill-opacity:1;fill-rule:evenodd;stroke:none"
             d="m 0,0 -8.336,-7.093 4.78,-9.424 L 3.889,-2.58 0,0 Z" />
        </g>
        <g
           transform="translate(458.1846,272.8643)"
           id="g3164">
          <path
             id="path3166"
             style="fill:#93b9db;fill-opacity:1;fill-rule:evenodd;stroke:none"
             d="m 0,0 4.206,0 c 0.941,-1.949 0.867,-3.653 0,-5.318 L 0,-5.318 C -0.866,-3.653 -0.939,-1.949 0,0" />
        </g>
        <g
           transform="translate(460.5605,183.8574)"
           id="g3168">
          <path
             id="path3170"
             style="fill:#3f73a1;fill-opacity:1;fill-rule:evenodd;stroke:none"
             d="M 0,0 C -1.635,16.427 -1.925,38.268 -0.326,57.195 1.272,38.268 1.637,16.427 0,0" />
        </g>
        <g
           transform="translate(353.626,287.8105)"
           id="g3172">
          <path
             id="path3174"
             style="fill:#f2caa9;fill-opacity:1;fill-rule:evenodd;stroke:none"
             d="M 0,0 C 17.251,4.49 14.926,54.86 -13.007,46.309 -39.146,38.306 -17.251,-4.492 0,0" />
        </g>
        <g
           transform="translate(362.4072,322.248)"
           id="g3176">
          <path
             id="path3178"
             style="fill:#57291e;fill-opacity:1;fill-rule:evenodd;stroke:none"
             d="M 0,0 C -1.803,-3.603 -15.627,-10.088 -21.641,-10.56 -27.656,-11.032 -22.085,12.249 0,0" />
        </g>
        <g
           transform="translate(336.7007,333.2471)"
           id="g3180">
          <path
             id="path3182"
             style="fill:#57291e;fill-opacity:1;fill-rule:evenodd;stroke:none"
             d="m 0,0 c -11.571,-6.631 -12.333,-29.079 1.704,-38.942 -2.487,2.989 -2.848,6.622 -1.271,12.906 0.911,-0.613 4.179,-5.122 3.685,2.542 -0.912,14.161 9.723,15.209 21.511,11.827 C 25.105,0.439 9.123,5.229 0,0" />
        </g>
        <g
           transform="translate(334.3838,315.5137)"
           id="g3184">
          <path
             id="path3186"
             style="fill:#f2caa9;fill-opacity:1;fill-rule:evenodd;stroke:none"
             d="m 0,0 c 1.838,0.203 3.622,-2.303 3.986,-5.597 0.365,-3.295 -0.83,-6.13 -2.668,-6.333 -1.837,-0.203 -3.621,2.303 -3.986,5.597 C -3.032,-3.038 -1.839,-0.203 0,0" />
        </g>
        <g
           transform="translate(453.5313,287.8105)"
           id="g3188">
          <path
             id="path3190"
             style="fill:#f2caa9;fill-opacity:1;fill-rule:evenodd;stroke:none"
             d="M 0,0 C -17.251,4.49 -14.927,54.86 13.007,46.309 39.147,38.306 17.251,-4.492 0,0" />
        </g>
        <g
           transform="translate(468.6611,333.3584)"
           id="g3192">
          <path
             id="path3194"
             style="fill:#99780b;fill-opacity:1;fill-rule:evenodd;stroke:none"
             d="m 0,0 c 13.515,-5.302 14.129,-29.19 0.091,-39.054 2.487,2.99 2.847,6.622 1.271,12.907 -0.911,-0.614 -3.202,-4.923 -3.684,2.542 -0.913,14.132 -9.119,11.163 -16.106,11.656 -2.928,0.208 -3.468,3.053 -5.856,-0.165 C -22.077,-0.795 -11.106,4.356 0,0" />
        </g>
        <g
           transform="translate(472.7734,315.5137)"
           id="g3196">
          <path
             id="path3198"
             style="fill:#f2caa9;fill-opacity:1;fill-rule:evenodd;stroke:none"
             d="m 0,0 c -1.838,0.203 -3.622,-2.303 -3.986,-5.597 -0.365,-3.295 0.829,-6.13 2.668,-6.333 1.838,-0.203 3.622,2.303 3.986,5.597 C 3.032,-3.038 1.838,-0.203 0,0" />
        </g>
        <g
           transform="translate(502.8672,194.4531)"
           id="g3200">
          <path
             id="path3202"
             style="fill:#f2caa9;fill-opacity:1;fill-rule:evenodd;stroke:none"
             d="M 0,0 -8.948,-3.196 -13.411,9.289 -4.465,12.486 0,0 Z" />
        </g>
        <g
           transform="translate(491.3262,201.4531)"
           id="g3204">
          <path
             id="path3206"
             style="fill:#f2caa9;fill-opacity:1;fill-rule:evenodd;stroke:none"
             d="m 0,0 8.842,1.086 0.851,-6.946 3.678,-7.129 C 9.601,-14.247 3.212,-11.745 3.169,-17.16 L 0,0 Z" />
        </g>
        <g
           transform="translate(505.8027,185.7334)"
           id="g3208">
          <path
             id="path3210"
             style="fill:#f2caa9;fill-opacity:1;fill-rule:evenodd;stroke:none"
             d="m 0,0 -4.528,13.363 c -0.382,1.026 -1.554,1.533 -2.574,1.138 -0.097,-0.036 -0.189,-0.081 -0.276,-0.131 l -0.412,1.105 c -0.398,1.073 -1.625,1.604 -2.693,1.191 -0.744,-0.289 -1.223,-0.962 -1.309,-1.706 -0.46,0.132 -0.964,0.122 -1.438,-0.064 -1.157,-0.447 -1.721,-1.751 -1.287,-2.912 l 5.783,-14.515 1.183,-1.073 c 0.433,-1.158 1.447,1.29 2.603,1.738 1.099,0.426 1.419,1.318 1.093,2.435 C -3.703,1.458 0.993,-2.655 0,0" />
        </g>
        <g
           transform="translate(500.0166,179.708)"
           id="g3212">
          <path
             id="path3214"
             style="fill:#f2caa9;fill-opacity:1;fill-rule:evenodd;stroke:none"
             d="m 0,0 0,0 c 0.786,0.325 1.156,1.231 0.843,2.023 l -1.085,3.104 0.016,0.134 -3.938,1.254 2.14,-5.671 C -1.71,0.051 -0.79,-0.325 0,0" />
        </g>
        <g
           transform="translate(494.8174,182.7529)"
           id="g3216">
          <path
             id="path3218"
             style="fill:#f2caa9;fill-opacity:1;fill-rule:evenodd;stroke:none"
             d="m 0,0 c -0.021,1.48 1.492,2.167 2.383,0.118 l 3.572,12.058 -4.97,4.033 -2.547,-4.326 C -3.074,11.697 -3.655,9.225 -3.655,7.962 L -3.663,-1.841 0,0 Z" />
        </g>
        <g
           transform="translate(505.29,181.9453)"
           id="g3220">
          <path
             id="path3222"
             style="fill:#f2caa9;fill-opacity:1;fill-rule:evenodd;stroke:none"
             d="M 0,0 0,0 C 0.828,0.203 1.33,1.045 1.14,1.873 L -0.596,6.955 -4.177,5.232 -1.872,1.139 C -1.682,0.307 -0.828,-0.201 0,0" />
        </g>
        <g
           transform="translate(502.7949,181.0439)"
           id="g3224">
          <path
             id="path3226"
             style="fill:#f2caa9;fill-opacity:1;fill-rule:evenodd;stroke:none"
             d="m 0,0 0,0 c 0.788,0.324 1.157,1.231 0.845,2.022 l -1.222,3.037 0.085,4.872 -2.471,-7.26 0.741,-1.828 C -1.708,0.05 -0.788,-0.325 0,0" />
        </g>
        <g
           transform="translate(507.4541,183.0449)"
           id="g3228">
          <path
             id="path3230"
             style="fill:#f2caa9;fill-opacity:1;fill-rule:evenodd;stroke:none"
             d="M 0,0 0,0 C 0.828,0.203 1.33,1.044 1.139,1.873 L -2.946,9.433 -6.902,8.725 -1.706,1.969 -1.873,1.138 C -1.683,0.307 -0.829,-0.203 0,0" />
        </g>
        <g
           transform="translate(505.6523,192.5313)"
           id="g3232">
          <path
             id="path3234"
             style="fill:#ffffff;fill-opacity:1;fill-rule:evenodd;stroke:none"
             d="M 0,0 -15.468,-2.154 -15.992,1.407 -0.524,3.563 0,0 Z" />
        </g>
        <g
           transform="translate(478.5762,267.4316)"
           id="g3236">
          <path
             id="path3238"
             style="fill:#3f73a1;fill-opacity:1;fill-rule:evenodd;stroke:none"
             d="m 0,0 12.236,8.454 c 4.506,-2.975 5.447,-11.009 5.711,-12.926 l 9.391,-67.553 c 0.002,-0.015 -0.01,-0.032 -0.025,-0.032 l -16.968,-2.365 c -0.015,0 -0.031,0.007 -0.033,0.023 L -0.025,-0.031 C -0.028,-0.016 -0.008,-0.005 0,0" />
        </g>
        <g
           transform="translate(490.9727,275.8457)"
           id="g3240">
          <path
             id="path3242"
             style="fill:#5a8fbd;fill-opacity:1;fill-rule:evenodd;stroke:none"
             d="m 0,0 c -1.396,-2.497 -2.908,-5.261 -3.773,-13.681 -0.867,-8.421 -0.912,-34.421 -0.881,-53.994 0.029,-19.573 -16.323,-0.235 -16.323,-0.235 L -16.532,-7.709 -7.547,1.28 0,0 Z" />
        </g>
        <g
           transform="translate(472.46,286.3643)"
           id="g3244">
          <path
             id="path3246"
             style="fill:#3f73a1;fill-opacity:1;fill-rule:evenodd;stroke:none"
             d="m 0,0 -12.225,-49.605 17.159,27.361 -2.253,4.775 4.895,3.905 L 2.32,-1.413 0,0 Z" />
        </g>
        <g
           transform="translate(472.46,286.3643)"
           id="g3248">
          <path
             id="path3250"
             style="fill:#5a8fbd;fill-opacity:1;fill-rule:evenodd;stroke:none"
             d="m 0,0 -12.225,-49.605 15.491,29.542 -2.569,3.671 4.954,3.854 L 2.32,-1.413 0,0 Z" />
        </g>
      </g>
    </g>
  </g>
</svg>
