<?xml version="1.0" encoding="UTF-8" standalone="no"?>
<svg
   xmlns:dc="http://purl.org/dc/elements/1.1/"
   xmlns:cc="http://creativecommons.org/ns#"
   xmlns:rdf="http://www.w3.org/1999/02/22-rdf-syntax-ns#"
   xmlns:svg="http://www.w3.org/2000/svg"
   xmlns="http://www.w3.org/2000/svg"
   version="1.1"
   id="svg12044"
   viewBox="0 0 250.16999 131.2215"
   height="37.033623mm"
   width="70.603531mm">
  <defs
     id="defs12046" />
  <metadata
     id="metadata12049">
    <rdf:RDF>
      <cc:Work
         rdf:about="">
        <dc:format>image/svg+xml</dc:format>
        <dc:type
           rdf:resource="http://purl.org/dc/dcmitype/StillImage" />
        <dc:title></dc:title>
      </cc:Work>
    </rdf:RDF>
  </metadata>
  <g
     transform="translate(-77.77214,-281.0372)"
     id="layer1">
    <g
       transform="matrix(1.25,0,0,-1.25,-312.25161,1166.0737)"
       id="g11347">
      <g
         id="g2012"
         transform="translate(494.3545,668.9849)">
        <path
           d="m 0,0 c 5.036,1.202 12.051,4.053 12.966,-0.021 1.088,-4.844 2.43,-16.325 3.839,-27.478 0.303,-2.404 -2.779,-3.651 -3.546,-3.883 -3.431,-1.037 -6.377,-1.362 -10.174,-1.873 L -0.014,-0.021 C -0.015,-0.012 -0.005,-0.001 0,0"
           style="fill:#6f7478;fill-opacity:1;fill-rule:evenodd;stroke:none"
           id="path2014" />
      </g>
      <g
         id="g2016"
         transform="translate(479.0596,668.9849)">
        <path
           d="m 0,0 c -6.361,1.517 -11.416,5.056 -12.526,0.061 -1.162,-5.229 -2.436,-16.687 -3.779,-27.39 -0.344,-2.741 2.511,-3.92 3.435,-4.159 3.294,-0.855 6.132,-1.275 9.786,-1.767 L 0.014,-0.021 C 0.015,-0.012 0.005,-0.001 0,0"
           style="fill:#6f7478;fill-opacity:1;fill-rule:evenodd;stroke:none"
           id="path2018" />
      </g>
      <g
         id="g2020"
         transform="translate(474.1025,636.3789)">
        <path
           d="M 0,0 -0.165,-0.39 C 7.671,-1.381 17.309,-1.399 25.169,-0.442 25.096,-0.284 25.025,-0.136 24.957,0 L 0,0 Z"
           style="fill:#27557d;fill-opacity:1;fill-rule:evenodd;stroke:none"
           id="path2022" />
      </g>
      <g
         id="g2024"
         transform="translate(470.9541,636.4595)">
        <path
           d="m 0,0 c 1.738,5.011 -2.228,28.475 -4.421,32.79 1.247,4.429 12.851,5.408 15.941,7.926 1.464,-1.29 2.508,-1.583 4.169,-1.583 1.663,0 2.76,0.336 4.224,1.626 2.286,-1.863 14.264,-3.316 16.313,-7.746 C 33.894,28.07 29.617,4.531 31.468,0.022 23.666,-1.512 8.028,-1.621 0,0"
           style="fill:#969da3;fill-opacity:1;fill-rule:evenodd;stroke:none"
           id="path2026" />
      </g>
      <g
         id="g2028"
         transform="translate(478.8184,675.0469)">
        <path
           d="M 0,0 -0.371,-9.862 7.884,-30.818 16.021,-9.862 15.516,0.271 12.049,2.172 3.655,2.128 0,0 Z"
           style="fill:#ffffff;fill-opacity:1;fill-rule:evenodd;stroke:none"
           id="path2030" />
      </g>
      <path
         d="m 482.475,680.621 8.246,0 0,-8.542 -8.246,0 0,8.542 z"
         style="fill:#d1a886;fill-opacity:1;fill-rule:evenodd;stroke:none"
         id="path2032" />
      <g
         id="g2034"
         transform="translate(488.0117,666.7988)">
        <path
           d="M 0,0 0.574,1.214 -1.368,5.921 -3.278,1.29 -2.669,0 0,0 Z"
           style="fill:#fcb024;fill-opacity:1;fill-rule:evenodd;stroke:none"
           id="path2036" />
      </g>
      <g
         id="g2038"
         transform="translate(482.4727,677.1753)">
        <path
           d="M 0,0 4.171,-4.455 1.202,-12.395 -2.467,-1.637 0,0 Z"
           style="fill:#cccccc;fill-opacity:1;fill-rule:evenodd;stroke:none"
           id="path2040" />
      </g>
      <g
         id="g2042"
         transform="translate(490.8672,677.2183)">
        <path
           d="m 0,0 -4.224,-4.498 2.969,-7.94 L 2.467,-1.637 0,0 Z"
           style="fill:#cccccc;fill-opacity:1;fill-rule:evenodd;stroke:none"
           id="path2044" />
      </g>
      <g
         id="g2046"
         transform="translate(485.3428,663.8467)">
        <path
           d="M 0,0 2.669,0 4.055,-13.373 1.301,-19.729 -1.35,-13.373 0,0 Z"
           style="fill:#fcb024;fill-opacity:1;fill-rule:evenodd;stroke:none"
           id="path2048" />
      </g>
      <g
         id="g2050"
         transform="translate(482.4736,677.1758)">
        <path
           d="M 0,0 4.17,-4.456 1.138,-10.434 -2.467,-1.637 0,0 Z"
           style="fill:#ffffff;fill-opacity:1;fill-rule:evenodd;stroke:none"
           id="path2052" />
      </g>
      <g
         id="g2054"
         transform="translate(480.0322,675.7534)">
        <path
           d="m 0,0 6.611,-31.636 -9.826,18.74 1.63,2.328 -3.143,2.444 2.996,7.17 L 0,0 Z"
           style="fill:#3f73a1;fill-opacity:1;fill-rule:evenodd;stroke:none"
           id="path2056" />
      </g>
      <g
         id="g2058"
         transform="translate(493.416,675.8208)">
        <path
           d="m 0,0 -6.772,-31.704 9.827,18.74 -1.631,2.328 3.142,2.445 L 2.454,-1.134 0,0 Z"
           style="fill:#3f73a1;fill-opacity:1;fill-rule:evenodd;stroke:none"
           id="path2060" />
      </g>
      <g
         id="g2062"
         transform="translate(490.8672,677.2192)">
        <path
           d="m 0,0 -4.224,-4.499 3.033,-5.978 3.658,8.84 L 0,0 Z"
           style="fill:#ffffff;fill-opacity:1;fill-rule:evenodd;stroke:none"
           id="path2064" />
      </g>
      <g
         id="g2066"
         transform="translate(485.3428,667.02)">
        <path
           d="m 0,0 2.669,0 c 0.596,-1.237 0.55,-2.317 0,-3.373 L 0,-3.373 C -0.549,-2.317 -0.596,-1.237 0,0"
           style="fill:#fcb024;fill-opacity:1;fill-rule:evenodd;stroke:none"
           id="path2068" />
      </g>
      <g
         id="g2070"
         transform="translate(486.2676,635.2349)">
        <path
           d="M 0,0 C 0.071,2.321 0.246,5.082 0.529,9.221 0.813,5.081 1.002,2.32 1.088,-0.001 0.726,-0.002 0.363,-0.002 0,0"
           style="fill:#27557d;fill-opacity:1;fill-rule:evenodd;stroke:none"
           id="path2072" />
      </g>
      <g
         id="g2074"
         transform="translate(477.5693,674.7935)">
        <path
           d="m 0,0 1.023,-9.454 8.215,-20.85 8.096,20.85 L 18.359,0 14.44,2.52 3.919,2.52 0,0 Z"
           style="fill:#ffffff;fill-opacity:1;fill-rule:evenodd;stroke:none"
           id="path2076" />
      </g>
      <path
         d="m 481.487,672.199 10.431,0 0,8.498 -10.431,0 0,-8.498 z"
         style="fill:#d1a886;fill-opacity:1;fill-rule:evenodd;stroke:none"
         id="path2078" />
      <g
         id="g2080"
         transform="translate(486.749,675.6943)">
        <path
           d="m 0,0 c 4.111,0 7.916,4.701 9.923,10.46 0.117,-0.121 0.251,-0.198 0.396,-0.222 0.818,-0.135 1.755,1.401 2.093,3.431 0.338,2.033 -0.053,3.789 -0.87,3.925 -0.058,0.01 -0.116,0.01 -0.175,0.004 C 11.768,24.734 8.81,31.326 0,31.326 c -8.817,0 -11.773,-6.603 -11.367,-13.745 -0.09,0.023 -0.179,0.027 -0.267,0.013 -0.817,-0.136 -1.208,-1.892 -0.87,-3.925 0.337,-2.03 1.275,-3.566 2.092,-3.431 0.175,0.029 0.329,0.132 0.462,0.295 C -7.951,4.741 -4.129,0 0,0"
           style="fill:#f2caa9;fill-opacity:1;fill-rule:evenodd;stroke:none"
           id="path2082" />
      </g>
      <g
         id="g2084"
         transform="translate(498.1172,693.2925)">
        <path
           d="m 0,0 c 0.401,7.136 -2.559,13.728 -11.368,13.728 -8.818,0 -11.775,-6.603 -11.368,-13.745 0.713,-0.177 1.456,-1.483 1.784,-3.183 0.575,-0.387 0.991,-0.161 0.991,1.278 0,4.247 0.525,8.01 3.314,8.907 2.655,0.855 3.238,-1.02 5.263,-1.02 2.025,0 2.664,1.766 5.263,1.02 2.698,-0.773 3.313,-4.66 3.313,-8.907 0,-1.381 0.384,-1.645 0.922,-1.322 C -1.548,-1.449 -0.747,-0.083 0,0"
           style="fill:#3b1911;fill-opacity:1;fill-rule:evenodd;stroke:none"
           id="path2086" />
      </g>
      <g
         id="g2088"
         transform="translate(488.1094,666.9453)">
        <path
           d="M 0,0 0.571,1.208 -1.36,5.893 -3.262,1.283 -2.654,0 0,0 Z"
           style="fill:#ffb269;fill-opacity:1;fill-rule:evenodd;stroke:none"
           id="path2090" />
      </g>
      <g
         id="g2092"
         transform="translate(481.4883,677.3135)">
        <path
           d="M 0,0 5.261,-4.476 2.308,-12.375 -2.456,-1.628 0,0 Z"
           style="fill:#cccccc;fill-opacity:1;fill-rule:evenodd;stroke:none"
           id="path2094" />
      </g>
      <g
         id="g2096"
         transform="translate(479.0322,675.6851)">
        <path
           d="m 0,0 7.717,-31.306 -10.83,17.268 1.423,3.013 -3.091,2.464 3.318,7.669 L 0,0 Z"
           style="fill:#6f7478;fill-opacity:1;fill-rule:evenodd;stroke:none"
           id="path2098" />
      </g>
      <g
         id="g2100"
         transform="translate(492.0098,677.3135)">
        <path
           d="M 0,0 -5.261,-4.476 -2.308,-12.375 2.454,-1.628 0,0 Z"
           style="fill:#cccccc;fill-opacity:1;fill-rule:evenodd;stroke:none"
           id="path2102" />
      </g>
      <g
         id="g2104"
         transform="translate(485.4551,664.0083)">
        <path
           d="M 0,0 2.654,0 4.033,-13.305 1.294,-19.629 -1.344,-13.305 0,0 Z"
           style="fill:#ffb269;fill-opacity:1;fill-rule:evenodd;stroke:none"
           id="path2106" />
      </g>
      <g
         id="g2108"
         transform="translate(494.6807,702.376)">
        <path
           d="M 0,0 C -1.138,-2.274 -11.826,-4.171 -15.622,-4.47 -19.417,-4.768 -16.593,5.892 0,0"
           style="fill:#3b1911;fill-opacity:1;fill-rule:evenodd;stroke:none"
           id="path2110" />
      </g>
      <g
         id="g2112"
         transform="translate(489.2256,702.376)">
        <path
           d="M 0,0 C 0.49,-2.274 6.199,-7.252 7.835,-7.55 9.471,-7.848 7.151,5.892 0,0"
           style="fill:#3b1911;fill-opacity:1;fill-rule:evenodd;stroke:none"
           id="path2114" />
      </g>
      <g
         id="g2116"
         transform="translate(481.4883,677.3135)">
        <path
           d="M 0,0 5.261,-4.476 2.243,-10.424 -2.456,-1.628 0,0 Z"
           style="fill:#ffffff;fill-opacity:1;fill-rule:evenodd;stroke:none"
           id="path2118" />
      </g>
      <g
         id="g2120"
         transform="translate(479.0322,675.6851)">
        <path
           d="m 0,0 7.717,-31.306 -9.778,18.645 1.622,2.316 -3.126,2.432 2.102,7.021 L 0,0 Z"
           style="fill:#969da3;fill-opacity:1;fill-rule:evenodd;stroke:none"
           id="path2122" />
      </g>
      <g
         id="g2124"
         transform="translate(494.4639,675.6851)">
        <path
           d="M 0,0 -7.715,-31.306 3.114,-14.038 1.691,-11.025 4.782,-8.561 1.465,-0.892 0,0 Z"
           style="fill:#6f7478;fill-opacity:1;fill-rule:evenodd;stroke:none"
           id="path2126" />
      </g>
      <g
         id="g2128"
         transform="translate(494.4639,675.6851)">
        <path
           d="m 0,0 -7.715,-31.306 9.777,18.645 -1.623,2.316 3.127,2.432 L 1.465,-0.892 0,0 Z"
           style="fill:#969da3;fill-opacity:1;fill-rule:evenodd;stroke:none"
           id="path2130" />
      </g>
      <g
         id="g2132"
         transform="translate(492.0098,677.3135)">
        <path
           d="m 0,0 -5.261,-4.476 3.017,-5.948 4.698,8.796 L 0,0 Z"
           style="fill:#ffffff;fill-opacity:1;fill-rule:evenodd;stroke:none"
           id="path2134" />
      </g>
      <g
         id="g2136"
         transform="translate(485.4551,667.165)">
        <path
           d="m 0,0 2.654,0 c 0.594,-1.23 0.547,-2.305 0,-3.355 L 0,-3.355 C -0.547,-2.305 -0.594,-1.23 0,0"
           style="fill:#ffb269;fill-opacity:1;fill-rule:evenodd;stroke:none"
           id="path2138" />
      </g>
      <g
         id="g2140"
         transform="translate(486.082,635.2349)">
        <path
           d="M 0,0 C 0.435,-0.002 0.869,-0.004 1.304,-0.002 1.465,2.244 0.983,8.229 0.651,9.217 0.321,8.426 -0.158,2.363 0,0"
           style="fill:#27557d;fill-opacity:1;fill-rule:evenodd;stroke:none"
           id="path2142" />
      </g>
      <g
         id="g2144"
         transform="translate(502.5732,639.6997)">
        <path
           d="m 0,0 3.692,23.839 -39.995,0 L -32.61,0 0,0 Z"
           style="fill:#c5d0d9;fill-opacity:1;fill-rule:evenodd;stroke:none"
           id="path2146" />
      </g>
      <path
         d="m 460.38,634.589 51.775,0 0,5.539 -51.775,0 0,-5.539 z"
         style="fill:#c5d0d9;fill-opacity:1;fill-rule:evenodd;stroke:none"
         id="path2148" />
      <g
         id="g2150"
         transform="translate(475.9727,695.0132)">
        <path
           d="m 0,0 c 0,-0.519 -0.415,-0.94 -0.927,-0.94 -0.511,0 -0.927,0.421 -0.927,0.94 0,3.581 1.444,6.834 3.77,9.193 2.325,2.358 5.534,3.823 9.064,3.823 3.531,0 6.74,-1.465 9.065,-3.823 C 22.37,6.834 23.813,3.58 23.813,0 c 0,-0.519 -0.414,-0.94 -0.925,-0.94 -0.513,0 -0.928,0.421 -0.928,0.94 0,3.061 -1.235,5.845 -3.226,7.864 -1.99,2.018 -4.735,3.272 -7.754,3.272 C 7.962,11.136 5.217,9.882 3.227,7.864 1.236,5.845 0,3.062 0,0"
           style="fill:#c5d0d9;fill-opacity:1;fill-rule:nonzero;stroke:none"
           id="path2152" />
      </g>
      <g
         id="g2154"
         transform="translate(475.6406,697.2285)">
        <path
           d="m 0,0 c 0.686,0 1.342,-0.147 1.947,-0.417 l 0,-12.449 C 1.342,-13.135 0.686,-13.283 0,-13.283 c -1.412,0 -2.702,0.628 -3.684,1.661 l 0,9.96 C -2.702,-0.628 -1.412,0 0,0"
           style="fill:#c5d0d9;fill-opacity:1;fill-rule:evenodd;stroke:none"
           id="path2156" />
      </g>
      <g
         id="g2158"
         transform="translate(497.9453,697.2285)">
        <path
           d="m 0,0 c -0.72,0 -1.41,-0.147 -2.048,-0.417 l 0,-12.449 c 0.638,-0.269 1.328,-0.417 2.048,-0.417 1.486,0 2.843,0.628 3.876,1.661 l 0,9.96 C 2.843,-0.628 1.486,0 0,0"
           style="fill:#c5d0d9;fill-opacity:1;fill-rule:evenodd;stroke:none"
           id="path2160" />
      </g>
      <g
         id="g2162"
         transform="translate(420.9199,668.9849)">
        <path
           d="m 0,0 c 5.036,1.202 12.051,4.053 12.966,-0.021 1.088,-4.844 2.43,-16.325 3.839,-27.478 0.302,-2.404 -2.78,-3.651 -3.546,-3.883 -3.431,-1.037 -6.377,-1.362 -10.174,-1.873 L -0.014,-0.021 C -0.015,-0.012 -0.005,-0.001 0,0"
           style="fill:#4c6173;fill-opacity:1;fill-rule:evenodd;stroke:none"
           id="path2164" />
      </g>
      <g
         id="g2166"
         transform="translate(405.625,668.9849)">
        <path
           d="m 0,0 c -6.361,1.517 -11.416,5.056 -12.526,0.061 -1.162,-5.229 -2.435,-16.687 -3.779,-27.39 -0.344,-2.741 2.511,-3.92 3.435,-4.159 3.294,-0.855 6.132,-1.275 9.785,-1.767 L 0.014,-0.021 C 0.015,-0.012 0.005,-0.001 0,0"
           style="fill:#4c6173;fill-opacity:1;fill-rule:evenodd;stroke:none"
           id="path2168" />
      </g>
      <g
         id="g2170"
         transform="translate(400.668,636.3789)">
        <path
           d="M 0,0 -0.166,-0.39 C 7.671,-1.381 17.309,-1.399 25.169,-0.442 25.096,-0.284 25.025,-0.136 24.956,0 L 0,0 Z"
           style="fill:#27557d;fill-opacity:1;fill-rule:evenodd;stroke:none"
           id="path2172" />
      </g>
      <g
         id="g2174"
         transform="translate(397.5195,636.4595)">
        <path
           d="m 0,0 c 1.738,5.011 -2.228,28.475 -4.421,32.79 1.247,4.429 12.851,5.408 15.94,7.926 1.465,-1.29 2.509,-1.583 4.17,-1.583 1.663,0 2.759,0.336 4.224,1.626 2.286,-1.863 14.264,-3.316 16.313,-7.746 C 33.894,28.07 29.617,4.531 31.468,0.022 23.666,-1.512 8.027,-1.621 0,0"
           style="fill:#688096;fill-opacity:1;fill-rule:evenodd;stroke:none"
           id="path2176" />
      </g>
      <g
         id="g2178"
         transform="translate(405.3828,675.0469)">
        <path
           d="M 0,0 -0.37,-9.862 7.885,-30.818 16.022,-9.862 15.517,0.271 12.05,2.172 3.656,2.128 0,0 Z"
           style="fill:#ffffff;fill-opacity:1;fill-rule:evenodd;stroke:none"
           id="path2180" />
      </g>
      <path
         d="m 409.04,680.621 8.246,0 0,-8.542 -8.246,0 0,8.542 z"
         style="fill:#d1a886;fill-opacity:1;fill-rule:evenodd;stroke:none"
         id="path2182" />
      <g
         id="g2184"
         transform="translate(414.5762,666.7988)">
        <path
           d="M 0,0 0.574,1.214 -1.367,5.921 -3.277,1.29 -2.668,0 0,0 Z"
           style="fill:#fcb024;fill-opacity:1;fill-rule:evenodd;stroke:none"
           id="path2186" />
      </g>
      <g
         id="g2188"
         transform="translate(409.0381,677.1753)">
        <path
           d="M 0,0 4.171,-4.455 1.202,-12.395 -2.468,-1.637 0,0 Z"
           style="fill:#cccccc;fill-opacity:1;fill-rule:evenodd;stroke:none"
           id="path2190" />
      </g>
      <g
         id="g2192"
         transform="translate(406.5977,675.7534)">
        <path
           d="m 0,0 6.611,-31.636 -10.884,17.356 1.429,3.029 -3.105,2.476 4.217,7.821 L 0,0 Z"
           style="fill:#27557d;fill-opacity:1;fill-rule:evenodd;stroke:none"
           id="path2194" />
      </g>
      <g
         id="g2196"
         transform="translate(417.4326,677.2183)">
        <path
           d="m 0,0 -4.224,-4.498 2.968,-7.94 L 2.467,-1.637 0,0 Z"
           style="fill:#cccccc;fill-opacity:1;fill-rule:evenodd;stroke:none"
           id="path2198" />
      </g>
      <g
         id="g2200"
         transform="translate(411.9082,663.8467)">
        <path
           d="M 0,0 2.668,0 4.055,-13.373 1.301,-19.729 -1.35,-13.373 0,0 Z"
           style="fill:#fcb024;fill-opacity:1;fill-rule:evenodd;stroke:none"
           id="path2202" />
      </g>
      <g
         id="g2204"
         transform="translate(409.0391,677.1758)">
        <path
           d="M 0,0 4.17,-4.456 1.138,-10.434 -2.467,-1.637 0,0 Z"
           style="fill:#ffffff;fill-opacity:1;fill-rule:evenodd;stroke:none"
           id="path2206" />
      </g>
      <g
         id="g2208"
         transform="translate(406.5977,675.7534)">
        <path
           d="m 0,0 6.611,-31.636 -9.827,18.74 1.631,2.328 -3.144,2.444 2.997,7.17 L 0,0 Z"
           style="fill:#3f73a1;fill-opacity:1;fill-rule:evenodd;stroke:none"
           id="path2210" />
      </g>
      <g
         id="g2212"
         transform="translate(419.9814,675.8208)">
        <path
           d="M 0,0 -6.772,-31.704 4.112,-14.347 2.683,-11.318 5.788,-8.842 2.454,-1.134 0,0 Z"
           style="fill:#27557d;fill-opacity:1;fill-rule:evenodd;stroke:none"
           id="path2214" />
      </g>
      <g
         id="g2216"
         transform="translate(419.9814,675.8208)">
        <path
           d="m 0,0 -6.772,-31.704 9.827,18.74 -1.631,2.328 3.142,2.445 L 2.454,-1.134 0,0 Z"
           style="fill:#3f73a1;fill-opacity:1;fill-rule:evenodd;stroke:none"
           id="path2218" />
      </g>
      <g
         id="g2220"
         transform="translate(417.4326,677.2192)">
        <path
           d="m 0,0 -4.224,-4.499 3.033,-5.978 3.658,8.84 L 0,0 Z"
           style="fill:#ffffff;fill-opacity:1;fill-rule:evenodd;stroke:none"
           id="path2222" />
      </g>
      <g
         id="g2224"
         transform="translate(411.9082,667.02)">
        <path
           d="m 0,0 2.668,0 c 0.597,-1.237 0.55,-2.317 0,-3.373 L 0,-3.373 C -0.549,-2.317 -0.596,-1.237 0,0"
           style="fill:#fcb024;fill-opacity:1;fill-rule:evenodd;stroke:none"
           id="path2226" />
      </g>
      <g
         id="g2228"
         transform="translate(412.833,635.2349)">
        <path
           d="M 0,0 C 0.071,2.321 0.245,5.082 0.529,9.221 0.813,5.081 1.002,2.32 1.087,-0.001 0.725,-0.002 0.362,-0.002 0,0"
           style="fill:#27557d;fill-opacity:1;fill-rule:evenodd;stroke:none"
           id="path2230" />
      </g>
      <g
         id="g2232"
         transform="translate(404.1348,674.7935)">
        <path
           d="m 0,0 1.023,-9.454 8.214,-20.85 8.097,20.85 L 18.358,0 14.44,2.52 3.918,2.52 0,0 Z"
           style="fill:#ffffff;fill-opacity:1;fill-rule:evenodd;stroke:none"
           id="path2234" />
      </g>
      <path
         d="m 408.053,672.199 10.431,0 0,8.498 -10.431,0 0,-8.498 z"
         style="fill:#d1a886;fill-opacity:1;fill-rule:evenodd;stroke:none"
         id="path2236" />
      <g
         id="g2238"
         transform="translate(413.3145,675.6943)">
        <path
           d="m 0,0 c 4.11,0 7.916,4.701 9.923,10.46 0.117,-0.121 0.25,-0.198 0.396,-0.222 0.818,-0.135 1.755,1.401 2.093,3.431 0.337,2.033 -0.053,3.789 -0.87,3.925 -0.058,0.01 -0.116,0.01 -0.176,0.004 C 11.768,24.734 8.81,31.326 0,31.326 c -8.817,0 -11.773,-6.603 -11.367,-13.745 -0.09,0.023 -0.179,0.027 -0.267,0.013 -0.818,-0.136 -1.207,-1.892 -0.87,-3.925 0.337,-2.03 1.275,-3.566 2.092,-3.431 0.174,0.029 0.329,0.132 0.462,0.295 C -7.951,4.741 -4.129,0 0,0"
           style="fill:#f2caa9;fill-opacity:1;fill-rule:evenodd;stroke:none"
           id="path2240" />
      </g>
      <g
         id="g2242"
         transform="translate(424.6826,693.2925)">
        <path
           d="m 0,0 c 0.401,7.136 -2.559,13.728 -11.368,13.728 -8.818,0 -11.775,-6.603 -11.368,-13.745 0.713,-0.177 1.456,-1.483 1.784,-3.183 0.574,-0.387 0.991,-0.161 0.991,1.278 0,4.247 0.524,8.01 3.314,8.907 2.654,0.855 3.238,-1.02 5.263,-1.02 2.025,0 2.664,1.766 5.263,1.02 2.698,-0.773 3.313,-4.66 3.313,-8.907 0,-1.381 0.384,-1.645 0.922,-1.322 C -1.548,-1.449 -0.747,-0.083 0,0"
           style="fill:#b55c46;fill-opacity:1;fill-rule:evenodd;stroke:none"
           id="path2244" />
      </g>
      <g
         id="g2246"
         transform="translate(414.6748,666.9453)">
        <path
           d="M 0,0 0.571,1.208 -1.36,5.893 -3.261,1.283 -2.654,0 0,0 Z"
           style="fill:#27557d;fill-opacity:1;fill-rule:evenodd;stroke:none"
           id="path2248" />
      </g>
      <g
         id="g2250"
         transform="translate(408.0527,677.3135)">
        <path
           d="M 0,0 5.262,-4.476 2.309,-12.375 -2.455,-1.628 0,0 Z"
           style="fill:#cccccc;fill-opacity:1;fill-rule:evenodd;stroke:none"
           id="path2252" />
      </g>
      <g
         id="g2254"
         transform="translate(405.5977,675.6851)">
        <path
           d="m 0,0 7.717,-31.306 -10.83,17.268 1.422,3.013 -3.09,2.464 3.318,7.669 L 0,0 Z"
           style="fill:#4c6173;fill-opacity:1;fill-rule:evenodd;stroke:none"
           id="path2256" />
      </g>
      <g
         id="g2258"
         transform="translate(418.5752,677.3135)">
        <path
           d="M 0,0 -5.261,-4.476 -2.308,-12.375 2.454,-1.628 0,0 Z"
           style="fill:#cccccc;fill-opacity:1;fill-rule:evenodd;stroke:none"
           id="path2260" />
      </g>
      <g
         id="g2262"
         transform="translate(412.0205,664.0083)">
        <path
           d="M 0,0 2.654,0 4.033,-13.305 1.294,-19.629 -1.344,-13.305 0,0 Z"
           style="fill:#27557d;fill-opacity:1;fill-rule:evenodd;stroke:none"
           id="path2264" />
      </g>
      <g
         id="g2266"
         transform="translate(422.7852,700.3223)">
        <path
           d="m 0,0 c -1.138,-2.274 -10.542,-7.765 -14.337,-8.063 1.702,1.584 5.703,6.276 5.193,6.521 -0.566,0.272 -6.624,-4.457 -9.857,-5.544 C -19.66,6.611 -9.741,6.173 0,0"
           style="fill:#b55c46;fill-opacity:1;fill-rule:evenodd;stroke:none"
           id="path2268" />
      </g>
      <g
         id="g2270"
         transform="translate(417.4365,702.5952)">
        <path
           d="M 0,0 C 0.49,-2.274 3.783,-9.011 5.419,-9.309 7.055,-9.607 7.151,5.892 0,0"
           style="fill:#b55c46;fill-opacity:1;fill-rule:evenodd;stroke:none"
           id="path2272" />
      </g>
      <g
         id="g2274"
         transform="translate(408.0527,677.3135)">
        <path
           d="M 0,0 5.262,-4.476 2.244,-10.424 -2.455,-1.628 0,0 Z"
           style="fill:#ffffff;fill-opacity:1;fill-rule:evenodd;stroke:none"
           id="path2276" />
      </g>
      <g
         id="g2278"
         transform="translate(405.5977,675.6851)">
        <path
           d="m 0,0 7.717,-31.306 -9.778,18.645 1.622,2.316 -3.127,2.432 2.103,7.021 L 0,0 Z"
           style="fill:#688096;fill-opacity:1;fill-rule:evenodd;stroke:none"
           id="path2280" />
      </g>
      <g
         id="g2282"
         transform="translate(421.0293,675.6851)">
        <path
           d="M 0,0 -7.715,-31.306 3.114,-14.038 1.691,-11.025 4.782,-8.561 1.464,-0.892 0,0 Z"
           style="fill:#4c6173;fill-opacity:1;fill-rule:evenodd;stroke:none"
           id="path2284" />
      </g>
      <g
         id="g2286"
         transform="translate(421.0293,675.6851)">
        <path
           d="m 0,0 -7.715,-31.306 9.777,18.645 -1.623,2.316 3.127,2.432 L 1.464,-0.892 0,0 Z"
           style="fill:#688096;fill-opacity:1;fill-rule:evenodd;stroke:none"
           id="path2288" />
      </g>
      <g
         id="g2290"
         transform="translate(418.5752,677.3135)">
        <path
           d="m 0,0 -5.261,-4.476 3.017,-5.948 4.698,8.796 L 0,0 Z"
           style="fill:#ffffff;fill-opacity:1;fill-rule:evenodd;stroke:none"
           id="path2292" />
      </g>
      <g
         id="g2294"
         transform="translate(412.0205,667.165)">
        <path
           d="m 0,0 2.654,0 c 0.593,-1.23 0.546,-2.305 0,-3.355 L 0,-3.355 C -0.547,-2.305 -0.594,-1.23 0,0"
           style="fill:#27557d;fill-opacity:1;fill-rule:evenodd;stroke:none"
           id="path2296" />
      </g>
      <g
         id="g2298"
         transform="translate(412.6465,635.2349)">
        <path
           d="M 0,0 C 0.436,-0.002 0.87,-0.004 1.305,-0.002 1.465,2.244 0.984,8.229 0.652,9.217 0.322,8.426 -0.158,2.363 0,0"
           style="fill:#27557d;fill-opacity:1;fill-rule:evenodd;stroke:none"
           id="path2300" />
      </g>
      <g
         id="g2302"
         transform="translate(429.7227,639.6997)">
        <path
           d="m 0,0 3.692,23.839 -39.994,0 L -32.611,0 0,0 Z"
           style="fill:#c5d0d9;fill-opacity:1;fill-rule:evenodd;stroke:none"
           id="path2304" />
      </g>
      <path
         d="m 387.529,634.589 51.775,0 0,5.539 -51.775,0 0,-5.539 z"
         style="fill:#c5d0d9;fill-opacity:1;fill-rule:evenodd;stroke:none"
         id="path2306" />
      <g
         id="g2308"
         transform="translate(402.6025,695.0127)">
        <path
           d="m 0,0 c 0,-0.519 -0.416,-0.939 -0.928,-0.939 -0.51,0 -0.926,0.42 -0.926,0.939 0,3.581 1.443,6.835 3.769,9.194 2.325,2.358 5.534,3.822 9.064,3.822 3.532,0 6.74,-1.464 9.065,-3.822 C 22.369,6.835 23.813,3.58 23.813,0 c 0,-0.519 -0.415,-0.939 -0.926,-0.939 -0.512,0 -0.927,0.42 -0.927,0.939 0,3.062 -1.235,5.845 -3.227,7.864 -1.991,2.019 -4.735,3.272 -7.754,3.272 C 7.961,11.136 5.216,9.883 3.226,7.864 1.235,5.846 0,3.062 0,0"
           style="fill:#c5d0d9;fill-opacity:1;fill-rule:nonzero;stroke:none"
           id="path2310" />
      </g>
      <g
         id="g2312"
         transform="translate(402.2705,697.2285)">
        <path
           d="m 0,0 c 0.686,0 1.341,-0.147 1.947,-0.417 l 0,-12.449 C 1.341,-13.135 0.686,-13.283 0,-13.283 c -1.413,0 -2.703,0.628 -3.685,1.661 l 0,9.96 C -2.703,-0.628 -1.413,0 0,0"
           style="fill:#c5d0d9;fill-opacity:1;fill-rule:evenodd;stroke:none"
           id="path2314" />
      </g>
      <g
         id="g2316"
         transform="translate(424.5752,697.2285)">
        <path
           d="m 0,0 c -0.721,0 -1.41,-0.147 -2.048,-0.417 l 0,-12.449 c 0.638,-0.269 1.327,-0.417 2.048,-0.417 1.485,0 2.842,0.628 3.875,1.661 l 0,9.96 C 2.842,-0.628 1.485,0 0,0"
           style="fill:#c5d0d9;fill-opacity:1;fill-rule:evenodd;stroke:none"
           id="path2318" />
      </g>
      <g
         id="g2320"
         transform="translate(345.3164,667.9136)">
        <path
           d="m 0,0 c 4.875,1.164 8.25,4.381 9.137,0.436 1.054,-4.691 3.416,-16.757 4.781,-27.557 0.295,-2.33 -0.337,-3.04 -1.081,-3.265 -3.321,-1.006 -6.174,-1.318 -9.851,-1.814 l -3,32.179 c 0,0.01 0.008,0.02 0.014,0.021"
           style="fill:#27557d;fill-opacity:1;fill-rule:evenodd;stroke:none"
           id="path2322" />
      </g>
      <g
         id="g2324"
         transform="translate(351.3682,684.7637)">
        <path
           d="m 0,0 c -3.007,-14.237 -9,-39.605 -13.53,-39.605 -4.531,0 -13.417,27.27 -15.161,37.778 -1.505,9.057 1.355,26.751 20.367,20.972 C -1.949,19.497 2.609,12.358 0,0"
           style="fill:#99780b;fill-opacity:1;fill-rule:evenodd;stroke:none"
           id="path2326" />
      </g>
      <g
         id="g2328"
         transform="translate(330.5063,667.9136)">
        <path
           d="m 0,0 c -6.16,1.47 -8.209,4.686 -9.284,-0.152 -1.126,-5.064 -3.344,-16.689 -4.646,-27.052 -0.335,-2.656 0.573,-3.053 1.469,-3.285 3.189,-0.828 5.937,-1.234 9.475,-1.711 L 0.013,-0.021 C 0.015,-0.011 0.005,0 0,0"
           style="fill:#27557d;fill-opacity:1;fill-rule:evenodd;stroke:none"
           id="path2330" />
      </g>
      <g
         id="g2332"
         transform="translate(325.7065,636.3428)">
        <path
           d="M 0,0 -0.16,-0.378 C 7.427,-1.338 16.759,-1.354 24.369,-0.429 24.299,-0.275 24.231,-0.132 24.165,0 L 0,0 Z"
           style="fill:#27557d;fill-opacity:1;fill-rule:evenodd;stroke:none"
           id="path2334" />
      </g>
      <g
         id="g2336"
         transform="translate(325.2969,635.9976)">
        <path
           d="m 0,0 c 2.153,6.21 0.91,8.038 -1.914,14.807 -2.876,6.902 2.963,10.595 -1.378,19.138 3.847,2.466 8.815,3.464 11.807,5.901 1.418,-1.247 2.429,-1.533 4.038,-1.533 1.608,0 2.672,0.327 4.089,1.575 2.213,-1.803 7.882,-3.321 11.906,-5.943 C 24.41,25.176 30.015,23.733 27.168,14.807 24.995,7.993 21.608,7.615 24.769,-0.085 17.076,-1.019 7.628,-0.991 0,0"
           style="fill:#3f73a1;fill-opacity:1;fill-rule:evenodd;stroke:none"
           id="path2338" />
      </g>
      <g
         id="g2340"
         transform="translate(330.2725,673.7832)">
        <path
           d="M 0,0 -0.359,-9.549 7.634,-29.84 15.514,-9.549 15.023,0.262 11.667,2.103 3.54,2.06 0,0 Z"
           style="fill:#ffffff;fill-opacity:1;fill-rule:evenodd;stroke:none"
           id="path2342" />
      </g>
      <path
         d="m 333.813,679.18 7.983,0 0,-8.271 -7.983,0 0,8.271 z"
         style="fill:#d1a886;fill-opacity:1;fill-rule:evenodd;stroke:none"
         id="path2344" />
      <g
         id="g2346"
         transform="translate(337.8496,674.311)">
        <path
           d="M 0,0 C 4,0 7.705,4.575 9.657,10.179 9.772,10.062 9.9,9.987 10.042,9.963 c 0.797,-0.132 1.708,1.364 2.038,3.34 0.327,1.977 -0.051,3.687 -0.848,3.819 -0.055,0.009 -0.113,0.009 -0.17,0.003 C 11.452,24.07 8.573,30.486 0,30.486 c -8.581,0 -11.457,-6.425 -11.062,-13.377 -0.087,0.022 -0.173,0.027 -0.259,0.013 -0.796,-0.132 -1.175,-1.842 -0.848,-3.819 0.329,-1.976 1.24,-3.472 2.037,-3.34 0.169,0.028 0.319,0.128 0.449,0.287 C -7.737,4.613 -4.018,0 0,0"
           style="fill:#f2caa9;fill-opacity:1;fill-rule:evenodd;stroke:none"
           id="path2348" />
      </g>
      <g
         id="g2350"
         transform="translate(339.1738,665.7969)">
        <path
           d="M 0,0 0.556,1.176 -1.324,5.733 -3.174,1.249 -2.583,0 0,0 Z"
           style="fill:#fc8d25;fill-opacity:1;fill-rule:evenodd;stroke:none"
           id="path2352" />
      </g>
      <g
         id="g2354"
         transform="translate(333.811,675.8433)">
        <path
           d="M 0,0 4.039,-4.313 1.165,-12.001 -2.389,-1.584 0,0 Z"
           style="fill:#cccccc;fill-opacity:1;fill-rule:evenodd;stroke:none"
           id="path2356" />
      </g>
      <g
         id="g2358"
         transform="translate(331.4482,674.4673)">
        <path
           d="m 0,0 6.401,-30.632 -10.539,16.805 1.385,2.933 -3.008,2.398 4.083,7.573 L 0,0 Z"
           style="fill:#27557d;fill-opacity:1;fill-rule:evenodd;stroke:none"
           id="path2360" />
      </g>
      <g
         id="g2362"
         transform="translate(341.9395,675.8853)">
        <path
           d="M 0,0 -4.09,-4.355 -1.216,-12.043 2.389,-1.585 0,0 Z"
           style="fill:#cccccc;fill-opacity:1;fill-rule:evenodd;stroke:none"
           id="path2364" />
      </g>
      <g
         id="g2366"
         transform="translate(336.5903,662.9385)">
        <path
           d="M 0,0 2.583,0 3.926,-12.948 1.259,-19.103 -1.307,-12.948 0,0 Z"
           style="fill:#fc8d25;fill-opacity:1;fill-rule:evenodd;stroke:none"
           id="path2368" />
      </g>
      <g
         id="g2370"
         transform="translate(333.812,675.8442)">
        <path
           d="M 0,0 4.038,-4.314 1.102,-10.102 -2.389,-1.584 0,0 Z"
           style="fill:#ffffff;fill-opacity:1;fill-rule:evenodd;stroke:none"
           id="path2372" />
      </g>
      <g
         id="g2374"
         transform="translate(331.4482,674.4673)">
        <path
           d="m 0,0 6.401,-30.632 -9.515,18.146 1.579,2.253 -3.043,2.367 2.899,6.943 L 0,0 Z"
           style="fill:#3f73a1;fill-opacity:1;fill-rule:evenodd;stroke:none"
           id="path2376" />
      </g>
      <g
         id="g2378"
         transform="translate(344.4067,674.5327)">
        <path
           d="M 0,0 -6.557,-30.697 3.981,-13.893 2.598,-10.959 5.605,-8.562 2.376,-1.099 0,0 Z"
           style="fill:#27557d;fill-opacity:1;fill-rule:evenodd;stroke:none"
           id="path2380" />
      </g>
      <g
         id="g2382"
         transform="translate(344.4067,674.5327)">
        <path
           d="m 0,0 -6.557,-30.697 9.514,18.145 -1.578,2.253 3.043,2.368 L 2.376,-1.099 0,0 Z"
           style="fill:#3f73a1;fill-opacity:1;fill-rule:evenodd;stroke:none"
           id="path2384" />
      </g>
      <g
         id="g2386"
         transform="translate(341.9395,675.8867)">
        <path
           d="m 0,0 -4.09,-4.356 2.937,-5.789 3.542,8.56 L 0,0 Z"
           style="fill:#ffffff;fill-opacity:1;fill-rule:evenodd;stroke:none"
           id="path2388" />
      </g>
      <g
         id="g2390"
         transform="translate(336.5903,666.0107)">
        <path
           d="m 0,0 2.583,0 c 0.578,-1.197 0.533,-2.244 0,-3.266 L 0,-3.266 C -0.532,-2.244 -0.577,-1.197 0,0"
           style="fill:#fc8d25;fill-opacity:1;fill-rule:evenodd;stroke:none"
           id="path2392" />
      </g>
      <g
         id="g2394"
         transform="translate(337.4863,635.2344)">
        <path
           d="M 0,0 C 0.068,2.249 0.237,4.921 0.513,8.928 0.787,4.92 0.97,2.247 1.052,0 0.701,-0.002 0.351,-0.001 0,0"
           style="fill:#27557d;fill-opacity:1;fill-rule:evenodd;stroke:none"
           id="path2396" />
      </g>
      <g
         id="g2398"
         transform="translate(349.1143,690.1958)">
        <path
           d="m 0,0 c 0.773,-0.173 1.105,-1.633 0.743,-3.26 -0.361,-1.629 -1.281,-2.81 -2.054,-2.639 -0.772,0.172 -1.105,1.632 -0.743,3.26 C -1.692,-1.011 -0.772,0.17 0,0"
           style="fill:#f2caa9;fill-opacity:1;fill-rule:evenodd;stroke:none"
           id="path2400" />
      </g>
      <g
         id="g2402"
         transform="translate(349.0693,691.436)">
        <path
           d="m 0,0 c 0.398,6.945 -2.535,13.361 -11.264,13.361 -8.736,0 -11.667,-6.425 -11.264,-13.375 0.707,-0.174 1.442,-1.445 1.767,-3.099 0.57,-0.377 0.983,-0.157 0.983,1.243 0,4.133 0.52,7.796 3.284,8.669 2.629,0.831 3.208,-0.993 5.214,-0.993 2.008,0 2.64,1.718 5.215,0.993 2.673,-0.753 3.284,-4.536 3.284,-8.669 0,-1.343 0.38,-1.6 0.914,-1.287 C -1.534,-1.41 -0.74,-0.081 0,0"
           style="fill:#99780b;fill-opacity:1;fill-rule:evenodd;stroke:none"
           id="path2404" />
      </g>
      <g
         id="g2406"
         transform="translate(342.8032,701.9287)">
        <path
           d="M 0,0 C -0.525,-3.896 -13.696,-16.011 -18.507,-16.672 -20,3.357 -7.687,-4.958 -6.483,-0.912 -6.196,0.053 0.245,-0.839 0,0"
           style="fill:#99780b;fill-opacity:1;fill-rule:evenodd;stroke:none"
           id="path2408" />
      </g>
      <g
         id="g2410"
         transform="translate(335.8359,701.0605)">
        <path
           d="M 0,0 C -0.313,-3.92 9.93,-14.607 14.491,-16.273 16.212,-1.937 12.49,-0.071 9.947,1.091 9.032,1.509 -0.416,-0.769 0,0"
           style="fill:#99780b;fill-opacity:1;fill-rule:evenodd;stroke:none"
           id="path2412" />
      </g>
      <g
         id="g2414"
         transform="translate(354.2124,639.6997)">
        <path
           d="m 0,0 3.692,23.839 -39.995,0 L -32.611,0 0,0 Z"
           style="fill:#c5d0d9;fill-opacity:1;fill-rule:evenodd;stroke:none"
           id="path2416" />
      </g>
      <path
         d="m 312.019,634.589 51.776,0 0,5.539 -51.776,0 0,-5.539 z"
         style="fill:#c5d0d9;fill-opacity:1;fill-rule:evenodd;stroke:none"
         id="path2418" />
      <g
         id="g2420"
         transform="translate(326.9907,692.5479)">
        <path
           d="m 0,0 c 0,-0.519 -0.415,-0.94 -0.927,-0.94 -0.511,0 -0.927,0.421 -0.927,0.94 0,3.581 1.444,6.834 3.77,9.193 2.325,2.358 5.534,3.823 9.064,3.823 3.531,0 6.739,-1.465 9.065,-3.823 C 22.371,6.834 23.814,3.58 23.814,0 c 0,-0.519 -0.415,-0.94 -0.927,-0.94 -0.512,0 -0.927,0.421 -0.927,0.94 0,3.061 -1.235,5.845 -3.226,7.864 -1.99,2.018 -4.735,3.272 -7.754,3.272 C 7.962,11.136 5.217,9.882 3.226,7.864 1.236,5.845 0,3.062 0,0"
           style="fill:#c5d0d9;fill-opacity:1;fill-rule:nonzero;stroke:none"
           id="path2422" />
      </g>
      <g
         id="g2424"
         transform="translate(326.6597,694.7632)">
        <path
           d="m 0,0 c 0.685,0 1.341,-0.147 1.947,-0.417 l 0,-12.449 C 1.341,-13.135 0.685,-13.283 0,-13.283 c -1.413,0 -2.703,0.628 -3.685,1.661 l 0,9.96 C -2.703,-0.627 -1.413,0 0,0"
           style="fill:#c5d0d9;fill-opacity:1;fill-rule:evenodd;stroke:none"
           id="path2426" />
      </g>
      <g
         id="g2428"
         transform="translate(348.9639,694.7632)">
        <path
           d="m 0,0 c -0.721,0 -1.41,-0.147 -2.048,-0.417 l 0,-12.449 c 0.638,-0.269 1.327,-0.417 2.048,-0.417 1.486,0 2.843,0.628 3.875,1.661 l 0,9.96 C 2.843,-0.627 1.486,0 0,0"
           style="fill:#c5d0d9;fill-opacity:1;fill-rule:evenodd;stroke:none"
           id="path2430" />
      </g>
      <g
         id="g2432"
         transform="translate(459.8896,640.9048)">
        <path
           d="m 0,0 c 5.52,1.317 9.339,4.959 10.343,0.493 1.193,-5.31 3.867,-18.969 5.412,-31.193 0.333,-2.637 -0.383,-3.441 -1.224,-3.696 -3.76,-1.138 -6.989,-1.492 -11.15,-2.054 L -0.015,-0.024 C -0.016,-0.013 -0.007,-0.001 0,0"
           style="fill:#4c6173;fill-opacity:1;fill-rule:evenodd;stroke:none"
           id="path2434" />
      </g>
      <g
         id="g2436"
         transform="translate(466.7393,659.9785)">
        <path
           d="m 0,0 c -3.403,-16.116 -10.186,-44.833 -15.314,-44.833 -5.129,0 -15.187,30.869 -17.162,42.764 C -34.18,8.183 -30.942,28.212 -9.42,21.67 -2.205,22.068 2.955,13.988 0,0"
           style="fill:#6e4d28;fill-opacity:1;fill-rule:evenodd;stroke:none"
           id="path2438" />
      </g>
      <g
         id="g2440"
         transform="translate(443.126,640.9048)">
        <path
           d="m 0,0 c -6.973,1.663 -9.292,5.303 -10.51,-0.172 -1.274,-5.733 -3.785,-18.891 -5.259,-30.622 -0.378,-3.006 0.65,-3.455 1.664,-3.718 3.609,-0.937 6.72,-1.397 10.724,-1.938 L 0.015,-0.024 C 0.016,-0.013 0.005,-0.001 0,0"
           style="fill:#4c6173;fill-opacity:1;fill-rule:evenodd;stroke:none"
           id="path2442" />
      </g>
      <g
         id="g2444"
         transform="translate(437.6924,605.1675)">
        <path
           d="M 0,0 -0.181,-0.427 C 8.407,-1.514 18.971,-1.533 27.586,-0.485 27.506,-0.311 27.429,-0.149 27.354,0 L 0,0 Z"
           style="fill:#27557d;fill-opacity:1;fill-rule:evenodd;stroke:none"
           id="path2446" />
      </g>
      <g
         id="g2448"
         transform="translate(437.2295,604.7769)">
        <path
           d="m 0,0 c 2.438,7.03 1.028,9.1 -2.166,16.761 -3.257,7.812 3.353,11.993 -1.56,21.662 4.353,2.792 9.977,3.922 13.364,6.681 1.605,-1.413 2.75,-1.735 4.57,-1.735 1.821,0 3.024,0.369 4.63,1.782 2.505,-2.041 8.921,-3.759 13.475,-6.728 C 27.631,28.499 33.974,26.865 30.753,16.761 28.293,9.047 24.459,8.62 28.036,-0.095 19.329,-1.153 8.634,-1.122 0,0"
           style="fill:#688096;fill-opacity:1;fill-rule:evenodd;stroke:none"
           id="path2450" />
      </g>
      <g
         id="g2452"
         transform="translate(442.8613,647.5483)">
        <path
           d="m 0,0 -0.407,-10.809 9.048,-22.968 8.92,22.968 L 17.006,0.297 13.206,2.38 4.006,2.333 0,0 Z"
           style="fill:#ffffff;fill-opacity:1;fill-rule:evenodd;stroke:none"
           id="path2454" />
      </g>
      <path
         d="m 446.869,653.657 9.037,0 0,-9.361 -9.037,0 0,9.361 z"
         style="fill:#d1a886;fill-opacity:1;fill-rule:evenodd;stroke:none"
         id="path2456" />
      <g
         id="g2458"
         transform="translate(451.4375,648.1455)">
        <path
           d="m 0,0 c 4.529,0 8.721,5.178 10.932,11.522 0.13,-0.132 0.274,-0.217 0.436,-0.244 0.902,-0.15 1.934,1.543 2.306,3.781 0.371,2.237 -0.058,4.173 -0.959,4.323 -0.064,0.01 -0.127,0.011 -0.193,0.004 0.442,7.86 -2.817,15.122 -12.522,15.122 -9.713,0 -12.969,-7.273 -12.521,-15.141 -0.098,0.026 -0.197,0.03 -0.293,0.015 -0.902,-0.15 -1.331,-2.086 -0.96,-4.323 0.373,-2.238 1.405,-3.931 2.304,-3.781 0.193,0.032 0.363,0.145 0.509,0.326 C -8.758,5.223 -4.548,0 0,0"
           style="fill:#f2caa9;fill-opacity:1;fill-rule:evenodd;stroke:none"
           id="path2460" />
      </g>
      <g
         id="g2462"
         transform="translate(452.9365,638.5088)">
        <path
           d="M 0,0 0.63,1.33 -1.499,6.489 -3.592,1.414 -2.925,0 0,0 Z"
           style="fill:#93b9db;fill-opacity:1;fill-rule:evenodd;stroke:none"
           id="path2464" />
      </g>
      <g
         id="g2466"
         transform="translate(446.8662,649.8809)">
        <path
           d="M 0,0 4.571,-4.883 1.317,-13.585 -2.704,-1.793 0,0 Z"
           style="fill:#cccccc;fill-opacity:1;fill-rule:evenodd;stroke:none"
           id="path2468" />
      </g>
      <g
         id="g2470"
         transform="translate(444.1914,648.3228)">
        <path
           d="m 0,0 7.246,-34.673 -11.93,19.022 1.568,3.32 -3.404,2.714 4.621,8.572 L 0,0 Z"
           style="fill:#4c6173;fill-opacity:1;fill-rule:evenodd;stroke:none"
           id="path2472" />
      </g>
      <g
         id="g2474"
         transform="translate(456.0674,649.9282)">
        <path
           d="m 0,0 -4.63,-4.93 3.254,-8.702 4.08,11.838 L 0,0 Z"
           style="fill:#cccccc;fill-opacity:1;fill-rule:evenodd;stroke:none"
           id="path2476" />
      </g>
      <g
         id="g2478"
         transform="translate(450.0117,635.2734)">
        <path
           d="m 0,0 2.925,0 1.52,-14.658 -3.019,-6.966 -2.905,6.966 L 0,0 Z"
           style="fill:#93b9db;fill-opacity:1;fill-rule:evenodd;stroke:none"
           id="path2480" />
      </g>
      <g
         id="g2482"
         transform="translate(446.8672,649.8818)">
        <path
           d="M 0,0 4.57,-4.884 1.247,-11.435 -2.704,-1.794 0,0 Z"
           style="fill:#ffffff;fill-opacity:1;fill-rule:evenodd;stroke:none"
           id="path2484" />
      </g>
      <g
         id="g2486"
         transform="translate(444.1914,648.3228)">
        <path
           d="m 0,0 7.246,-34.673 -10.769,20.539 1.786,2.551 -3.445,2.679 3.283,7.859 L 0,0 Z"
           style="fill:#688096;fill-opacity:1;fill-rule:evenodd;stroke:none"
           id="path2488" />
      </g>
      <g
         id="g2490"
         transform="translate(458.8604,648.397)">
        <path
           d="m 0,0 -7.423,-34.748 11.93,19.023 -1.567,3.32 3.405,2.714 L 2.689,-1.244 0,0 Z"
           style="fill:#4c6173;fill-opacity:1;fill-rule:evenodd;stroke:none"
           id="path2492" />
      </g>
      <g
         id="g2494"
         transform="translate(458.8604,648.397)">
        <path
           d="m 0,0 -7.423,-34.748 10.771,20.54 -1.786,2.551 3.444,2.679 L 2.689,-1.244 0,0 Z"
           style="fill:#688096;fill-opacity:1;fill-rule:evenodd;stroke:none"
           id="path2496" />
      </g>
      <g
         id="g2498"
         transform="translate(456.0674,649.9287)">
        <path
           d="m 0,0 -4.63,-4.931 3.324,-6.551 4.01,9.689 L 0,0 Z"
           style="fill:#ffffff;fill-opacity:1;fill-rule:evenodd;stroke:none"
           id="path2500" />
      </g>
      <g
         id="g2502"
         transform="translate(450.0117,638.7505)">
        <path
           d="m 0,0 2.925,0 c 0.653,-1.355 0.602,-2.54 0,-3.697 L 0,-3.697 C -0.602,-2.54 -0.652,-1.355 0,0"
           style="fill:#93b9db;fill-opacity:1;fill-rule:evenodd;stroke:none"
           id="path2504" />
      </g>
      <g
         id="g2506"
         transform="translate(451.0264,603.9131)">
        <path
           d="M 0,0 C 0.077,2.545 0.269,5.57 0.58,10.106 0.891,5.569 1.098,2.543 1.191,0 0.794,-0.002 0.397,-0.002 0,0"
           style="fill:#4c6173;fill-opacity:1;fill-rule:evenodd;stroke:none"
           id="path2508" />
      </g>
      <g
         id="g2510"
         transform="translate(464.1895,666.126)">
        <path
           d="M 0,0 C 0.874,-0.194 1.25,-1.848 0.841,-3.689 0.432,-5.533 -0.61,-6.871 -1.484,-6.677 -2.359,-6.482 -2.735,-4.829 -2.325,-2.985 -1.916,-1.143 -0.875,0.194 0,0"
           style="fill:#f2caa9;fill-opacity:1;fill-rule:evenodd;stroke:none"
           id="path2512" />
      </g>
      <g
         id="g2514"
         transform="translate(464.1377,667.5313)">
        <path
           d="m 0,0 c 0.451,7.86 -2.868,15.122 -12.75,15.122 -9.889,0 -13.206,-7.272 -12.751,-15.139 0.801,-0.197 1.634,-1.635 2.001,-3.508 0.646,-0.426 1.111,-0.177 1.111,1.408 0,4.678 0.59,8.824 3.719,9.812 2.976,0.941 3.631,-1.123 5.902,-1.123 2.272,0 2.989,1.945 5.903,1.123 3.026,-0.852 3.717,-5.134 3.717,-9.812 0,-1.521 0.43,-1.812 1.035,-1.457 C -1.736,-1.596 -0.838,-0.092 0,0"
           style="fill:#6e4d28;fill-opacity:1;fill-rule:evenodd;stroke:none"
           id="path2516" />
      </g>
      <g
         id="g2518"
         transform="translate(460.4004,679.9927)">
        <path
           d="m 0,0 c 0.63,-4.405 -6.294,-14.004 -11.329,-16.208 3.215,1.785 5.326,8.417 4.55,13.217 C -6.961,-1.866 0.525,-0.838 0,0"
           style="fill:#6e4d28;fill-opacity:1;fill-rule:evenodd;stroke:none"
           id="path2520" />
      </g>
      <g
         id="g2522"
         transform="translate(457.0459,679.4072)">
        <path
           d="M 0,0 C -0.595,-4.41 -15.504,-18.123 -20.95,-18.871 -22.64,3.801 -8.701,-5.612 -7.339,-1.031 -7.015,0.062 0.276,-0.949 0,0"
           style="fill:#6e4d28;fill-opacity:1;fill-rule:evenodd;stroke:none"
           id="path2524" />
      </g>
      <g
         id="g2526"
         transform="translate(453.4648,682.2241)">
        <path
           d="M 0,0 C -0.354,-4.437 6.934,-20.334 12.097,-22.219 14.045,-5.992 9.831,-3.881 6.952,-2.564 5.918,-2.091 -0.472,-0.87 0,0"
           style="fill:#6e4d28;fill-opacity:1;fill-rule:evenodd;stroke:none"
           id="path2528" />
      </g>
      <g
         id="g2530"
         transform="translate(439.6104,669.1802)">
        <path
           d="m 0,0 c 0,-0.565 -0.452,-1.023 -1.01,-1.023 -0.557,0 -1.01,0.458 -1.01,1.023 0,3.9 1.573,7.446 4.107,10.015 2.532,2.569 6.029,4.164 9.875,4.164 3.847,0 7.342,-1.595 9.875,-4.164 C 24.37,7.446 25.943,3.9 25.943,0 c 0,-0.565 -0.452,-1.023 -1.009,-1.023 -0.558,0 -1.01,0.458 -1.01,1.023 0,3.335 -1.346,6.368 -3.515,8.567 -2.169,2.2 -5.158,3.565 -8.447,3.565 -3.289,0 -6.279,-1.366 -8.447,-3.565 C 1.347,6.368 0,3.335 0,0"
           style="fill:#c5d0d9;fill-opacity:1;fill-rule:nonzero;stroke:none"
           id="path2532" />
      </g>
      <g
         id="g2534"
         transform="translate(439.249,671.5938)">
        <path
           d="m 0,0 c 0.747,0 1.461,-0.16 2.121,-0.455 l 0,-13.562 C 1.461,-14.31 0.747,-14.471 0,-14.471 c -1.539,0 -2.944,0.684 -4.014,1.81 l 0,10.851 C -2.944,-0.684 -1.539,0 0,0"
           style="fill:#c5d0d9;fill-opacity:1;fill-rule:evenodd;stroke:none"
           id="path2536" />
      </g>
      <g
         id="g2538"
         transform="translate(463.5479,671.5938)">
        <path
           d="m 0,0 c -0.784,0 -1.536,-0.16 -2.23,-0.455 l 0,-13.562 c 0.694,-0.293 1.446,-0.454 2.23,-0.454 1.618,0 3.097,0.684 4.222,1.81 l 0,10.851 C 3.097,-0.684 1.618,0 0,0"
           style="fill:#c5d0d9;fill-opacity:1;fill-rule:evenodd;stroke:none"
           id="path2540" />
      </g>
      <g
         id="g2542"
         transform="translate(470.0234,608.8535)">
        <path
           d="m 0,0 4.193,27.209 -45.427,0 L -37.042,0 0,0 Z"
           style="fill:#c5d0d9;fill-opacity:1;fill-rule:evenodd;stroke:none"
           id="path2544" />
      </g>
      <path
         d="m 422.098,603.052 58.81,0 0,6.292 -58.81,0 0,-6.292 z"
         style="fill:#c5d0d9;fill-opacity:1;fill-rule:evenodd;stroke:none"
         id="path2546" />
      <g
         id="g2548"
         transform="translate(382.894,641.9424)">
        <path
           d="m 0,0 c 5.675,1.354 13.579,4.566 14.61,-0.024 1.226,-5.457 2.739,-18.394 4.325,-30.961 0.342,-2.71 -3.131,-4.114 -3.996,-4.375 -3.865,-1.169 -7.184,-1.535 -11.462,-2.112 L -0.015,-0.024 C -0.016,-0.013 -0.005,-0.001 0,0"
           style="fill:#27557d;fill-opacity:1;fill-rule:evenodd;stroke:none"
           id="path2550" />
      </g>
      <g
         id="g2552"
         transform="translate(365.6602,641.9424)">
        <path
           d="m 0,0 c -7.167,1.709 -12.863,5.697 -14.114,0.069 -1.309,-5.893 -2.744,-18.803 -4.257,-30.862 -0.388,-3.089 2.829,-4.416 3.871,-4.687 3.71,-0.963 6.908,-1.436 11.024,-1.992 L 0.016,-0.024 C 0.017,-0.013 0.005,-0.001 0,0"
           style="fill:#27557d;fill-opacity:1;fill-rule:evenodd;stroke:none"
           id="path2554" />
      </g>
      <g
         id="g2556"
         transform="translate(360.0752,605.2031)">
        <path
           d="m 0,0 -0.187,-0.44 c 8.83,-1.118 19.69,-1.137 28.546,-0.059 -0.082,0.18 -0.161,0.346 -0.238,0.499 L 0,0 Z"
           style="fill:#27557d;fill-opacity:1;fill-rule:evenodd;stroke:none"
           id="path2558" />
      </g>
      <g
         id="g2560"
         transform="translate(356.5278,605.293)">
        <path
           d="m 0,0 c 1.958,5.647 -2.512,32.085 -4.981,36.947 1.404,4.991 14.479,6.095 17.96,8.931 1.65,-1.453 2.827,-1.784 4.699,-1.784 1.872,0 3.109,0.379 4.759,1.832 2.575,-2.098 16.072,-3.735 18.38,-8.727 C 38.19,31.629 33.371,5.105 35.457,0.024 26.666,-1.703 9.045,-1.825 0,0"
           style="fill:#3f73a1;fill-opacity:1;fill-rule:evenodd;stroke:none"
           id="path2562" />
      </g>
      <g
         id="g2564"
         transform="translate(365.3877,648.7725)">
        <path
           d="m 0,0 -0.417,-11.112 9.301,-23.612 9.17,23.612 L 17.483,0.306 13.578,2.448 4.12,2.398 0,0 Z"
           style="fill:#ffffff;fill-opacity:1;fill-rule:evenodd;stroke:none"
           id="path2566" />
      </g>
      <path
         d="m 369.509,655.053 9.291,0 0,-9.625 -9.291,0 0,9.625 z"
         style="fill:#d1a886;fill-opacity:1;fill-rule:evenodd;stroke:none"
         id="path2568" />
      <g
         id="g2570"
         transform="translate(375.7471,639.479)">
        <path
           d="M 0,0 0.647,1.368 -1.541,6.672 -3.693,1.454 -3.006,0 0,0 Z"
           style="fill:#fcb024;fill-opacity:1;fill-rule:evenodd;stroke:none"
           id="path2572" />
      </g>
      <g
         id="g2574"
         transform="translate(369.5063,651.1709)">
        <path
           d="M 0,0 4.7,-5.02 1.354,-13.966 -2.78,-1.845 0,0 Z"
           style="fill:#cccccc;fill-opacity:1;fill-rule:evenodd;stroke:none"
           id="path2576" />
      </g>
      <g
         id="g2578"
         transform="translate(366.7568,649.5693)">
        <path
           d="m 0,0 7.449,-35.647 -12.264,19.555 1.611,3.414 -3.5,2.79 4.751,8.813 L 0,0 Z"
           style="fill:#27557d;fill-opacity:1;fill-rule:evenodd;stroke:none"
           id="path2580" />
      </g>
      <g
         id="g2582"
         transform="translate(378.9653,651.2192)">
        <path
           d="M 0,0 -4.759,-5.068 -1.415,-14.014 2.78,-1.845 0,0 Z"
           style="fill:#cccccc;fill-opacity:1;fill-rule:evenodd;stroke:none"
           id="path2584" />
      </g>
      <g
         id="g2586"
         transform="translate(372.7407,636.1523)">
        <path
           d="M 0,0 3.006,0 4.569,-15.067 1.465,-22.23 -1.521,-15.067 0,0 Z"
           style="fill:#fcb024;fill-opacity:1;fill-rule:evenodd;stroke:none"
           id="path2588" />
      </g>
      <g
         id="g2590"
         transform="translate(369.5073,651.1714)">
        <path
           d="M 0,0 4.699,-5.021 1.282,-11.755 -2.78,-1.844 0,0 Z"
           style="fill:#ffffff;fill-opacity:1;fill-rule:evenodd;stroke:none"
           id="path2592" />
      </g>
      <g
         id="g2594"
         transform="translate(366.7568,649.5693)">
        <path
           d="m 0,0 7.449,-35.647 -11.072,21.116 1.836,2.622 -3.541,2.755 3.375,8.079 L 0,0 Z"
           style="fill:#3f73a1;fill-opacity:1;fill-rule:evenodd;stroke:none"
           id="path2596" />
      </g>
      <g
         id="g2598"
         transform="translate(381.8364,649.645)">
        <path
           d="m 0,0 -7.63,-35.723 12.263,19.556 -1.61,3.414 3.499,2.79 L 2.765,-1.278 0,0 Z"
           style="fill:#27557d;fill-opacity:1;fill-rule:evenodd;stroke:none"
           id="path2600" />
      </g>
      <g
         id="g2602"
         transform="translate(381.8364,649.645)">
        <path
           d="M 0,0 -7.63,-35.723 3.441,-14.607 1.605,-11.984 5.146,-9.229 2.765,-1.278 0,0 Z"
           style="fill:#3f73a1;fill-opacity:1;fill-rule:evenodd;stroke:none"
           id="path2604" />
      </g>
      <g
         id="g2606"
         transform="translate(378.9653,651.2207)">
        <path
           d="m 0,0 -4.759,-5.07 3.417,-6.735 4.122,9.96 L 0,0 Z"
           style="fill:#ffffff;fill-opacity:1;fill-rule:evenodd;stroke:none"
           id="path2608" />
      </g>
      <g
         id="g2610"
         transform="translate(372.7407,639.7275)">
        <path
           d="m 0,0 3.006,0 c 0.672,-1.393 0.619,-2.611 0,-3.8 L 0,-3.8 c -0.619,1.189 -0.671,2.407 0,3.8"
           style="fill:#fcb024;fill-opacity:1;fill-rule:evenodd;stroke:none"
           id="path2612" />
      </g>
      <g
         id="g2614"
         transform="translate(373.7832,603.9131)">
        <path
           d="M 0,0 C 0.079,2.617 0.276,5.727 0.596,10.39 0.916,5.726 1.128,2.615 1.224,0 0.816,-0.002 0.408,-0.002 0,0"
           style="fill:#27557d;fill-opacity:1;fill-rule:evenodd;stroke:none"
           id="path2616" />
      </g>
      <g
         id="g2618"
         transform="translate(363.9819,648.4868)">
        <path
           d="m 0,0 1.154,-10.652 9.255,-23.493 9.122,23.493 L 20.686,0 16.271,2.84 4.415,2.84 0,0 Z"
           style="fill:#ffffff;fill-opacity:1;fill-rule:evenodd;stroke:none"
           id="path2620" />
      </g>
      <path
         d="m 368.396,645.564 11.753,0 0,9.575 -11.753,0 0,-9.575 z"
         style="fill:#d1a886;fill-opacity:1;fill-rule:evenodd;stroke:none"
         id="path2622" />
      <g
         id="g2624"
         transform="translate(374.3242,649.502)">
        <path
           d="m 0,0 c 4.632,0 8.92,5.297 11.182,11.786 0.132,-0.137 0.281,-0.223 0.446,-0.25 0.921,-0.153 1.977,1.578 2.358,3.867 0.38,2.289 -0.059,4.269 -0.98,4.422 -0.066,0.01 -0.131,0.012 -0.198,0.004 C 13.26,27.87 9.928,35.297 0,35.297 c -9.936,0 -13.266,-7.439 -12.808,-15.487 -0.101,0.026 -0.201,0.031 -0.3,0.015 -0.921,-0.153 -1.361,-2.133 -0.981,-4.422 0.38,-2.289 1.436,-4.02 2.358,-3.867 0.196,0.033 0.37,0.149 0.52,0.333 C -8.958,5.342 -4.652,0 0,0"
           style="fill:#f2caa9;fill-opacity:1;fill-rule:evenodd;stroke:none"
           id="path2626" />
      </g>
      <g
         id="g2628"
         transform="translate(387.1338,669.3311)">
        <path
           d="m 0,0 c 0.452,8.041 -2.882,15.468 -12.81,15.468 -9.935,0 -13.267,-7.439 -12.809,-15.486 0.804,-0.201 1.641,-1.672 2.011,-3.587 0.648,-0.436 1.117,-0.182 1.117,1.439 0,4.786 0.592,9.026 3.734,10.038 2.991,0.962 3.648,-1.15 5.93,-1.15 2.282,0 3.002,1.989 5.931,1.15 3.039,-0.873 3.733,-5.252 3.733,-10.038 0,-1.556 0.432,-1.853 1.039,-1.489 C -1.744,-1.633 -0.841,-0.094 0,0"
           style="fill:#6b451d;fill-opacity:1;fill-rule:evenodd;stroke:none"
           id="path2630" />
      </g>
      <g
         id="g2632"
         transform="translate(375.8574,639.6445)">
        <path
           d="M 0,0 0.644,1.361 -1.533,6.639 -3.674,1.446 -2.991,0 0,0 Z"
           style="fill:#ffb269;fill-opacity:1;fill-rule:evenodd;stroke:none"
           id="path2634" />
      </g>
      <g
         id="g2636"
         transform="translate(368.3965,651.3267)">
        <path
           d="M 0,0 5.928,-5.043 2.6,-13.945 -2.766,-1.835 0,0 Z"
           style="fill:#cccccc;fill-opacity:1;fill-rule:evenodd;stroke:none"
           id="path2638" />
      </g>
      <g
         id="g2640"
         transform="translate(365.6304,649.4917)">
        <path
           d="m 0,0 8.694,-35.275 -12.203,19.457 1.603,3.396 -3.482,2.776 3.74,8.641 L 0,0 Z"
           style="fill:#27557d;fill-opacity:1;fill-rule:evenodd;stroke:none"
           id="path2642" />
      </g>
      <g
         id="g2644"
         transform="translate(380.2529,651.3267)">
        <path
           d="m 0,0 -5.929,-5.043 3.328,-8.902 5.366,12.11 L 0,0 Z"
           style="fill:#cccccc;fill-opacity:1;fill-rule:evenodd;stroke:none"
           id="path2646" />
      </g>
      <g
         id="g2648"
         transform="translate(372.8667,636.335)">
        <path
           d="M 0,0 2.991,0 4.545,-14.992 1.458,-22.118 -1.514,-14.992 0,0 Z"
           style="fill:#ffb269;fill-opacity:1;fill-rule:evenodd;stroke:none"
           id="path2650" />
      </g>
      <g
         id="g2652"
         transform="translate(368.3965,651.3267)">
        <path
           d="m 0,0 5.928,-5.043 -3.4,-6.703 -5.294,9.911 L 0,0 Z"
           style="fill:#ffffff;fill-opacity:1;fill-rule:evenodd;stroke:none"
           id="path2654" />
      </g>
      <g
         id="g2656"
         transform="translate(365.6304,649.4917)">
        <path
           d="m 0,0 8.694,-35.275 -11.016,21.009 1.827,2.609 -3.524,2.741 2.371,7.911 L 0,0 Z"
           style="fill:#3f73a1;fill-opacity:1;fill-rule:evenodd;stroke:none"
           id="path2658" />
      </g>
      <g
         id="g2660"
         transform="translate(383.0181,649.4917)">
        <path
           d="M 0,0 -8.694,-35.275 3.508,-15.818 1.905,-12.422 5.387,-9.646 1.649,-1.005 0,0 Z"
           style="fill:#27557d;fill-opacity:1;fill-rule:evenodd;stroke:none"
           id="path2662" />
      </g>
      <g
         id="g2664"
         transform="translate(383.0181,649.4917)">
        <path
           d="M 0,0 -8.694,-35.275 2.322,-14.266 0.495,-11.657 4.018,-8.916 1.649,-1.005 0,0 Z"
           style="fill:#3f73a1;fill-opacity:1;fill-rule:evenodd;stroke:none"
           id="path2666" />
      </g>
      <g
         id="g2668"
         transform="translate(380.2529,651.3267)">
        <path
           d="m 0,0 -5.929,-5.043 3.4,-6.703 5.294,9.911 L 0,0 Z"
           style="fill:#ffffff;fill-opacity:1;fill-rule:evenodd;stroke:none"
           id="path2670" />
      </g>
      <g
         id="g2672"
         transform="translate(372.8667,639.8911)">
        <path
           d="m 0,0 2.991,0 c 0.669,-1.385 0.616,-2.597 0,-3.781 L 0,-3.781 C -0.616,-2.597 -0.669,-1.385 0,0"
           style="fill:#ffb269;fill-opacity:1;fill-rule:evenodd;stroke:none"
           id="path2674" />
      </g>
      <g
         id="g2676"
         transform="translate(373.5728,603.9141)">
        <path
           d="M 0,0 C 0.49,-0.003 0.98,-0.005 1.47,-0.002 1.65,2.528 1.108,9.272 0.735,10.386 0.362,9.494 -0.178,2.663 0,0"
           style="fill:#27557d;fill-opacity:1;fill-rule:evenodd;stroke:none"
           id="path2678" />
      </g>
      <g
         id="g2680"
         transform="translate(362.4844,671.2725)">
        <path
           d="m 0,0 c 0,-0.574 -0.459,-1.039 -1.025,-1.039 -0.566,0 -1.024,0.465 -1.024,1.039 0,3.959 1.595,7.557 4.167,10.166 2.57,2.607 6.119,4.226 10.023,4.226 3.904,0 7.451,-1.619 10.023,-4.226 C 24.735,7.557 26.332,3.958 26.332,0 c 0,-0.574 -0.459,-1.039 -1.025,-1.039 -0.566,0 -1.025,0.465 -1.025,1.039 0,3.385 -1.366,6.463 -3.567,8.695 -2.202,2.233 -5.236,3.618 -8.574,3.618 -3.338,0 -6.373,-1.386 -8.574,-3.618 C 1.367,6.463 0,3.385 0,0"
           style="fill:#c5d0d9;fill-opacity:1;fill-rule:nonzero;stroke:none"
           id="path2682" />
      </g>
      <g
         id="g2684"
         transform="translate(362.1177,673.7222)">
        <path
           d="m 0,0 c 0.758,0 1.482,-0.163 2.153,-0.461 l 0,-13.765 C 1.482,-14.524 0.758,-14.687 0,-14.687 c -1.563,0 -2.988,0.694 -4.074,1.836 l 0,11.014 C -2.988,-0.694 -1.563,0 0,0"
           style="fill:#c5d0d9;fill-opacity:1;fill-rule:evenodd;stroke:none"
           id="path2686" />
      </g>
      <g
         id="g2688"
         transform="translate(386.7803,673.7222)">
        <path
           d="m 0,0 c -0.796,0 -1.559,-0.163 -2.265,-0.461 l 0,-13.765 c 0.706,-0.298 1.469,-0.461 2.265,-0.461 1.643,0 3.143,0.694 4.285,1.836 l 0,11.014 C 3.143,-0.694 1.643,0 0,0"
           style="fill:#c5d0d9;fill-opacity:1;fill-rule:evenodd;stroke:none"
           id="path2690" />
      </g>
      <g
         id="g2692"
         transform="translate(393.5283,608.8535)">
        <path
           d="m 0,0 4.193,27.209 -45.427,0 L -37.042,0 0,0 Z"
           style="fill:#c5d0d9;fill-opacity:1;fill-rule:evenodd;stroke:none"
           id="path2694" />
      </g>
      <path
         d="m 345.603,603.052 58.81,0 0,6.292 -58.81,0 0,-6.292 z"
         style="fill:#c5d0d9;fill-opacity:1;fill-rule:evenodd;stroke:none"
         id="path2696" />
    </g>
  </g>
</svg>
