<svg xmlns="http://www.w3.org/2000/svg" width="2048mm" height="2048mm" viewBox="0 0 7256.6924 7256.6925"><g transform="translate(0 6204.331)"><ellipse cx="3655.653" cy="-2597.17" rx="3478.33" ry="3486.205" fill="#00a1d4"/><path style="line-height:125%;-inkscape-font-specification:'Nimbus Mono Bold Oblique';text-align:start" d="M4282.502-4857.506L2524.018-4425.71c-361.113 86.352-510.268 227.65-510.268 494.56 0 180.557 117.77 314.022 290.47 314.022 78.507 0 102.053-.023 259.057-47.132l722.233-180.54-665.923 3238.063C3717.553-152.15 4955.59-150.97 5162.114-1562.982l93.39-443.626c28.024-135.43 42.05-266.183 42.05-392.272 0-583.744-280.226-910.644-775.242-910.644-226.107 0-432.534 62.046-606.006 180.276zm137.063 2014.94c256.846 0 406.29 186.8 406.29 513.7 0 88.73-9.315 196.132-32.666 289.533l-107.42 509.026c-102.74 485.676-387.61 803.235-719.18 803.235-256.85 0-401.62-186.805-401.62-518.375 0-107.406 9.35-191.458 28.03-284.86l107.41-509.026c102.74-485.676 387.57-803.234 719.14-803.234z" font-style="oblique" font-weight="bold" font-size="406.971" font-family="Nimbus Mono" letter-spacing="0" word-spacing="0" fill="#fff"/></g></svg>