<svg xmlns="http://www.w3.org/2000/svg" xmlns:xlink="http://www.w3.org/1999/xlink" width="136.914" height="136.914" viewBox="0 0 136.914 136.914"><circle fill="#EDBF00" cx="68.457" cy="68.458" r="63.333"/><path fill="#202121" d="M92.667 104.536c0 5.816-2.082 7.898-7.898 7.898H53.172c-5.814 0-7.898-2.082-7.898-7.898V30.82c0-5.813 2.084-7.895 7.898-7.895h31.592c5.816 0 7.898 2.082 7.898 7.896v73.72z"/><path d="M73.89 25.92c0 .335-.392.6-.872.6h-7.72c-.48 0-.872-.265-.872-.6 0-.33.39-.597.873-.597h7.715c.48 0 .87.268.87.598z"/><circle cx="75.176" cy="25.966" r=".658"/><circle cx="76.932" cy="25.966" r=".658"/><path d="M84.124 26.24c0 .487-.395.886-.885.886s-.89-.398-.89-.887c0-.49.397-.89.886-.89.49 0 .884.4.884.886z"/><path fill="none" stroke="#121212" stroke-miterlimit="10" d="M73.782 108.183c0 .89-.543 1.615-1.213 1.615h-7.12c-.67 0-1.21-.725-1.21-1.615v-1.146c0-.893.54-1.615 1.21-1.615h7.115c.67 0 1.212.723 1.212 1.615v1.146z"/><linearGradient id="a" gradientUnits="userSpaceOnUse" x1="68.863" y1="31.48" x2="68.863" y2="103.001"><stop offset="0" stop-color="#5978BA"/><stop offset=".703" stop-color="#4E9DB8"/><stop offset="1" stop-color="#379CC9"/></linearGradient><path fill="url(#a)" d="M47.473 31.48h42.78V103h-42.78z"/><g fill="#fff"><circle cx="68.958" cy="86.407" r="1.206"/><circle cx="73.346" cy="86.407" r=".768"/><circle cx="76.856" cy="86.407" r=".768"/><circle cx="61.06" cy="86.407" r=".769"/><circle cx="64.571" cy="86.407" r=".768"/></g><path opacity=".5" fill="#202121" d="M47.473 31.48h42.76v3.585h-42.76z"/><circle fill="#fff" cx="83.835" cy="33.163" r=".913"/><circle fill="#fff" cx="49.666" cy="33.163" r=".913"/><circle fill="#fff" cx="88.003" cy="33.163" r=".913"/><defs><path id="b" d="M47.473 31.48h42.78V103h-42.78z"/></defs><clipPath><use xlink:href="#b" overflow="visible"/></clipPath><path fill="#B5DBAF" d="M57.952 79.837c0 .814-.66 1.475-1.475 1.475h-4.305c-.816 0-1.477-.66-1.477-1.475v-4.305c0-.816.66-1.477 1.477-1.477h4.305c.814 0 1.475.66 1.475 1.477v4.305z"/><path fill="#F6A2A3" d="M67.715 79.837c0 .814-.662 1.475-1.477 1.475h-4.303c-.816 0-1.477-.66-1.477-1.475v-4.305c0-.816.66-1.477 1.477-1.477h4.303c.814 0 1.477.66 1.477 1.477v4.305z"/><path fill="#67B8CB" d="M77.477 79.837c0 .814-.66 1.475-1.475 1.475h-4.305c-.814 0-1.477-.66-1.477-1.475v-4.305c0-.816.662-1.477 1.477-1.477h4.305c.814 0 1.475.66 1.475 1.477v4.305z"/><path fill="#F5E554" d="M87.24 79.837c0 .814-.66 1.475-1.476 1.475H81.46c-.817 0-1.476-.66-1.476-1.475v-4.305c0-.816.658-1.477 1.475-1.477h4.3c.815 0 1.478.66 1.478 1.477v4.305z"/><defs><path id="c" d="M87.13 59.653c0 .814-.66 1.475-1.476 1.475H52.39c-.813 0-1.476-.66-1.476-1.475V40.43c0-.815.662-1.476 1.477-1.476H85.66c.816 0 1.475.66 1.475 1.477v19.226z"/></defs><clipPath><use xlink:href="#c" overflow="visible"/></clipPath><path fill="none" stroke="#67B8CB" stroke-width=".5" stroke-miterlimit="10" d="M87.13 67.552c0 .814-.66 1.473-1.476 1.473H52.39c-.813 0-1.476-.658-1.476-1.473v-1.674c0-.814.662-1.475 1.477-1.475H85.66c.816 0 1.475.66 1.475 1.475v1.674z"/><g fill="#DBF0F5"><circle cx="83.693" cy="66.252" r="1.095"/><path d="M85.674 68.247c-.086.086-.25.06-.365-.055l-1.236-1.232c-.113-.115-.14-.277-.055-.363l.11-.11c.085-.087.25-.06.366.056l1.23 1.23c.115.117.14.28.053.365l-.107.11z"/></g><path fill="#67B8CB" d="M56.276 96.315c0 .662-.537 1.2-1.2 1.2H51.57c-.666 0-1.203-.538-1.203-1.2v-3.508c0-.662.537-1.2 1.2-1.2h3.507c.664 0 1.2.538 1.2 1.2v3.508z"/><path fill="#F5E554" d="M64.23 96.315c0 .662-.542 1.2-1.204 1.2H59.52c-.664 0-1.2-.538-1.2-1.2v-3.508c0-.662.536-1.2 1.2-1.2h3.506c.662 0 1.203.538 1.203 1.2v3.508z"/><path fill="#B5DBAF" d="M72.178 96.315c0 .662-.54 1.2-1.2 1.2H67.47c-.66 0-1.202-.538-1.202-1.2v-3.508c0-.662.54-1.2 1.203-1.2h3.51c.66 0 1.2.538 1.2 1.2v3.508z"/><path fill="#D3D4E3" d="M80.13 96.315c0 .662-.538 1.2-1.202 1.2h-3.506c-.666 0-1.2-.538-1.2-1.2v-3.508c0-.662.534-1.2 1.2-1.2h3.506c.664 0 1.2.538 1.2 1.2v3.508z"/><path fill="#F6A2A3" d="M88.028 96.315c0 .662-.54 1.2-1.2 1.2H83.32c-.665 0-1.2-.538-1.2-1.2v-3.508c0-.662.535-1.2 1.2-1.2h3.507c.662 0 1.2.538 1.2 1.2v3.508z"/><path fill="#6CC077" d="M52.39 61.128h33.265c.816 0 1.475-.66 1.475-1.475v-5.348l-2.754-2.754s-1.564-2.014-3.018-1.932c-1.31.076-2.836 1.713-3.13 2.037L76.4 49.82s-1.833-2.363-3.536-2.268c-1.707.098-3.74 2.47-3.74 2.47l-.56.56-3.446-3.45s-2.254-2.903-4.348-2.784c-2.094.117-4.596 3.033-4.596 3.033l-5.258 5.26v7.016c0 .815.663 1.475 1.477 1.475z"/><path fill="#DBF0F5" d="M60.768 44.35c2.094-.12 4.348 2.784 4.348 2.784l3.447 3.45.56-.56s2.032-2.373 3.74-2.47c1.702-.097 3.534 2.267 3.534 2.267l1.832 1.836c.29-.324 1.82-1.96 3.125-2.037 1.453-.083 3.018 1.935 3.018 1.935l2.754 2.754V40.43c0-.815-.66-1.476-1.476-1.476H52.39c-.813 0-1.476.66-1.476 1.477v12.21l5.258-5.254s2.502-2.916 4.596-3.033z"/></svg>