<svg xmlns="http://www.w3.org/2000/svg" viewBox="0 0 7256.6924 7256.6925" height="2048mm" width="2048mm"><circle style="isolation:auto;mix-blend-mode:normal" cx="3659.095" cy="3615.843" r="3536.1" color="#000" overflow="visible" solid-color="#000000" fill="#4285f4"/><path style="line-height:125%;-inkscape-font-specification:'Nimbus Mono Bold Oblique';text-align:start" d="M4367.198 1108.52l-1986.42 487.765c-407.922 97.545-576.41 257.16-576.41 558.666 0 203.963 133.034 354.728 328.12 354.728 88.683 0 115.28-.025 292.636-53.24l815.85-203.943-752.24 3657.786c1240.286 513.51 2638.8 514.845 2872.093-1080.194l105.495-501.13c31.656-152.984 47.5-300.686 47.5-443.12 0-659.41-316.55-1028.682-875.73-1028.682-255.415 0-488.6 70.09-684.557 203.644zm154.83 2276.12c290.138 0 458.953 211.012 458.953 580.286 0 100.23-10.52 221.554-36.9 327.062l-121.342 575.007c-116.057 548.63-437.853 907.352-812.4 907.352-290.144 0-453.68-211.02-453.68-585.568 0-121.33 10.562-216.277 31.663-321.786l121.334-575.007c116.058-548.63 437.808-907.35 812.356-907.35z" font-style="oblique" font-weight="bold" font-size="406.971" letter-spacing="0" word-spacing="0" font-family="Nimbus Mono" fill="#fff"/></svg>