<svg xmlns="http://www.w3.org/2000/svg" width="136.913" height="136.914" viewBox="0 0 136.913 136.914"><circle fill="#344E5D" cx="68.457" cy="68.456" r="63.333"/><path fill="#E84849" d="M74.036 107.236c0 2.62-2.127 4.748-4.748 4.748h-35.21c-2.622 0-4.747-2.127-4.747-4.748l16.93-32.738c0-2.62 2.13-4.746 4.75-4.746h1.35c2.63 0 4.75 2.125 4.75 4.746l16.93 32.738z"/><path fill="#DB3F3E" d="M71.67 106.28c0 2.468-1.9 4.472-4.243 4.472h-31.49c-2.34 0-4.24-2.004-4.24-4.47l4.876-9.935s-.273-2.426 9.955-.89c10.225 1.54 18.996-1.694 18.996-1.694l6.147 12.518z"/><path fill="#E84849" d="M56.104 74.613c0 1.344-.656 2.434-1.467 2.434H48.58c-.813 0-1.47-1.09-1.47-2.434v-22.71c0-1.345.657-2.435 1.47-2.435h6.057c.81 0 1.467 1.09 1.467 2.435v22.71zm-4.492-29.728c-5.117 0-7.145.6-7.145 2.646 0 .06.016.12.02.18.23 1.96 2.157 5.65 7.124 5.65s6.89-3.68 7.12-5.64c.01-.06.02-.11.02-.17.01-2.04-2.02-2.64-7.13-2.64z"/><path fill="#DC3A3A" d="M51.612 48.41c3.834 0 5.355-.45 5.355-1.982 0-.464-1.436-1.057-5.096-1.057-3.65 0-5.62.33-5.62 1.06 0 1.54 1.53 1.99 5.37 1.99z"/><circle fill="#CBE9E6" cx="52.027" cy="36.511" r="5.532"/><path fill="#DFF1EF" d="M47.687 37.19c-.88-1.033.38-3.6 1.414-4.48 1.04-.882 3.43-1.605 4.31-.57.89 1.032-4.84 6.086-5.71 5.05z"/><circle fill="#CBE9E6" cx="48.083" cy="24.338" r="3.951"/><path fill="#DFF1EF" d="M44.98 24.826c-.63-.74.272-2.575 1.01-3.2.74-.63 2.45-1.148 3.077-.407.63.73-3.457 4.34-4.086 3.6z"/><circle fill="#CBE9E6" cx="59.721" cy="27.25" r="4.269"/><path fill="#DFF1EF" d="M56.372 27.775c-.682-.798.293-2.778 1.092-3.458.8-.68 2.645-1.236 3.32-.44.68.798-3.732 4.696-4.412 3.898z"/><path fill="#E84849" d="M57.282 72.793c0 1.607-.496 2.91-1.115 2.91h-9.14c-.616 0-1.116-1.303-1.116-2.91 0-1.605.5-2.908 1.12-2.908h9.14c.62 0 1.12 1.303 1.12 2.908z"/><path fill="#fff" d="M48.423 55.203c-.307 0-.56-.222-.576-.505-.014-.293.232-.54.55-.552.423-.02 4.14-.18 4.43-.18.32 0 .577.237.577.53 0 .292-.258.53-.576.53-.2 0-2.73.103-4.377.173h-.02zm0 3.174c-.307 0-.56-.22-.576-.503-.014-.294.232-.54.55-.554.423-.02 4.14-.18 4.43-.18.32 0 .577.237.577.53 0 .294-.258.53-.576.53-.2 0-2.73.103-4.377.174-.01.003-.01.003-.02.003zm0 3.175c-.307 0-.56-.222-.576-.506-.014-.29.232-.538.55-.552.423-.018 4.14-.178 4.43-.178.32 0 .577.236.577.53s-.258.528-.576.528c-.2 0-2.73.105-4.377.177-.01.01-.01.01-.02.01zm0 3.173c-.307 0-.56-.22-.576-.504-.014-.29.232-.53.55-.55.423-.02 4.14-.17 4.43-.17.32 0 .577.24.577.53s-.258.53-.576.53c-.2 0-2.73.11-4.377.18h-.02zm0 3.175c-.307 0-.56-.224-.576-.505-.014-.293.232-.54.55-.553.423-.02 4.14-.178 4.43-.178.32 0 .577.236.577.527 0 .3-.258.54-.576.54-.2 0-2.73.11-4.377.18l-.02.01z"/><path fill="#039A88" d="M107.028 63.38c5.008-5.873 6.654-11.06 4.496-14.325-2.02-3.06-7.162-3.682-13.9-1.786l-.008-.02h-.018c-2.154-6.76-5.46-10.61-9.156-10.61-3.963 0-7.408 4.32-9.54 11.89-2.32-.49-4.48-.76-6.405-.76-4.336 0-7.29 1.26-8.55 3.66-1.82 3.46.333 8.45 5.892 13.79l-.02.01.01.01c-5 5.86-6.64 11.05-4.48 14.31 1.25 1.89 3.65 2.89 6.95 2.89 2.04 0 4.39-.39 6.96-1.12 2.15 6.77 5.46 10.64 9.17 10.64 3.96 0 7.4-4.32 9.54-11.896 2.32.49 4.48.755 6.4.755 4.33 0 7.29-1.267 8.55-3.66 1.82-3.468-.34-8.467-5.91-13.808zM96.384 77.46c-1.566-.413-3.172-.915-4.81-1.522 1.093-.64 2.175-1.297 3.233-1.994.85-.564 1.686-1.148 2.506-1.744-.226 1.833-.542 3.587-.93 5.26zm-15.612 1.114c-.484-1.875-.873-3.877-1.15-6.002 1.13.682 2.28 1.344 3.45 1.96 1.116.587 2.26 1.134 3.415 1.66-1.95.954-3.86 1.744-5.715 2.382zm-5.71-11.743c-.202-.15-.395-.31-.595-.47-.424-.33-.838-.67-1.236-1.01-.09-.08-.19-.16-.28-.25.1-.1.2-.2.3-.31.39-.4.8-.81 1.22-1.21.2-.19.4-.39.61-.58.557-.52 1.13-1.03 1.725-1.55l.19-.17v.11c-.044.98-.067 1.96-.067 2.94 0 1.21.04 2.41.106 3.61.008.12.006.24.01.36l-.04-.03c-.66-.46-1.29-.93-1.91-1.41zM85.31 52.69c-1.094.638-2.178 1.297-3.234 1.994-.846.56-1.682 1.146-2.506 1.744.23-1.834.545-3.588.93-5.26 1.565.41 3.17.913 4.81 1.522zm5.193-.308c.88-.43 1.75-.822 2.61-1.188.233-.1.464-.184.694-.278.64-.26 1.27-.502 1.896-.725.137-.05.27-.09.408-.14l.11.41c.16.64.31 1.3.44 1.96l.15.72c.17.91.32 1.84.45 2.8l.01.11c-.1-.06-.2-.11-.3-.17-1.03-.61-2.08-1.21-3.15-1.77-1.02-.54-2.07-1.04-3.12-1.53-.09-.04-.18-.09-.27-.13.04-.012.07-.03.1-.05zm7.29 11.932c0 1.64-.06 3.297-.183 4.93-1.285.997-2.633 1.962-4.012 2.874-1.502.992-3.057 1.93-4.625 2.79-1.65-.7-3.29-1.478-4.883-2.313-1.623-.852-3.223-1.78-4.76-2.762-.045-.544-.08-1.092-.113-1.64-.02-.325-.047-.647-.063-.974-.043-.97-.066-1.94-.066-2.91 0-.87.02-1.74.053-2.61.02-.29.04-.57.05-.86l.09-1.48c1.3-1 2.64-1.97 4.01-2.87 1.5-.99 3.05-1.93 4.62-2.78.53.22 1.05.45 1.57.69.26.11.52.22.77.34.86.405 1.72.826 2.56 1.27.86.45 1.71.926 2.55 1.415.26.154.52.316.78.47.49.297.97.594 1.45.9.15 1.81.23 3.654.23 5.494zm2.063-3.974c1.47 1.037 2.828 2.106 4.082 3.195-1.22 1.293-2.557 2.576-4.025 3.833.045-1.018.072-2.04.072-3.055 0-1.326-.052-2.653-.13-3.972zm9.84-10.074c1.53 2.313-.107 6.72-4.28 11.637-1.726-1.5-3.66-2.96-5.77-4.355v-.002c-.062-.606-.136-1.2-.212-1.79-.016-.105-.023-.213-.04-.317-.106-.79-.23-1.56-.364-2.31-.04-.23-.088-.45-.13-.68-.103-.53-.206-1.04-.32-1.55-.06-.27-.124-.53-.19-.79-.06-.25-.112-.5-.175-.74 2.36-.67 4.54-1.02 6.354-1.02 1.76 0 4.08.33 5.12 1.9zm-21.254-11.43c2.605 0 5.273 3.454 7.072 9.087-.25.087-.506.19-.76.28-.242.087-.484.174-.73.267-.51.194-1.023.4-1.54.618-.2.083-.396.16-.595.246-.73.312-1.45.642-2.18.994-.07.03-.13.066-.2.1-.58.278-1.15.566-1.73.87h-.01c-2.31-.93-4.57-1.69-6.75-2.264 1.8-6.32 4.59-10.196 7.41-10.196zm-22.556 13.63c.844-1.607 3.19-2.49 6.61-2.49 1.753 0 3.72.226 5.86.674-.55 2.38-.947 4.93-1.19 7.6v.004c-.462.368-.907.74-1.347 1.114l-.24.19c-.57.49-1.13.983-1.66 1.48-.17.156-.33.315-.5.473-.38.35-.74.7-1.09 1.06l-.52.53c-.17.18-.35.35-.51.52-4.65-4.47-6.72-8.7-5.43-11.15zm6.427 27.804c-1.766 0-4.086-.33-5.127-1.906-1.53-2.313.11-6.72 4.28-11.638.155.137.325.27.485.408l.51.42c.38.31.76.615 1.15.918.15.117.29.232.44.347.55.41 1.11.82 1.69 1.23l.2.13c.44.3.87.6 1.32.89.3 2.92.78 5.66 1.43 8.17-2.36.66-4.54 1.01-6.35 1.01zm16.13 9.523c-2.606 0-5.276-3.454-7.075-9.087 2.496-.854 5.088-1.984 7.725-3.373h.004c2.303.93 4.566 1.69 6.752 2.266-1.8 6.31-4.6 10.19-7.41 10.19zm22.554-13.628c-.844 1.605-3.193 2.49-6.61 2.49-1.753 0-3.72-.227-5.86-.674.55-2.38.947-4.92 1.19-7.6 2.177-1.74 4.14-3.54 5.856-5.36 4.643 4.48 6.713 8.7 5.424 11.15z"/><circle fill="#00B39A" cx="93.63" cy="41.729" r="3.18"/><circle fill="#00B39A" cx="71.442" cy="80.901" r="3.179"/><circle fill="#00B39A" cx="99.108" cy="69.67" r="3.18"/></svg>