<svg xmlns="http://www.w3.org/2000/svg" width="136.914" height="136.914" viewBox="0 0 136.914 136.914"><circle fill="#49A0AE" cx="68.457" cy="68.458" r="63.333"/><path fill-rule="evenodd" clip-rule="evenodd" fill="#D7AF8F" d="M98.42 71.13c-2.27 6.866-11.612 13.007-20.075 8.33-.137 2.603-.127 5.075.64 7.047.446 1.146 1.432 1.732 1.282 2.776-3.787-1-2.204-6.103-2.776-10.038-.385-2.673-3.68-3.99-2.99-7.048-1.942.26-3.8.612-5.763.854.203 2.77 3.184 3.81 4.27 6.197 1.044 2.288 1.35 4.686 2.564 6.834 1.17 2.07 2.817 3.163 3.845 5.34-4.967-1.81-5.304-7.6-7.476-11.96-1.22-2.45-4.015-3.42-4.27-6.193-4.018.03-6.408-1.567-7.05-4.912-1.627-1.222-4-1.698-3.63-4.912-1.794-.635-2.825-.593-4.06.428-4.266-.603-8.547.65-10.893-2.135-.33-.393-.33-1.115-.64-1.71-.987-1.885-2.69-3.852-2.99-5.766-.456-2.913.454-6.02 1.92-8.543-.18-2.602 1.1-3.744 2.35-4.913 1.126-3.645 3.19-6.35 5.98-8.328.67.044 1.57-.145 1.923.213 1.743-1.814 3.43-3.687 7.046-3.63 2.78-2.63 7.006-2.354 10.892-2.35 1.045 0 1.97-.483 2.99-.43.55.03 1.137.595 1.707.64.875.076 1.903-.68 2.777-.64.5.025 1.52.507 2.136.64 1.035.23 1.877.235 2.564.43.634.18 1.083.853 1.71 1.067.26.09.855-.253 1.066-.213 1.97.367 4.2 2.14 5.553 3.203.59-.254.75-.605 1.498-.214 2.837 1.013 4.642 3.655 6.832 5.766 2.843 2.74 6.21 6.436 5.98 11.96 2.05 1.045 2.8 5.962 1.493 8.33.915 6.42-1.484 11.312-4.912 14.095-.69.125-.99-.144-1.492-.212zM70.23 27.347c.584.183 3.068 3.29.64 4.058-.423-.484.228-1.193 0-2.136-2.49-3.068-8.872-1.67-11.96 0-.06.37.602 1.06 0 1.28-2.188-1.48-5.72.613-7.262 2.35-.62.743.12 1.53-.854 1.92-.756-.17-.253-1.598-1.28-1.495-3.144 1.484-4.652 4.604-5.98 7.902.713-.216.7.295.64.853-2.618-.39-3.163 2.363-2.562 4.486-3.235 1.84-2.76 10.243.427 12.387.475-1.03 2.16-2.846 3.414-1.71-1.443.693-3.092 1.182-2.99 3.42 2.225 2.45 9.36 3.003 11.96 1.066.866.13 1.257.735 2.35.64.392-.248.147-1.134 1.067-.854-.15 3.356 1.017 5.392 3.63 5.98.32 6.17 8.31 4.924 13.244 3.844-.338-1.31 1.35-.99 1.71-2.135-.347-1.222-1.774-1.36-1.924-2.776 1.46.46 2.5 1.344 2.564 3.202-.096.76-.865.843-1.282 1.28 4.08-.347 9.72-2.82 8.544-7.687-.314-1.3-1.56-1.38-2.137-2.777 4.57.704 3.15 8.266-.214 9.183 3.44-.187 5.41-1.85 7.26-3.63.016-.73-.29-1.366 0-2.135.36-.952 1.4-.698 2.137-1.495.295-.316.313-1.245.64-1.707.93-1.307 2.17-2.08 2.99-1.923-.966 1.597-2.93 2.196-3.202 4.486-3.933.812-1.026 3.71.855 4.483 2.536 1.04 5.625 1.965 7.262 2.56.262-.45.59-.833.852-1.28-.57-.284-1.25-.46-1.068-1.497 1.045-.19 1.003.705 2.135.427.776-1.005 1.216-2.344 1.71-3.63.127-.84-1.172-.25-.854-1.28 1.494-.043 1.338-2.897 1.28-5.126-.65-.024-1.456.886-1.708 0 .05-1.018 1.39-.747 1.922-1.282.383-2.292.468-5.978-1.494-6.62-.264.52-.182 1.386-.855 1.494-1.394-1.325 1.11-2.063.643-3.845-.01-.7-.912-.51-.853-1.28.404-2.98-1.83-5.136-3.205-7.05-3.695-.83-3.088 3.73-5.127 3.847 1.01-1.837 1.182-4.51 4.057-4.484.112-1.11-.92-1.075-1.495-1.495-1.726-1.977-3.16-4.244-5.98-5.125.155.78 1.616 2.66.214 2.99-.85-3.35-3.77-4.634-6.833-5.768.167 1.036 1.178 3.94-.214 4.485-.664-1-.104-3.13-.855-4.486-1.06-.812-2.97-1.503-4.27-.854-.246-.535-.895-.67-1.28-1.066-2.914.687-4.08.09-6.414-.003zm19.434 39.298c-1.905 1.68-4.18 3.577-6.835 3.844-.55.052-1.127-.48-1.71-.43-1.828.154-3.596 2.44-5.98 1.71.672 5.89 4.87 9.024 11.104 8.33 5.582-.628 9.44-5.248 11.105-9.4-2.19-1.724-5.806-2.025-7.688-4.058z"/><path fill-rule="evenodd" clip-rule="evenodd" fill="#E9C29C" d="M76.636 27.347c.387.396 1.035.53 1.28 1.067 1.303-.648 3.212.043 4.272.854.752 1.354.19 3.487.854 4.485 1.392-.544.38-3.45.214-4.485 3.065 1.134 5.982 2.418 6.834 5.768 1.402-.33-.06-2.21-.214-2.99 2.82.88 4.255 3.148 5.98 5.125.576.42 1.607.39 1.495 1.5-2.87-.027-3.045 2.646-4.055 4.483 2.04-.114 1.432-4.676 5.127-3.843 1.374 1.91 3.61 4.064 3.203 7.047-.06.77.845.58.854 1.28.465 1.782-2.037 2.52-.643 3.846.674-.107.592-.975.855-1.493 1.96.643 1.875 4.328 1.492 6.62-.53.535-1.87.265-1.922 1.282.253.885 1.06-.025 1.71 0 .057 2.23.213 5.082-1.28 5.124-.32 1.03.98.443.853 1.28-.494 1.287-.934 2.626-1.71 3.632-1.13.278-1.09-.618-2.134-.428-.186 1.038.494 1.213 1.065 1.495-.263.45-.59.833-.854 1.282-1.635-.596-4.724-1.52-7.26-2.563-1.88-.77-4.787-3.67-.854-4.483.273-2.29 2.236-2.89 3.203-4.484-.82-.156-2.063.616-2.99 1.923-.33.46-.348 1.39-.643 1.707-.736.797-1.775.543-2.136 1.495-.29.77.016 1.404 0 2.136-1.85 1.78-3.82 3.443-7.26 3.632 3.36-.917 4.783-8.48.213-9.184.578 1.4 1.822 1.48 2.137 2.777 1.175 4.868-4.466 7.34-8.545 7.69.417-.44 1.187-.52 1.282-1.28-.065-1.86-1.105-2.744-2.564-3.206.15 1.417 1.577 1.555 1.923 2.776-.36 1.143-2.048.823-1.71 2.135-4.936 1.08-12.923 2.325-13.242-3.845-2.615-.588-3.783-2.623-3.63-5.98-.92-.278-.677.607-1.068.855-1.093.096-1.483-.51-2.35-.64-2.6 1.936-9.735 1.384-11.96-1.068-.102-2.237 1.547-2.726 2.99-3.418-1.255-1.14-2.94.676-3.418 1.71-3.188-2.147-3.663-10.55-.428-12.39-.6-2.124-.056-4.877 2.563-4.486.06-.558.072-1.068-.64-.854 1.327-3.3 2.836-6.417 5.978-7.9 1.03-.104.527 1.324 1.28 1.494.977-.39.238-1.176.857-1.922 1.544-1.733 5.074-3.826 7.263-2.35.602-.216-.06-.906 0-1.28 3.09-1.67 9.47-3.065 11.96 0 .23.94-.423 1.65 0 2.135 2.43-.77-.056-3.876-.64-4.06 2.34.094 3.506.69 6.413 0zm-2.99 8.757c-4.605.117-8.1 8.463-1.494 8.97.277 1.53 1.71 2.946 3.203 2.563-.935-1.06-2.45-1.538-2.777-3.203-6.25-.406-2.654-7.708 1.71-7.688-.29-4.56 2.802-5.742 5.34-7.476-.306-.05-.362-.352-.642-.427-2.524 1.677-5.548 2.852-5.34 7.26zM59.55 31.19c.678 1.175 2.168 1.536 2.35 3.205 3.745-.686 7.336.252 9.184 2.137-.27-2.777-5.27-3.384-8.757-2.99-.392-1.212-1.498-2.727-2.777-2.35zm23.28 5.555c1.962-.955 3.482.894 4.698.64-.475-1.224-4.113-2.782-4.7-.64zM46.947 38.24c.706.44 1.48-.568 2.777-.214 1.223.7 1.744 2.1 2.135 3.63 3.62-.42 5.29 1.115 5.765 3.846.98-.083 1.375-.485 2.135-.428 2.608.2 3.314 3.692 4.7 4.485-.313-2.49-2.58-5.937-6.407-4.917.087-1.438-.9-1.806-1.28-2.776 1.196-1.374 4.402.082 5.338-.64-1.536-1.407-4.72-.8-6.19.212-.875-.55-2.124-.727-3.63-.64.11-2.69-3.56-5.016-5.344-2.564zm40.793 5.552c.266 2.472-1.168 3.245-3.63 2.99-.227 2.18-2.668 3.744-4.912 2.563-.67 1.754-3.62 1.025-4.484 0 .595 4.172-7.94 2.48-10.465 4.912-1.988-2.075-6.598-1.52-7.266-4.912-1.02-.51-3.413-1.154-4.06.214 3.474-.86 4.52 2.23 6.408 3.63 2.68-.26 3.693 1.144 5.126 2.133 2.306-2.892 9.233-1.16 11.105-4.485.485.37 1.193.516 2.137.427.768-.23 1.324-.668 1.922-1.067 2.123 1.096 4.52-.764 5.125-2.56 2.595.033 3.977-1.15 3.63-4.06 1.11-.382 2.476-.514 2.563-1.92-2.394 2.102-6.386 1.13-7.262-1.71-.563 2.367 1.954 3.442 4.06 3.843zm2.35 4.914c-1.778 3.346-4.753 5.497-8.755 6.62 1.648 1.196 3.04-.618 4.912 0 .725.84.493 2.64 1.067 3.63 2.128.172 5.88 1.113 5.767-1.066-1.285.93-3.192.534-5.122.426-.578-.63-.358-2.062-.64-2.99-.39-.538-1.404-.447-1.71-1.067 1.837-1.585 4.212-2.626 5.34-4.916 1.92-.215 3.302-.97 3.63-2.776-.045-.24-.236-.333-.426-.428-.635 1.57-1.804 2.608-4.06 2.563zm-47.198.425c3.61-.233 5.037 3.49 6.62 5.98-1.09.34-2.296.556-2.563 1.71 1 .36 1.77-1.165 3.2-1.065 1.905 1.085 4.263 1.718 5.126 3.845.73-.777-.743-2.018-.43-2.35 1.75-.147 2.67 1.552 3.846 1.28-.458-1.34-3.03-2.544-4.485-1.495-1.146-1.132-2.11-.728-3.203-1.495-2.89-2.028-3.177-7.894-8.33-7.26-.017.37.048.663.214.852zm17.086 11.54c.966.37 1.18-.548 2.135-.642 2.49-.242 3.902 1.37 4.06 4.06 2.288-.72 4.507.276 5.338 1.707 1.437-1.746 4.705-.693 5.98-.212-.495-1.9-4.26-1.8-5.763-.854-1.108-1.065-2.954-1.917-4.912-1.495.153-3.377-4.975-5.653-6.834-2.563zm38.443.64c.72.707-.015 2.865.858 3.416.585-.667.14-1.538.428-2.135 1.04-.336 2.398.72 2.35-.43-.556-.65-1.918-.406-2.777-.212-.12-1.377-.798-2.193-2.136-2.35-.137 1.135 1.12.873 1.28 1.71zm-24.77 8.33c-.678-3.164-4.788-.763-7.476-1.282-2.032-.395-1.817-1.832-3.63-2.563.16 4.763 8.103 1.91 11.106 3.845z"/><path fill-rule="evenodd" clip-rule="evenodd" fill="#D7AF8F" d="M78.985 28.842c.28.075.336.376.64.427-2.536 1.73-5.628 2.91-5.34 7.472-4.362-.02-7.96 7.282-1.708 7.688.328 1.666 1.843 2.145 2.777 3.204-1.492.384-2.926-1.032-3.203-2.563-6.6-.505-3.11-8.85 1.498-8.97-.207-4.406 2.817-5.58 5.34-7.26zm-16.66 4.7c3.487-.394 8.486.213 8.758 2.99-1.848-1.885-5.438-2.822-9.184-2.137-.186-1.67-1.676-2.03-2.35-3.204 1.28-.372 2.382 1.14 2.773 2.355zm25.203 3.843c-1.216.253-2.736-1.596-4.7-.64.587-2.142 4.225-.584 4.7.64zm-35.24 3.417c1.51-.085 2.758.09 3.63.64 1.472-1.013 4.656-1.618 6.194-.212-.936.723-4.142-.733-5.34.64.383.97 1.37 1.338 1.282 2.776 3.827-1.02 6.095 2.426 6.407 4.913-1.382-.797-2.09-4.29-4.695-4.49-.76-.057-1.154.346-2.135.43-.476-2.73-2.146-4.265-5.77-3.845-.39-1.53-.912-2.932-2.135-3.63-1.297-.355-2.07.653-2.777.213 1.782-2.454 5.456-.128 5.34 2.56zm31.396-.854c.876 2.84 4.868 3.812 7.262 1.71-.088 1.406-1.452 1.538-2.563 1.92.347 2.91-1.035 4.093-3.63 4.06-.606 1.797-3.003 3.656-5.126 2.562-.598.4-1.154.84-1.922 1.067-.943.09-1.65-.058-2.137-.427-1.872 3.324-8.8 1.594-11.105 4.485-1.433-.988-2.445-2.396-5.126-2.136-1.89-1.4-2.935-4.495-6.407-3.635.646-1.368 3.038-.725 4.06-.214.667 3.39 5.276 2.838 7.26 4.913 2.524-2.432 11.06-.74 10.466-4.912.863 1.026 3.813 1.755 4.484 0 2.244 1.183 4.686-.383 4.912-2.562 2.462.255 3.896-.52 3.63-2.99-2.107-.4-4.624-1.475-4.058-3.843zM94.15 46.14c.188.096.38.19.425.43-.328 1.807-1.71 2.56-3.63 2.775-1.128 2.29-3.503 3.33-5.34 4.912.306.62 1.32.53 1.71 1.068.28.928.062 2.358.64 2.99 1.93.107 3.837.504 5.126-.427.117 2.18-3.635 1.238-5.763 1.067-.574-.992-.343-2.79-1.067-3.63-1.874-.62-3.265 1.195-4.913 0 4.002-1.124 6.977-3.275 8.756-6.62 2.255.046 3.424-.99 4.06-2.564zm-51.473 2.138c5.153-.632 5.44 5.233 8.33 7.26 1.093.77 2.057.364 3.203 1.496 1.456-1.05 4.027.156 4.485 1.495-1.175.27-2.097-1.43-3.845-1.285-.314.333 1.158 1.573.428 2.35-.863-2.127-3.22-2.76-5.126-3.845-1.43-.1-2.204 1.43-3.204 1.068.268-1.157 1.475-1.374 2.563-1.71-1.58-2.493-3.01-6.217-6.62-5.98-.16-.19-.23-.48-.21-.853zm24.135 14.95c1.958-.422 3.804.43 4.912 1.494 1.504-.946 5.268-1.045 5.767.855-1.275-.48-4.544-1.534-5.98.213-.83-1.43-3.05-2.427-5.335-1.708-.156-2.688-1.568-4.3-4.06-4.06-.954.095-1.168 1.014-2.134.643 1.86-3.09 6.987-.813 6.834 2.563zm30.328-3.63c1.338.155 2.016.972 2.135 2.35.86-.195 2.222-.437 2.776.212.05 1.146-1.31.092-2.345.428-.29.597.157 1.468-.428 2.135-.872-.55-.14-2.71-.854-3.417-.16-.837-1.416-.575-1.28-1.71zm-34.6 6.192c1.813.732 1.598 2.17 3.63 2.564 2.69.52 6.8-1.882 7.476 1.28-3.003-1.933-10.946.92-11.106-3.843z"/><path fill-rule="evenodd" clip-rule="evenodd" fill="#E9C29C" d="M97.353 70.703c-1.666 4.152-5.523 8.772-11.105 9.397-6.238.697-10.433-2.438-11.106-8.33 2.387.73 4.154-1.553 5.98-1.708.585-.05 1.16.482 1.708.427 2.656-.27 4.93-2.17 6.835-3.848 1.88 2.033 5.496 2.334 7.688 4.058z"/><path fill-rule="evenodd" clip-rule="evenodd" fill="#BEBEBE" d="M99.702 108.08c-1.814-4.267-5.277-11.774-6.62-17.728-1.603-7.09 6.983-15.475 10.037-19.65 3.79-5.187 5.26-14.053 3.2-22.424-1.758-7.137-6.286-11.887-11.96-15.805-6.605-4.56-15.237-8.296-26.698-7.476-4.986.357-10.94 2.153-15.164 4.06-7.667 3.457-14.2 10.02-15.377 19.648-.254 2.086.353 4.313.215 6.833-.388 7.095-6.046 9.52-9.397 14.523 1.95 3.167 9.436 4.877 4.914 10.04.63 1.22 2.95.75 3.63 1.92.155 1.725-1.925 1.21-2.35 2.35 1.11 1.65 2.104 1.606 2.564 3.208 1.29 4.484-3.67 9.932 2.99 10.892 5.935.854 12.505-2.447 18.794-1.28 1.67 1.26 2.427 3.685 2.99 6.406.497 2.387 1.754 5.297.855 7.047-2.176-.41-2.177-3.442-2.563-5.552-.443-2.425-.834-4.61-2.135-5.98-8.44-1.135-15.817 4.044-21.57.217-.99-.66-1.947-2.157-2.14-3.204-.454-2.494 1.355-4.647.855-7.475-.377-2.142-4.084-2.95-1.922-5.98-2.873-.604-1.855-4.553-.427-5.98-1.58-2.928-6.265-2.458-6.407-6.407-.108-2.972 3.032-4.235 4.483-5.767 1.61-1.698 4.27-5.35 4.7-7.69.445-2.442-.297-4.818-.216-6.62.48-10.612 7.15-17.908 14.95-21.997 4.4-2.308 10.066-4.02 14.95-4.912 12.083-2.205 24.76 2.963 32.676 8.97 7.59 5.76 12.398 14.097 11.747 25.845-.403 7.306-2.526 11.32-6.19 15.804-1.628 1.988-3.26 3.96-4.698 6.192-1.433 2.224-3.723 5.812-3.42 9.184.285 3.146 1.936 6.612 2.99 9.61 1.06 3.01 2.9 5.765 2.99 9.184H99.7z"/></svg>