<svg xmlns="http://www.w3.org/2000/svg" width="136.914" height="136.914" viewBox="0 0 136.914 136.914"><circle fill="#49A0AE" cx="68.457" cy="68.458" r="63.333"/><path fill-rule="evenodd" clip-rule="evenodd" fill="#D7AF8F" d="M98.42 71.13c-2.27 6.866-11.612 13.007-20.075 8.33-.137 2.603-.127 5.075.64 7.047.446 1.146 1.432 1.732 1.282 2.776-3.787-1-2.204-6.103-2.776-10.038-.38-2.673-3.68-3.99-2.99-7.048-1.94.26-3.8.612-5.76.854.21 2.77 3.19 3.81 4.27 6.2 1.05 2.29 1.35 4.69 2.57 6.84 1.17 2.07 2.817 3.163 3.845 5.34-4.967-1.81-5.304-7.6-7.476-11.96-1.22-2.45-4.015-3.42-4.27-6.193-4.018.03-6.408-1.567-7.05-4.912-1.627-1.22-4-1.697-3.63-4.91-1.794-.636-2.825-.594-4.06.427-4.266-.603-8.547.65-10.893-2.135-.33-.393-.33-1.115-.64-1.71-.985-1.885-2.69-3.852-2.99-5.766-.454-2.913.456-6.02 1.92-8.543-.18-2.603 1.1-3.745 2.35-4.914 1.128-3.644 3.19-6.35 5.98-8.33.67.047 1.57-.142 1.925.216 1.744-1.813 3.43-3.686 7.047-3.63 2.78-2.63 7.006-2.353 10.892-2.35 1.042 0 1.97-.48 2.99-.43.55.03 1.134.596 1.704.64.875.077 1.903-.68 2.777-.64.5.026 1.52.51 2.138.64 1.036.23 1.878.236 2.565.43.635.18 1.084.854 1.71 1.07.26.09.856-.255 1.067-.215 1.97.368 4.2 2.14 5.55 3.204.59-.256.75-.607 1.498-.216 2.837 1.013 4.642 3.655 6.832 5.766 2.842 2.74 6.21 6.436 5.98 11.96 2.05 1.045 2.8 5.962 1.492 8.33.916 6.42-1.483 11.312-4.91 14.095-.69.126-.99-.143-1.493-.21zM70.23 27.347c.584.183 3.068 3.29.64 4.058-.423-.484.228-1.193 0-2.136-2.49-3.07-8.872-1.67-11.96 0-.06.37.602 1.06 0 1.28-2.188-1.48-5.72.61-7.262 2.35-.62.74.12 1.53-.854 1.92-.756-.17-.253-1.6-1.28-1.5-3.144 1.48-4.652 4.6-5.98 7.9.713-.218.7.293.64.85-2.618-.39-3.163 2.363-2.562 4.486-3.235 1.84-2.76 10.243.427 12.387.47-1.03 2.16-2.847 3.41-1.71-1.448.692-3.09 1.18-2.99 3.42 2.22 2.45 9.36 3.002 11.96 1.065.86.13 1.252.734 2.35.64.39-.25.142-1.135 1.062-.855-.15 3.355 1.016 5.39 3.63 5.98.32 6.17 8.31 4.923 13.243 3.843-.338-1.31 1.35-.99 1.71-2.135-.347-1.22-1.774-1.36-1.924-2.775 1.46.46 2.5 1.343 2.564 3.2-.097.76-.866.843-1.283 1.28 4.08-.347 9.72-2.82 8.546-7.687-.315-1.3-1.56-1.38-2.138-2.78 4.57.705 3.15 8.267-.216 9.184 3.44-.187 5.41-1.85 7.26-3.63.018-.73-.29-1.366 0-2.135.36-.954 1.4-.7 2.14-1.497.294-.316.312-1.245.64-1.707.93-1.307 2.17-2.08 2.99-1.923-.967 1.598-2.93 2.197-3.203 4.487-3.933.813-1.026 3.71.855 4.484 2.536 1.04 5.625 1.966 7.262 2.56.26-.45.59-.832.85-1.28-.57-.283-1.25-.46-1.07-1.496 1.047-.19 1.005.706 2.137.428.777-1.004 1.217-2.343 1.71-3.63.128-.84-1.17-.25-.853-1.28 1.494-.042 1.338-2.896 1.28-5.125-.65-.024-1.456.886-1.71 0 .05-1.018 1.39-.747 1.924-1.28.383-2.294.468-5.98-1.494-6.62-.266.52-.184 1.384-.857 1.492-1.394-1.326 1.11-2.064.643-3.846-.01-.7-.91-.51-.852-1.28.404-2.98-1.83-5.136-3.205-7.05-3.697-.83-3.09 3.73-5.13 3.847 1.01-1.84 1.18-4.51 4.057-4.485.11-1.11-.92-1.073-1.496-1.493-1.724-1.976-3.16-4.243-5.98-5.124.157.78 1.618 2.66.216 2.99-.85-3.35-3.77-4.632-6.833-5.766.167 1.034 1.178 3.94-.214 4.483-.667-1-.107-3.13-.858-4.488-1.06-.81-2.97-1.503-4.27-.854-.246-.537-.895-.67-1.28-1.068-2.914.687-4.08.09-6.414-.003zm19.434 39.298c-1.905 1.68-4.18 3.577-6.835 3.844-.55.05-1.13-.48-1.71-.43-1.83.15-3.6 2.44-5.98 1.71.67 5.89 4.87 9.02 11.1 8.33 5.58-.63 9.44-5.25 11.1-9.4-2.19-1.73-5.806-2.03-7.688-4.06z"/><path fill-rule="evenodd" clip-rule="evenodd" fill="#E9C29C" d="M76.636 27.347c.387.396 1.035.53 1.28 1.067 1.303-.648 3.212.043 4.272.854.752 1.354.19 3.487.854 4.485 1.392-.544.38-3.45.214-4.485 3.065 1.134 5.982 2.418 6.834 5.768 1.402-.33-.06-2.21-.214-2.99 2.82.88 4.255 3.148 5.98 5.125.576.42 1.607.39 1.495 1.5-2.87-.02-3.04 2.65-4.05 4.49 2.04-.112 1.43-4.674 5.13-3.84 1.375 1.91 3.61 4.064 3.204 7.047-.06.77.845.58.854 1.28.466 1.783-2.036 2.52-.642 3.847.676-.107.594-.975.857-1.493 1.96.644 1.875 4.33 1.49 6.62-.53.536-1.87.266-1.92 1.283.252.883 1.06-.027 1.71 0 .056 2.23.212 5.08-1.28 5.122-.32 1.03.98.444.852 1.28-.494 1.288-.934 2.627-1.71 3.633-1.13.277-1.09-.62-2.134-.43-.184 1.04.496 1.214 1.067 1.496-.26.45-.59.834-.852 1.28-1.635-.593-4.724-1.52-7.26-2.56-1.88-.77-4.787-3.67-.854-4.483.274-2.29 2.237-2.89 3.204-4.483-.82-.155-2.062.617-2.99 1.924-.33.46-.347 1.39-.642 1.71-.734.797-1.773.543-2.134 1.495-.29.77.015 1.406 0 2.138-1.85 1.78-3.82 3.442-7.26 3.63 3.36-.916 4.782-8.48.212-9.183.58 1.4 1.823 1.48 2.138 2.775 1.175 4.87-4.466 7.34-8.545 7.69.418-.44 1.188-.52 1.283-1.28-.067-1.86-1.107-2.742-2.566-3.204.15 1.42 1.577 1.558 1.923 2.78-.36 1.14-2.048.82-1.71 2.133-4.936 1.08-12.923 2.325-13.242-3.845-2.613-.59-3.78-2.624-3.63-5.98-.92-.28-.675.606-1.066.854-1.092.096-1.482-.51-2.35-.64-2.6 1.936-9.734 1.384-11.96-1.07-.1-2.235 1.548-2.724 2.99-3.416-1.254-1.14-2.94.677-3.417 1.71-3.188-2.146-3.663-10.55-.428-12.39-.6-2.123-.057-4.876 2.562-4.485.06-.56.072-1.07-.64-.855 1.327-3.3 2.836-6.418 5.978-7.9 1.03-.105.53 1.323 1.28 1.493.98-.39.24-1.177.86-1.923 1.543-1.733 5.073-3.826 7.262-2.35.603-.216-.06-.906 0-1.28 3.09-1.67 9.47-3.065 11.96 0 .23.94-.422 1.65 0 2.135 2.43-.77-.055-3.877-.64-4.06 2.34.093 3.507.69 6.414 0zm-2.99 8.757c-4.605.117-8.1 8.463-1.494 8.97.277 1.53 1.71 2.946 3.203 2.563-.935-1.06-2.45-1.538-2.777-3.203-6.25-.406-2.654-7.708 1.71-7.688-.29-4.56 2.802-5.742 5.34-7.476-.306-.05-.362-.352-.642-.427-2.524 1.677-5.548 2.852-5.34 7.26zM59.55 31.19c.678 1.175 2.168 1.536 2.35 3.205 3.745-.686 7.336.252 9.184 2.137-.27-2.777-5.27-3.384-8.757-2.99-.392-1.212-1.498-2.727-2.777-2.35zm23.28 5.555c1.962-.955 3.482.894 4.698.64-.475-1.224-4.113-2.782-4.7-.64zM46.947 38.24c.706.44 1.48-.568 2.777-.214 1.223.7 1.744 2.1 2.135 3.63 3.62-.42 5.29 1.115 5.76 3.846.98-.083 1.37-.485 2.13-.428 2.608.2 3.314 3.692 4.7 4.485-.313-2.49-2.58-5.94-6.407-4.92.086-1.44-.9-1.81-1.28-2.78 1.195-1.376 4.4.08 5.337-.64-1.535-1.41-4.72-.8-6.19.21-.874-.55-2.123-.727-3.63-.64.11-2.69-3.56-5.016-5.343-2.564zm40.793 5.552c.266 2.472-1.168 3.245-3.63 2.99-.227 2.18-2.668 3.744-4.912 2.563-.67 1.754-3.62 1.025-4.484 0 .595 4.172-7.94 2.48-10.465 4.912-1.99-2.075-6.6-1.52-7.27-4.912-1.02-.51-3.418-1.154-4.06.214 3.47-.86 4.52 2.23 6.41 3.63 2.68-.26 3.69 1.14 5.12 2.13 2.306-2.89 9.233-1.16 11.105-4.49.485.37 1.193.515 2.137.426.766-.23 1.322-.668 1.92-1.067 2.123 1.096 4.52-.764 5.125-2.56 2.594.033 3.976-1.15 3.63-4.06 1.11-.38 2.475-.514 2.562-1.92-2.396 2.102-6.388 1.13-7.264-1.71-.564 2.367 1.953 3.442 4.06 3.843zm2.35 4.914c-1.778 3.346-4.753 5.497-8.755 6.62 1.648 1.196 3.04-.618 4.912 0 .725.84.493 2.64 1.067 3.63 2.128.172 5.88 1.113 5.767-1.066-1.28.93-3.19.534-5.12.426-.58-.63-.36-2.062-.64-2.99-.39-.538-1.4-.447-1.71-1.067 1.84-1.59 4.21-2.63 5.34-4.92 1.92-.22 3.3-.97 3.63-2.78-.04-.24-.23-.334-.42-.43-.634 1.57-1.803 2.608-4.06 2.563zm-47.198.425c3.61-.23 5.037 3.49 6.62 5.98-1.09.34-2.296.56-2.563 1.71 1 .36 1.77-1.16 3.2-1.06 1.9 1.09 4.26 1.72 5.12 3.85.73-.777-.746-2.018-.43-2.35 1.75-.147 2.67 1.552 3.843 1.28-.458-1.34-3.03-2.544-4.485-1.495-1.146-1.132-2.11-.73-3.203-1.495-2.89-2.028-3.178-7.894-8.33-7.26-.018.37.047.663.213.852zm17.086 11.54c.966.37 1.18-.54 2.135-.64 2.49-.24 3.902 1.37 4.06 4.06 2.288-.72 4.507.28 5.338 1.71 1.44-1.742 4.71-.69 5.98-.21-.49-1.9-4.26-1.8-5.76-.852-1.11-1.064-2.95-1.916-4.91-1.494.157-3.377-4.97-5.653-6.83-2.563zm38.443.64c.72.71-.01 2.87.86 3.42.59-.662.14-1.54.43-2.13 1.04-.336 2.4.72 2.35-.43-.55-.65-1.92-.406-2.772-.212-.12-1.376-.797-2.192-2.135-2.35-.137 1.136 1.12.874 1.28 1.71zm-24.77 8.33c-.67-3.16-4.78-.76-7.47-1.28-2.03-.39-1.814-1.83-3.63-2.56.16 4.767 8.106 1.91 11.11 3.85z"/><path fill-rule="evenodd" clip-rule="evenodd" fill="#D7AF8F" d="M78.985 28.842c.28.075.336.376.64.427-2.536 1.73-5.628 2.91-5.34 7.47-4.362-.02-7.96 7.28-1.708 7.69.328 1.66 1.843 2.14 2.777 3.2-1.492.38-2.926-1.03-3.203-2.568-6.6-.506-3.11-8.85 1.5-8.97-.2-4.407 2.82-5.58 5.34-7.26zm-16.66 4.7c3.487-.394 8.486.213 8.758 2.99-1.848-1.885-5.438-2.822-9.184-2.137-.19-1.67-1.68-2.03-2.35-3.204 1.28-.37 2.38 1.14 2.77 2.36zm25.203 3.843c-1.216.253-2.736-1.596-4.7-.64.587-2.142 4.225-.584 4.7.64zm-35.24 3.417c1.51-.085 2.758.09 3.63.64 1.472-1.013 4.656-1.618 6.194-.212-.936.723-4.142-.733-5.34.64.383.97 1.37 1.338 1.282 2.776 3.827-1.02 6.095 2.426 6.407 4.913-1.38-.8-2.09-4.29-4.69-4.49-.76-.06-1.15.34-2.13.43-.476-2.73-2.146-4.27-5.77-3.85-.39-1.53-.91-2.93-2.135-3.63-1.297-.36-2.07.65-2.777.21 1.78-2.455 5.456-.13 5.34 2.56zm31.396-.854c.876 2.84 4.868 3.812 7.262 1.71-.088 1.406-1.452 1.538-2.563 1.92.347 2.91-1.035 4.093-3.63 4.06-.606 1.797-3.003 3.656-5.126 2.562-.598.4-1.154.84-1.922 1.067-.943.09-1.65-.058-2.137-.427-1.872 3.324-8.8 1.594-11.105 4.485-1.433-.988-2.445-2.396-5.126-2.136-1.89-1.4-2.935-4.5-6.407-3.64.646-1.37 3.038-.73 4.06-.218.667 3.39 5.276 2.837 7.26 4.912 2.524-2.433 11.06-.74 10.466-4.913.863 1.028 3.813 1.757 4.484 0 2.244 1.185 4.686-.38 4.912-2.56 2.462.255 3.896-.52 3.63-2.99-2.107-.4-4.624-1.475-4.058-3.843zM94.15 46.14c.188.096.38.19.425.43-.328 1.807-1.71 2.56-3.63 2.775-1.128 2.29-3.503 3.33-5.34 4.912.306.62 1.32.53 1.71 1.068.28.928.062 2.358.64 2.99 1.93.107 3.837.504 5.126-.427.12 2.18-3.63 1.238-5.76 1.067-.57-.992-.34-2.79-1.06-3.63-1.874-.62-3.265 1.195-4.913 0 4.003-1.124 6.978-3.275 8.757-6.62 2.255.046 3.424-.99 4.06-2.564zm-51.473 2.138c5.153-.632 5.44 5.233 8.33 7.26 1.093.77 2.057.364 3.203 1.496 1.456-1.05 4.027.156 4.485 1.495-1.175.27-2.097-1.43-3.845-1.29-.314.33 1.158 1.57.428 2.35-.863-2.13-3.22-2.76-5.126-3.85-1.43-.1-2.204 1.43-3.204 1.068.268-1.157 1.475-1.374 2.563-1.71-1.58-2.493-3.01-6.217-6.62-5.98-.16-.19-.23-.48-.21-.853zm24.135 14.95c1.958-.422 3.804.43 4.912 1.494 1.504-.946 5.268-1.045 5.767.855-1.27-.48-4.54-1.534-5.98.213-.83-1.43-3.05-2.427-5.33-1.708-.152-2.688-1.57-4.3-4.06-4.06-.95.095-1.17 1.014-2.13.643 1.86-3.09 6.987-.813 6.834 2.563zm30.328-3.63c1.338.155 2.016.972 2.135 2.35.86-.195 2.222-.437 2.776.212.05 1.146-1.31.092-2.34.428-.29.597.16 1.468-.43 2.135-.87-.55-.14-2.71-.85-3.417-.16-.837-1.415-.575-1.28-1.71zm-34.6 6.192c1.813.732 1.598 2.17 3.63 2.564 2.69.52 6.8-1.882 7.476 1.28-3.003-1.933-10.946.92-11.106-3.843z"/><path fill-rule="evenodd" clip-rule="evenodd" fill="#E9C29C" d="M97.353 70.703c-1.666 4.152-5.523 8.772-11.105 9.397-6.238.697-10.433-2.438-11.106-8.33 2.387.73 4.154-1.553 5.98-1.708.585-.05 1.16.482 1.708.427 2.656-.27 4.93-2.17 6.835-3.85 1.88 2.03 5.496 2.33 7.688 4.06z"/><path fill-rule="evenodd" clip-rule="evenodd" fill="#BEBEBE" d="M99.702 108.08c-1.814-4.267-5.277-11.774-6.62-17.728-1.603-7.09 6.983-15.475 10.037-19.65 3.79-5.187 5.26-14.053 3.2-22.424-1.76-7.137-6.29-11.887-11.96-15.805-6.61-4.56-15.24-8.296-26.7-7.476-4.99.357-10.94 2.153-15.17 4.06-7.668 3.457-14.2 10.02-15.378 19.648-.255 2.086.352 4.313.214 6.833-.388 7.095-6.046 9.52-9.397 14.523 1.95 3.17 9.436 4.88 4.914 10.04.63 1.22 2.95.75 3.63 1.92.155 1.73-1.925 1.21-2.35 2.35 1.11 1.65 2.104 1.61 2.564 3.21 1.29 4.49-3.67 9.93 2.99 10.89 5.934.86 12.504-2.44 18.793-1.28 1.67 1.26 2.427 3.69 2.99 6.41.497 2.39 1.754 5.3.855 7.05-2.177-.41-2.178-3.44-2.564-5.55-.442-2.425-.833-4.61-2.134-5.98-8.44-1.135-15.817 4.044-21.57.217-.99-.66-1.947-2.157-2.14-3.204-.454-2.494 1.355-4.647.855-7.475-.375-2.14-4.082-2.95-1.92-5.98-2.873-.603-1.855-4.552-.427-5.98-1.58-2.927-6.267-2.457-6.41-6.406-.107-2.972 3.033-4.235 4.484-5.767 1.61-1.696 4.27-5.35 4.7-7.69.444-2.44-.298-4.816-.217-6.62.48-10.61 7.15-17.906 14.95-21.995 4.4-2.31 10.068-4.02 14.95-4.914 12.085-2.205 24.76 2.963 32.678 8.97 7.59 5.76 12.398 14.097 11.747 25.845-.403 7.308-2.526 11.32-6.19 15.806-1.628 1.99-3.26 3.96-4.698 6.193-1.434 2.223-3.724 5.81-3.42 9.183.284 3.148 1.935 6.614 2.99 9.61 1.06 3.01 2.9 5.767 2.99 9.186H99.7z"/></svg>