<svg xmlns="http://www.w3.org/2000/svg" width="136.913" height="136.914" viewBox="0 0 136.913 136.914"><circle fill="#4ABC96" cx="68.456" cy="68.457" r="63.333"/><path fill="#505251" d="M76.77 105.905c-2.03-5.91-3.18-7.45-7.04-7.45-3.81 0-5.13 1.955-7.037 7.45-6.502.63-11.064 2.107-11.064 3.828 0 2.295 8.1 4.154 18.1 4.154s18.1-1.86 18.1-4.154c0-1.72-4.57-3.197-11.07-3.828z"/><path fill="#3D4040" d="M115.543 95.148c0 3.024-2.45 5.476-5.475 5.476 0 0-22.53 3.174-41.525 3.174-14.54 0-39.25-3.174-39.25-3.174-3.025 0-5.477-2.45-5.477-5.476V41.07c0-3.024 2.45-5.476 5.477-5.476h80.775c3.023 0 5.475 2.45 5.475 5.476v54.078z"/><path fill="#5DC0C1" d="M27.516 39.547h84.135v56.905H27.52z"/><circle fill="#FDF2F7" cx="52.655" cy="69.302" r="4.384"/><circle fill="#FDF2F7" cx="74.76" cy="61.84" r="4.383"/><circle fill="#FDF2F7" cx="96.585" cy="51.955" r="4.384"/><path fill="#357180" d="M111.45 43.433c-3.806-.975-6.608 2.007-10.157 5.777l-.783.83c.285.58.46 1.225.46 1.914 0 2.42-1.966 4.383-4.386 4.383-.805 0-1.55-.232-2.197-.61-3.787 2.894-8.578 5.292-15.248 5.9l-.02.003c0 .07.02.138.02.21 0 2.42-1.97 4.384-4.39 4.384-1.925 0-3.54-1.245-4.13-2.965-2.496.59-4.97 1.23-6.88 1.73l-1.7.43c-2.07.53-3.938 1.05-5.648 1.63.395.656.635 1.42.635 2.24 0 2.42-1.964 4.383-4.384 4.383-1.79 0-3.32-1.074-4.004-2.61-3.045 2.38-5.75 5.785-8.725 11.14-2.1 3.777-4.33 5.69-6.62 5.69h-.14c-2.864-.096-4.897-3.13-5.657-4.466v13.02h84.134V43.49l-.2-.06z"/><path fill="#FDF7FA" d="M27.506 81.497v1.956c.76 1.338 2.844 4.384 5.71 4.478.044.01.09.01.134.01 2.295 0 4.52-1.91 6.62-5.69 6.534-11.76 11.76-14.15 22.124-16.79l1.697-.44c4.36-1.13 11.65-3.02 15.4-3.36 11.45-1.042 17.387-7.35 22.15-12.42 3.55-3.77 6.5-6.75 10.31-5.77l-.006-.87c-4.307-1.1-7.195 2.05-10.945 6.036-4.67 4.95-10.48 11.12-21.59 12.14-3.814.35-11.148 2.25-15.53 3.384l-1.696.436C51.254 67.3 45.9 69.75 39.2 81.81c-1.966 3.538-3.97 5.306-5.95 5.234-3.055-.1-5.19-4.53-5.21-4.576l-.53-.97zm.01 1.943l-.004-.01z"/></svg>