<svg xmlns="http://www.w3.org/2000/svg" xmlns:xlink="http://www.w3.org/1999/xlink" width="136.913" height="136.914" viewBox="0 0 136.913 136.914"><circle fill="#4ABC96" cx="68.456" cy="68.457" r="63.333"/><path fill="#263A45" d="M51.928 115.945c-1.477 1.475-3.87 1.475-5.348 0l-23.848-23.85c-1.477-1.475-1.96-7.002-.482-8.48l45.244-45.243c1.477-1.477 4.596-1.72 6.07-.24L97.412 61.98c1.477 1.477 1.238 7.242-.24 8.72l-45.244 45.245z"/><defs><path id="a" d="M114.89 41.17l-.165-.167c-.123-.197-.264-.385-.436-.557L94.61 20.776c-1.22-1.22-3.193-1.22-4.412 0l-39.49 39.49c-1.093 1.094-1.196 2.795-.327 4.014-.87 1.218-.766 2.92.328 4.013L70.39 87.965c1.22 1.22 3.193 1.22 4.412 0l39.49-39.49c1.22-1.22 1.82-6.085.6-7.306z"/></defs><clipPath id="b"><use xlink:href="#a" overflow="visible"/></clipPath><g clip-path="url(#b)"><path fill="#989A9A" d="M74.797 84.353c-1.22 1.22-3.193 1.22-4.412 0L50.71 64.68c-.124-.124-.228-.26-.327-.4-.87 1.22-.766 2.92.328 4.013L70.39 87.965c1.22 1.22 3.193 1.22 4.412 0l38.263-38.262-2.304-1.31-35.96 35.96z"/><path fill="#C9C9C8" d="M82.326 32.263l-2.305-1.31-29.31 29.312c-1.09 1.096-1.193 2.795-.324 4.014.1-.14.203-.28.328-.4L82.33 32.26zm-11.94 52.09c1.22 1.22 3.192 1.22 4.41 0l35.96-35.96-28.43-16.13L50.71 63.878c-.124.125-.228.262-.327.4.1.14.203.277.328.402L70.39 84.353z"/><path fill="#989A9A" d="M114.89 41.17l-.165-.165c.752 1.205.61 2.81-.436 3.854l-3.537 3.53 2.305 1.31 1.23-1.23c1.217-1.22 1.82-6.083.6-7.304z"/><path opacity=".2" fill="#fff" d="M114.89 41.17l-.165-.165c.752 1.205.61 2.81-.436 3.854l-3.537 3.53 2.305 1.31 1.23-1.23c1.217-1.22 1.82-6.083.6-7.304z"/><path fill="#C9C9C8" d="M90.203 24.386c1.22-1.217 3.795-4.107 5.016-2.89l19.502 19.51c-.123-.198-.264-.388-.436-.56L94.61 20.776c-1.22-1.22-3.192-1.22-4.41 0l-10.18 10.18 2.305 1.307 7.877-7.878zm0 0l-7.877 7.877 28.43 16.13 3.533-3.534c1.043-1.05 1.184-2.65.432-3.858L95.22 21.498c-1.222-1.22-3.798 1.67-5.017 2.888z"/><path opacity=".2" fill="#fff" d="M114.725 41.005c-.123-.197-.264-.387-.436-.56L94.61 20.775c-1.22-1.22-3.193-1.22-4.412 0l-10.18 10.18 2.306 1.31 28.43 16.13 3.533-3.535c1.043-1.046 1.184-2.65.432-3.855z"/></g><path fill="#344E5D" d="M51.928 112.33c-1.477 1.477-3.87 1.477-5.348 0L22.732 88.482c-1.477-1.477-1.477-3.87 0-5.348L67.977 37.89c1.477-1.477 3.87-1.477 5.348 0l23.848 23.848c1.48 1.477 1.48 3.873 0 5.348L51.928 112.33z"/><path fill="#989897" d="M98.527 55.5c-.357.36-.936.36-1.293 0l-3.88-3.88c-.356-.356-.356-.935 0-1.292l2.667-2.666c.36-.357.94-.357 1.3 0l3.88 3.88c.355.356.355.935 0 1.292L98.53 55.5z"/><path fill="#807F7F" d="M97.535 49.443c-.316-.314-.818-.322-1.125-.016l-2.28 2.283c-.134.13-.194.3-.212.475l3.316 3.314c.357.355.936.355 1.293 0l2.512-2.51c-.03-.05-.05-.096-.09-.135L97.53 49.44z"/><path fill="#989897" d="M84.736 41.693c-.357.357-.938.357-1.293 0l-3.88-3.877c-.356-.357-.356-.938 0-1.295l2.667-2.662c.357-.357.938-.357 1.293 0l3.88 3.88c.358.356.358.937 0 1.294l-2.667 2.664z"/><path fill="#807F7F" d="M83.744 35.636c-.314-.314-.818-.322-1.125-.016l-2.285 2.283c-.133.13-.193.303-.21.475l3.315 3.314c.356.357.937.357 1.294 0l2.512-2.51c-.03-.043-.05-.092-.086-.13l-3.417-3.416z"/><path fill="#263A45" d="M47.502 94.755c1.908-1.906 2.143-4.852.71-7.018l2.022-2.023h.025v-.023l4.4-4.402 13.123.893c.275.02.545-.082.742-.277l3.793-3.792 1.92 1.92 5.434-5.437-5.436-5.436-5.438 5.438 2.16 2.158-3.484 3.486-11.017-.753 15.77-15.77 3.56 3.558.693-9.443-9.414.724 3.46 3.457-20.27 20.274-.003-10.567 2.945-2.947c1.764 1.29 4.248 1.144 5.842-.45 1.76-1.76 1.762-4.61 0-6.37-1.76-1.76-4.61-1.76-6.37 0-1.46 1.46-1.704 3.666-.747 5.383l-3.31 3.31c-.177.175-.278.425-.278.675V84.2l-1.866 1.865c-2.15-1.322-5-1.057-6.86.803-2.178 2.178-2.178 5.71 0 7.885 2.177 2.176 5.71 2.176 7.884 0z"/></svg>