<svg xmlns="http://www.w3.org/2000/svg" xmlns:xlink="http://www.w3.org/1999/xlink" width="136.913" height="136.914" viewBox="0 0 136.913 136.914"><circle fill="#4ABC96" cx="68.456" cy="68.457" r="63.333"/><path fill="#263A45" d="M51.928 115.945c-1.477 1.475-3.87 1.475-5.348 0l-23.848-23.85c-1.477-1.475-1.96-7.002-.482-8.48l45.244-45.243c1.477-1.477 4.596-1.72 6.07-.24L97.412 61.98c1.477 1.477 1.238 7.242-.24 8.72l-45.244 45.245z"/><defs><path id="a" d="M114.89 41.17l-.165-.167c-.123-.197-.264-.385-.436-.557l-19.68-19.67c-1.22-1.22-3.2-1.22-4.42 0L50.7 60.266c-1.092 1.094-1.195 2.795-.326 4.014-.87 1.218-.766 2.92.33 4.013l19.68 19.672c1.22 1.22 3.192 1.22 4.41 0l39.49-39.49c1.22-1.22 1.82-6.085.6-7.306z"/></defs><clipPath id="b"><use xlink:href="#a" overflow="visible"/></clipPath><g clip-path="url(#b)"><path fill="#989A9A" d="M74.797 84.353c-1.22 1.22-3.193 1.22-4.412 0L50.71 64.68c-.124-.124-.228-.26-.327-.4-.87 1.22-.766 2.92.328 4.013l19.68 19.672c1.22 1.22 3.2 1.22 4.42 0l38.266-38.262-2.304-1.31-35.96 35.96z"/><path fill="#C9C9C8" d="M82.326 32.263l-2.305-1.31-29.31 29.312c-1.09 1.096-1.19 2.795-.32 4.014.1-.14.21-.28.33-.4l31.61-31.62zm-11.94 52.09c1.22 1.22 3.192 1.22 4.41 0l35.96-35.96-28.43-16.13L50.71 63.878c-.124.125-.228.262-.327.4.1.14.203.277.328.402l19.68 19.673z"/><path fill="#989A9A" d="M114.89 41.17l-.165-.165c.752 1.205.61 2.81-.436 3.854l-3.54 3.53 2.3 1.31 1.23-1.23c1.213-1.22 1.82-6.09.6-7.31z"/><path opacity=".2" fill="#fff" d="M114.89 41.17l-.165-.165c.752 1.205.61 2.81-.436 3.854l-3.54 3.53 2.3 1.31 1.23-1.23c1.213-1.22 1.82-6.09.6-7.31z"/><path fill="#C9C9C8" d="M90.203 24.386c1.22-1.217 3.795-4.107 5.016-2.89l19.5 19.51c-.13-.198-.27-.388-.44-.56l-19.67-19.67c-1.22-1.22-3.2-1.22-4.41 0l-10.18 10.18 2.3 1.307 7.875-7.878zm0 0l-7.877 7.877 28.43 16.13 3.533-3.534c1.04-1.05 1.18-2.65.43-3.86l-19.5-19.5c-1.23-1.22-3.8 1.67-5.02 2.88z"/><path opacity=".2" fill="#fff" d="M114.725 41.005c-.123-.197-.264-.387-.436-.56l-19.68-19.67c-1.22-1.22-3.2-1.22-4.42 0l-10.18 10.18 2.303 1.31 28.43 16.13 3.533-3.535c1.043-1.046 1.184-2.65.432-3.855z"/></g><path fill="#344E5D" d="M51.928 112.33c-1.477 1.477-3.87 1.477-5.348 0L22.732 88.482c-1.477-1.477-1.477-3.87 0-5.348L67.977 37.89c1.477-1.477 3.87-1.477 5.348 0l23.848 23.848c1.48 1.477 1.48 3.873 0 5.348L51.928 112.33z"/><path fill="#989897" d="M98.527 55.5c-.357.36-.936.36-1.293 0l-3.88-3.88c-.356-.356-.356-.935 0-1.292l2.667-2.666c.36-.357.94-.357 1.3 0l3.88 3.88c.36.356.36.935 0 1.292L98.53 55.5z"/><path fill="#807F7F" d="M97.535 49.443c-.316-.314-.818-.322-1.125-.016l-2.28 2.283c-.134.13-.194.3-.212.475l3.316 3.314c.357.35.936.35 1.293 0l2.512-2.51c-.03-.05-.05-.1-.09-.14l-3.42-3.42z"/><path fill="#989897" d="M84.736 41.693c-.357.357-.938.357-1.293 0l-3.88-3.877c-.356-.357-.356-.938 0-1.295l2.667-2.66c.357-.35.938-.35 1.293 0l3.88 3.88c.358.36.358.94 0 1.3l-2.667 2.66z"/><path fill="#807F7F" d="M83.744 35.636c-.314-.314-.818-.322-1.125-.016l-2.29 2.283c-.14.13-.2.303-.21.475l3.31 3.314c.353.357.934.357 1.29 0l2.513-2.51c-.03-.043-.05-.092-.087-.13l-3.418-3.416z"/><path fill="#263A45" d="M47.502 94.755c1.908-1.906 2.143-4.852.71-7.018l2.022-2.023h.025v-.023l4.4-4.4 13.12.9c.27.02.54-.08.74-.274l3.79-3.792 1.92 1.92 5.43-5.436-5.436-5.436-5.438 5.44 2.16 2.158-3.485 3.486-11.02-.752 15.77-15.77 3.56 3.558.695-9.447-9.417.725 3.46 3.457L50.25 82.29l-.003-10.57 2.945-2.945c1.764 1.29 4.248 1.144 5.842-.45 1.76-1.76 1.76-4.61 0-6.37-1.76-1.76-4.61-1.76-6.37 0-1.46 1.46-1.705 3.666-.748 5.383l-3.31 3.31c-.178.175-.28.425-.28.675V84.2l-1.865 1.865c-2.15-1.322-5-1.057-6.86.803-2.17 2.178-2.17 5.71 0 7.885 2.18 2.176 5.71 2.176 7.89 0z"/></svg>