<?xml version="1.0" encoding="UTF-8" standalone="no"?>
<svg
   xmlns:dc="http://purl.org/dc/elements/1.1/"
   xmlns:cc="http://creativecommons.org/ns#"
   xmlns:rdf="http://www.w3.org/1999/02/22-rdf-syntax-ns#"
   xmlns:svg="http://www.w3.org/2000/svg"
   xmlns="http://www.w3.org/2000/svg"
   xmlns:sodipodi="http://sodipodi.sourceforge.net/DTD/sodipodi-0.dtd"
   xmlns:inkscape="http://www.inkscape.org/namespaces/inkscape"
   viewBox="0 0 7256.6924 7256.6925"
   height="2048mm"
   width="2048mm"
   id="svg2"
   version="1.1"
   inkscape:version="0.91 r13725"
   sodipodi:docname="bytewise.svg">
  <metadata
     id="metadata14">
    <rdf:RDF>
      <cc:Work
         rdf:about="">
        <dc:format>image/svg+xml</dc:format>
        <dc:type
           rdf:resource="http://purl.org/dc/dcmitype/StillImage" />
      </cc:Work>
    </rdf:RDF>
  </metadata>
  <defs
     id="defs12" />
  <sodipodi:namedview
     pagecolor="#ffffff"
     bordercolor="#666666"
     borderopacity="1"
     objecttolerance="10"
     gridtolerance="10"
     guidetolerance="10"
     inkscape:pageopacity="0"
     inkscape:pageshadow="2"
     inkscape:window-width="926"
     inkscape:window-height="480"
     id="namedview10"
     showgrid="false"
     inkscape:zoom="0.032521701"
     inkscape:cx="3628.3465"
     inkscape:cy="3628.3465"
     inkscape:window-x="0"
     inkscape:window-y="25"
     inkscape:window-maximized="0"
     inkscape:current-layer="svg2" />
  <path
     inkscape:connector-curvature="0"
     id="path8"
     style="font-style:oblique;font-weight:bold;font-size:406.9710083px;line-height:125%;font-family:'Nimbus Mono';-inkscape-font-specification:'Nimbus Mono Bold Oblique';text-align:start;letter-spacing:0;word-spacing:0;fill:#ffffff"
     d="M 4634.6817,80.912813 1888.2382,755.30241 c -563.9951,134.86667 -796.9491,355.54939 -796.9491,772.41599 0,281.9983 183.9361,490.4472 453.6632,490.4472 122.6142,0 159.3889,-0.036 404.6016,-73.6119 L 3077.5551,1662.5819 2037.5002,6719.8682 c 1714.8303,709.9851 3648.4269,711.8281 3970.9811,-1493.4869 l 145.8588,-692.866 c 43.7686,-211.5179 65.6748,-415.7311 65.6748,-612.66 0,-911.7057 -437.6639,-1422.2662 -1210.792,-1422.2662 -353.1395,0 -675.5423,96.905 -946.4751,281.5595 z M 4848.7501,3227.8956 c 401.1484,0 634.5537,291.7488 634.5537,802.3092 0,138.5807 -14.5484,306.3238 -51.0186,452.1998 l -167.7712,795.0093 c -160.4618,758.5407 -605.3788,1254.5121 -1123.233,1254.5121 -401.1546,0 -627.2599,-291.7566 -627.2599,-809.6108 0,-167.7493 14.603,-299.0238 43.7779,-444.9013 l 167.7556,-795.0093 C 3886.0164,3723.8639 4330.8709,3227.894 4848.7251,3227.894 Z"
     font-style="oblique"
     font-weight="bold"
     font-size="406.971"
     letter-spacing="0"
     word-spacing="0" />
</svg>
