<svg xmlns="http://www.w3.org/2000/svg" width="136.913" height="136.914" viewBox="0 0 136.913 136.914"><circle fill="#344E5D" cx="68.457" cy="68.456" r="63.333"/><path fill="#E84849" d="M74.036 107.236c0 2.62-2.127 4.748-4.748 4.748h-35.21c-2.622 0-4.747-2.127-4.747-4.748l16.93-32.738c0-2.62 2.127-4.746 4.75-4.746h1.35c2.625 0 4.75 2.125 4.75 4.746l16.93 32.738z"/><path fill="#DB3F3E" d="M71.67 106.28c0 2.468-1.9 4.472-4.243 4.472h-31.49c-2.34 0-4.24-2.004-4.24-4.47l4.876-9.935s-.273-2.426 9.955-.89c10.225 1.54 18.996-1.694 18.996-1.694l6.147 12.518z"/><path fill="#E84849" d="M56.104 74.613c0 1.344-.656 2.434-1.467 2.434H48.58c-.813 0-1.47-1.09-1.47-2.434v-22.71c0-1.345.657-2.435 1.47-2.435h6.057c.81 0 1.467 1.09 1.467 2.435v22.71zm-4.492-29.728c-5.117 0-7.145.6-7.145 2.646 0 .06.016.12.02.18.23 1.96 2.157 5.645 7.124 5.645s6.89-3.683 7.12-5.645c.01-.06.02-.118.02-.177.004-2.045-2.02-2.645-7.135-2.645z"/><path fill="#DC3A3A" d="M51.612 48.41c3.834 0 5.355-.45 5.355-1.982 0-.464-1.436-1.057-5.096-1.057-3.654 0-5.62.33-5.62 1.06 0 1.534 1.527 1.984 5.365 1.984z"/><circle fill="#CBE9E6" cx="52.027" cy="36.511" r="5.532"/><path fill="#DFF1EF" d="M47.687 37.19c-.88-1.033.38-3.6 1.414-4.48 1.04-.882 3.43-1.605 4.307-.57.884 1.032-4.84 6.086-5.717 5.05z"/><circle fill="#CBE9E6" cx="48.083" cy="24.338" r="3.951"/><path fill="#DFF1EF" d="M44.98 24.826c-.63-.74.272-2.575 1.01-3.2.74-.63 2.45-1.148 3.077-.407.63.73-3.457 4.34-4.086 3.603z"/><circle fill="#CBE9E6" cx="59.721" cy="27.25" r="4.269"/><path fill="#DFF1EF" d="M56.372 27.775c-.682-.798.293-2.778 1.092-3.458.8-.68 2.645-1.236 3.32-.44.68.798-3.732 4.696-4.412 3.898z"/><path fill="#E84849" d="M57.282 72.793c0 1.607-.496 2.91-1.115 2.91h-9.14c-.616 0-1.116-1.303-1.116-2.91 0-1.605.5-2.908 1.12-2.908h9.14c.62 0 1.115 1.303 1.115 2.908z"/><path fill="#fff" d="M48.423 55.203c-.307 0-.56-.222-.576-.505-.014-.293.232-.54.55-.552.423-.02 4.14-.18 4.43-.18.32 0 .577.237.577.53 0 .292-.258.53-.576.53-.2 0-2.73.103-4.377.173h-.024zm0 3.174c-.307 0-.56-.22-.576-.503-.014-.294.232-.54.55-.554.423-.02 4.14-.18 4.43-.18.32 0 .577.237.577.53 0 .294-.258.53-.576.53-.2 0-2.73.103-4.377.174-.01.003-.014.003-.024.003zm0 3.175c-.307 0-.56-.222-.576-.506-.014-.29.232-.538.55-.552.423-.018 4.14-.178 4.43-.178.32 0 .577.236.577.53s-.258.528-.576.528c-.2 0-2.73.105-4.377.177-.01.005-.014.005-.024.005zm0 3.173c-.307 0-.56-.22-.576-.504-.014-.29.232-.535.55-.55.423-.02 4.14-.176 4.43-.176.32 0 .577.237.577.53s-.258.528-.576.528c-.2 0-2.73.106-4.377.177h-.024zm0 3.175c-.307 0-.56-.224-.576-.505-.014-.293.232-.54.55-.553.423-.02 4.14-.178 4.43-.178.32 0 .577.236.577.527 0 .297-.258.535-.576.535-.2 0-2.73.105-4.377.174-.01.002-.014.002-.024.002z"/><path fill="#039A88" d="M107.028 63.38c5.008-5.873 6.654-11.06 4.496-14.325-2.02-3.06-7.162-3.682-13.9-1.786l-.008-.02-.018.002c-2.154-6.76-5.46-10.612-9.156-10.612-3.963 0-7.408 4.324-9.54 11.894-2.32-.49-4.48-.754-6.405-.754-4.336 0-7.29 1.267-8.55 3.664-1.82 3.46.333 8.453 5.892 13.79l-.016.013.014.013c-4.996 5.868-6.637 11.05-4.48 14.312 1.25 1.89 3.652 2.89 6.95 2.89h.003c2.04 0 4.39-.392 6.96-1.12 2.158 6.775 5.467 10.643 9.17 10.643 3.96 0 7.406-4.324 9.54-11.895 2.322.492 4.48.756 6.404.756 4.334 0 7.29-1.266 8.55-3.662 1.82-3.465-.337-8.464-5.908-13.805zM96.384 77.46c-1.566-.413-3.172-.915-4.81-1.522 1.093-.64 2.175-1.297 3.233-1.994.85-.564 1.686-1.148 2.506-1.744-.226 1.833-.542 3.587-.93 5.26zm-15.612 1.114c-.484-1.875-.873-3.877-1.15-6.002 1.13.682 2.28 1.344 3.45 1.96 1.116.587 2.26 1.134 3.415 1.66-1.95.954-3.86 1.744-5.715 2.382zm-5.71-11.743c-.202-.152-.395-.312-.595-.47-.424-.337-.838-.676-1.236-1.017-.094-.082-.19-.165-.283-.25.1-.1.193-.204.293-.31.39-.405.796-.81 1.212-1.215.2-.194.397-.39.603-.582.555-.52 1.13-1.038 1.723-1.552l.19-.17v.113c-.044.977-.067 1.958-.067 2.938 0 1.207.04 2.41.106 3.61.006.12.004.236.01.356-.014-.01-.025-.02-.04-.03-.658-.462-1.292-.936-1.91-1.413zM85.31 52.69c-1.094.638-2.178 1.297-3.234 1.994-.846.56-1.682 1.146-2.506 1.744.23-1.834.545-3.588.93-5.26 1.565.41 3.17.913 4.81 1.522zm5.193-.308c.88-.43 1.75-.822 2.61-1.188.233-.1.464-.184.694-.278.64-.26 1.27-.502 1.896-.725.137-.05.27-.09.408-.14l.11.41c.157.638.302 1.293.437 1.96.05.24.102.475.148.72.17.907.318 1.838.445 2.795l.01.104c-.1-.06-.2-.11-.3-.17-1.032-.615-2.08-1.213-3.15-1.776-1.026-.538-2.07-1.044-3.126-1.53-.092-.043-.182-.093-.273-.135.034-.016.064-.034.095-.048zm7.29 11.932c0 1.64-.06 3.297-.183 4.93-1.285.997-2.633 1.962-4.012 2.874-1.502.992-3.057 1.93-4.625 2.79-1.65-.7-3.29-1.478-4.883-2.313-1.623-.852-3.223-1.78-4.76-2.762-.045-.544-.08-1.092-.113-1.64-.02-.325-.047-.647-.063-.974-.043-.968-.066-1.94-.066-2.907 0-.868.02-1.737.053-2.603.016-.29.037-.57.05-.856.028-.494.058-.987.09-1.477 1.296-1 2.64-1.964 4.007-2.866 1.5-.99 3.05-1.924 4.613-2.782.524.222 1.05.455 1.57.694.255.116.513.226.767.346.86.405 1.715.826 2.557 1.268.86.453 1.71.928 2.55 1.417.26.153.515.315.772.47.488.296.973.593 1.45.897.152 1.81.23 3.656.23 5.496zm2.063-3.974c1.47 1.037 2.828 2.106 4.082 3.195-1.22 1.293-2.557 2.576-4.025 3.833.045-1.018.072-2.04.072-3.055 0-1.326-.052-2.653-.13-3.972zm9.84-10.074c1.53 2.313-.107 6.72-4.28 11.637-1.726-1.5-3.66-2.96-5.77-4.355v-.002c-.062-.606-.136-1.2-.212-1.79-.016-.105-.023-.213-.04-.317-.106-.788-.23-1.555-.364-2.31-.04-.23-.088-.45-.13-.674-.103-.524-.206-1.042-.32-1.55-.06-.268-.124-.527-.19-.79-.06-.245-.112-.5-.175-.742 2.36-.665 4.54-1.015 6.354-1.015 1.762 0 4.082.33 5.123 1.904zm-21.254-11.43c2.605 0 5.273 3.454 7.072 9.087-.25.087-.506.19-.76.28-.242.087-.484.174-.73.267-.51.194-1.023.4-1.54.618-.2.083-.396.16-.595.246-.725.312-1.45.642-2.18.994-.064.03-.13.066-.195.1-.574.278-1.15.566-1.73.87h-.003c-2.303-.93-4.566-1.69-6.752-2.264 1.8-6.32 4.598-10.196 7.41-10.196zm-22.556 13.63c.844-1.607 3.19-2.49 6.61-2.49 1.753 0 3.72.226 5.86.674-.55 2.38-.947 4.93-1.19 7.6v.004c-.462.368-.907.74-1.347 1.114l-.238.19c-.57.49-1.123.983-1.66 1.48-.172.156-.332.315-.498.473-.373.35-.736.7-1.092 1.06-.176.176-.348.353-.518.53-.168.173-.346.344-.508.52-4.643-4.477-6.713-8.7-5.424-11.154zm6.427 27.804c-1.766 0-4.086-.33-5.127-1.906-1.53-2.313.11-6.72 4.28-11.638.155.137.325.27.485.408l.506.42c.373.31.76.615 1.152.918.146.117.29.232.44.347.546.413 1.106.825 1.683 1.23.063.047.13.09.193.135.433.3.866.602 1.314.896v.005h.002c.296 2.918.776 5.658 1.43 8.168-2.36.666-4.54 1.016-6.354 1.016zm16.13 9.523c-2.606 0-5.276-3.454-7.075-9.087 2.496-.854 5.088-1.984 7.725-3.373h.004c2.303.93 4.566 1.69 6.752 2.266-1.8 6.315-4.598 10.192-7.41 10.192zm22.554-13.628c-.844 1.605-3.193 2.49-6.61 2.49-1.753 0-3.72-.227-5.86-.674.55-2.38.947-4.925 1.19-7.6v-.003c2.177-1.74 4.14-3.538 5.856-5.36 4.643 4.474 6.713 8.695 5.424 11.15z"/><circle fill="#00B39A" cx="93.63" cy="41.729" r="3.18"/><circle fill="#00B39A" cx="71.442" cy="80.901" r="3.179"/><circle fill="#00B39A" cx="99.108" cy="69.67" r="3.18"/></svg>