<svg xmlns="http://www.w3.org/2000/svg" width="136.914" height="136.914" viewBox="0 0 136.914 136.914"><circle cx="68.456" cy="68.456" r="63.333" fill="#edc92c" transform="matrix(-1 0 0 -1 136.912 136.912)"/><path d="M68.455 131.79c34.98 0 63.334-28.355 63.334-63.334 0-29.07-19.6-53.55-46.3-60.995-9.82 3.11-18.34 8.8-18.16 20.86.12 8.35.33 30.78.33 31.01l-2 .02c0-.22-.21-22.65-.338-30.99-.178-12 7.52-18.22 16.695-21.75-4.373-.96-8.913-1.48-13.578-1.48-34.968 0-63.32 28.35-63.32 63.33s28.355 63.332 63.332 63.332z" fill="#e84849"/><path d="M65.34 28.344c.127 8.342.332 30.77.334 30.994l2-.018c-.002-.227-.21-22.658-.334-31.006-.18-12.063 8.344-17.752 18.158-20.854-1.143-.318-2.295-.61-3.463-.863-9.176 3.53-16.873 9.75-16.695 21.747z" fill="#357180"/><path d="M91.34 62.33c0 22.09-3.5 50-24.332 50-20.834 0-24.334-27.91-24.334-50 0-22.093 10.895-19 24.334-19 13.437 0 24.332-3.093 24.332 19z" fill="#a2d4de"/><path d="M91.34 63.33H42.674c0-22.093 10.895-29 24.334-29 13.437 0 24.332 6.907 24.332 29z" fill="#67b8cb"/><path fill="#357180" d="M67.342 39.245h-.668V34.33h.668zm3.666 12.375c0 7.663-.5 13.875-3.917 13.875-4.24 0-3.91-6.212-3.91-13.875 0-7.662-.08-12.875 3.92-12.875 3.59 0 3.92 5.21 3.92 12.875z"/><path d="M69.84 51.87c0 3.093-.248 5.6-2.75 5.6-2.916 0-2.75-2.507-2.75-5.6 0-3.092-.166-5.598 2.75-5.598 2.668 0 2.75 2.506 2.75 5.598z" fill="#1a3940"/></svg>