<svg xmlns="http://www.w3.org/2000/svg" width="136.914" height="136.914" viewBox="0 0 136.914 136.914"><circle fill="#344E5D" cx="68.457" cy="68.457" r="63.333"/><path fill="#D35959" d="M69.437 28.656c-22.37 0-40.504 18.135-40.504 40.504s18.134 40.504 40.504 40.504c22.37 0 40.504-18.135 40.504-40.504s-18.13-40.504-40.5-40.504zm0 75.008c-19.057 0-34.504-15.448-34.504-34.504S50.38 34.656 69.437 34.656c19.056 0 34.504 15.448 34.504 34.504s-15.44 34.504-34.5 34.504zm0-63.508c-16.02 0-29.004 12.986-29.004 29.004s12.985 29.004 29.004 29.004S98.44 85.178 98.44 69.16 85.457 40.156 69.438 40.156zm0 53.71c-13.646 0-24.708-11.06-24.708-24.706s11.06-24.707 24.7-24.707S94.14 55.515 94.14 69.16 83.08 93.867 69.432 93.867z"/><path fill="#CD4F4F" d="M69.437 50.156c-10.496 0-19.004 8.51-19.004 19.004s8.508 19.004 19.004 19.004c10.495 0 19.004-8.51 19.004-19.004s-8.5-19.004-19-19.004zm0 34.193c-8.39 0-15.19-6.8-15.19-15.19s6.803-15.19 15.19-15.19 15.188 6.8 15.188 15.18-6.8 15.19-15.188 15.19z"/><path fill="#C54342" d="M69.437 75.523c-3.515 0-6.363-2.85-6.363-6.363s2.85-6.363 6.363-6.363c3.514 0 6.362 2.85 6.362 6.363s-2.85 6.363-6.37 6.363z"/><path fill="#C93435" d="M89.483 50.31l9.982 2.302 16.51-16.51-9.982-2.303z"/><path fill="#E79E2D" d="M108.712 35.227l-1-3.832-3.832-1L66.982 67.29v4.833h4.833z"/><path fill="#F2BE3E" d="M107.71 31.395l-3.83-1L66.982 67.29v4.833z"/><path fill="#F9CA62" d="M108.708 35.354l-4.014-.966-.944-3.99 4.013.966z"/><path fill="#C93435" d="M76.984 47.475l9.98 2.303 16.51-16.51-9.98-2.303z"/></svg>