<?xml version="1.0" encoding="UTF-8" standalone="no"?>
<!-- Generator: Adobe Illustrator 16.0.0, SVG Export Plug-In . SVG Version: 6.00 Build 0)  -->

<svg
   xmlns:dc="http://purl.org/dc/elements/1.1/"
   xmlns:cc="http://creativecommons.org/ns#"
   xmlns:rdf="http://www.w3.org/1999/02/22-rdf-syntax-ns#"
   xmlns:svg="http://www.w3.org/2000/svg"
   xmlns="http://www.w3.org/2000/svg"
   xmlns:sodipodi="http://sodipodi.sourceforge.net/DTD/sodipodi-0.dtd"
   xmlns:inkscape="http://www.inkscape.org/namespaces/inkscape"
   version="1.1"
   id="Layer_1"
   x="0px"
   y="0px"
   width="136.914px"
   height="136.914px"
   viewBox="0 0 136.914 136.914"
   enable-background="new 0 0 136.914 136.914"
   xml:space="preserve"
   inkscape:version="0.48.4 r9939"
   sodipodi:docname="BytewiseDoesDesktop.svg"><metadata
     id="metadata35"><rdf:RDF><cc:Work
         rdf:about=""><dc:format>image/svg+xml</dc:format><dc:type
           rdf:resource="http://purl.org/dc/dcmitype/StillImage" /></cc:Work></rdf:RDF></metadata><defs
     id="defs33" /><sodipodi:namedview
     pagecolor="#ffffff"
     bordercolor="#666666"
     borderopacity="1"
     objecttolerance="10"
     gridtolerance="10"
     guidetolerance="10"
     inkscape:pageopacity="0"
     inkscape:pageshadow="2"
     inkscape:window-width="640"
     inkscape:window-height="480"
     id="namedview31"
     showgrid="false"
     inkscape:zoom="1.7237098"
     inkscape:cx="68.457001"
     inkscape:cy="68.457001"
     inkscape:window-x="65"
     inkscape:window-y="24"
     inkscape:window-maximized="0"
     inkscape:current-layer="Layer_1" /><g
     id="g3"
     transform="matrix(-1,0,0,-1,136.912,136.912)"><g
       id="g5"><g
         id="g7"><circle
           cx="68.456001"
           cy="68.456001"
           r="63.333"
           id="circle9"
           sodipodi:cx="68.456001"
           sodipodi:cy="68.456001"
           sodipodi:rx="63.333"
           sodipodi:ry="63.333"
           style="fill:#edc92c"
           d="m 131.789,68.456001 c 0,34.977849 -28.35515,63.332999 -63.332999,63.332999 -34.97785,0 -63.3329999,-28.35515 -63.3329999,-63.332999 0,-34.97785 28.3551499,-63.3329999 63.3329999,-63.3329999 34.977849,0 63.332999,28.3551499 63.332999,63.3329999 z" /></g></g><g
       id="g11"><g
         id="g13"><g
           id="g15"><path
             d="m 68.457,5.123 c -34.979,0 -63.334,28.354 -63.334,63.333 0,29.071 19.594,53.549 46.291,60.995 9.814,-3.102 18.337,-8.791 18.158,-20.854 -0.125,-8.35 -0.332,-30.779 -0.334,-31.006 l 2,-0.02 c 0.002,0.227 0.207,22.652 0.334,30.994 0.178,11.996 -7.52,18.217 -16.695,21.746 4.377,0.957 8.916,1.477 13.58,1.477 34.977,0 63.332,-28.354 63.332,-63.333 0,-34.978 -28.355,-63.332 -63.332,-63.332 z"
             id="path17"
             inkscape:connector-curvature="0"
             style="fill:#e84849" /><path
             d="M 71.572,108.568 C 71.445,100.226 71.24,77.798 71.238,77.574 l -2,0.018 c 0.002,0.227 0.209,22.658 0.334,31.006 0.18,12.063 -8.344,17.752 -18.158,20.854 1.143,0.318 2.295,0.609 3.463,0.863 9.176,-3.53 16.873,-9.751 16.695,-21.747 z"
             id="path19"
             inkscape:connector-curvature="0"
             style="fill:#357180" /></g><path
           d="m 45.572,74.583 c 0,-22.092 3.5,-50.002 24.332,-50.002 20.834,0 24.334,27.91 24.334,50.002 0,22.092 -10.895,19 -24.334,19 -13.437,0 -24.332,3.092 -24.332,-19 z"
           id="path21"
           inkscape:connector-curvature="0"
           style="fill:#a2d4de" /><path
           d="m 45.572,73.583 h 48.666 c 0,22.092 -10.895,29 -24.334,29 -13.437,0 -24.332,-6.908 -24.332,-29 z"
           id="path23"
           inkscape:connector-curvature="0"
           style="fill:#67b8cb" /><rect
           x="69.57"
           y="97.667"
           width="0.66799998"
           height="4.9159999"
           id="rect25"
           style="fill:#357180" /><path
           d="m 65.904,85.292 c 0,-7.663 0.5,-13.875 3.917,-13.875 4.248,0 3.916,6.212 3.916,13.875 0,7.662 0.082,12.875 -3.916,12.875 -3.583,0 -3.917,-5.211 -3.917,-12.875 z"
           id="path27"
           inkscape:connector-curvature="0"
           style="fill:#357180" /><path
           d="m 67.072,85.042 c 0,-3.093 0.248,-5.599 2.75,-5.599 2.916,0 2.75,2.506 2.75,5.599 0,3.092 0.166,5.598 -2.75,5.598 -2.668,0 -2.75,-2.506 -2.75,-5.598 z"
           id="path29"
           inkscape:connector-curvature="0"
           style="fill:#1a3940" /></g></g></g></svg>