<svg xmlns="http://www.w3.org/2000/svg" width="136.913" height="136.914" viewBox="0 0 136.913 136.914"><circle fill="#EDBF00" cx="68.456" cy="68.458" r="63.333"/><path fill="#F3F4F5" d="M93.348 106.704c0 5.815-2.084 7.897-7.898 7.897H53.857c-5.816 0-7.898-2.08-7.898-7.89V32.99c0-5.816 2.08-7.898 7.89-7.898h31.6c5.81 0 7.89 2.082 7.89 7.897v73.71z"/><linearGradient id="a" gradientUnits="userSpaceOnUse" x1="69.543" y1="33.648" x2="69.543" y2="105.168"><stop offset="0" stop-color="#5978BA"/><stop offset=".703" stop-color="#4E9DB8"/><stop offset="1" stop-color="#379CC9"/></linearGradient><path fill="url(#a)" d="M48.152 33.647h42.78v71.52h-42.78z"/><path fill="#6CC077" d="M53.074 63.195h33.264c.816 0 1.475-.66 1.475-1.474v-5.34l-2.753-2.76s-1.566-2.01-3.02-1.93c-1.31.08-2.836 1.72-3.13 2.04l-1.83-1.83s-1.833-2.36-3.538-2.27c-1.705.1-3.74 2.48-3.74 2.48l-.557.56-3.447-3.44s-2.255-2.9-4.35-2.78c-2.093.12-4.597 3.034-4.597 3.034l-5.25 5.25v7.017c0 .814.67 1.474 1.48 1.474z"/><path fill="#DBF0F5" d="M61.45 46.416c2.095-.118 4.35 2.786 4.35 2.786l3.446 3.448.557-.558s2.035-2.374 3.74-2.472c1.705-.095 3.537 2.27 3.537 2.27l1.832 1.83c.293-.323 1.818-1.96 3.13-2.036 1.452-.082 3.017 1.935 3.017 1.935l2.75 2.75V42.5c0-.815-.66-1.477-1.48-1.477H53.07c-.814 0-1.477.664-1.477 1.48V54.71l5.256-5.256s2.5-2.915 4.59-3.033z"/><path fill="#B8B9BA" d="M74.385 28.09c0 .332-.39.6-.87.6h-7.72c-.482 0-.873-.268-.873-.6 0-.33.39-.6.873-.6h7.72c.48 0 .87.27.87.6z"/><g fill="#fff"><circle cx="69.64" cy="88.575" r="1.206"/><circle cx="74.027" cy="88.575" r=".768"/><circle cx="77.537" cy="88.575" r=".768"/><circle cx="61.741" cy="88.575" r=".769"/><circle cx="65.252" cy="88.575" r=".768"/></g><path opacity=".5" fill="#202121" d="M48.152 33.647h42.762v3.585H48.152z"/><circle fill="#fff" cx="84.517" cy="35.33" r=".913"/><circle fill="#fff" cx="50.347" cy="35.33" r=".913"/><circle fill="#fff" cx="88.685" cy="35.33" r=".913"/><path fill="#B5DBAF" d="M58.633 82.005c0 .814-.66 1.474-1.475 1.474h-4.305c-.816 0-1.477-.66-1.477-1.48v-4.3c0-.82.66-1.48 1.477-1.48h4.305c.814 0 1.475.66 1.475 1.47V82z"/><path fill="#F6A2A3" d="M68.396 82.005c0 .814-.662 1.474-1.477 1.474h-4.31c-.82 0-1.48-.66-1.48-1.48v-4.3c0-.82.66-1.48 1.47-1.48h4.3c.81 0 1.47.66 1.47 1.47V82z"/><path fill="#67B8CB" d="M78.158 82.005c0 .814-.662 1.474-1.475 1.474h-4.305c-.814 0-1.48-.66-1.48-1.48v-4.3c0-.82.665-1.48 1.48-1.48h4.305c.813 0 1.475.66 1.475 1.47V82z"/><path fill="#F5E554" d="M87.92 82.005c0 .814-.66 1.474-1.475 1.474H82.14c-.816 0-1.475-.66-1.475-1.48v-4.3c0-.82.658-1.48 1.475-1.48h4.305c.814 0 1.475.66 1.475 1.47V82z"/><path fill="none" stroke="#67B8CB" stroke-width=".5" stroke-miterlimit="10" d="M87.81 69.72c0 .813-.657 1.473-1.474 1.473H53.072c-.814 0-1.477-.66-1.477-1.473v-1.674c0-.815.662-1.476 1.477-1.476h33.264c.816 0 1.475.66 1.475 1.476v1.674z"/><g fill="#DBF0F5"><circle cx="84.373" cy="68.42" r="1.096"/><path d="M86.355 70.415c-.086.085-.25.06-.365-.056l-1.232-1.24c-.115-.12-.14-.28-.055-.37l.11-.11c.085-.09.25-.06.364.05l1.232 1.23c.11.11.14.28.05.36l-.11.11z"/></g><path fill="#67B8CB" d="M56.957 98.483c0 .662-.537 1.2-1.2 1.2H52.25c-.664 0-1.203-.538-1.203-1.2v-3.508c0-.663.54-1.2 1.203-1.2h3.506c.664 0 1.2.537 1.2 1.2v3.508z"/><path fill="#F5E554" d="M64.91 98.483c0 .662-.54 1.2-1.203 1.2H60.2c-.663 0-1.2-.538-1.2-1.2v-3.508c0-.663.537-1.2 1.2-1.2h3.507c.662 0 1.203.537 1.203 1.2v3.508z"/><path fill="#B5DBAF" d="M72.86 98.483c0 .662-.54 1.2-1.202 1.2h-3.506c-.664 0-1.203-.538-1.203-1.2v-3.508c0-.663.53-1.2 1.2-1.2h3.5c.66 0 1.2.537 1.2 1.2v3.508z"/><path fill="#D3D4E3" d="M80.81 98.483c0 .662-.538 1.2-1.2 1.2h-3.506c-.666 0-1.2-.538-1.2-1.2v-3.508c0-.663.534-1.2 1.2-1.2h3.506c.662 0 1.2.537 1.2 1.2v3.508z"/><path fill="#F6A2A3" d="M88.71 98.483c0 .662-.54 1.2-1.202 1.2h-3.506c-.666 0-1.203-.538-1.203-1.2v-3.508c0-.663.53-1.2 1.2-1.2h3.5c.66 0 1.2.537 1.2 1.2v3.508z"/><path fill="none" stroke="#B8B9BA" stroke-width=".5" stroke-miterlimit="10" d="M74.463 110.35c0 .892-.543 1.615-1.213 1.615h-7.117c-.668 0-1.21-.724-1.21-1.615v-1.146c0-.893.542-1.615 1.21-1.615h7.117c.67 0 1.213.72 1.213 1.61v1.14z"/><circle fill="#B8B9BA" cx="75.672" cy="28.133" r=".658"/><circle fill="#B8B9BA" cx="77.428" cy="28.133" r=".658"/><circle fill="#B8B9BA" cx="83.734" cy="28.407" r=".885"/></svg>