<svg xmlns="http://www.w3.org/2000/svg" width="136.914" height="136.914" viewBox="0 0 136.914 136.914"><circle fill="#357180" cx="68.457" cy="68.457" r="63.333"/><path fill="#F3F4F5" d="M102.243 107.376c0 3.525-1.98 5.506-5.508 5.506H40.18c-3.526 0-5.508-1.98-5.508-5.506v-77.84c0-3.525 1.98-5.508 5.507-5.508h56.55c3.52 0 5.5 1.982 5.5 5.508v77.84z"/><circle fill="#717171" cx="68.545" cy="27.832" r=".585"/><linearGradient id="a" gradientUnits="userSpaceOnUse" x1="35.696" y1="101.108" x2="101.219" y2="35.584"><stop offset="0" stop-color="#5C6EB3"/><stop offset=".733" stop-color="#3E4280"/><stop offset="1" stop-color="#3E4280"/></linearGradient><path fill="url(#a)" d="M39.79 31.488h57.333v73.715H39.79z"/><path opacity=".25" fill="#DFF1F5" d="M39.79 95.55h57.333v9.652H39.79z"/><path fill="#6CC077" d="M53.45 46.01c0 .765-.62 1.384-1.383 1.384H48.03c-.765 0-1.383-.62-1.383-1.383v-4.03c0-.76.618-1.38 1.383-1.38h4.037c.764 0 1.383.62 1.383 1.39v4.04z"/><path fill="#F5E554" d="M65.67 46.01c0 .765-.618 1.384-1.383 1.384H60.25c-.763 0-1.383-.62-1.383-1.383v-4.03c0-.76.62-1.38 1.384-1.38h4.04c.77 0 1.39.62 1.39 1.39v4.04z"/><path fill="#B5DBAF" d="M77.892 46.01c0 .765-.62 1.384-1.385 1.384h-4.034c-.765 0-1.384-.62-1.384-1.383v-4.03c0-.76.61-1.38 1.38-1.38h4.03c.76 0 1.38.62 1.38 1.39v4.04z"/><path fill="#F6A2A3" d="M90.112 46.01c0 .765-.62 1.384-1.383 1.384h-4.04c-.77 0-1.39-.62-1.39-1.383v-4.03c0-.76.62-1.38 1.38-1.38h4.03c.763 0 1.382.62 1.382 1.39v4.04z"/><path fill="#6CC077" d="M53.45 102.175c0 .762-.62 1.383-1.383 1.383H48.03c-.765 0-1.383-.62-1.383-1.383v-4.037c0-.764.618-1.383 1.383-1.383h4.037c.764 0 1.383.62 1.383 1.383v4.037z"/><path fill="#F5E554" d="M65.67 102.175c0 .762-.618 1.383-1.383 1.383H60.25c-.763 0-1.383-.62-1.383-1.383v-4.037c0-.764.62-1.383 1.384-1.383h4.04c.77 0 1.39.62 1.39 1.383v4.037z"/><path fill="#B5DBAF" d="M77.892 102.175c0 .762-.62 1.383-1.385 1.383h-4.034c-.765 0-1.384-.62-1.384-1.383v-4.037c0-.764.61-1.383 1.38-1.383h4.03c.76 0 1.38.62 1.38 1.383v4.037z"/><path fill="#F6A2A3" d="M90.112 102.175c0 .762-.62 1.383-1.383 1.383h-4.04c-.77 0-1.39-.62-1.39-1.383v-4.037c0-.764.62-1.383 1.38-1.383h4.03c.763 0 1.382.62 1.382 1.383v4.037z"/><path fill="#B5DBAF" d="M53.45 58.298c0 .764-.62 1.383-1.383 1.383H48.03c-.765 0-1.383-.61-1.383-1.38v-4.04c0-.76.618-1.38 1.383-1.38h4.037c.764 0 1.383.62 1.383 1.39v4.04z"/><path fill="#F6A2A3" d="M65.67 58.298c0 .764-.618 1.383-1.383 1.383H60.25c-.763 0-1.383-.61-1.383-1.38v-4.04c0-.76.62-1.38 1.384-1.38h4.04c.77 0 1.39.62 1.39 1.39v4.04z"/><path fill="#67B8CB" d="M77.892 58.298c0 .764-.62 1.383-1.385 1.383h-4.034c-.765 0-1.384-.61-1.384-1.38v-4.04c0-.76.61-1.38 1.38-1.38h4.03c.76 0 1.38.62 1.38 1.39v4.04z"/><path fill="#F5E554" d="M90.112 58.298c0 .764-.62 1.383-1.383 1.383h-4.04c-.77 0-1.39-.61-1.39-1.38v-4.04c0-.76.62-1.38 1.38-1.38h4.03c.763 0 1.382.62 1.382 1.39v4.04z"/><path fill="#67B8CB" d="M53.45 70.583c0 .762-.62 1.383-1.383 1.383H48.03c-.765 0-1.383-.62-1.383-1.383v-4.037c0-.764.618-1.383 1.383-1.383h4.037c.764 0 1.383.62 1.383 1.383v4.037z"/><path fill="#F5E554" d="M65.67 70.583c0 .762-.618 1.383-1.383 1.383H60.25c-.763 0-1.383-.62-1.383-1.383v-4.037c0-.764.62-1.383 1.384-1.383h4.04c.77 0 1.39.62 1.39 1.383v4.037z"/><path fill="#6CC077" d="M77.892 70.583c0 .762-.62 1.383-1.385 1.383h-4.034c-.765 0-1.384-.62-1.384-1.383v-4.037c0-.764.61-1.383 1.38-1.383h4.03c.76 0 1.38.62 1.38 1.383v4.037z"/><path fill="#B5DBAF" d="M90.112 70.583c0 .762-.62 1.383-1.383 1.383h-4.04c-.77 0-1.39-.62-1.39-1.383v-4.037c0-.764.62-1.383 1.38-1.383h4.03c.763 0 1.382.62 1.382 1.383v4.037z"/><path fill="#F6A2A3" d="M53.45 82.87c0 .763-.62 1.382-1.383 1.382H48.03c-.765 0-1.383-.62-1.383-1.383v-4.04c0-.77.618-1.39 1.383-1.39h4.037c.764 0 1.383.62 1.383 1.38v4.03z"/><path fill="#B5DBAF" d="M65.67 82.87c0 .763-.618 1.382-1.383 1.382H60.25c-.763 0-1.383-.62-1.383-1.383v-4.04c0-.77.62-1.39 1.384-1.39h4.04c.77 0 1.39.62 1.39 1.38v4.03z"/><path fill="#F5E554" d="M77.892 82.87c0 .763-.62 1.382-1.385 1.382h-4.034c-.765 0-1.384-.62-1.384-1.383v-4.04c0-.77.61-1.39 1.38-1.39h4.03c.76 0 1.38.62 1.38 1.38v4.03z"/><path fill="#67B8CB" d="M90.112 82.87c0 .763-.62 1.382-1.383 1.382h-4.04c-.77 0-1.39-.62-1.39-1.383v-4.04c0-.77.62-1.39 1.38-1.39h4.03c.763 0 1.382.62 1.382 1.38v4.03z"/><path opacity=".5" fill="#202121" d="M39.84 31.59h57.097v3.585H39.84z"/><circle fill="#fff" cx="90.835" cy="33.273" r=".914"/><circle fill="#fff" cx="42.035" cy="33.273" r=".914"/><circle fill="#fff" cx="95.003" cy="33.273" r=".914"/><circle fill="#E4E4E4" cx="68.545" cy="109.109" r="2.047"/><path fill="none" stroke="#B8B9BA" stroke-width=".5" stroke-miterlimit="10" d="M69.198 109.41c0 .193-.158.352-.352.352h-.604c-.193 0-.35-.158-.35-.352v-.602c0-.195.156-.354.35-.354h.604c.193 0 .352.158.352.354v.602z"/></svg>